<?xml version="1.0" encoding="utf-8"?><svg xmlns="http://www.w3.org/2000/svg" xmlns:xlink="http://www.w3.org/1999/xlink"><symbol viewBox="0 0 120 24" id="Blanco" xmlns="http://www.w3.org/2000/svg"><path d="M1.45 7.09l1.84.51v9.28l-1.84.51.05.61h4.83C8.92 18 11 16.72 11 14.71c0-1.55-1.26-2.52-3.53-2.79 2-.38 3-1.53 3-2.92 0-1.6-1.44-2.52-3.92-2.52H1.5zm4.81.24c1.62 0 2.62.68 2.62 2s-1 2.27-2.73 2.27H4.73V7.33zm0 5c1.85 0 3.07.84 3.07 2.44s-1.13 2.37-3.07 2.37H4.73v-4.77zM16.45 17.44l-1.51-.39V5.63l-.18-.09a8 8 0 0 0-2.41 1v.27l.7.31c.38.16.47.3.47.75v9.2l-1.22.42.09.5h4zM24.94 17.28l-.12-.28-1.37.18a7.43 7.43 0 0 1-.07-1.28v-4a1.94 1.94 0 0 0-2.07-2.23 4.14 4.14 0 0 0-2.54 1 1.92 1.92 0 0 0-.88 1.55 2.21 2.21 0 0 0 .09.59l1.15-.07a6.6 6.6 0 0 1 .22-1.8 5.92 5.92 0 0 1 1.13-.15c1.19 0 1.55.6 1.53 1.77v1.13l-2 .45c-1.67.4-2.59 1.21-2.59 2.41a1.73 1.73 0 0 0 1.84 1.82A3.49 3.49 0 0 0 22 16.65h.07c0 1 .38 1.58 1.12 1.58a2.62 2.62 0 0 0 1.75-.95zM19 16c0-.68.41-1.1 1.33-1.39l1.67-.5v1.95a2.92 2.92 0 0 1-1.93 1.08A1 1 0 0 1 19 16zM29.8 17.44l-1.51-.39v-5.44a4.22 4.22 0 0 1 2.3-.76 1.41 1.41 0 0 1 1.62 1.57v4.66L31 17.5l.09.5h4l.09-.56-1.51-.39V12a2.12 2.12 0 0 0-2.21-2.39 4.76 4.76 0 0 0-3.24 1.54h-.11l.27-1.46-.18-.09a7.45 7.45 0 0 0-2.47 1v.27l.71.3c.37.17.46.31.46.76v5.2l-1.22.42.09.5h4zM42.84 16.18l-.38-.38A3.07 3.07 0 0 1 40.1 17c-1.62 0-2.68-1.38-2.68-3.33s1-3.15 2.43-3.15a2.62 2.62 0 0 1 1.3.35l.39 1.35h.92a4.86 4.86 0 0 0 .14-2.13 5.85 5.85 0 0 0-2.32-.48C37.55 9.58 36 11.7 36 14.15c0 2.64 1.67 4.1 3.65 4.1a3.4 3.4 0 0 0 3.19-2.07zM47.93 18.25a4.3 4.3 0 0 0 4.13-4.59 3.76 3.76 0 0 0-3.78-4.08 4.19 4.19 0 0 0-4.11 4.5c0 2.46 1.57 4.17 3.76 4.17zm-2.21-4.57c0-2 .92-3.19 2.3-3.19 1.59 0 2.49 1.5 2.49 3.6s-1 3.24-2.27 3.24c-1.53 0-2.52-1.58-2.52-3.65z"/></symbol><symbol viewBox="0 0 120 24" id="Graphik" xmlns="http://www.w3.org/2000/svg"><path d="M7.42 18.14c2.92 0 5-1.76 5-5.07v-.85H7.67v1.16H11c0 2-1.12 3.64-3.6 3.64-2.69 0-4.1-1.85-4.1-4.68v-.13c0-2.8 1.5-4.72 4.13-4.72A2.9 2.9 0 0 1 10.68 10h1.39c-.35-2.58-2.38-3.64-4.65-3.64a5.49 5.49 0 0 0-5.54 5.84v.13c0 3.37 2.02 5.81 5.54 5.81zM14.61 18h1.33v-4.59c0-2.07 1.07-2.59 2.75-2.67V9.49a2.92 2.92 0 0 0-2.75 1.65V9.63h-1.33zM22.77 17.09c-1.17 0-1.58-.55-1.58-1.41 0-1.23 1.23-1.65 2.91-1.65h1.15v1c0 1.34-1.07 2.06-2.48 2.06zm-.13 1.05a3 3 0 0 0 2.61-1.2V18h1.33v-5.52c0-2.34-1.46-3-3.06-3s-3.13.7-3.31 2.61h1.33c.13-1 .77-1.51 1.92-1.51s1.79.56 1.79 1.89v.61h-1.2c-2.14 0-4.19.65-4.19 2.59 0 1.72 1.23 2.47 2.78 2.47zM33.22 17c-1.63 0-2.75-1-2.75-3.15v-.13c0-2.14 1.18-3.17 2.73-3.17s2.58 1.06 2.58 3.17v.13c0 2.07-.9 3.15-2.56 3.15zm-4 3.87h1.33v-4.25a3.15 3.15 0 0 0 2.83 1.52c2.3 0 3.81-1.76 3.81-4.32v-.12c0-2.61-1.62-4.21-3.81-4.21A3.42 3.42 0 0 0 30.52 11V9.63h-1.33zM39.22 18h1.33v-5.07a2.2 2.2 0 0 1 2.33-2.29c1.35 0 2 .66 2 2.13V18h1.33v-5.14c0-2.43-1.22-3.37-2.94-3.37A2.87 2.87 0 0 0 40.55 11V5.63h-1.33zM49.45 7.89a.88.88 0 1 0-.88-.89.89.89 0 0 0 .88.89zM48.81 18h1.33V9.63h-1.33zM52.86 18h1.33v-4.34L57.9 18h1.62l-3.89-4.48 3.58-3.89h-1.55l-3.47 3.86V5.63h-1.33z"/></symbol><symbol viewBox="0 0 120 24" id="Ideal_Sans" xmlns="http://www.w3.org/2000/svg"><path d="M3 18V8.77 6.34a14.32 14.32 0 0 1-1.66.08c.08.78.11 2.91.11 4V14c0 1.07 0 3.19-.11 4zM9.89 10.94a2.62 2.62 0 0 1 1.92.77v4A2.46 2.46 0 0 1 9.65 17c-1.36 0-2.51-1-2.51-2.93a2.83 2.83 0 0 1 2.75-3.13zm0-1.32a4.35 4.35 0 0 0-4.22 4.64 3.73 3.73 0 0 0 3.74 4 3.33 3.33 0 0 0 2.54-1.23l.13.93h1.39c-.08-.78-.11-1.82-.11-2.83v-8c0-.64 0-1.55.07-2a16.11 16.11 0 0 1-1.7.21c.08.79.1 1.86.1 3v1.88a3.37 3.37 0 0 0-1.97-.6zM23.15 13.62c0-2.21-1-4-3.37-4s-4.11 2-4.11 4.56a3.82 3.82 0 0 0 4 4.12 5.32 5.32 0 0 0 3-1l.07-1.55a4.59 4.59 0 0 1-3 1.2 2.45 2.45 0 0 1-2.66-2.63l5-.14zm-5.93-.4a2.51 2.51 0 0 1 2.46-2.32c1.28 0 1.89.76 2.07 2.19zM27.64 17c-1 0-1.41-.54-1.41-1.24 0-.92.69-1.67 2.75-1.67a7.83 7.83 0 0 1 .82.05l-.05.78A2.08 2.08 0 0 1 27.64 17zm2.27-.25a1.37 1.37 0 0 0 1.34 1.44 2.41 2.41 0 0 0 1-.26l.15-1.05a2.22 2.22 0 0 1-.71.14c-.4 0-.56-.21-.52-.75l.09-3.52a2.75 2.75 0 0 0-3-3.15 5.51 5.51 0 0 0-2.86.8l.35 1.31a4.09 4.09 0 0 1 2.3-.71c1.27 0 1.81.62 1.78 1.92v.29h-.8c-2.85 0-4.26 1.1-4.26 2.72a2.32 2.32 0 0 0 2.55 2.38 2.92 2.92 0 0 0 2.59-1.54zM35.91 18a12.8 12.8 0 0 1-.08-1.73V7.15c0-.64 0-1.55.08-2a16.45 16.45 0 0 1-1.7.21c.08.79.11 1.86.11 3v6.73c0 1.06 0 2.16-.11 2.93zM49.22 14.78c0-3.29-5.07-3.32-5.07-5.52A1.82 1.82 0 0 1 46.2 7.5a4 4 0 0 1 2.24.82l.5-1.32a4.68 4.68 0 0 0-2.69-.85 3.4 3.4 0 0 0-3.62 3.33c0 3 5.07 3.2 5.07 5.53 0 1.25-.88 1.94-2.2 1.94a5.45 5.45 0 0 1-3.24-1.22l-.09 1.62a6.45 6.45 0 0 0 3.25 1 3.49 3.49 0 0 0 3.8-3.57zM53.86 17c-1 0-1.41-.54-1.41-1.24 0-.92.69-1.67 2.75-1.67a7.83 7.83 0 0 1 .82.05l-.05.78A2.08 2.08 0 0 1 53.86 17zm2.27-.25a1.37 1.37 0 0 0 1.34 1.44 2.45 2.45 0 0 0 1-.26l.15-1.05A2.22 2.22 0 0 1 58 17c-.4 0-.56-.21-.53-.75l.1-3.52a2.76 2.76 0 0 0-3-3.15 5.51 5.51 0 0 0-2.86.8l.29 1.35a4.09 4.09 0 0 1 2.27-.73c1.27 0 1.81.62 1.78 1.92v.29h-.8c-2.85 0-4.26 1.1-4.26 2.72a2.32 2.32 0 0 0 2.55 2.38 2.93 2.93 0 0 0 2.59-1.54zM67.66 18c0-.46-.06-1.2-.06-1.82v-3.65c0-1.86-.9-2.91-2.61-2.91a3.72 3.72 0 0 0-3 1.79l-.11-1.63c-.5 0-.92.08-1.48.08.07.76.1 2 .1 3V15c0 1 0 2.25-.1 3h1.68a16.7 16.7 0 0 1-.08-1.82v-2.95A2.73 2.73 0 0 1 64.59 11c1.09 0 1.49.77 1.49 1.89V15c0 1 0 2.25-.12 3zM73 9.62a2.64 2.64 0 0 0-2.91 2.46c0 2.61 4.2 2.13 4.2 3.79 0 .72-.72 1.11-1.64 1.11A4.71 4.71 0 0 1 70 16l-.08 1.57a5.76 5.76 0 0 0 2.76.7c1.7 0 3.17-1 3.17-2.67 0-2.53-4.24-2.24-4.24-3.63 0-.75.71-1 1.46-1a3.45 3.45 0 0 1 2 .64l.51-1.31A5 5 0 0 0 73 9.62z"/></symbol><symbol viewBox="0 0 120 24" id="Inter" xmlns="http://www.w3.org/2000/svg"><path d="M2.82 6.36H1.41V18h1.41zM6.8 12.75A2.17 2.17 0 0 1 9 10.36a1.94 1.94 0 0 1 2 2.19V18h1.34v-5.55c0-2.22-1.19-3.29-2.95-3.29a2.58 2.58 0 0 0-2.55 1.48h-.08V9.27h-1.3V18H6.8zM18.62 9.27h-1.87V7.18h-1.34v2.09h-1.32v1.14h1.32v5.45a2.23 2.23 0 0 0 2.37 2.25 2.78 2.78 0 0 0 1-.16l-.28-1.2a2.64 2.64 0 0 1-.59.07c-.59 0-1.16-.18-1.16-1.32v-5.09h1.87zM24.29 18.18A3.39 3.39 0 0 0 27.77 16l-1.3-.37A2.14 2.14 0 0 1 24.29 17a2.65 2.65 0 0 1-2.72-2.89h6.34v-.57c0-3.25-1.94-4.36-3.75-4.36-2.37 0-3.94 1.86-3.94 4.54s1.55 4.46 4.07 4.46zm-2.72-5.25a2.61 2.61 0 0 1 2.59-2.57 2.36 2.36 0 0 1 2.38 2.57zM30 18h1.34v-5.52a2.07 2.07 0 0 1 2.2-2.05 1.58 1.58 0 0 1 .77.16l.46-1.14a1.88 1.88 0 0 0-1.11-.31 2.36 2.36 0 0 0-2.28 1.45h-.09V9.27H30z"/></symbol><symbol viewBox="0 0 120 24" id="Plex_Sans" xmlns="http://www.w3.org/2000/svg"><path d="M1.49 18V6.83h4.45a3 3 0 0 1 2.3.87 3.23 3.23 0 0 1 .82 2.3 3.29 3.29 0 0 1-.82 2.35 3 3 0 0 1-2.3.85H2.83V18zm1.34-5.95h3.11a1.7 1.7 0 0 0 1.23-.42 1.53 1.53 0 0 0 .45-1.18v-.83a1.54 1.54 0 0 0-.45-1.19A1.69 1.69 0 0 0 5.94 8H2.83zM12.42 18a1.33 1.33 0 0 1-1-.37 1.41 1.41 0 0 1-.34-1V6.16h1.28v10.72h1.22V18zM18.53 18.19a3.81 3.81 0 0 1-1.54-.3 3.32 3.32 0 0 1-1.17-.89 4.16 4.16 0 0 1-.75-1.36 5.86 5.86 0 0 1-.26-1.79 5.77 5.77 0 0 1 .26-1.77 4 4 0 0 1 .75-1.36A3.23 3.23 0 0 1 17 9.86a3.65 3.65 0 0 1 1.54-.31 3.35 3.35 0 0 1 1.46.31 3.12 3.12 0 0 1 1.12.84 3.67 3.67 0 0 1 .72 1.3 4.9 4.9 0 0 1 .25 1.61v.61h-5.93v.39a2.94 2.94 0 0 0 .16 1 2.56 2.56 0 0 0 .48.78 2.21 2.21 0 0 0 .77.53 2.64 2.64 0 0 0 1 .19A2.45 2.45 0 0 0 20 16.7a2.35 2.35 0 0 0 .91-1l.91.65a3.19 3.19 0 0 1-1.25 1.38 3.8 3.8 0 0 1-2.04.46zm0-7.57a2.26 2.26 0 0 0-1 .2 2 2 0 0 0-.76.51 2.54 2.54 0 0 0-.48.8 2.86 2.86 0 0 0-.17 1v.11h4.56v-.17a2.45 2.45 0 0 0-.61-1.76 2 2 0 0 0-1.54-.69zM23 18l3.06-4.16-2.93-4.1h1.5l2.1 3.08h.05l2.17-3.08h1.43l-2.91 4 3 4.26h-1.5l-2.15-3.23-2.4 3.23zM39.17 18.19a4.88 4.88 0 0 1-2.32-.51 5 5 0 0 1-1.63-1.44l1-.83a4.59 4.59 0 0 0 1.31 1.2 3.53 3.53 0 0 0 1.7.4 2.55 2.55 0 0 0 1.77-.58 1.94 1.94 0 0 0 .64-1.53 1.58 1.58 0 0 0-.48-1.24 3.72 3.72 0 0 0-1.54-.66l-.91-.21a5.51 5.51 0 0 1-2.36-1.06 2.58 2.58 0 0 1-.8-2 3.12 3.12 0 0 1 .28-1.32 2.72 2.72 0 0 1 .75-1 3.55 3.55 0 0 1 1.17-.57 5.13 5.13 0 0 1 1.5-.21 4.65 4.65 0 0 1 2.16.46A4.25 4.25 0 0 1 43 8.46l-1 .74a3.48 3.48 0 0 0-1.12-1 3.36 3.36 0 0 0-1.63-.37 2.79 2.79 0 0 0-1.7.47 1.59 1.59 0 0 0-.61 1.36 1.46 1.46 0 0 0 .51 1.21 4.19 4.19 0 0 0 1.55.63l.91.21a4.76 4.76 0 0 1 2.38 1.12 2.7 2.7 0 0 1 .74 2 3.45 3.45 0 0 1-.27 1.39 2.77 2.77 0 0 1-.76 1.06 3.5 3.5 0 0 1-1.22.67 4.94 4.94 0 0 1-1.61.24zM51.2 18a1.31 1.31 0 0 1-1-.38 2 2 0 0 1-.38-1h-.12a2.14 2.14 0 0 1-.9 1.15 2.81 2.81 0 0 1-1.48.38 2.91 2.91 0 0 1-2-.67 2.38 2.38 0 0 1-.72-1.82 2.1 2.1 0 0 1 .85-1.8 4.61 4.61 0 0 1 2.67-.62h1.58v-.82a1.79 1.79 0 0 0-.48-1.34 2 2 0 0 0-1.47-.46 2.33 2.33 0 0 0-1.27.33 2.88 2.88 0 0 0-.83.9l-.77-.72A2.93 2.93 0 0 1 46 10a3.33 3.33 0 0 1 1.85-.48 3.44 3.44 0 0 1 2.34.74 2.6 2.6 0 0 1 .81 2.08v4.54h.94V18zm-3.68-.9a3 3 0 0 0 .88-.1 2 2 0 0 0 .69-.32 1.7 1.7 0 0 0 .45-.48 1.11 1.11 0 0 0 .16-.59v-1.37H48a3.16 3.16 0 0 0-1.61.32 1 1 0 0 0-.5.93v.33a1.16 1.16 0 0 0 .43.95 2 2 0 0 0 1.2.33zM53.75 18V9.74H55v1.35h.06a2.85 2.85 0 0 1 .88-1.09 2.44 2.44 0 0 1 1.49-.42 2.58 2.58 0 0 1 2 .83 3.32 3.32 0 0 1 .75 2.32V18h-1.26v-5.07c0-1.48-.63-2.23-1.87-2.23a3.23 3.23 0 0 0-.76.1 2.18 2.18 0 0 0-.64.29 1.54 1.54 0 0 0-.46.49 1.41 1.41 0 0 0-.16.69V18zM65.32 18.19a3.93 3.93 0 0 1-1.93-.43 4.53 4.53 0 0 1-1.33-1.18l.91-.74a3.61 3.61 0 0 0 1.07.94 2.81 2.81 0 0 0 1.38.32 2 2 0 0 0 1.26-.35 1.16 1.16 0 0 0 .47-1 1.17 1.17 0 0 0-.32-.82 1.89 1.89 0 0 0-1.12-.48l-.66-.09a7.39 7.39 0 0 1-1-.24 3.42 3.42 0 0 1-.85-.45 2.12 2.12 0 0 1-.56-.7 2.35 2.35 0 0 1-.19-1 2.32 2.32 0 0 1 .22-1.05 2.11 2.11 0 0 1 .61-.77 2.74 2.74 0 0 1 .94-.45 4.41 4.41 0 0 1 1.17-.16A3.67 3.67 0 0 1 67 9.9a3.76 3.76 0 0 1 1.2 1l-.85.77a2.4 2.4 0 0 0-.8-.69 2.54 2.54 0 0 0-1.33-.32A1.86 1.86 0 0 0 64 11a1.16 1.16 0 0 0-.4.93 1 1 0 0 0 .4.88 3.24 3.24 0 0 0 1.18.4l.64.1a3.28 3.28 0 0 1 2 .8 2 2 0 0 1 .58 1.52 2.3 2.3 0 0 1-.82 1.88 3.35 3.35 0 0 1-2.26.68z"/></symbol><symbol viewBox="0 0 120 24" id="Sentinel" xmlns="http://www.w3.org/2000/svg"><path d="M2 18.23h.86l.38-1.37a4.49 4.49 0 0 0 3.4 1.42 3.47 3.47 0 0 0 3.67-3.48c0-2.24-1.8-2.75-3.78-3.26-1.62-.43-3-.78-3-2.39a1.91 1.91 0 0 1 2.05-2c1.33 0 2.54.77 3.43 3h.79V6.38h-.91l-.35 1.21a3.92 3.92 0 0 0-2.92-1.26 3.25 3.25 0 0 0-3.5 3.25c0 2.24 1.84 2.84 3.67 3.33s3.12.89 3.12 2.43a2 2 0 0 1-2.28 2.1c-1.68 0-2.78-.93-3.88-3.18H2zM18.7 14.13c.05-2.08-1-4.14-3.26-4.14a3.88 3.88 0 0 0-3.74 4.16c0 2.34 1.4 4 3.69 4a3.17 3.17 0 0 0 3.27-2.47h-.73a2.22 2.22 0 0 1-2.24 1.54c-1.49 0-2.49-1.05-2.52-3.1zm-3.35-3.39c1.21 0 1.82 1 2 2.64h-4.17c.18-1.75 1.02-2.64 2.17-2.64zM19.93 18h3.87v-.91h-1.19v-3.43a2.59 2.59 0 0 1 2.27-2.55 1.3 1.3 0 0 1 1 .36 2.3 2.3 0 0 1 .46 1.63v4h-1.21v.9H29v-.91h-1.32v-4.6c0-1.61-.8-2.49-2.13-2.49-1 0-2.05.55-3 2.16v-2h-2.62V11h1.31v6.05h-1.31zM30.91 8.08v2.1h-1.59V11h1.59v5a1.87 1.87 0 0 0 2 2.14c1 0 1.85-.56 2.29-2.1l-.63-.25c-.33 1-.72 1.4-1.31 1.4s-1-.44-1-1.22V11h2.57v-.86h-2.55V7.9zM38 8.34a1 1 0 0 0 1-1 .94.94 0 0 0-1-1 1 1 0 0 0-1 1 .93.93 0 0 0 1 1zM36 18h4.32v-.91h-1.54v-7H36V11h1.48v6.05H36zM41.16 18H45v-.91h-1.16v-3.43a2.59 2.59 0 0 1 2.27-2.55 1.33 1.33 0 0 1 1 .36 2.3 2.3 0 0 1 .45 1.63v4h-1.2v.9h3.86v-.91h-1.31v-4.6c0-1.61-.8-2.49-2.13-2.49-1 0-2.05.55-3 2.16v-2h-2.62V11h1.31v6.05h-1.31zM58.19 14.13c.05-2.08-1-4.14-3.25-4.14a3.89 3.89 0 0 0-3.75 4.16c0 2.34 1.4 4 3.69 4a3.19 3.19 0 0 0 3.28-2.47h-.74a2.21 2.21 0 0 1-2.24 1.54c-1.49 0-2.48-1.05-2.52-3.1zm-3.34-3.39c1.21 0 1.82 1 1.94 2.64h-4.11c.17-1.75 1.01-2.64 2.17-2.64zM59.15 18h4.32v-.91H62V6h-2.85v.94h1.48v10.15h-1.48z"/></symbol><symbol viewBox="0 0 120 24" id="Tiempos" xmlns="http://www.w3.org/2000/svg"><path d="M12.11 6.77l.26 3.34h-.51l-.6-1.33a3.25 3.25 0 0 0-.51-.8 1.23 1.23 0 0 0-.59-.38 3 3 0 0 0-.88-.11H8.06v8.72a1.26 1.26 0 0 0 .12.59.78.78 0 0 0 .32.35 1.63 1.63 0 0 0 .54.16 6.76 6.76 0 0 0 .72.07V18H4.83v-.62a6.56 6.56 0 0 0 .71-.07 1.39 1.39 0 0 0 .52-.16.77.77 0 0 0 .34-.35 1.41 1.41 0 0 0 .11-.59V7.49H5.33a3 3 0 0 0-.88.11 1.28 1.28 0 0 0-.61.4 4 4 0 0 0-.51.8c-.16.35-.36.79-.59 1.33h-.5l.24-3.34zM16 16.53a1.17 1.17 0 0 0 0 .47.78.78 0 0 0 .26.25 1.57 1.57 0 0 0 .4.13c.15 0 .31.06.5.08V18h-3.91v-.56l.48-.08a1.34 1.34 0 0 0 .4-.13.78.78 0 0 0 .26-.25 1 1 0 0 0 .09-.45v-5.47l-1.15-.56v-.34l2.22-.8H16zm-.8-8.31a1 1 0 0 1-.73-.3 1 1 0 0 1-.31-.77 1 1 0 0 1 1.78-.75 1 1 0 0 1 .3.75 1.08 1.08 0 0 1-.3.77 1 1 0 0 1-.79.3zM22.23 9.36a3.38 3.38 0 0 1 1.39.27 2.6 2.6 0 0 1 1 .74 3.1 3.1 0 0 1 .61 1.12 4.73 4.73 0 0 1 .21 1.44v.49h-5.72a5 5 0 0 0 .19 1.44A3.46 3.46 0 0 0 20.5 16a2.71 2.71 0 0 0 .93.72 2.83 2.83 0 0 0 1.22.25 2.67 2.67 0 0 0 1.5-.38 4.64 4.64 0 0 0 1-1l.27.14a3.23 3.23 0 0 1-1.15 1.76 3.4 3.4 0 0 1-2.21.69 3.76 3.76 0 0 1-1.57-.32 3.47 3.47 0 0 1-1.12-.86 3.91 3.91 0 0 1-.74-1.31 5.29 5.29 0 0 1-.24-1.69 5.92 5.92 0 0 1 .29-1.9 4.32 4.32 0 0 1 .8-1.47 3.39 3.39 0 0 1 1.21-1 3.47 3.47 0 0 1 1.54-.27zm-.24.78a1.74 1.74 0 0 0-.86.21 2.42 2.42 0 0 0-.68.56 2.8 2.8 0 0 0-.44.8 3.39 3.39 0 0 0-.23.95H24a3 3 0 0 0-.49-1.83 1.72 1.72 0 0 0-1.51-.69zM36.93 18v-.56l.49-.08a1.37 1.37 0 0 0 .39-.13.81.81 0 0 0 .27-.25 1 1 0 0 0 .09-.45V12.1a1.69 1.69 0 0 0-.32-1.2 1.3 1.3 0 0 0-1.05-.36 3.06 3.06 0 0 0-1.2.24 4.45 4.45 0 0 0-1 .61v5.14a1 1 0 0 0 .09.45.78.78 0 0 0 .26.25 1.31 1.31 0 0 0 .38.13l.5.08V18h-3.99v-.56l.49-.08a1.37 1.37 0 0 0 .39-.13A.72.72 0 0 0 33 17a1 1 0 0 0 .1-.45V12.1a1.74 1.74 0 0 0-.32-1.2 1.34 1.34 0 0 0-1.06-.36 3.23 3.23 0 0 0-1.22.24 4.66 4.66 0 0 0-1 .61v5.14a1.17 1.17 0 0 0 .08.45.78.78 0 0 0 .26.25 1.57 1.57 0 0 0 .4.13c.15 0 .31.06.5.08V18h-3.99v-.56l.48-.08a1.34 1.34 0 0 0 .4-.13.78.78 0 0 0 .26-.25 1 1 0 0 0 .09-.45v-5.47l-1.15-.56v-.34l2.22-.8h.4v1.57c.2-.19.4-.38.61-.56a6.45 6.45 0 0 1 .69-.51 3.68 3.68 0 0 1 .78-.36 2.93 2.93 0 0 1 .9-.14 2.22 2.22 0 0 1 1.34.38 2 2 0 0 1 .69 1.26 7.1 7.1 0 0 1 .63-.58 4.66 4.66 0 0 1 .72-.51 4 4 0 0 1 .8-.39 3 3 0 0 1 .91-.14 2 2 0 0 1 1.58.62 3 3 0 0 1 .55 2v4.55a1 1 0 0 0 .09.45.78.78 0 0 0 .26.25 1.21 1.21 0 0 0 .38.13l.5.08V18zM44.39 19.68a.86.86 0 0 0 .09.43.65.65 0 0 0 .26.26 1.45 1.45 0 0 0 .4.14l.49.08v.56h-4v-.56l.49-.08a1.38 1.38 0 0 0 .39-.14.67.67 0 0 0 .27-.26.86.86 0 0 0 .09-.43v-8.62l-1.16-.56v-.34l2.29-.8h.39v1.39a4.24 4.24 0 0 1 1.16-1 3.17 3.17 0 0 1 1.57-.38 3.08 3.08 0 0 1 1.43.32 3 3 0 0 1 1 .85 3.75 3.75 0 0 1 .64 1.28 5.93 5.93 0 0 1 .2 1.55 5.75 5.75 0 0 1-.32 2 4.57 4.57 0 0 1-.86 1.5 3.65 3.65 0 0 1-1.26 1 3.47 3.47 0 0 1-1.51.34 3.16 3.16 0 0 1-1.29-.24 1.94 1.94 0 0 1-.8-.64zm2.06-2.26a2.19 2.19 0 0 0 1-.24 2.3 2.3 0 0 0 .79-.67 3.32 3.32 0 0 0 .51-1.07A4.86 4.86 0 0 0 49 14a6.33 6.33 0 0 0-.14-1.31 3.57 3.57 0 0 0-.43-1.15 2.48 2.48 0 0 0-.79-.82 2 2 0 0 0-1.13-.32 3.3 3.3 0 0 0-1.16.21 2.23 2.23 0 0 0-.92.58v4a2.21 2.21 0 0 0 .57 1.67 2 2 0 0 0 1.45.56zM55.8 17.33a1.89 1.89 0 0 0 1-.24 2 2 0 0 0 .71-.71 3.43 3.43 0 0 0 .43-1.08 6.24 6.24 0 0 0 .14-1.41 5.55 5.55 0 0 0-.17-1.43 3.48 3.48 0 0 0-.5-1.16 2.27 2.27 0 0 0-.8-.8 1.84 1.84 0 0 0-1.07-.31 1.92 1.92 0 0 0-1 .26 2.12 2.12 0 0 0-.71.69 3.43 3.43 0 0 0-.41 1.08 6.22 6.22 0 0 0-.15 1.41 6.59 6.59 0 0 0 .16 1.43 4.51 4.51 0 0 0 .5 1.18 2.77 2.77 0 0 0 .8.8 2.09 2.09 0 0 0 1.07.29zm-.19.83a4.18 4.18 0 0 1-1.62-.3 4 4 0 0 1-1.22-.86 4.12 4.12 0 0 1-.77-1.37 5.2 5.2 0 0 1-.27-1.71 5.1 5.1 0 0 1 .27-1.87 4.26 4.26 0 0 1 .85-1.44 3.86 3.86 0 0 1 2.85-1.25 3.94 3.94 0 0 1 1.6.32 3.7 3.7 0 0 1 2 2.22 5.14 5.14 0 0 1 .27 1.7 5.43 5.43 0 0 1-.32 1.89 4.39 4.39 0 0 1-.86 1.42 3.71 3.71 0 0 1-2.8 1.25zM63.87 18.16a7.44 7.44 0 0 1-1.56-.16 3.74 3.74 0 0 1-1.31-.62l-.1-2.13h.6a3.21 3.21 0 0 0 .83 1.61 2.14 2.14 0 0 0 1.58.58 1.88 1.88 0 0 0 1.2-.34 1.17 1.17 0 0 0 .43-1 1.34 1.34 0 0 0-.14-.66A1.23 1.23 0 0 0 65 15a2.77 2.77 0 0 0-.69-.37l-.94-.33a8 8 0 0 1-1-.37 3.52 3.52 0 0 1-.75-.51 2.14 2.14 0 0 1-.48-.69 2.47 2.47 0 0 1-.16-.94 2.25 2.25 0 0 1 .19-1 2.13 2.13 0 0 1 .55-.77 2.2 2.2 0 0 1 .88-.51 3.39 3.39 0 0 1 1.13-.18 5.36 5.36 0 0 1 2.64.67v2h-.61a2 2 0 0 0-2.08-1.92 1.41 1.41 0 0 0-1 .36 1.19 1.19 0 0 0-.37.9 1.29 1.29 0 0 0 .48 1.06 4.41 4.41 0 0 0 1.41.67c.39.13.76.26 1.09.4a3.31 3.31 0 0 1 .85.48 2 2 0 0 1 .54.7 2.3 2.3 0 0 1 .19 1 2.38 2.38 0 0 1-.21 1 2.25 2.25 0 0 1-.59.79 3 3 0 0 1-.94.51 3.61 3.61 0 0 1-1.26.21z"/></symbol><symbol viewBox="0 0 120 24" id="Vollkorn" xmlns="http://www.w3.org/2000/svg"><path d="M11.5 6.51h1.74a2.75 2.75 0 0 1-.09.73 1.32 1.32 0 0 0-.8.58 9 9 0 0 0-.66 1.42Q10 13.51 8.14 18a2.76 2.76 0 0 1-.67.07q-2-5.33-3.51-9c-.27-.61-.46-1-.58-1.27A1.4 1.4 0 0 0 3 7.36a.89.89 0 0 0-.49-.17 2.87 2.87 0 0 1-.08-.73H6.54a3.3 3.3 0 0 1-.09.73 2.12 2.12 0 0 0-.83.17.44.44 0 0 0-.24.44 3.75 3.75 0 0 0 .39 1.26q1.16 2.73 2.54 6.53c1-2.25 1.83-4.36 2.53-6.33a3.53 3.53 0 0 0 .24-1.12.93.93 0 0 0-.22-.65 1.2 1.2 0 0 0-.72-.3 3.26 3.26 0 0 1-.08-.73c.5.03.94.05 1.44.05zM16.57 18.15a4 4 0 0 1-2-.49 3.49 3.49 0 0 1-1.34-1.43 4.51 4.51 0 0 1-.48-2.12 4.27 4.27 0 0 1 .5-2.06 3.68 3.68 0 0 1 1.36-1.46 3.82 3.82 0 0 1 2-.53 3.61 3.61 0 0 1 2.8 1.11 4.11 4.11 0 0 1 1 2.94 4.28 4.28 0 0 1-.5 2.07 3.58 3.58 0 0 1-1.36 1.45 3.73 3.73 0 0 1-1.98.52zm.13-.81a1.67 1.67 0 0 0 1.5-.82 4.13 4.13 0 0 0 .51-2.21 4.59 4.59 0 0 0-.33-1.8 2.87 2.87 0 0 0-.83-1.21 1.79 1.79 0 0 0-1.15-.42 1.65 1.65 0 0 0-1.47.78 4 4 0 0 0-.49 2.09A5 5 0 0 0 15 16.4a1.87 1.87 0 0 0 1.7.94zM21.54 18.05a2.78 2.78 0 0 1 .08-.73 1.09 1.09 0 0 0 .92-.31 1.94 1.94 0 0 0 .26-1.17V8.22a2.14 2.14 0 0 0-.09-.69.61.61 0 0 0-.36-.38 2 2 0 0 0-.83-.15 1.18 1.18 0 0 1 .15-.63 5.29 5.29 0 0 0 1.21-.19A3.18 3.18 0 0 0 24 5.81c.25.08.38.31.38.68v9.35a2.16 2.16 0 0 0 .17 1.16.87.87 0 0 0 .78.31 2.54 2.54 0 0 1 .08.73c-.59 0-1.23-.05-1.92-.05s-1.39.01-1.95.06zM26.62 18.05a2.78 2.78 0 0 1 .08-.73 1.09 1.09 0 0 0 .92-.31 1.94 1.94 0 0 0 .26-1.17V8.22a2.14 2.14 0 0 0-.09-.69.61.61 0 0 0-.36-.38A2 2 0 0 0 26.6 7a1.18 1.18 0 0 1 .15-.63A5.29 5.29 0 0 0 28 6.2a3.18 3.18 0 0 0 1-.39c.25.08.38.31.38.68v9.35a2.16 2.16 0 0 0 .25 1.16.87.87 0 0 0 .78.31 2.54 2.54 0 0 1 .08.73c-.59 0-1.23-.05-1.92-.05s-1.39.01-1.95.06zM38.24 16.2a3.74 3.74 0 0 0 .84.81 2.15 2.15 0 0 0 .93.26 2.58 2.58 0 0 1-.08.73 14.35 14.35 0 0 0-2.18.15 23.39 23.39 0 0 0-1.46-1.93q-.95-1.17-1.8-2v1.66a2.16 2.16 0 0 0 .22 1.12.87.87 0 0 0 .78.31 2.54 2.54 0 0 1 .08.73C35 18 34.34 18 33.65 18s-1.39 0-1.95.05a2.78 2.78 0 0 1 .08-.73 1.09 1.09 0 0 0 .92-.32 1.94 1.94 0 0 0 .3-1.16V8.22a2.14 2.14 0 0 0-.09-.69.61.61 0 0 0-.36-.38 2 2 0 0 0-.87-.15 1.18 1.18 0 0 1 .15-.63A5.29 5.29 0 0 0 33 6.2a3.18 3.18 0 0 0 1.07-.39c.25.08.38.31.38.68v7.16l1.25-1.14c.73-.65 1.09-1.1 1.09-1.36s-.16-.27-.49-.27a2.37 2.37 0 0 1-.1-.7H39.56a1.85 1.85 0 0 1-.12.71 2.47 2.47 0 0 0-1 .26 5.16 5.16 0 0 0-1.09.78l-1.62 1.46c.73.71 1.55 1.61 2.51 2.81zM44.62 18.15a4 4 0 0 1-2-.49 3.43 3.43 0 0 1-1.34-1.43 4.51 4.51 0 0 1-.48-2.12 4.27 4.27 0 0 1 .49-2.06 3.76 3.76 0 0 1 1.36-1.46 3.85 3.85 0 0 1 2-.53 3.63 3.63 0 0 1 2.81 1.11 4.1 4.1 0 0 1 1 2.94 4.28 4.28 0 0 1-.46 2.07 3.65 3.65 0 0 1-1.36 1.45 3.76 3.76 0 0 1-2.02.52zm.14-.81a1.65 1.65 0 0 0 1.49-.82 4.13 4.13 0 0 0 .51-2.21 4.59 4.59 0 0 0-.32-1.8 2.87 2.87 0 0 0-.83-1.21 1.82 1.82 0 0 0-1.16-.42 1.65 1.65 0 0 0-1.46.78 3.87 3.87 0 0 0-.49 2.09 5.05 5.05 0 0 0 .59 2.65 1.9 1.9 0 0 0 1.67.94zM54.76 10.21a1.87 1.87 0 0 1 1.17.41 13.68 13.68 0 0 0-.12 2 3.08 3.08 0 0 1-1 .15 1.86 1.86 0 0 0-.25-1 .68.68 0 0 0-.58-.29 1 1 0 0 0-.65.35 2.58 2.58 0 0 0-.57.88 3.15 3.15 0 0 0-.22 1.19v1.6a3.24 3.24 0 0 0 .15 1.12.94.94 0 0 0 .46.53 2.71 2.71 0 0 0 .9.17 2.25 2.25 0 0 1 .08.73C53.64 18 52.93 18 52 18s-1.8 0-2.24.05a2.58 2.58 0 0 1 .08-.73 1.23 1.23 0 0 0 .92-.32 1.9 1.9 0 0 0 .24-1.16v-3.37a1.66 1.66 0 0 0-.11-.67.57.57 0 0 0-.35-.38 2.06 2.06 0 0 0-.82-.15 1.18 1.18 0 0 1 .15-.63 6.16 6.16 0 0 0 1.21-.21 4.68 4.68 0 0 0 1.07-.37c.25.08.38.33.38.75a5.44 5.44 0 0 1-.11 1.09 5.3 5.3 0 0 1-.12.57l.14-.4a1.81 1.81 0 0 1 .22-.48 2.47 2.47 0 0 1 2.1-1.38zM65.72 17.32a2.28 2.28 0 0 1 .09.73C65.32 18 64.7 18 64 18h-1.68a1.57 1.57 0 0 1-.34 0 2.2 2.2 0 0 1 .09-.73 1.13 1.13 0 0 0 .9-.32 1.86 1.86 0 0 0 .27-1.16v-2.53a2.36 2.36 0 0 0-.43-1.6 1.42 1.42 0 0 0-1.15-.48 1.69 1.69 0 0 0-.92.29 2.12 2.12 0 0 0-.73.94 4.2 4.2 0 0 0-.32 1.59v1.82a2 2 0 0 0 .25 1.18 1.13 1.13 0 0 0 .92.31 2.28 2.28 0 0 1 .09.73l-2-.05c-.86 0-1.53 0-2 .05a2.58 2.58 0 0 1 .08-.73 1.12 1.12 0 0 0 .87-.31 1.94 1.94 0 0 0 .26-1.17v-3.36a1.89 1.89 0 0 0-.1-.67.62.62 0 0 0-.36-.38 2 2 0 0 0-.82-.15 1.09 1.09 0 0 1 .16-.63 6.07 6.07 0 0 0 1.2-.21 4.51 4.51 0 0 0 1.07-.37c.25.08.38.33.38.75a3.92 3.92 0 0 1-.12 1 .93.93 0 0 0 .08-.17c.05-.09.11-.18.17-.27a3.12 3.12 0 0 1 1-.85 2.93 2.93 0 0 1 1.48-.37 2.41 2.41 0 0 1 1.75.66 2.84 2.84 0 0 1 .68 2.11v2.92A2 2 0 0 0 65 17a.89.89 0 0 0 .72.32z"/></symbol><symbol viewBox="0 0 120 24" id="Whitney" xmlns="http://www.w3.org/2000/svg"><path d="M18.2 6.4H17l-3 9.73-3.35-9.73H9.42L6.1 16.13l-3-9.84-1.2.27 3.61 11.49h1L10 8.08l3.49 10h1.05zM27.49 18v-6.08a2.35 2.35 0 0 0-2.64-2.58 4.87 4.87 0 0 0-3.1 1.38V5.14l-1.18.2V18h1.18v-6.13a4.47 4.47 0 0 1 2.88-1.45 1.52 1.52 0 0 1 1.66 1.74V18zM32 6.64a.87.87 0 0 0-.87-.85.86.86 0 1 0 .87.85zM31.75 18V9.52h-1.18V18zM38.81 18l-.16-1a4 4 0 0 1-.83.08c-1 0-1.33-.37-1.33-1.23v-5.32h2.21l-.14-1h-2.07V6.38l-1.16.21v2.93H34v1h1.36v5.53c0 1.57.89 2.08 2.27 2.08a5.18 5.18 0 0 0 1.18-.13zM48.09 18v-6.06a2.36 2.36 0 0 0-2.64-2.6 5 5 0 0 0-3.17 1.43l-.21-1.25h-.91V18h1.18v-6.13a4.47 4.47 0 0 1 2.88-1.45 1.52 1.52 0 0 1 1.67 1.74V18zM57.79 17l-.18-1.08a4.85 4.85 0 0 1-3.09 1.25c-1.79 0-2.8-1.21-2.83-3.31h6.11v-.26c0-2.35-1.16-4.24-3.55-4.24-2.17 0-3.77 1.7-3.77 4.4 0 2.93 1.66 4.44 4 4.44a5.17 5.17 0 0 0 3.31-1.2zm-3.55-6.69c1.44 0 2.24 1.09 2.35 2.62h-4.85c.26-1.71 1.18-2.64 2.5-2.64zM67.06 9.52h-1.24l-2.62 7.09-2.73-7.2-1.21.22 3.35 8.42-.37.88c-.37.93-.82 1.25-1.57 1.25a4.32 4.32 0 0 1-.68-.07l.17 1.06a2.58 2.58 0 0 0 .53 0c1.23 0 2-.48 2.62-2.12z"/></symbol><symbol viewBox="0 0 120 24" id="Zilla_Slab" xmlns="http://www.w3.org/2000/svg"><path d="M10 18l.46-3.38-1.1-.15-.49 2.41H3.36v-.05l6.76-9.5v-.7H2.24L1.8 9.92l1.09.15.49-2.32h4.9l-6.72 9.48V18zM12.94 8.2h1.33V6.61h-1.33zm2.71 9.8v-1h-1.36v-6.79h-2.63v1h1.4V17H11.7v1zM20.31 18v-1h-1.37V6h-2.6v1h1.38v10h-1.37v1zM25 18v-1h-1.41V6H21v1h1.38v10H21v1zM26.72 10.81l-.28 1.8 1 .12.3-1.34a3.39 3.39 0 0 1 1.51-.32c1.4 0 1.76.77 1.76 1.89v.7c-.42 0-.91-.07-1.38-.07C27.89 13.59 26 14 26 16a2.15 2.15 0 0 0 2.36 2.19A3.09 3.09 0 0 0 31 16.56c0 1 .51 1.58 1.42 1.58a2.12 2.12 0 0 0 1-.27v-.8a1.42 1.42 0 0 1-.53.1c-.45 0-.66-.26-.66-.84v-3.67c0-1.75-1-2.6-2.78-2.6a4.79 4.79 0 0 0-2.73.75zM31 15.08a2.27 2.27 0 0 1-2.29 2.08 1.28 1.28 0 0 1-1.45-1.31c0-1.21 1.14-1.45 2.29-1.45.53 0 1 0 1.45.08zM46.3 14.82c0-2.61-2.22-3-3.74-3.33-1.28-.3-2.54-.61-2.54-2 0-1.22 1-1.87 2.38-1.87a4.64 4.64 0 0 1 2.17.47l.17 1.7 1-.11-.1-2.25a6.2 6.2 0 0 0-3.41-1c-2 0-3.63 1-3.63 3.15s1.82 2.68 3.43 3c1.4.32 2.84.6 2.84 2.33 0 1.54-1.24 2.12-2.75 2.12a5.1 5.1 0 0 1-2.36-.51l.07-1.44-1-.08-.25 2.24a6.59 6.59 0 0 0 3.66.93c2.31.01 4.06-1.17 4.06-3.35zM51.36 18v-1H50V6h-2.61v1h1.38v10h-1.36v1zM53.12 10.81l-.28 1.8 1 .12.3-1.34a3.38 3.38 0 0 1 1.5-.32c1.4 0 1.77.77 1.77 1.89v.7c-.42 0-.91-.07-1.38-.07-1.75 0-3.64.44-3.64 2.4a2.15 2.15 0 0 0 2.36 2.19 3.09 3.09 0 0 0 2.66-1.62c0 1 .51 1.58 1.42 1.58a2.11 2.11 0 0 0 1-.27v-.8a1.34 1.34 0 0 1-.52.1c-.46 0-.67-.26-.67-.84v-3.67c0-1.75-1-2.6-2.78-2.6a4.83 4.83 0 0 0-2.74.75zm4.31 4.27a2.29 2.29 0 0 1-2.29 2.08 1.29 1.29 0 0 1-1.46-1.31c0-1.21 1.14-1.45 2.3-1.45.52 0 1 0 1.45.08zM68.85 13.91c0-2.47-1.41-3.85-3.35-3.85a2.9 2.9 0 0 0-2.78 1.76V6h-2.57v1h1.34v8.77a16.12 16.12 0 0 1-.24 2.23h1.22l.18-1.3a2.92 2.92 0 0 0 2.73 1.48c2.47 0 3.47-2.18 3.47-4.27zm-1.3.12c0 1.61-.72 3.09-2.43 3.09a2.34 2.34 0 0 1-2.4-2.34v-1.17a2.6 2.6 0 0 1 2.49-2.5c1.31 0 2.34.98 2.34 2.89z"/></symbol></svg>