<svg xmlns="http://www.w3.org/2000/svg" fill="none" viewBox="0 0 50 47"><g stroke="#000" stroke-linecap="round" stroke-linejoin="round" stroke-miterlimit="10" stroke-width="1.86535" clip-path="url(#a)"><path d="m45.0073 2.50543 2.2198 8.18887c2.2197 8.1889 2.4995 21.515 0 21.7948-2.4996.276-5.4132-2.3616-9.8565-9.1626-4.4433-6.8011-6.387-21.51498-6.387-21.51498L1 13.4737s4.62234 15.501 11.0541 22.1156c4.8126 4.9469 6.8719 7.4464 10.5802 9.4946.209.1156.4626.1343.6902.0597l7.8568-2.6936c1.552-.72 5.999-3.2158 7.4204-4.1709l8.6216-5.7863"/><path d="M37.5137 5.41895s3.0554 7.65535 4.8573 11.74055c1.8057 4.0851 2.4996 10.6101 2.4996 10.6101M7.80664 16.5974s1.2498 5.2043 6.52496 11.1735l7.495-4.2344s-2.6376-3.2606-4.3015-6.3161c-1.6676-3.0554-2.2197-4.3015-2.2197-4.3015l-7.49876 3.6785Zm13.05076-4.9289s3.3315-1.1117 5.9691-2.49955m-4.1683 6.79985 6.1072-2.2198m-4.3025 6.9651 5.693-2.1526M16.1367 31.6577s6.6631-2.6376 9.5767-3.8874c2.9137-1.2497 5.5513-3.1785 5.5513-3.1785m-11.6592 12.34s3.8873-1.2497 7.7038-3.4695 7.7039-4.1635 7.7039-4.1635"/></g><defs><clipPath id="a"><path fill="#fff" d="M0 0h50v47H0z"/></clipPath></defs></svg>