<svg width="157" height="41" viewBox="0 0 157 41" fill="none" xmlns="http://www.w3.org/2000/svg">
  <path d="M44.1094 9.54949C40.8201 9.54949 37.8912 11.4101 35.8185 13.8759L35.7284 10.9393C35.6833 9.88574 35.1877 9.39258 34.4217 9.39258C33.6106 9.39258 33.0699 10.0202 33.0699 10.9169V39.6102C33.0699 40.462 33.6557 41.0448 34.4667 41.0448C35.3228 41.0448 35.8185 40.4172 35.8185 39.5653V27.0345C37.8912 29.4779 40.7975 31.1591 44.1094 31.1591C50.1023 31.1591 54.856 26.362 54.856 20.444C54.856 14.526 50.1248 9.54949 44.1094 9.54949ZM44.0643 28.514C39.7161 28.514 36.0663 24.86 36.0663 20.3991C36.0663 15.8934 39.6936 12.1498 44.0643 12.1498C48.5027 12.1498 52.0623 15.8934 52.0623 20.3991C52.0623 24.86 48.5027 28.514 44.0643 28.514Z" fill="#363636"/>
  <path d="M22.2557 9.75122H2.72253C1.46087 9.75122 0.401978 10.7151 0.401978 11.9929V19.1886C0.401978 25.7119 5.80908 31.1367 12.5004 31.1367C19.1466 31.1367 24.5086 25.7119 24.5086 19.1886V11.9929C24.4861 10.7151 23.4723 9.75122 22.2557 9.75122ZM19.3494 18.673L13.6043 24.053C13.3114 24.3893 12.8383 24.5238 12.5004 24.5238C12.0723 24.5238 11.6442 24.3893 11.3063 24.053L5.65137 18.673C5.0656 18.0454 4.97549 16.9918 5.65137 16.3193C6.2822 15.7365 7.34109 15.6468 7.97192 16.3193L12.5004 20.6457L17.1189 16.3193C17.7047 15.6468 18.7636 15.7365 19.3494 16.3193C19.9351 16.9918 19.9351 18.0454 19.3494 18.673Z" fill="#FF3355"/>
  <path d="M111.991 19.3231L119.854 12.2619C120.575 11.6342 120.665 10.7151 120.102 10.1099C119.516 9.48223 118.615 9.63915 117.984 10.2444L107.282 20.2198V1.59158C107.282 0.627665 106.854 0 105.976 0C105.007 0 104.534 0.627665 104.534 1.59158V29.5675C104.534 30.4866 105.075 31.1143 105.976 31.1143C106.787 31.1143 107.282 30.4866 107.282 29.5675V23.5375L110.031 21.0716L118.66 30.6211C119.201 31.2039 120.147 31.4281 120.733 30.8677C121.408 30.24 121.206 29.3882 120.688 28.8054L111.991 19.3231Z" fill="#363636"/>
  <path d="M68.1259 9.54932C61.9979 9.54932 57.2667 14.481 57.2667 20.399C57.2667 26.317 61.9979 31.1141 68.1259 31.1141C73.871 31.1141 78.8725 26.317 78.8725 20.399C78.8725 14.481 73.8259 9.54932 68.1259 9.54932ZM68.0358 28.5138C63.6876 28.5138 60.0378 24.8599 60.0378 20.399C60.0378 15.8932 63.6651 12.1496 68.0358 12.1496C72.4741 12.1496 76.0338 15.8932 76.0338 20.399C76.0338 24.8599 72.4741 28.5138 68.0358 28.5138Z" fill="#363636"/>
  <path d="M155.293 27.0345C154.865 27.0345 154.437 27.281 154.189 27.5052C153.603 28.0208 152.882 28.514 151.868 28.514C150.134 28.514 149.165 27.4604 149.165 25.0618V12.105L154.527 12.1947C155.293 12.1947 155.789 11.7239 155.789 11.0066C155.789 10.2444 155.27 9.79607 154.527 9.79607L149.165 9.84091V5.5145C149.165 4.66267 148.579 4.07983 147.858 4.07983C147.092 4.07983 146.461 4.66267 146.461 5.5145V9.84091L144.186 9.79607C143.465 9.79607 142.969 10.2668 142.969 11.0066C142.969 11.6791 143.51 12.2171 144.186 12.1947L146.461 12.105V25.1515C146.461 29.2313 148.962 31.1143 151.823 31.1143C153.603 31.1143 154.955 30.4418 155.879 29.4779C156.172 29.1416 156.464 28.7605 156.464 28.2674C156.464 27.55 156.014 27.0345 155.293 27.0345Z" fill="#363636"/>
  <path d="M132.425 9.54932C126.432 9.54932 121.949 14.481 121.949 20.399C121.949 26.317 126.523 31.1141 132.47 31.1141C135.422 31.1141 138.306 30.0157 140.198 28.1775C140.626 27.7516 140.964 27.3033 140.964 26.8325C140.964 26.16 140.536 25.622 139.747 25.622C139.319 25.622 138.891 25.8014 138.553 26.0928C136.774 27.6395 134.971 28.5362 132.47 28.5362C128.595 28.5362 125.126 25.5996 124.765 21.2284H139.86C141.302 21.2284 142.091 20.4662 142.091 19.2557C142.091 14.5034 137.945 9.54932 132.425 9.54932ZM124.833 18.8746C125.464 14.4586 128.73 12.1496 132.425 12.1496C136.345 12.1496 139.094 15.4225 139.274 18.8746H124.833Z" fill="#363636"/>
  <path d="M99.5773 24.4791C99.1942 24.4791 98.7662 24.7705 98.5184 25.1067C97.3243 26.6535 94.801 28.514 91.9622 28.514C87.7267 28.514 84.0994 25.1964 84.0994 20.3992C84.0994 15.2658 87.7267 12.1947 91.9622 12.1947C95.0488 12.1947 96.7385 13.6742 98.1804 15.4003C98.4282 15.6917 98.8112 15.9832 99.2844 15.9832C99.9152 15.9832 100.546 15.5124 100.546 14.8847C100.546 14.414 100.253 13.9657 100.005 13.5846C98.2705 11.0963 95.3642 9.68408 91.9848 9.68408C86.1045 9.68408 81.2832 14.4812 81.2832 20.3992C81.2832 26.25 86.1045 31.1144 91.9848 31.1144C95.612 31.1144 98.7437 29.0072 100.388 26.8328C100.681 26.4517 100.861 26.0706 100.861 25.7344C100.839 24.9946 100.298 24.4791 99.5773 24.4791Z" fill="#363636"/>
</svg>
