<svg width="24" height="24" viewBox="0 0 24 24"  xmlns="http://www.w3.org/2000/svg">
<path fill-rule="evenodd" clip-rule="evenodd" d="M7 5C7 2.79086 8.79086 1 11 1H13C15.2091 1 17 2.79086 17 5H22C22.5523 5 23 5.44772 23 6C23 6.55228 22.5523 7 22 7H21V18C21 20.2091 19.2091 22 17 22H7C4.79086 22 3 20.2091 3 18V7H2C1.44772 7 1 6.55228 1 6C1 5.44772 1.44772 5 2 5H7ZM9 5C9 3.89543 9.89543 3 11 3H13C14.1046 3 15 3.89543 15 5H9ZM5 7H19V18C19 19.1046 18.1046 20 17 20H7C5.89543 20 5 19.1046 5 18V7Z" />
<path fill-rule="evenodd" clip-rule="evenodd" d="M9 10C9.55229 10 10 10.4477 10 11V16C10 16.5523 9.55229 17 9 17C8.44772 17 8 16.5523 8 16V11C8 10.4477 8.44772 10 9 10Z" />
<path fill-rule="evenodd" clip-rule="evenodd" d="M15 10C15.5523 10 16 10.4477 16 11V16C16 16.5523 15.5523 17 15 17C14.4477 17 14 16.5523 14 16V11C14 10.4477 14.4477 10 15 10Z" />
</svg>
