<svg width="24" height="24" viewBox="0 0 24 24"  xmlns="http://www.w3.org/2000/svg">
<path fill-rule="evenodd" clip-rule="evenodd" d="M12 21C16.9706 21 21 16.9706 21 12C21 7.02944 16.9706 3 12 3C7.02944 3 3 7.02944 3 12C3 16.9706 7.02944 21 12 21ZM12 23C18.0751 23 23 18.0751 23 12C23 5.92487 18.0751 1 12 1C5.92487 1 1 5.92487 1 12C1 18.0751 5.92487 23 12 23Z" />
<path d="M13.5 16.5C13.5 17.3284 12.8284 18 12 18C11.1716 18 10.5 17.3284 10.5 16.5C10.5 15.6716 11.1716 15 12 15C12.8284 15 13.5 15.6716 13.5 16.5Z" />
<path d="M13.7357 7.98246L13.1322 12.5088C13.0565 13.0762 12.5725 13.5 12 13.5C11.4275 13.5 10.9435 13.0762 10.8678 12.5088L10.2643 7.98246C10.1244 6.93274 10.941 6 12 6C13.059 6 13.8756 6.93274 13.7357 7.98246Z" />
</svg>
