<svg width="24" height="24" viewBox="0 0 24 24"  xmlns="http://www.w3.org/2000/svg">
<path d="M16.5151 7.01988C15.3519 5.9299 13.8723 5.37491 12.2243 5.37491C9.30102 5.37491 6.82665 7.30966 5.94387 9.90938C5.71938 10.5694 5.59183 11.275 5.59183 12C5.59183 12.7249 5.71938 13.4299 5.94387 14.0899C6.82652 16.6899 9.30122 18.625 12.2247 18.625C13.7348 18.625 15.0205 18.235 16.0256 17.5751C17.2144 16.7951 18.0052 15.6292 18.2654 14.2542H12.2246V9.99927H22.796C22.9287 10.7193 23.0001 11.4692 23.0001 12.2492C23.0001 15.5992 21.7756 18.4191 19.6532 20.3341C17.796 22.014 15.2553 22.9999 12.2247 22.9999C7.83694 22.9999 4.04103 20.535 2.19409 16.94C1.43389 15.4551 1 13.7749 1 12C1 10.225 1.43367 8.54503 2.19388 7.06006C4.04081 3.46513 7.83657 1 12.2243 1C15.2498 1 17.7906 2.08998 19.7345 3.86494L16.5151 7.01988Z" />
</svg>
