<svg width="24" height="24" viewBox="0 0 24 24"  xmlns="http://www.w3.org/2000/svg">
<path d="M20.6644 9.30166L12.6644 2.19052C12.2855 1.85374 11.7145 1.85373 11.3356 2.19052L3.33564 9.30166C3.12215 9.49142 3 9.76343 3 10.0491V20C3 20.5523 3.44772 21 4 21H7C7.55228 21 8 20.5539 8 20.0017V15C8 14 9 11 12 11C15 11 16 14 16 15V20C16 20.5523 16.4477 21 17 21H20C20.5523 21 21 20.5523 21 20V10.0491C21 9.76343 20.8779 9.49143 20.6644 9.30166Z"  stroke="#1A1A1A" stroke-width="2" stroke-linejoin="round"/>
</svg>
