<svg width="24" height="24" viewBox="0 0 24 24"  xmlns="http://www.w3.org/2000/svg">
<path fill-rule="evenodd" clip-rule="evenodd" d="M10.6713 1.44162C11.429 0.770027 12.571 0.770031 13.3287 1.44162L21.3287 8.5318C21.7557 8.91022 22 9.45262 22 10.0222V19.9438C22 21.0451 21.1046 21.9379 20 21.9379H17C15.8954 21.9379 15 21.0451 15 19.9438V14.9586C15 14.6838 14.8248 13.8868 14.3113 13.1701C13.831 12.4997 13.1096 11.9674 12 11.9674C10.8904 11.9674 10.169 12.4997 9.68873 13.1701C9.17524 13.8868 9 14.6838 9 14.9586V19.9455C9 21.0489 8.1024 21.9379 7 21.9379H4C2.89543 21.9379 2 21.0451 2 19.9438V10.0222C2 9.45262 2.24429 8.91022 2.67127 8.5318L10.6713 1.44162ZM12 2.93203L4 10.0222V19.9438H7V14.9586C7 14.2363 7.32476 13.0391 8.06127 12.011C8.83103 10.9365 10.1096 9.97329 12 9.97329C13.8904 9.97329 15.169 10.9365 15.9387 12.011C16.6752 13.0391 17 14.2363 17 14.9586V19.9438H20V10.0222L12 2.93203ZM7 19.9438C7.00037 19.9435 7.00023 19.9434 7 19.9438C6.9994 19.9441 6.99949 19.9443 7 19.9438ZM7.0016 19.9438C7.00146 19.9438 7.00031 19.9438 7 19.9438L7.0016 19.9438ZM7.0016 19.9438C7.00184 19.9437 7.00175 19.9437 7.0016 19.9438V19.9438Z" />
</svg>
