<svg width="24" height="24" viewBox="0 0 24 24"  xmlns="http://www.w3.org/2000/svg">
<path fill-rule="evenodd" clip-rule="evenodd" d="M11.2929 1.29289C11.6834 0.902369 12.3166 0.902369 12.7071 1.29289L16.7071 5.29289C17.0976 5.68342 17.0976 6.31658 16.7071 6.70711C16.3166 7.09763 15.6834 7.09763 15.2929 6.70711L13 4.41421V13C13 13.5523 12.5523 14 12 14C11.4477 14 11 13.5523 11 13V4.41421L8.70711 6.70711C8.31658 7.09763 7.68342 7.09763 7.29289 6.70711C6.90237 6.31658 6.90237 5.68342 7.29289 5.29289L11.2929 1.29289Z" />
<path fill-rule="evenodd" clip-rule="evenodd" d="M4 10C4.55228 10 5 10.4477 5 11V18C5 19.1046 5.89543 20 7 20H17C18.1046 20 19 19.1046 19 18V11C19 10.4477 19.4477 10 20 10C20.5523 10 21 10.4477 21 11V18C21 20.2091 19.2091 22 17 22H7C4.79086 22 3 20.2091 3 18V11C3 10.4477 3.44772 10 4 10Z" />
</svg>
