<svg width="24" height="24" viewBox="0 0 24 24"  xmlns="http://www.w3.org/2000/svg">
<path fill-rule="evenodd" clip-rule="evenodd" d="M5.70711 2.29289C6.09763 2.68342 6.09763 3.31658 5.70711 3.70711L2.70711 6.70711C2.31658 7.09763 1.68342 7.09763 1.29289 6.70711C0.902369 6.31658 0.902369 5.68342 1.29289 5.29289L4.29289 2.29289C4.68342 1.90237 5.31658 1.90237 5.70711 2.29289Z" />
<path fill-rule="evenodd" clip-rule="evenodd" d="M8.70711 6.70711C9.09763 6.31658 9.09763 5.68342 8.70711 5.29289L5.70711 2.29289C5.31658 1.90237 4.68342 1.90237 4.29289 2.29289C3.90237 2.68342 3.90237 3.31658 4.29289 3.70711L7.29289 6.70711C7.68342 7.09763 8.31658 7.09763 8.70711 6.70711Z" />
<path d="M4 4H6V20H4V4Z" />
<path d="M11 6C11 5.44772 11.4477 5 12 5H22C22.5523 5 23 5.44772 23 6C23 6.55228 22.5523 7 22 7H12C11.4477 7 11 6.55228 11 6Z" />
<path d="M11 12C11 11.4477 11.4477 11 12 11H22C22.5523 11 23 11.4477 23 12C23 12.5523 22.5523 13 22 13H12C11.4477 13 11 12.5523 11 12Z" />
<path d="M11 18C11 17.4477 11.4477 17 12 17H18C18.5523 17 19 17.4477 19 18C19 18.5523 18.5523 19 18 19H12C11.4477 19 11 18.5523 11 18Z" />
<path fill-rule="evenodd" clip-rule="evenodd" d="M4.29289 21.7071C3.90237 21.3166 3.90237 20.6834 4.29289 20.2929L7.29289 17.2929C7.68342 16.9024 8.31658 16.9024 8.70711 17.2929C9.09763 17.6834 9.09763 18.3166 8.70711 18.7071L5.70711 21.7071C5.31658 22.0976 4.68342 22.0976 4.29289 21.7071Z" />
<path fill-rule="evenodd" clip-rule="evenodd" d="M1.29289 17.2929C0.902369 17.6834 0.902369 18.3166 1.29289 18.7071L4.29289 21.7071C4.68342 22.0976 5.31658 22.0976 5.70711 21.7071C6.09763 21.3166 6.09763 20.6834 5.70711 20.2929L2.70711 17.2929C2.31658 16.9024 1.68342 16.9024 1.29289 17.2929Z" />
</svg>
