<svg width="24" height="24" viewBox="0 0 24 24"  xmlns="http://www.w3.org/2000/svg">
<path d="M5 5C5 5.82843 4.32843 6.5 3.5 6.5C2.67157 6.5 2 5.82843 2 5C2 4.17157 2.67157 3.5 3.5 3.5C4.32843 3.5 5 4.17157 5 5Z" />
<path d="M5 12C5 12.8284 4.32843 13.5 3.5 13.5C2.67157 13.5 2 12.8284 2 12C2 11.1716 2.67157 10.5 3.5 10.5C4.32843 10.5 5 11.1716 5 12Z" />
<path d="M5 19C5 19.8284 4.32843 20.5 3.5 20.5C2.67157 20.5 2 19.8284 2 19C2 18.1716 2.67157 17.5 3.5 17.5C4.32843 17.5 5 18.1716 5 19Z" />
<path fill-rule="evenodd" clip-rule="evenodd" d="M7 5C7 4.44772 7.44772 4 8 4H21C21.5523 4 22 4.44772 22 5C22 5.55228 21.5523 6 21 6H8C7.44772 6 7 5.55228 7 5Z" />
<path fill-rule="evenodd" clip-rule="evenodd" d="M7 12C7 11.4477 7.44772 11 8 11H21C21.5523 11 22 11.4477 22 12C22 12.5523 21.5523 13 21 13H8C7.44772 13 7 12.5523 7 12Z" />
<path fill-rule="evenodd" clip-rule="evenodd" d="M7 19C7 18.4477 7.44772 18 8 18H21C21.5523 18 22 18.4477 22 19C22 19.5523 21.5523 20 21 20H8C7.44772 20 7 19.5523 7 19Z" />
</svg>
