<svg width="24" height="24" viewBox="0 0 24 24"  xmlns="http://www.w3.org/2000/svg">
<path d="M5 11C5 10.4477 5.44772 10 6 10C6.55228 10 7 10.4477 7 11V19C7 19.5523 6.55228 20 6 20C5.44772 20 5 19.5523 5 19V11Z" />
<path d="M9 7C9 6.44772 9.44772 6 10 6C10.5523 6 11 6.44772 11 7V19C11 19.5523 10.5523 20 10 20C9.44772 20 9 19.5523 9 19V7Z" />
<path d="M13 5C13 4.44772 13.4477 4 14 4C14.5523 4 15 4.44772 15 5V19C15 19.5523 14.5523 20 14 20C13.4477 20 13 19.5523 13 19V5Z" />
<path d="M17 13C17 12.4477 17.4477 12 18 12C18.5523 12 19 12.4477 19 13V19C19 19.5523 18.5523 20 18 20C17.4477 20 17 19.5523 17 19V13Z" />
</svg>
