<svg width="24" height="24" viewBox="0 0 24 24"  xmlns="http://www.w3.org/2000/svg">
<path d="M5 8C5 7.44772 5.44772 7 6 7C6.55228 7 7 7.44772 7 8V16C7 16.5523 6.55228 17 6 17C5.44772 17 5 16.5523 5 16V8Z" />
<path d="M9 5C9 4.44772 9.44772 4 10 4C10.5523 4 11 4.44772 11 5V19C11 19.5523 10.5523 20 10 20C9.44772 20 9 19.5523 9 19V5Z" />
<path d="M13 8C13 7.44772 13.4477 7 14 7C14.5523 7 15 7.44772 15 8V16C15 16.5523 14.5523 17 14 17C13.4477 17 13 16.5523 13 16V8Z" />
<path d="M17 5C17 4.44772 17.4477 4 18 4C18.5523 4 19 4.44772 19 5V19C19 19.5523 18.5523 20 18 20C17.4477 20 17 19.5523 17 19V5Z" />
</svg>
