<svg width="24" height="24" viewBox="0 0 24 24"  xmlns="http://www.w3.org/2000/svg">
<path fill-rule="evenodd" clip-rule="evenodd" d="M3.98285 3.33332C4.50809 2.50217 5.41111 2 6.38045 2H17.6195C18.5889 2 19.4919 2.50217 20.0172 3.33332L22.5449 7.33335C23.1892 8.35287 23.146 9.67314 22.4366 10.6466L14.2893 21.8261C13.1487 23.3913 10.8513 23.3913 9.71071 21.8261L1.56338 10.6466C0.853957 9.67314 0.810795 8.35287 1.45507 7.33335L3.98285 3.33332ZM6.38045 3.94014C6.05734 3.94014 5.75633 4.10753 5.58125 4.38458L3.05347 8.38461C2.83871 8.72445 2.8531 9.16454 3.08958 9.48903L11.2369 20.6686C11.6171 21.1903 12.3829 21.1903 12.7631 20.6686L20.9104 9.48902C21.1469 9.16454 21.1613 8.72445 20.9465 8.38461L18.4187 4.38458C18.2437 4.10753 17.9427 3.94014 17.6195 3.94014H6.38045Z" />
<path fill-rule="evenodd" clip-rule="evenodd" d="M10.3902 2.04611C10.89 2.20723 11.1646 2.74304 11.0035 3.24288L9.2835 8.57876C9.22431 8.76239 9.22237 8.95969 9.27796 9.14444L12.9108 21.2195C13.0621 21.7224 12.7771 22.2528 12.2742 22.4041C11.7713 22.5554 11.241 22.2703 11.0897 21.7674L7.45681 9.69234C7.29006 9.13807 7.29585 8.54619 7.47343 7.9953L9.19342 2.65941C9.35454 2.15958 9.89035 1.88499 10.3902 2.04611Z" />
<path fill-rule="evenodd" clip-rule="evenodd" d="M13.6103 2.04611C13.1104 2.20723 12.8359 2.74304 12.997 3.24288L14.717 8.57876C14.7762 8.76239 14.7781 8.95969 14.7225 9.14444L11.0897 21.2195C10.9384 21.7224 11.2234 22.2528 11.7263 22.4041C12.2292 22.5554 12.7595 22.2703 12.9108 21.7674L16.5437 9.69234C16.7104 9.13807 16.7046 8.54619 16.527 7.9953L14.807 2.65941C14.6459 2.15958 14.1101 1.88499 13.6103 2.04611Z" />
<path fill-rule="evenodd" clip-rule="evenodd" d="M21.9846 9.60759H2.0159V7.70581H21.9846V9.60759Z" />
</svg>
