<svg width="24" height="24" viewBox="0 0 24 24" fill="none" xmlns="http://www.w3.org/2000/svg">
  <path d="M8.25 21.75H15.75" stroke="black" stroke-width="2" stroke-linecap="round" stroke-linejoin="round"/>
  <path d="M7.37847 15.6573C6.48667 14.9608 5.76435 14.0712 5.26581 13.0553C4.76727 12.0395 4.50548 10.9239 4.50011 9.79232C4.47765 5.72711 7.755 2.34779 11.8192 2.25213C13.394 2.21421 14.9409 2.67313 16.2402 3.56379C17.5396 4.45446 18.5256 5.73165 19.0582 7.21419C19.5909 8.69674 19.6432 10.3094 19.2078 11.8233C18.7724 13.3373 17.8713 14.6757 16.6324 15.6488C16.3596 15.8602 16.1383 16.1309 15.9854 16.4404C15.8326 16.7498 15.7521 17.0901 15.75 17.4352L15.75 18C15.75 18.1989 15.671 18.3897 15.5303 18.5303C15.3897 18.671 15.1989 18.75 15 18.75H8.99999C8.80108 18.75 8.61031 18.671 8.46966 18.5303C8.32901 18.3897 8.24999 18.1989 8.24999 18L8.24998 17.4346C8.24912 17.0916 8.17021 16.7534 8.01921 16.4454C7.86822 16.1375 7.6491 15.868 7.37847 15.6573V15.6573Z" stroke="black" stroke-width="2" stroke-linecap="round" stroke-linejoin="round"/>
  <path d="M12.7615 5.3235C13.6788 5.47943 14.5251 5.91635 15.1835 6.57392C15.8419 7.23149 16.2799 8.07725 16.4369 8.99441" stroke="black" stroke-width="2" stroke-linecap="round" stroke-linejoin="round"/>
</svg>
