<svg width="24" height="24" viewBox="0 0 24 24"  xmlns="http://www.w3.org/2000/svg">
<path fill-rule="evenodd" clip-rule="evenodd" d="M3 2.99998C2.44772 2.99998 2 3.4477 2 3.99998V20C2 20.5523 2.44772 21 3 21C3.55228 21 4 20.5523 4 20V3.99998C4 3.4477 3.55228 2.99998 3 2.99998Z" />
<path fill-rule="evenodd" clip-rule="evenodd" d="M8.99527 12L20 5.67819L20 18.3218L8.99527 12ZM6.52066 12.8849C5.82645 12.4861 5.82645 11.5138 6.52066 11.115L20.3932 3.14581C21.1023 2.73847 22 3.2329 22 4.03076L22 19.9692C22 20.7671 21.1023 21.2615 20.3932 20.8542L6.52066 12.8849Z" />
</svg>
