<svg xmlns="http://www.w3.org/2000/svg" width="24" height="24"><defs/><path fill-rule="evenodd" d="M1 5.856c3.333-1.57 6.627-3.102 9.96-4.673.575-.268 1.11-.23 1.685.038a703.196 703.196 0 019.386 4.406c.23.115.498.191.498.46 0 .344-.307.382-.536.497-2.988 1.418-6.015 2.797-9.003 4.214-.843.383-1.57.383-2.413 0C7.397 9.304 4.18 7.81 1 6.354v-.498zM1 17.77c.613-.306 1.188-.574 1.762-.88.728-.384 1.418-.307 2.145.037 1.916.92 3.87 1.8 5.785 2.72.728.345 1.417.345 2.145 0 1.954-.92 3.907-1.8 5.861-2.758.728-.345 1.417-.345 2.145 0 .422.23.881.421 1.303.613.191.115.46.192.421.46 0 .23-.23.344-.421.421l-4.367 2.069-4.942 2.298c-.651.307-1.302.345-1.954.038-3.103-1.455-6.205-2.873-9.27-4.328-.192-.077-.345-.23-.536-.345C1 18.038 1 17.923 1 17.77zm0-5.938c.46-.23.92-.42 1.34-.65 1.035-.614 1.993-.499 3.065.038 1.8.919 3.64 1.685 5.44 2.566.69.307 1.302.307 1.954 0 1.915-.92 3.869-1.8 5.784-2.72.805-.383 1.57-.421 2.375 0 .422.23.92.422 1.341.652.383.23.345.46 0 .69-.115.076-.23.114-.345.152-3.064 1.418-6.167 2.873-9.232 4.29-.613.307-1.226.307-1.839 0-3.064-1.417-6.167-2.872-9.232-4.29-.23-.115-.421-.268-.651-.383v-.345z"/></svg>