<svg width="24" height="24" viewBox="0 0 24 24"  xmlns="http://www.w3.org/2000/svg">
<path fill-rule="evenodd" clip-rule="evenodd" d="M16 14.7232V16C16 18.2091 14.2091 20 12 20H5C2.79086 20 1 18.2091 1 16V8C1 5.79086 2.79086 4 5 4H12C14.2091 4 16 5.79086 16 8V9.27682L21.5039 6.13176C21.8134 5.9549 22.1936 5.95617 22.5019 6.13509C22.8102 6.31401 23 6.64353 23 7V17C23 17.3565 22.8102 17.686 22.5019 17.8649C22.1936 18.0438 21.8134 18.0451 21.5039 17.8682L16 14.7232ZM5 6H12C13.1046 6 14 6.89543 14 8V16C14 17.1046 13.1046 18 12 18H5C3.89543 18 3 17.1046 3 16V8C3 6.89543 3.89543 6 5 6ZM16 12.4197L21 15.2768V8.72318L16 11.5803V12.4197Z" />
</svg>
