<svg width="24" height="24" viewBox="0 0 24 24"  xmlns="http://www.w3.org/2000/svg">
<path fill-rule="evenodd" clip-rule="evenodd" d="M12 21C16.9706 21 21 16.9706 21 12C21 7.02944 16.9706 3 12 3C7.02944 3 3 7.02944 3 12C3 16.9706 7.02944 21 12 21ZM12 23C18.0751 23 23 18.0751 23 12C23 5.92487 18.0751 1 12 1C5.92487 1 1 5.92487 1 12C1 18.0751 5.92487 23 12 23Z" />
<path fill-rule="evenodd" clip-rule="evenodd" d="M16.7071 9.29289C17.0976 9.68342 17.0976 10.3166 16.7071 10.7071L11.7071 15.7071C11.3166 16.0976 10.6834 16.0976 10.2929 15.7071L7.29289 12.7071C6.90237 12.3166 6.90237 11.6834 7.29289 11.2929C7.68342 10.9024 8.31658 10.9024 8.70711 11.2929L11 13.5858L15.2929 9.29289C15.6834 8.90237 16.3166 8.90237 16.7071 9.29289Z" />
</svg>
