<svg width="24" height="24" viewBox="0 0 24 24"  xmlns="http://www.w3.org/2000/svg">
<path fill-rule="evenodd" clip-rule="evenodd" d="M6 1C3.23858 1 1 3.23858 1 6V10.2353C1 12.6065 2.73207 14.5731 5 14.939V15C5 17.2091 6.79086 19 9 19H12V22.3539C12 22.9972 12.7567 23.342 13.2421 22.9199L17.75 19H19C21.2091 19 23 17.2091 23 15V9C23 6.79086 21.2091 5 19 5H18.9795C18.764 2.75526 16.8727 1 14.5714 1H6ZM16.9623 5C16.7599 3.86314 15.7665 3 14.5714 3H6C4.34315 3 3 4.34315 3 6V10.2353C3 11.4969 3.84505 12.5612 5 12.8929V9C5 6.79086 6.79086 5 9 5H16.9623ZM17.75 17C17.2677 17 16.8016 17.1743 16.4376 17.4908L14 19.6105V19C14 17.8954 13.1046 17 12 17H9C7.89543 17 7 16.1046 7 15V9C7 7.89543 7.89543 7 9 7H19C20.1046 7 21 7.89543 21 9V15C21 16.1046 20.1046 17 19 17H17.75Z" />
<path fill-rule="evenodd" clip-rule="evenodd" d="M9 10C9 9.44771 9.44771 9 10 9H18C18.5523 9 19 9.44771 19 10C19 10.5523 18.5523 11 18 11H10C9.44771 11 9 10.5523 9 10Z" />
<path fill-rule="evenodd" clip-rule="evenodd" d="M9 14C9 13.4477 9.44771 13 10 13H16C16.5523 13 17 13.4477 17 14C17 14.5523 16.5523 15 16 15H10C9.44771 15 9 14.5523 9 14Z" />
</svg>
