<svg width="24" height="24" viewBox="0 0 24 24"  xmlns="http://www.w3.org/2000/svg">
<path fill-rule="evenodd" clip-rule="evenodd" d="M9 22C9.53043 22 10.0391 21.7893 10.4142 21.4142L20 11.8284C21.5621 10.2663 21.5621 7.73368 20 6.17158L17.8284 4C16.2663 2.4379 13.7337 2.43791 12.1716 4L2.58579 13.5858C2.21071 13.9609 2 14.4696 2 15V20C2 21.1046 2.89543 22 4 22H9ZM16.4142 5.41422L18.5858 7.58579C19.3668 8.36684 19.3668 9.63317 18.5858 10.4142L17.2071 11.7929L12.2071 6.79286L13.5858 5.41422C14.3668 4.63317 15.6332 4.63317 16.4142 5.41422ZM10.7929 8.20707L4 15V20H9L15.7929 13.2071L10.7929 8.20707Z" />
</svg>
