<svg width="24" height="24" viewBox="0 0 24 24"  xmlns="http://www.w3.org/2000/svg">
<path d="M14.4974 1.27771C16.0949 1.6301 17.7463 2.3559 18.99 3.46611C19.2646 3.68938 19.5266 3.92943 19.7738 4.18651C20.0273 4.4365 20.2696 4.70025 20.4995 4.97738C20.5925 5.08877 20.6831 5.2024 20.7708 5.31839L20.7812 5.33195C21.7842 6.66412 22.494 8.23024 22.8103 9.93184C22.9334 10.5896 22.9985 11.2681 23 11.9619C23 18.0436 18.0676 22.9761 11.9859 22.9761C9.07526 22.9761 6.42633 21.8442 4.45641 19.9969C2.74067 18.3894 1.53919 16.2387 1.12596 13.8187L1.07808 13.393C0.859921 11.5041 1.09936 9.51945 1.79107 7.85935C2.26994 6.71004 3.23834 5.46497 3.99922 5.07122L3.99343 5.08257L4.00459 5.07674C3.30111 6.46285 2.94977 7.81323 2.86558 8.73806C3.36955 7.11003 4.31391 5.74288 5.62742 4.77907C7.89942 3.10832 10.9589 3.03383 12.1774 4.098L12.1727 4.09962L12.1827 4.10835C9.92137 4.88519 7.45782 8.00852 8.00054 11.6693C8.09632 12.329 8.28255 12.8718 8.53795 13.4092C8.1176 12.2971 8.08035 10.7328 8.76142 9.71651C9.5223 8.58318 10.6078 8.34374 11.1877 8.46612C9.44445 9.94985 9.80428 13.0162 12.2185 14.2456C12.7738 14.5283 13.4378 14.7139 14.21 14.7607C14.2612 14.7634 14.3111 14.7647 14.3609 14.7654C15.8931 14.7322 17.5136 13.6248 18.2752 12.4408C19.8235 10.0571 19.0733 6.74222 17.2323 4.75754C16.8438 4.34251 16.4129 3.96474 15.9499 3.63484C13.1831 1.66613 9.13926 1.34156 6.13831 3.09744C7.0056 2.25674 8.37838 1.581 9.94271 1.2511C11.3793 0.947817 12.9756 0.942496 14.4974 1.27771Z" />
</svg>
