<svg width="24" height="24" viewBox="0 0 24 24"  xmlns="http://www.w3.org/2000/svg">
<path d="M20.7812 5.30717C19.9352 4.19511 18.8976 3.27993 17.7323 2.58289C17.6791 2.55097 17.61 2.56161 17.5621 2.60418C17.4982 2.66803 17.5142 2.76912 17.5834 2.81701C19.7436 4.2164 21.4091 6.47244 21.7975 9.48404C22.5956 15.603 18.323 20.711 12.3104 20.727C5.7019 20.7483 1.67933 14.906 2.73286 9.65963C2.78607 9.39891 2.75947 9.14351 2.8446 8.89343C2.89249 7.97292 3.24366 6.52565 3.99922 5.04645C3.23834 5.44019 2.26995 6.68527 1.79107 7.83458C1.09936 9.49468 0.85992 11.4794 1.07808 13.3683C1.09404 13.5119 1.11 13.6503 1.12596 13.7939C2.01455 18.9977 6.54791 22.9564 12.0018 22.9458C18.0782 22.9352 23.0266 17.9495 22.9947 11.8678C22.984 9.40955 22.1593 7.13754 20.7812 5.30717Z" fill="url(#paint0_radial)"/>
<path opacity="0.67" d="M20.7812 5.30717C19.9352 4.19511 18.8976 3.27993 17.7323 2.58289C17.6791 2.55097 17.61 2.56161 17.5621 2.60418C17.4982 2.66803 17.5142 2.76912 17.5834 2.81701C19.7436 4.2164 21.4091 6.47244 21.7975 9.48404C22.5956 15.603 18.323 20.711 12.3104 20.727C5.7019 20.7483 1.67933 14.906 2.73286 9.65963C2.78607 9.39891 2.75947 9.14351 2.8446 8.89343C2.89249 7.97292 3.24366 6.52565 3.99922 5.04645C3.23834 5.44019 2.26995 6.68527 1.79107 7.83458C1.09936 9.49468 0.85992 11.4794 1.07808 13.3683C1.09404 13.5119 1.11 13.6503 1.12596 13.7939C2.01455 18.9977 6.54791 22.9564 12.0018 22.9458C18.0782 22.9352 23.0266 17.9495 22.9947 11.8678C22.984 9.40955 22.1593 7.13754 20.7812 5.30717Z" fill="url(#paint1_radial)"/>
<path d="M20.7812 5.30717C19.9352 4.19511 18.8976 3.27993 17.7323 2.58289C17.6791 2.55097 17.61 2.56161 17.5621 2.60418C17.4982 2.66803 17.5142 2.76912 17.5834 2.81701C19.7436 4.2164 21.4091 6.47244 21.7975 9.48404C22.5956 15.603 18.323 20.711 12.3104 20.727C5.7019 20.7483 1.67933 14.906 2.73286 9.65963C2.78607 9.39891 2.75947 9.14351 2.8446 8.89343C2.89249 7.97292 3.24366 6.52565 3.99922 5.04645C3.23834 5.44019 2.26995 6.68527 1.79107 7.83458C1.09936 9.49468 0.85992 11.4794 1.07808 13.3683C1.09404 13.5119 1.11 13.6503 1.12596 13.7939C2.01455 18.9977 6.54791 22.9564 12.0018 22.9458C18.0782 22.9352 23.0266 17.9495 22.9947 11.8678C22.984 9.40955 22.1593 7.13754 20.7812 5.30717Z" fill="url(#paint2_radial)"/>
<path d="M20.7812 5.30717C19.9352 4.19511 18.8976 3.27993 17.7323 2.58289C17.6791 2.55097 17.61 2.56161 17.5621 2.60418C17.4982 2.66803 17.5142 2.76912 17.5834 2.81701C19.7436 4.2164 21.4091 6.47244 21.7975 9.48404C22.5956 15.603 18.323 20.711 12.3104 20.727C5.7019 20.7483 1.67933 14.906 2.73286 9.65963C2.78607 9.39891 2.75947 9.14351 2.8446 8.89343C2.89249 7.97292 3.24366 6.52565 3.99922 5.04645C3.23834 5.44019 2.26995 6.68527 1.79107 7.83458C1.09936 9.49468 0.85992 11.4794 1.07808 13.3683C1.09404 13.5119 1.11 13.6503 1.12596 13.7939C2.01455 18.9977 6.54791 22.9564 12.0018 22.9458C18.0782 22.9352 23.0266 17.9495 22.9947 11.8678C22.984 9.40955 22.1593 7.13754 20.7812 5.30717Z" fill="url(#paint3_radial)"/>
<path d="M20.7812 5.30717C19.9352 4.19511 18.8976 3.27993 17.7323 2.58289C17.6791 2.55097 17.61 2.56161 17.5621 2.60418C17.4982 2.66803 17.5142 2.76912 17.5834 2.81701C19.7436 4.2164 21.4091 6.47244 21.7975 9.48404C22.5956 15.603 18.323 20.711 12.3104 20.727C5.7019 20.7483 1.67933 14.906 2.73286 9.65963C2.78607 9.39891 2.75947 9.14351 2.8446 8.89343C2.89249 7.97292 3.24366 6.52565 3.99922 5.04645C3.23834 5.44019 2.26995 6.68527 1.79107 7.83458C1.09936 9.49468 0.85992 11.4794 1.07808 13.3683C1.09404 13.5119 1.11 13.6503 1.12596 13.7939C2.01455 18.9977 6.54791 22.9564 12.0018 22.9458C18.0782 22.9352 23.0266 17.9495 22.9947 11.8678C22.984 9.40955 22.1593 7.13754 20.7812 5.30717Z" fill="url(#paint4_radial)"/>
<path d="M22.0688 9.18094C21.7123 5.97778 19.9139 3.79091 17.6153 2.5139C17.2322 2.30107 16.748 2.39153 16.4713 2.73206L16.466 2.73738C19.0838 4.3496 20.7333 7.2069 20.8184 10.1866C20.9195 13.8101 17.9452 16.6993 14.5185 16.8642C12.0284 16.9866 9.68189 15.7841 8.53258 13.3738C8.27718 12.8364 8.09095 12.2936 7.99518 11.6339C7.45245 7.9731 9.916 4.84976 12.1774 4.07292C10.9589 3.00874 7.8994 3.08324 5.6274 4.75398C3.98857 5.9565 2.9244 7.78687 2.57323 9.96842C2.30718 11.6339 2.55726 13.3631 3.21705 14.9062C3.88748 16.4811 4.97825 17.8699 6.35635 18.8915C7.84619 20.0036 9.64464 20.6474 11.4963 20.7857C11.7677 20.807 12.0443 20.8176 12.3157 20.8176C19.5893 20.8283 22.7499 15.3159 22.0688 9.18094Z" fill="url(#paint5_radial)"/>
<path d="M22.0688 9.18094C21.7123 5.97778 19.9139 3.79091 17.6153 2.5139C17.2322 2.30107 16.748 2.39153 16.4713 2.73206L16.466 2.73738C19.0838 4.3496 20.7333 7.2069 20.8184 10.1866C20.9195 13.8101 17.9452 16.6993 14.5185 16.8642C12.0284 16.9866 9.68189 15.7841 8.53258 13.3738C8.27718 12.8364 8.09095 12.2936 7.99518 11.6339C7.45245 7.9731 9.916 4.84976 12.1774 4.07292C10.9589 3.00874 7.8994 3.08324 5.6274 4.75398C3.98857 5.9565 2.9244 7.78687 2.57323 9.96842C2.30718 11.6339 2.55726 13.3631 3.21705 14.9062C3.88748 16.4811 4.97825 17.8699 6.35635 18.8915C7.84619 20.0036 9.64464 20.6474 11.4963 20.7857C11.7677 20.807 12.0443 20.8176 12.3157 20.8176C19.5893 20.8283 22.7499 15.3159 22.0688 9.18094Z" fill="url(#paint6_radial)"/>
<path opacity="0.53" d="M22.0688 9.18094C21.7123 5.97778 19.9139 3.79091 17.6153 2.5139C17.2322 2.30107 16.748 2.39153 16.4713 2.73206L16.466 2.73738C19.0838 4.3496 20.7333 7.2069 20.8184 10.1866C20.9195 13.8101 17.9452 16.6993 14.5185 16.8642C12.0284 16.9866 9.68189 15.7841 8.53258 13.3738C8.27718 12.8364 8.09095 12.2936 7.99518 11.6339C7.45245 7.9731 9.916 4.84976 12.1774 4.07292C10.9589 3.00874 7.8994 3.08324 5.6274 4.75398C3.98857 5.9565 2.9244 7.78687 2.57323 9.96842C2.30718 11.6339 2.55726 13.3631 3.21705 14.9062C3.88748 16.4811 4.97825 17.8699 6.35635 18.8915C7.84619 20.0036 9.64464 20.6474 11.4963 20.7857C11.7677 20.807 12.0443 20.8176 12.3157 20.8176C19.5893 20.8283 22.7499 15.3159 22.0688 9.18094Z" fill="url(#paint7_radial)"/>
<path opacity="0.53" d="M22.0688 9.18094C21.7123 5.97778 19.9139 3.79091 17.6153 2.5139C17.2322 2.30107 16.748 2.39153 16.4713 2.73206L16.466 2.73738C19.0838 4.3496 20.7333 7.2069 20.8184 10.1866C20.9195 13.8101 17.9452 16.6993 14.5185 16.8642C12.0284 16.9866 9.68189 15.7841 8.53258 13.3738C8.27718 12.8364 8.09095 12.2936 7.99518 11.6339C7.45245 7.9731 9.916 4.84976 12.1774 4.07292C10.9589 3.00874 7.8994 3.08324 5.6274 4.75398C3.98857 5.9565 2.9244 7.78687 2.57323 9.96842C2.30718 11.6339 2.55726 13.3631 3.21705 14.9062C3.88748 16.4811 4.97825 17.8699 6.35635 18.8915C7.84619 20.0036 9.64464 20.6474 11.4963 20.7857C11.7677 20.807 12.0443 20.8176 12.3157 20.8176C19.5893 20.8283 22.7499 15.3159 22.0688 9.18094Z" fill="url(#paint8_radial)"/>
<path d="M16.482 2.72129C16.4767 2.72661 16.4767 2.73194 16.4713 2.73726C16.1574 3.12568 16.2213 3.68969 16.6044 4.00894C18.2538 5.36044 19.3606 7.28126 19.3606 9.50006C19.3606 12.5649 16.9875 14.9007 14.21 14.7358C10.081 14.4857 9.04343 10.2663 11.1877 8.44121C10.6078 8.31883 9.5223 8.55827 8.76142 9.69161C8.08035 10.7079 8.1176 12.2722 8.53794 13.3843C9.68725 15.7893 12.0337 17.0237 14.5239 16.8748C19.2275 16.5874 21.2388 12.7085 21.3665 9.94701C21.5049 6.95137 20.8291 4.29627 17.626 2.50846C17.2375 2.2903 16.7587 2.38076 16.482 2.72129Z" fill="url(#paint9_radial)"/>
<path d="M20.7812 5.3073C20.4886 4.91888 20.164 4.55706 19.8235 4.21653C19.5521 3.9292 19.2595 3.66316 18.9509 3.41308C19.1265 3.56738 19.2967 3.73233 19.4617 3.9026C20.0576 4.54642 20.5312 5.3073 20.8025 6.13736C21.3772 7.87195 21.3399 10.0482 20.2438 11.7509C18.9349 13.7834 16.8066 14.7891 14.508 14.7412C14.4069 14.7412 14.3111 14.7412 14.21 14.7359C10.081 14.4858 9.04344 10.2663 11.1877 8.44129C10.6078 8.31891 9.52232 8.55834 8.76144 9.69169C8.08037 10.708 8.11762 12.2723 8.53796 13.3844C8.28256 12.847 8.09633 12.3042 8.00056 11.6444C7.45783 7.98369 9.92138 4.86035 12.1827 4.08351C10.9643 3.01933 7.90478 3.09383 5.63278 4.76457C4.30788 5.73829 3.36077 7.12171 2.86061 8.77118C2.9351 7.84535 3.28628 6.46725 4.0046 5.0519C3.24371 5.44564 2.27532 6.69072 1.79644 7.84003C1.10473 9.50013 0.865291 11.4848 1.08345 13.3737C1.09941 13.5174 1.11537 13.6557 1.13133 13.7994C2.0146 18.9925 6.54264 22.9513 11.9859 22.9513C18.0676 22.9513 23 18.0188 23 11.9371C22.9947 9.44693 22.17 7.15364 20.7812 5.3073Z" fill="url(#paint10_linear)"/>
<path d="M20.8026 6.13735C20.5259 5.3073 20.0576 4.54642 19.4617 3.90259C18.1847 2.52981 16.3064 1.65187 14.4973 1.25281C12.9756 0.917593 11.3793 0.922914 9.94269 1.2262C8.37836 1.5561 7.00557 2.23184 6.13828 3.07254C9.13924 1.31666 13.1831 1.64123 15.9499 3.60995C16.4128 3.93984 16.8438 4.31762 17.2323 4.73265C19.0733 6.71732 19.8235 10.0322 18.2751 12.416C17.4983 13.6238 15.8276 14.7518 14.2685 14.7412C16.6576 14.8689 18.887 13.8579 20.2385 11.7562C21.34 10.0482 21.3772 7.87195 20.8026 6.13735Z" fill="url(#paint11_linear)"/>
<path d="M20.8026 6.13735C20.5259 5.3073 20.0576 4.54642 19.4617 3.90259C18.1847 2.52981 16.3064 1.65187 14.4973 1.25281C12.9756 0.917593 11.3793 0.922914 9.94269 1.2262C8.37836 1.5561 7.00557 2.23184 6.13828 3.07254C9.13924 1.31666 13.1831 1.64123 15.9499 3.60995C16.4128 3.93984 16.8438 4.31762 17.2323 4.73265C19.0733 6.71732 19.8235 10.0322 18.2751 12.416C17.4983 13.6238 15.8276 14.7518 14.2685 14.7412C16.6576 14.8689 18.887 13.8579 20.2385 11.7562C21.34 10.0482 21.3772 7.87195 20.8026 6.13735Z" fill="url(#paint12_linear)"/>
<defs>
<radialGradient id="paint0_radial" cx="0" cy="0" r="1" gradientUnits="userSpaceOnUse" gradientTransform="translate(20.6673 5.23842) scale(24.8528)">
<stop stop-color="#FFF44F"/>
<stop offset="0.2949" stop-color="#FF980E"/>
<stop offset="0.4315" stop-color="#FF5D36"/>
<stop offset="0.5302" stop-color="#FF3750"/>
<stop offset="0.7493" stop-color="#F5156C"/>
<stop offset="0.7648" stop-color="#F1136E"/>
<stop offset="0.8801" stop-color="#DA057A"/>
<stop offset="0.9528" stop-color="#D2007F"/>
</radialGradient>
<radialGradient id="paint1_radial" cx="0" cy="0" r="1" gradientUnits="userSpaceOnUse" gradientTransform="translate(2.81987 7.38393) scale(14.354)">
<stop stop-color="#B5007F"/>
<stop offset="1" stop-color="#F5156C" stop-opacity="0"/>
</radialGradient>
<radialGradient id="paint2_radial" cx="0" cy="0" r="1" gradientUnits="userSpaceOnUse" gradientTransform="translate(22.8013 5.10546) scale(27.2267)">
<stop stop-color="#FFDD00" stop-opacity="0.6"/>
<stop offset="0.0836672" stop-color="#FFD801" stop-opacity="0.5244"/>
<stop offset="0.1822" stop-color="#FECA05" stop-opacity="0.4353"/>
<stop offset="0.2884" stop-color="#FEB20C" stop-opacity="0.3394"/>
<stop offset="0.3998" stop-color="#FD9115" stop-opacity="0.2388"/>
<stop offset="0.5154" stop-color="#FB6621" stop-opacity="0.1343"/>
<stop offset="0.6329" stop-color="#F9332F" stop-opacity="0.028164"/>
<stop offset="0.664" stop-color="#F92433" stop-opacity="0"/>
</radialGradient>
<radialGradient id="paint3_radial" cx="0" cy="0" r="1" gradientUnits="userSpaceOnUse" gradientTransform="translate(12.6248 13.9047) scale(36.5804)">
<stop offset="0.1528" stop-color="#960E18"/>
<stop offset="0.2061" stop-color="#CC2335" stop-opacity="0.5541"/>
<stop offset="0.2495" stop-color="#F13148" stop-opacity="0.1914"/>
<stop offset="0.2724" stop-color="#FF3750" stop-opacity="0"/>
</radialGradient>
<radialGradient id="paint4_radial" cx="0" cy="0" r="1" gradientUnits="userSpaceOnUse" gradientTransform="translate(9.76305 13.463) scale(36.8351)">
<stop offset="0.1129" stop-color="#960E18"/>
<stop offset="0.1893" stop-color="#CC2335" stop-opacity="0.5541"/>
<stop offset="0.2515" stop-color="#F13148" stop-opacity="0.1914"/>
<stop offset="0.2843" stop-color="#FF3750" stop-opacity="0"/>
</radialGradient>
<radialGradient id="paint5_radial" cx="0" cy="0" r="1" gradientUnits="userSpaceOnUse" gradientTransform="translate(20.1417 4.51877) scale(23.1471)">
<stop stop-color="#FF980E"/>
<stop offset="0.295" stop-color="#FF7139"/>
<stop offset="0.4846" stop-color="#FF5B51"/>
<stop offset="0.626" stop-color="#FF4F5E"/>
<stop offset="0.7365" stop-color="#FF4055"/>
<stop offset="0.8428" stop-color="#FF3750"/>
</radialGradient>
<radialGradient id="paint6_radial" cx="0" cy="0" r="1" gradientUnits="userSpaceOnUse" gradientTransform="translate(20.1417 5.36956) scale(21.9582)">
<stop offset="0.0840745" stop-color="#FFDE08"/>
<stop offset="0.2081" stop-color="#FFD609" stop-opacity="0.832"/>
<stop offset="0.4033" stop-color="#FFBF0B" stop-opacity="0.5677"/>
<stop offset="0.6437" stop-color="#FF9B0F" stop-opacity="0.242"/>
<stop offset="0.8224" stop-color="#FF7B12" stop-opacity="0"/>
</radialGradient>
<radialGradient id="paint7_radial" cx="0" cy="0" r="1" gradientUnits="userSpaceOnUse" gradientTransform="translate(14.7277 12.1933) rotate(75.6841) scale(11.0525 11.5342)">
<stop offset="0.3634" stop-color="#FF3750"/>
<stop offset="0.4111" stop-color="#FF444B" stop-opacity="0.7895"/>
<stop offset="0.5902" stop-color="#FF7139" stop-opacity="0"/>
</radialGradient>
<radialGradient id="paint8_radial" cx="0" cy="0" r="1" gradientUnits="userSpaceOnUse" gradientTransform="translate(12.7469 13.1046) rotate(75.6841) scale(11.1788 11.1884)">
<stop offset="0.2159" stop-color="#FF3750" stop-opacity="0.8"/>
<stop offset="0.2702" stop-color="#FF444B" stop-opacity="0.6316"/>
<stop offset="0.4739" stop-color="#FF7139" stop-opacity="0"/>
</radialGradient>
<radialGradient id="paint9_radial" cx="0" cy="0" r="1" gradientUnits="userSpaceOnUse" gradientTransform="translate(24.8256 1.84733) scale(39.1611)">
<stop offset="0.0535657" stop-color="#FFF44F"/>
<stop offset="0.4573" stop-color="#FF980E"/>
<stop offset="0.5211" stop-color="#FF8424"/>
<stop offset="0.5871" stop-color="#FF7634"/>
<stop offset="0.6393" stop-color="#FF7139"/>
</radialGradient>
<linearGradient id="paint10_linear" x1="17.2271" y1="2.93685" x2="5.99966" y2="22.3833" gradientUnits="userSpaceOnUse">
<stop stop-color="#FFF44F" stop-opacity="0.8"/>
<stop offset="0.75" stop-color="#FFF44F" stop-opacity="0"/>
</linearGradient>
<linearGradient id="paint11_linear" x1="13.6526" y1="14.8056" x2="13.6526" y2="1.13997" gradientUnits="userSpaceOnUse">
<stop stop-color="#3A8EE6"/>
<stop offset="0.1016" stop-color="#4D82EB"/>
<stop offset="0.3885" stop-color="#7D65FA"/>
<stop offset="0.5309" stop-color="#9059FF"/>
<stop offset="0.6915" stop-color="#9D50F8"/>
<stop offset="0.9888" stop-color="#C03AE7"/>
<stop offset="1" stop-color="#C139E6"/>
</linearGradient>
<linearGradient id="paint12_linear" x1="11.2493" y1="0.643117" x2="18.7047" y2="13.5563" gradientUnits="userSpaceOnUse">
<stop offset="0.8054" stop-color="#9059FF" stop-opacity="0"/>
<stop offset="1" stop-color="#6E008B" stop-opacity="0.5"/>
</linearGradient>
</defs>
</svg>
