<svg width="24" height="24" viewBox="0 0 24 24"  xmlns="http://www.w3.org/2000/svg">
<path fill-rule="evenodd" clip-rule="evenodd" d="M23.0001 12.2492C23.0001 11.4692 22.9286 10.7193 22.796 9.99927H12.2246V14.2542H18.2654C18.0052 15.6292 17.2144 16.7941 16.0256 17.5741V20.3341H19.6531C21.7756 18.4191 23.0001 15.5992 23.0001 12.2492Z" fill="#1F87FC"/>
<path fill-rule="evenodd" clip-rule="evenodd" d="M12.2247 22.9998C15.2553 22.9998 17.7961 22.0149 19.6532 20.3349L16.0257 17.575C15.0206 18.2349 13.7349 18.6249 12.2247 18.6249C9.30119 18.6249 6.82671 16.69 5.94406 14.09H2.19406V16.94C4.041 20.5349 7.83691 22.9998 12.2247 22.9998Z" fill="#00AB47"/>
<path fill-rule="evenodd" clip-rule="evenodd" d="M5.94387 14.0898C5.71938 13.4298 5.59183 12.7248 5.59183 11.9998C5.59183 11.2749 5.71938 10.5699 5.94387 9.90988V7.05994H2.19388C1.43367 8.54491 1 10.2249 1 11.9998C1 13.7748 1.43367 15.4548 2.19388 16.9397L5.94387 14.0898Z" fill="#FFB900"/>
<path fill-rule="evenodd" clip-rule="evenodd" d="M12.2243 5.37491C13.8723 5.37491 15.3519 5.9299 16.5151 7.01988L19.7345 3.86494C17.7906 2.08998 15.2498 1 12.2243 1C7.83657 1 4.04066 3.46495 2.19373 7.05988L5.94372 9.90982C6.82637 7.30987 9.30086 5.37491 12.2243 5.37491Z" fill="#FE2B25"/>
</svg>
