<svg width="24" height="24" viewBox="0 0 24 24"  xmlns="http://www.w3.org/2000/svg">
<path d="M16.58 4C19.27 4 21 5.84 21 8.7C21 12.06 17.97 15.42 12 20.65C6.03 15.41 3 12.06 3 8.7C3 5.67 4.57 4 7.42 4C8.59 4 9.58 4.51 10.47 5.57L11.2332 6.48782C11.6323 6.96783 12.3689 6.96882 12.7693 6.48988L13.53 5.58C14.42 4.51 15.42 4 16.58 4ZM16.58 2C14.8 2 13.26 2.78 12 4.29C10.74 2.78 9.2 2 7.42 2C3.59 2 1 4.44 1 8.7C1 12.9 4.5 16.88 11.42 22.79C11.59 22.93 11.79 23 12 23C12.21 23 12.41 22.93 12.58 22.78C19.5 16.88 23 12.9 23 8.7C23 4.55 20.18 2 16.58 2Z" />
</svg>
