<svg width="24" height="24" viewBox="0 0 24 24"  xmlns="http://www.w3.org/2000/svg">
<path fill-rule="evenodd" clip-rule="evenodd" d="M4 4C2.34315 4 1 5.34315 1 7V17C1 18.6569 2.34315 20 4 20H20C21.6569 20 23 18.6569 23 17V7C23 5.34315 21.6569 4 20 4H4ZM3.04445 6.70426C3.17056 6.29635 3.55067 6 4 6H20C20.4493 6 20.8294 6.29635 20.9555 6.70426L20.9353 6.67469L12 12.7883L3.06468 6.67469L3.04445 6.70426ZM3 9.05378V17C3 17.5523 3.44772 18 4 18H20C20.5523 18 21 17.5523 21 17V9.05378L13.1294 14.4389C12.4485 14.9048 11.5515 14.9048 10.8706 14.4389L3 9.05378Z" />
</svg>
