<svg width="24" height="24" viewBox="0 0 24 24"  xmlns="http://www.w3.org/2000/svg">
<path fill-rule="evenodd" clip-rule="evenodd" d="M6 4C4.89543 4 4 4.89543 4 6V18C4 19.1046 4.89543 20 6 20H18C19.1046 20 20 19.1046 20 18V15C20 14.4477 20.4477 14 21 14C21.5523 14 22 14.4477 22 15V18C22 20.2091 20.2091 22 18 22H6C3.79086 22 2 20.2091 2 18V6C2 3.79086 3.79086 2 6 2H9C9.55228 2 10 2.44772 10 3C10 3.55228 9.55228 4 9 4H6Z" />
<path fill-rule="evenodd" clip-rule="evenodd" d="M13 3C13 2.44772 13.4477 2 14 2H21C21.5523 2 22 2.44772 22 3V10C22 10.5523 21.5523 11 21 11C20.4477 11 20 10.5523 20 10V5.41421L12.7071 12.7071C12.3166 13.0976 11.6834 13.0976 11.2929 12.7071C10.9024 12.3166 10.9024 11.6834 11.2929 11.2929L18.5858 4H14C13.4477 4 13 3.55228 13 3Z" />
</svg>
