<svg xmlns="http://www.w3.org/2000/svg" width="24" height="24" fill="none"><defs/><path fill="#000" fill-rule="evenodd" d="M15.77 1.027a1 1 0 01.937.266l6 6a1 1 0 01-.39 1.656l-2.73.91-4.445 5.333a6.368 6.368 0 01-.155 4.501 7.005 7.005 0 01-.812 1.451 6 6 0 01-.45.544l-.01.012-.005.004-.001.002h-.001v.001a1 1 0 01-1.415 0L8 17.414l-4.793 4.793a1 1 0 01-1.414-1.414L6.586 16l-4.293-4.293a1 1 0 01-.15-1.222s0 .001 0 0l.001-.002.002-.003.004-.007.01-.016a2.03 2.03 0 01.118-.167c.074-.098.18-.224.32-.364.28-.281.702-.62 1.292-.895 1.113-.52 2.71-.76 4.886-.146l5.365-4.471.91-2.73a1 1 0 01.72-.657z" clip-rule="evenodd"/></svg>