<svg xmlns="http://www.w3.org/2000/svg" width="24" height="24"><defs/><path fill-rule="evenodd" d="M0 10.88C0 4.855 5.404 0 11.998 0 18.595 0 24 4.855 24 10.88c0 6.293-5.763 11.334-13.221 11.07a12.34 12.34 0 01-1.546.804 23.13 23.13 0 01-1.85.72 26.72 26.72 0 01-.96.309c-2.727.745-4.145-.78-2.772-2.992.136-.218.267-.467.402-.76.068-.147.2-.462.329-.77C1.609 17.209 0 14.176 0 10.88zm5.862 10.983a26.234 26.234 0 00.872-.281c.582-.2 1.156-.42 1.688-.656.611-.27 1.126-.545 1.507-.81l.283-.197.344.02C17.071 20.305 22 16.072 22 10.88 22 6.01 17.535 2 11.998 2 6.464 2 2 6.01 2 10.88c0 2.863 1.518 5.492 4.155 7.174l.726.463-.35.788c-.05.109-.492 1.196-.662 1.564a8.808 8.808 0 01-.52.979c-.03.048-.056.093-.08.136.17-.02.371-.06.593-.12zM12 9c-.6-.607-1.134-1-2.002-1C8.868 8 8 8.815 8 10c0 1.033 1.333 2.7 4 5 2.667-2.3 4-3.967 4-5 0-1.185-.87-2-2-2-.869 0-1.4.393-2 1z"/></svg>