<svg width="24" height="24" viewBox="0 0 24 24"  xmlns="http://www.w3.org/2000/svg">
<path fill-rule="evenodd" clip-rule="evenodd" d="M16.9876 6.95872C14.254 4.22505 9.82181 4.22505 7.08814 6.95872C5.9169 8.12996 5.24832 9.61037 5.0802 11.1373C5.01976 11.6863 4.52573 12.0823 3.97676 12.0219C3.4278 11.9614 3.03177 11.4674 3.09221 10.9184C3.30831 8.95576 4.16962 7.04881 5.67392 5.54451C9.18864 2.02979 14.8871 2.02979 18.4018 5.54451C18.7419 5.88455 19.0494 6.24557 19.3243 6.6236C19.649 7.07032 19.5501 7.69572 19.1034 8.02047C18.6567 8.34522 18.0313 8.24635 17.7066 7.79963C17.493 7.50588 17.2535 7.22454 16.9876 6.95872Z" />
<path fill-rule="evenodd" clip-rule="evenodd" d="M7.2713 17.0414C10.005 19.7751 14.4371 19.7751 17.1708 17.0414C18.342 15.8701 19.0106 14.3897 19.1787 12.8628C19.2392 12.3138 19.7332 11.9178 20.2822 11.9782C20.8311 12.0387 21.2272 12.5327 21.1667 13.0817C20.9506 15.0443 20.0893 16.9513 18.585 18.4556C15.0703 21.9703 9.37181 21.9703 5.85709 18.4556C5.51705 18.1156 5.20949 17.7545 4.93467 17.3765C4.60992 16.9298 4.70879 16.3044 5.15551 15.9796C5.60223 15.6549 6.22762 15.7538 6.55237 16.2005C6.76592 16.4942 7.00548 16.7756 7.2713 17.0414Z" />
<path fill-rule="evenodd" clip-rule="evenodd" d="M19.109 2.42319C19.6612 2.42319 20.109 2.8709 20.109 3.42319V7.66583C20.109 8.21811 19.6612 8.66583 19.109 8.66583L14.8663 8.66583C14.314 8.66583 13.8663 8.21811 13.8663 7.66583C13.8663 7.11354 14.314 6.66583 14.8663 6.66583L18.109 6.66583V3.42319C18.109 2.8709 18.5567 2.42319 19.109 2.42319Z" />
<path fill-rule="evenodd" clip-rule="evenodd" d="M10.2095 16.1511C10.2095 15.5988 9.76174 15.1511 9.20946 15.1511H4.96682C4.41453 15.1511 3.96682 15.5988 3.96682 16.1511L3.96682 20.3937C3.96682 20.946 4.41453 21.3937 4.96682 21.3937C5.5191 21.3937 5.96682 20.946 5.96682 20.3937L5.96682 17.1511H9.20946C9.76174 17.1511 10.2095 16.7034 10.2095 16.1511Z" />
</svg>
