<svg width="24" height="24" viewBox="0 0 24 24"  xmlns="http://www.w3.org/2000/svg">
<path d="M11.9794 2.83333C17.0515 2.83333 21.1632 6.93739 21.1632 12C21.1632 17.0626 17.0515 21.1667 11.9794 21.1667C7.1893 21.1667 3.25484 17.5055 2.83311 12.8344C2.78759 12.3302 2.34117 11.9583 1.83601 12.0037C1.33085 12.0491 0.958242 12.4947 1.00376 12.9989C1.51003 18.6064 6.23017 23 11.9794 23C18.0659 23 23 18.0751 23 12C23 5.92487 18.0659 1 11.9794 1C8.51636 1 5.42752 2.59434 3.40777 5.08588L3.40779 3.41619C3.40779 2.90993 2.99663 2.49952 2.48942 2.49952C1.98221 2.49951 1.57103 2.90991 1.57103 3.41618L1.57098 7.76378C1.57097 8.52318 2.18774 9.13879 2.94855 9.13879H6.38572C6.89292 9.13879 7.3041 8.72839 7.3041 8.22213C7.3041 7.71587 6.89292 7.30546 6.38572 7.30546L4.08955 7.30546C5.69354 4.62568 8.62757 2.83333 11.9794 2.83333Z" />
<path d="M16.8766 13.6225C16.8766 15.0158 15.8756 15.905 14.3602 15.905C12.7439 15.905 11.9908 15.025 11.9265 13.8517H13.2949C13.3776 14.4017 13.598 14.7683 14.351 14.7683C15.0215 14.7683 15.3796 14.3008 15.3796 13.6042C15.3796 12.8983 14.9755 12.4583 14.3143 12.4583C13.699 12.4583 13.3225 12.6783 13.0561 12.9808H12.2296L12.3214 9.25H16.4817V10.3775H13.4327L13.4051 12.0183C13.6623 11.7067 14.1215 11.4133 14.8653 11.4133C16.0592 11.4133 16.8766 12.2292 16.8766 13.6225Z" />
<path d="M10.7908 15.8042H9.30304V10.7167L7.97139 11.5875V10.3225L9.48672 9.25H10.7908V15.8042Z" />
</svg>
