<svg width="24" height="24" viewBox="0 0 24 24"  xmlns="http://www.w3.org/2000/svg">
<path fill-rule="evenodd" clip-rule="evenodd" d="M21 3C21.5523 3 22 3.44772 22 4V20C22 20.5523 21.5523 21 21 21C20.4477 21 20 20.5523 20 20V4C20 3.44772 20.4477 3 21 3Z" />
<path fill-rule="evenodd" clip-rule="evenodd" d="M14.5047 12L3.5 5.6782L3.5 18.3218L14.5047 12ZM16.9793 12.8849C17.6736 12.4862 17.6736 11.5139 16.9793 11.1151L3.10682 3.14581C2.39774 2.73847 1.5 3.2329 1.5 4.03076L1.5 19.9692C1.5 20.7671 2.39774 21.2615 3.10682 20.8542L16.9793 12.8849Z" />
</svg>
