<svg width="24" height="24" viewBox="0 0 24 24"  xmlns="http://www.w3.org/2000/svg">
<path fill-rule="evenodd" clip-rule="evenodd" d="M16.7071 9.29289C17.0976 9.68342 17.0976 10.3166 16.7071 10.7071L11.7071 15.7071C11.3166 16.0976 10.6834 16.0976 10.2929 15.7071L7.29289 12.7071C6.90237 12.3166 6.90237 11.6834 7.29289 11.2929C7.68342 10.9024 8.31658 10.9024 8.70711 11.2929L11 13.5858L15.2929 9.29289C15.6834 8.90237 16.3166 8.90237 16.7071 9.29289Z" />
<path fill-rule="evenodd" clip-rule="evenodd" d="M12 3.4325L10.1561 4.709C9.73207 5.00258 9.23948 5.18186 8.72592 5.22955L6.49292 5.43692L5.90095 7.59999C5.7648 8.09746 5.5027 8.55143 5.13995 8.91807L3.56266 10.5123L4.49958 12.5498C4.71506 13.0184 4.80609 13.5346 4.76387 14.0487L4.58033 16.2837L6.60774 17.2423C7.07402 17.4628 7.47558 17.7997 7.77366 18.2207L9.06974 20.0508L11.239 19.4819C11.7379 19.3511 12.2621 19.3511 12.761 19.4819L14.9303 20.0508L16.2263 18.2207C16.5244 17.7997 16.926 17.4628 17.3923 17.2423L19.4197 16.2837L19.2361 14.0487C19.1939 13.5346 19.2849 13.0184 19.5004 12.5498L20.4373 10.5123L18.86 8.91807C18.4973 8.55143 18.2352 8.09746 18.0991 7.59999L17.5071 5.43692L15.2741 5.22955C14.7605 5.18186 14.2679 5.00257 13.8439 4.709L12 3.4325ZM12.5692 1.39405C12.2268 1.15698 11.7732 1.15698 11.4308 1.39405L9.01773 3.0646C8.87637 3.16246 8.71218 3.22222 8.54099 3.23812L5.61866 3.5095C5.20395 3.54801 4.85653 3.83953 4.74659 4.24125L3.97188 7.07206C3.9265 7.23788 3.83914 7.38921 3.71822 7.51142L1.65402 9.59774C1.36109 9.89381 1.28234 10.3404 1.45634 10.7189L2.68249 13.3853C2.75431 13.5415 2.78465 13.7136 2.77058 13.885L2.53038 16.81C2.49629 17.2251 2.72305 17.6179 3.09958 17.7959L5.75286 19.0504C5.90828 19.1239 6.04213 19.2362 6.14149 19.3765L7.83768 21.7717C8.07838 22.1115 8.50456 22.2667 8.90743 22.161L11.7463 21.4165C11.9126 21.3729 12.0874 21.3729 12.2537 21.4165L15.0926 22.161C15.4954 22.2667 15.9216 22.1115 16.1623 21.7717L17.8585 19.3765C17.9579 19.2362 18.0917 19.1239 18.2471 19.0504L20.9004 17.7959C21.2769 17.6179 21.5037 17.2251 21.4696 16.81L21.2294 13.885C21.2153 13.7136 21.2457 13.5415 21.3175 13.3853L22.5437 10.7189C22.7177 10.3404 22.6389 9.89381 22.346 9.59774L20.2818 7.51142C20.1609 7.38921 20.0735 7.23788 20.0281 7.07206L19.2534 4.24125C19.1435 3.83953 18.796 3.54801 18.3813 3.5095L15.459 3.23812C15.2878 3.22222 15.1236 3.16246 14.9823 3.0646L12.5692 1.39405Z" />
</svg>
