<svg width="24" height="24" viewBox="0 0 24 24" fill="none" xmlns="http://www.w3.org/2000/svg">
  <path fill-rule="evenodd" clip-rule="evenodd" d="M12 2C11.2526 2 10.2491 2.71217 9.37483 4.63563C9.1854 5.05238 9.01104 5.50891 8.85469 6H15.1453C14.989 5.50891 14.8146 5.05238 14.6252 4.63563C13.7509 2.71217 12.7474 2 12 2ZM7.5541 3.80802C7.25229 4.47201 6.98856 5.20759 6.76822 6H3.99927C5.04681 4.60537 6.4505 3.49355 8.07531 2.79955C7.88574 3.12233 7.71193 3.4608 7.5541 3.80802ZM6.32597 8H2.83209C2.2969 9.22493 2 10.5778 2 12C2 13.4222 2.29689 14.7751 2.83209 16H6.32597C6.11388 14.745 6 13.3971 6 12C6 10.6029 6.11388 9.255 6.32597 8ZM6.76822 18H3.99927C5.04681 19.3946 6.4505 20.5065 8.07532 21.2005C7.88574 20.8777 7.71193 20.5392 7.5541 20.192C7.25229 19.528 6.98856 18.7924 6.76822 18ZM8.85469 18H15.1453C14.989 18.4911 14.8146 18.9476 14.6252 19.3644C13.7509 21.2878 12.7474 22 12 22C11.2526 22 10.2491 21.2878 9.37483 19.3644C9.1854 18.9476 9.01104 18.4911 8.85469 18ZM15.6427 16H8.35732C8.12876 14.7784 8 13.4279 8 12C8 10.5721 8.12876 9.22159 8.35732 8H15.6427C15.8712 9.22159 16 10.5721 16 12C16 13.4279 15.8712 14.7784 15.6427 16ZM17.2318 18C17.0114 18.7924 16.7477 19.528 16.4459 20.192C16.2881 20.5392 16.1143 20.8777 15.9247 21.2005C17.5495 20.5065 18.9532 19.3946 20.0007 18H17.2318ZM21.1679 16H17.674C17.8861 14.745 18 13.3971 18 12C18 10.6029 17.8861 9.255 17.674 8H21.1679C21.7031 9.22493 22 10.5778 22 12C22 13.4222 21.7031 14.7751 21.1679 16ZM15.9247 2.79955C17.5495 3.49355 18.9532 4.60537 20.0007 6H17.2318C17.0114 5.20759 16.7477 4.47201 16.4459 3.80802C16.2881 3.4608 16.1143 3.12233 15.9247 2.79955ZM12 24C18.6274 24 24 18.6274 24 12C24 5.37258 18.6274 0 12 0C5.37258 0 0 5.37258 0 12C0 18.6274 5.37258 24 12 24Z" fill="#1A1A1A"/>
</svg>
