<svg xmlns="http://www.w3.org/2000/svg" fill="none" viewBox="0 0 24 24"><path stroke="currentColor" d="M4 5h16v14.6522c0 .3087-.1399.6385-.447.9055-.3115.2709-.7605.4423-1.253.4423H5.7c-.4925 0-.9415-.1714-1.253-.4423-.3071-.267-.447-.5968-.447-.9055V5ZM8 3v1M12 3v1M16 3v1"/><path fill="currentColor" d="M12.0001 17.5c-.5523 0-1-.4477-1-1v-8c0-.5523.4477-1 1-1 .5522 0 1 .4477 1 1v8c0 .5523-.4478 1-1 1Z"/><path fill="currentColor" d="M7 12.4998c0-.5523.4477-1 1-1h8c.5523 0 1 .4477 1 1 0 .5522-.4477 1-1 1H8c-.5523 0-1-.4478-1-1Z"/></svg>