<svg width="24" height="24" viewBox="0 0 24 24"  xmlns="http://www.w3.org/2000/svg">
<path d="M12 6C12.5523 6 13 5.55228 13 5C13 4.44772 12.5523 4 12 4C11.4477 4 11 4.44772 11 5C11 5.55228 11.4477 6 12 6Z" />
<path fill-rule="evenodd" clip-rule="evenodd" d="M12 8C9.79086 8 8 9.79086 8 12C8 14.2091 9.79086 16 12 16C14.2091 16 16 14.2091 16 12C16 9.79086 14.2091 8 12 8ZM12 10C10.8954 10 10 10.8954 10 12C10 13.1046 10.8954 14 12 14C13.1046 14 14 13.1046 14 12C14 10.8954 13.1046 10 12 10Z" />
<path d="M6 12C6 12.5523 5.55228 13 5 13C4.44772 13 4 12.5523 4 12C4 11.4477 4.44772 11 5 11C5.55228 11 6 11.4477 6 12Z" />
<path d="M20 12C20 12.5523 19.5523 13 19 13C18.4477 13 18 12.5523 18 12C18 11.4477 18.4477 11 19 11C19.5523 11 20 11.4477 20 12Z" />
<path d="M12 20C12.5523 20 13 19.5523 13 19C13 18.4477 12.5523 18 12 18C11.4477 18 11 18.4477 11 19C11 19.5523 11.4477 20 12 20Z" />
<path d="M7.75737 6.34315C8.14789 6.73367 8.14789 7.36684 7.75737 7.75736C7.36684 8.14789 6.73368 8.14789 6.34315 7.75736C5.95263 7.36684 5.95263 6.73367 6.34315 6.34315C6.73368 5.95262 7.36684 5.95262 7.75737 6.34315Z" />
<path d="M17.6568 17.6569C18.0474 17.2663 18.0474 16.6332 17.6568 16.2426C17.2663 15.8521 16.6332 15.8521 16.2426 16.2426C15.8521 16.6332 15.8521 17.2663 16.2426 17.6569C16.6332 18.0474 17.2663 18.0474 17.6568 17.6569Z" />
<path d="M17.6569 7.75736C17.2664 8.14788 16.6332 8.14788 16.2427 7.75736C15.8521 7.36684 15.8521 6.73367 16.2427 6.34315C16.6332 5.95262 17.2664 5.95262 17.6569 6.34315C18.0474 6.73367 18.0474 7.36684 17.6569 7.75736Z" />
<path d="M6.34313 17.6569C6.73365 18.0474 7.36681 18.0474 7.75734 17.6569C8.14786 17.2663 8.14786 16.6332 7.75734 16.2426C7.36681 15.8521 6.73365 15.8521 6.34313 16.2426C5.9526 16.6332 5.9526 17.2663 6.34313 17.6569Z" />
</svg>
