<svg width="24" height="24" viewBox="0 0 24 24"  xmlns="http://www.w3.org/2000/svg">
<path fill-rule="evenodd" clip-rule="evenodd" d="M7.42157 6.12177C7.05016 5.97321 6.62594 6.06028 6.34308 6.34314C6.06021 6.62601 5.97314 7.05022 6.12171 7.42164L8.95013 14.4927C9.05177 14.7468 9.25312 14.9482 9.50722 15.0498L16.5783 17.8782C16.9497 18.0268 17.3739 17.9397 17.6568 17.6569C17.9396 17.374 18.0267 16.9498 17.8782 16.5784L15.0497 9.50729C14.9481 9.25318 14.7467 9.05184 14.4926 8.9502L7.42157 6.12177ZM10.648 13.352L15.1546 15.1547L13.352 10.6481L10.648 13.352Z" />
<path fill-rule="evenodd" clip-rule="evenodd" d="M12 21C16.9706 21 21 16.9706 21 12C21 7.02944 16.9706 3 12 3C7.02944 3 3 7.02944 3 12C3 16.9706 7.02944 21 12 21ZM12 23C18.0751 23 23 18.0751 23 12C23 5.92487 18.0751 1 12 1C5.92487 1 1 5.92487 1 12C1 18.0751 5.92487 23 12 23Z" />
</svg>
