<svg width="24" height="24" viewBox="0 0 24 24" fill="none" xmlns="http://www.w3.org/2000/svg">
<path fill-rule="evenodd" clip-rule="evenodd" d="M17 20C18.1046 20 19 19.1046 19 18V6C19 4.8954 18.1046 4 17 4H7C5.8954 4 5 4.8954 5 6V10C5 10.5523 4.5523 11 4 11C3.4477 11 3 10.5523 3 10V6C3 3.7909 4.7909 2 7 2H17C19.2091 2 21 3.7909 21 6V18C21 20.2091 19.2091 22 17 22H15C14.4477 22 14 21.5523 14 21C14 20.4477 14.4477 20 15 20H17Z" fill="#1A1A1A"/>
<path fill-rule="evenodd" clip-rule="evenodd" d="M12.2072 19.7929C12.2072 20.3452 11.7595 20.7929 11.2072 20.7929L5.20713 20.7929C4.65483 20.7929 4.20712 20.3452 4.20712 19.7929L4.20713 13.7929C4.20713 13.2406 4.65483 12.7929 5.20713 12.7929C5.75943 12.7929 6.20713 13.2406 6.20713 13.7929L6.20713 17.3787L11.2929 12.2929C11.6834 11.9024 12.3166 11.9024 12.7071 12.2929C13.0976 12.6834 13.0976 13.3166 12.7071 13.7071L7.62137 18.7929L11.2072 18.7929C11.7595 18.7929 12.2072 19.2406 12.2072 19.7929Z" fill="#1A1A1A"/>
</svg>
