<svg width="24" height="24" viewBox="0 0 24 24"  xmlns="http://www.w3.org/2000/svg">
<path d="M12 1C12.3806 1 12.7283 1.2161 12.8967 1.55743L15.603 7.04091L21.6544 7.92022C22.0311 7.97496 22.344 8.2388 22.4616 8.60081C22.5793 8.96283 22.4812 9.36022 22.2086 9.62592L17.8298 13.8942L18.8635 19.9211C18.9278 20.2963 18.7736 20.6755 18.4656 20.8992C18.1577 21.1229 17.7494 21.1524 17.4125 20.9753L12 18.1298L6.58749 20.9753C6.25057 21.1524 5.84231 21.1229 5.53437 20.8992C5.22642 20.6755 5.0722 20.2963 5.13654 19.9211L6.17024 13.8942L1.79143 9.62592C1.51886 9.36022 1.42076 8.96283 1.53838 8.60081C1.65601 8.2388 1.96895 7.97496 2.34564 7.92022L8.39701 7.04091L11.1033 1.55743C11.2717 1.2161 11.6194 1 12 1Z" />
</svg>
