<svg width="24" height="24" viewBox="0 0 24 24"  xmlns="http://www.w3.org/2000/svg">
<path fill-rule="evenodd" clip-rule="evenodd" d="M3 3C3 2.44772 3.44772 2 4 2C4.55228 2 5 2.44772 5 3V13.1707C6.16519 13.5825 7 14.6938 7 16C7 17.3062 6.16519 18.4175 5 18.8293V21C5 21.5523 4.55228 22 4 22C3.44772 22 3 21.5523 3 21V18.8293C1.83481 18.4175 1 17.3062 1 16C1 14.6938 1.83481 13.5825 3 13.1707V3ZM5 16C5 15.4477 4.55228 15 4 15C3.44772 15 3 15.4477 3 16C3 16.5523 3.44772 17 4 17C4.55228 17 5 16.5523 5 16Z" />
<path fill-rule="evenodd" clip-rule="evenodd" d="M11 3C11 2.44772 11.4477 2 12 2C12.5523 2 13 2.44772 13 3V9.17071C14.1652 9.58254 15 10.6938 15 12C15 13.3062 14.1652 14.4175 13 14.8293V21C13 21.5523 12.5523 22 12 22C11.4477 22 11 21.5523 11 21V14.8293C9.83481 14.4175 9 13.3062 9 12C9 10.6938 9.83481 9.58254 11 9.17071V3ZM13 12C13 11.4477 12.5523 11 12 11C11.4477 11 11 11.4477 11 12C11 12.5523 11.4477 13 12 13C12.5523 13 13 12.5523 13 12Z" />
<path fill-rule="evenodd" clip-rule="evenodd" d="M19 3C19 2.44772 19.4477 2 20 2C20.5523 2 21 2.44772 21 3V5.17071C22.1652 5.58254 23 6.69378 23 8C23 9.30975 22.1607 10.4235 20.9905 10.8326L20.8732 21.0223C20.8668 21.5746 20.414 22.0171 19.8617 22.0107C19.3095 22.0044 18.867 21.5515 18.8733 20.9993L18.9905 10.8259C17.8303 10.4114 17 9.30266 17 8C17 6.69378 17.8348 5.58254 19 5.17071V3ZM21 8C21 7.44772 20.5523 7 20 7C19.4477 7 19 7.44772 19 8C19 8.55228 19.4477 9 20 9C20.5523 9 21 8.55228 21 8Z" />
</svg>
