<svg width="24" height="24" viewBox="0 0 24 24" fill="none" xmlns="http://www.w3.org/2000/svg">
<path fill-rule="evenodd" clip-rule="evenodd" d="M17 20C18.1046 20 19 19.1046 19 18L19 6C19 4.8954 18.1046 4 17 4L7 4C5.8954 4 5 4.8954 5 6L5 10C5 10.5523 4.5523 11 4 11C3.4477 11 3 10.5523 3 10L3 6C3 3.7909 4.7909 2 7 2L17 2C19.2091 2 21 3.7909 21 6L21 18C21 20.2091 19.2091 22 17 22L15 22C14.4477 22 14 21.5523 14 21C14 20.4477 14.4477 20 15 20L17 20Z" fill="#1A1A1A"/>
<path fill-rule="evenodd" clip-rule="evenodd" d="M4.99996 13C4.99996 12.4477 5.44766 12 5.99996 12L12 12C12.5523 12 13 12.4477 13 13L13 19C13 19.5523 12.5523 20 12 20C11.4477 20 11 19.5523 11 19L11 15.4142L5.9142 20.5C5.5237 20.8905 4.8905 20.8905 4.5 20.5C4.1095 20.1095 4.1095 19.4763 4.5 19.0858L9.58576 14L5.99996 14C5.44766 14 4.99996 13.5523 4.99996 13Z" fill="#1A1A1A"/>
</svg>
