<svg width="24" height="24" viewBox="0 0 24 24" fill="none" xmlns="http://www.w3.org/2000/svg">
<g>
<path d="M12 3.8014C14.6703 3.8014 14.9863 3.81172 16.0409 3.85975C17.0159 3.90421 17.5454 4.06696 17.8979 4.2039C18.3328 4.36403 18.7262 4.61973 19.049 4.95216C19.3815 5.27504 19.6372 5.66843 19.7973 6.10331C19.9342 6.45581 20.097 6.98534 20.1415 7.96025C20.1895 9.01495 20.1998 9.33092 20.1998 12.0012C20.1998 14.6715 20.1895 14.9875 20.1415 16.0422C20.097 17.0171 19.9342 17.5466 19.7973 17.8991C19.6308 18.3303 19.3759 18.7218 19.049 19.0487C18.7222 19.3755 18.3306 19.6304 17.8995 19.7969C17.547 19.9339 17.0174 20.0966 16.0425 20.1411C14.9882 20.1891 14.6719 20.1994 12.0016 20.1994C9.33129 20.1994 9.01492 20.1891 7.96062 20.1411C6.9857 20.0966 6.45617 19.9339 6.10368 19.7969C5.6688 19.6368 5.27541 19.3811 4.95252 19.0487C4.6201 18.7258 4.36439 18.3324 4.20427 17.8975C4.06732 17.545 3.90457 17.0155 3.86011 16.0406C3.81208 14.9859 3.80176 14.6699 3.80176 11.9996C3.80176 9.32933 3.81208 9.01336 3.86011 7.95866C3.90457 6.98375 4.06732 6.45422 4.20427 6.10173C4.36439 5.66684 4.6201 5.27345 4.95252 4.95057C5.27541 4.61814 5.6688 4.36244 6.10368 4.20232C6.45617 4.06537 6.9857 3.90262 7.96062 3.85816C9.01531 3.81013 9.33129 3.79981 12.0016 3.79981L12 3.8014ZM12.0016 1.99805C9.28564 1.99805 8.94505 2.00956 7.87845 2.05838C6.81184 2.10721 6.08542 2.2775 5.4503 2.5244C4.78286 2.77565 4.17818 3.16929 3.67831 3.67794C3.16966 4.17781 2.77602 4.7825 2.52477 5.44993C2.27787 6.08505 2.10876 6.81306 2.06034 7.87729C2.01191 8.94151 2 9.28369 2 11.9996C2 14.7156 2.01151 15.0561 2.06034 16.1228C2.10916 17.1894 2.27787 17.9142 2.52477 18.5493C2.77612 19.2165 3.16975 19.8209 3.67831 20.3205C4.17801 20.8295 4.78273 21.2233 5.4503 21.4744C6.08542 21.7217 6.81343 21.8908 7.87765 21.9393C8.94188 21.9877 9.28484 21.9996 12.0008 21.9996C14.7167 21.9996 15.0573 21.9881 16.1239 21.9393C17.1905 21.8904 17.9146 21.7217 18.5497 21.4744C19.2142 21.2177 19.8177 20.8248 20.3215 20.3211C20.8252 19.8173 21.2181 19.2138 21.4748 18.5493C21.7221 17.9142 21.8912 17.1862 21.9396 16.122C21.9881 15.0577 22 14.7148 22 11.9988C22 9.28289 21.9885 8.94231 21.9396 7.8757C21.8908 6.80909 21.7221 6.08505 21.4748 5.44993C21.2238 4.78273 20.8302 4.17829 20.3217 3.67874C19.8219 3.1698 19.2172 2.77589 18.5497 2.5244C17.9146 2.2775 17.1866 2.1084 16.1223 2.05997C15.0581 2.01154 14.7159 1.99963 12 1.99963L12.0016 1.99805Z" fill="black"/>
<path d="M12 6.86505C10.9844 6.86505 9.99161 7.16621 9.14717 7.73045C8.30273 8.29469 7.64457 9.09666 7.25591 10.035C6.86726 10.9732 6.76557 12.0057 6.96371 13.0018C7.16184 13.9979 7.6509 14.9128 8.36903 15.631C9.08717 16.3491 10.0021 16.8382 10.9982 17.0363C11.9943 17.2344 13.0268 17.1328 13.9651 16.7441C14.9034 16.3555 15.7053 15.6973 16.2696 14.8528C16.8338 14.0084 17.135 13.0156 17.135 12C17.135 11.3257 17.0022 10.6579 16.7442 10.0349C16.4862 9.41186 16.1079 8.84577 15.6311 8.36893C15.1542 7.8921 14.5882 7.51386 13.9651 7.25582C13.3421 6.99778 12.6743 6.865 12 6.86505V6.86505ZM12 15.3344C11.3405 15.3344 10.6959 15.1388 10.1475 14.7725C9.59918 14.4061 9.1718 13.8853 8.91943 13.276C8.66705 12.6668 8.60102 11.9963 8.72968 11.3495C8.85834 10.7027 9.17591 10.1086 9.64223 9.64224C10.1086 9.17592 10.7027 8.85835 11.3495 8.72969C11.9963 8.60103 12.6667 8.66707 13.276 8.91944C13.8853 9.17181 14.4061 9.59919 14.7724 10.1475C15.1388 10.6959 15.3344 11.3405 15.3344 12C15.3344 12.8844 14.9831 13.7325 14.3578 14.3578C13.7325 14.9831 12.8843 15.3344 12 15.3344Z" fill="black"/>
<path d="M17.3382 7.86175C18.0009 7.86175 18.5382 7.3245 18.5382 6.66177C18.5382 5.99904 18.0009 5.46179 17.3382 5.46179C16.6755 5.46179 16.1382 5.99904 16.1382 6.66177C16.1382 7.3245 16.6755 7.86175 17.3382 7.86175Z" fill="black"/>
</g>
</svg>
