<svg width="24" height="24" viewBox="0 0 24 24"  xmlns="http://www.w3.org/2000/svg">
<path d="M4.87872 9.12134C3.70715 7.94976 3.70715 6.05027 4.87872 4.8787C6.0503 3.70712 7.95007 3.7074 9.12164 4.87897L13.0756 8.82978C13.0902 8.84647 13.1054 8.86278 13.1214 8.87868C14.2929 10.0503 14.2929 11.9498 13.1214 13.1213C12.7308 13.5118 12.7308 14.145 13.1214 14.5355C13.5119 14.9261 14.145 14.9261 14.5356 14.5355C16.4704 12.6007 16.488 9.4746 14.5884 7.51807C14.572 7.4991 14.5549 7.48061 14.5369 7.46263L10.5353 3.4642C8.58265 1.51186 5.41704 1.51195 3.46451 3.46448C1.51194 5.41705 1.51205 8.58291 3.46451 10.5355L4.6354 11.707C5.02583 12.0976 5.659 12.0977 6.04961 11.7073C6.44022 11.3168 6.44036 10.6837 6.04993 10.2931L4.87872 9.12134Z" />
<path d="M10.8787 15.1213C9.70711 13.9497 9.70711 12.0503 10.8787 10.8787C11.2692 10.4882 11.2692 9.85499 10.8787 9.46446C10.4882 9.07394 9.85499 9.07394 9.46447 9.46446C7.51194 11.417 7.51212 14.5829 9.46447 16.5355L13.4626 20.5368C13.4806 20.5548 13.499 20.5719 13.518 20.5882C15.4745 22.488 18.6007 22.4704 20.5356 20.5355C22.4881 18.583 22.488 15.4171 20.5356 13.4645L19.3647 12.293C18.9742 11.9024 18.3411 11.9023 17.9504 12.2927C17.5598 12.6832 17.5597 13.3163 17.9501 13.7069L19.1213 14.8787C20.2929 16.0503 20.2929 17.9497 19.1213 19.1213C17.9498 20.2929 16.0503 20.2929 14.8787 19.1213C14.8628 19.1054 14.8466 19.0902 14.8299 19.0756L10.8787 15.1213Z" />
</svg>
