<svg width="24" height="24" viewBox="0 0 24 24" fill="none" xmlns="http://www.w3.org/2000/svg">
<path d="M19 20C18.7167 20 18.4793 19.904 18.288 19.712C18.096 19.5207 18 19.2833 18 19V16H15C14.7167 16 14.4793 15.904 14.288 15.712C14.096 15.5207 14 15.2833 14 15C14 14.7167 14.096 14.479 14.288 14.287C14.4793 14.0957 14.7167 14 15 14H18V11C18 10.7167 18.096 10.479 18.288 10.287C18.4793 10.0957 18.7167 10 19 10C19.2833 10 19.5207 10.0957 19.712 10.287C19.904 10.479 20 10.7167 20 11V14H23C23.2833 14 23.5207 14.0957 23.712 14.287C23.904 14.479 24 14.7167 24 15C24 15.2833 23.904 15.5207 23.712 15.712C23.5207 15.904 23.2833 16 23 16H20V19C20 19.2833 19.904 19.5207 19.712 19.712C19.5207 19.904 19.2833 20 19 20ZM6 16C5.71667 16 5.47933 15.904 5.288 15.712C5.096 15.5207 5 15.2833 5 15C5 14.7167 5.096 14.479 5.288 14.287C5.47933 14.0957 5.71667 14 6 14H11C11.2833 14 11.521 14.0957 11.713 14.287C11.9043 14.479 12 14.7167 12 15C12 15.2833 11.9043 15.5207 11.713 15.712C11.521 15.904 11.2833 16 11 16H6ZM6 12C5.71667 12 5.47933 11.904 5.288 11.712C5.096 11.5207 5 11.2833 5 11C5 10.7167 5.096 10.479 5.288 10.287C5.47933 10.0957 5.71667 10 6 10H15C15.2833 10 15.521 10.0957 15.713 10.287C15.9043 10.479 16 10.7167 16 11C16 11.2833 15.9043 11.5207 15.713 11.712C15.521 11.904 15.2833 12 15 12H6ZM6 8C5.71667 8 5.47933 7.90433 5.288 7.713C5.096 7.521 5 7.28333 5 7C5 6.71667 5.096 6.479 5.288 6.287C5.47933 6.09567 5.71667 6 6 6H15C15.2833 6 15.521 6.09567 15.713 6.287C15.9043 6.479 16 6.71667 16 7C16 7.28333 15.9043 7.521 15.713 7.713C15.521 7.90433 15.2833 8 15 8H6Z" fill="#1A1A1A"/>
<path d="M2 16C2.28333 16 2.521 15.904 2.713 15.712C2.90433 15.5207 3 15.2833 3 15C3 14.7167 2.90433 14.479 2.713 14.287C2.521 14.0957 2.28333 14 2 14C1.71667 14 1.479 14.0957 1.287 14.287C1.09567 14.479 1 14.7167 1 15C1 15.2833 1.09567 15.5207 1.287 15.712C1.479 15.904 1.71667 16 2 16ZM2 12C2.28333 12 2.521 11.904 2.713 11.712C2.90433 11.5207 3 11.2833 3 11C3 10.7167 2.90433 10.479 2.713 10.287C2.521 10.0957 2.28333 10 2 10C1.71667 10 1.479 10.0957 1.287 10.287C1.09567 10.479 1 10.7167 1 11C1 11.2833 1.09567 11.5207 1.287 11.712C1.479 11.904 1.71667 12 2 12ZM2 8C2.28333 8 2.521 7.904 2.713 7.712C2.90433 7.52067 3 7.28333 3 7C3 6.71667 2.90433 6.479 2.713 6.287C2.521 6.09567 2.28333 6 2 6C1.71667 6 1.479 6.09567 1.287 6.287C1.09567 6.479 1 6.71667 1 7C1 7.28333 1.09567 7.52067 1.287 7.712C1.479 7.904 1.71667 8 2 8ZM6 16H10C10.2833 16 10.5207 15.904 10.712 15.712C10.904 15.5207 11 15.2833 11 15C11 14.7167 10.904 14.479 10.712 14.287C10.5207 14.0957 10.2833 14 10 14H6C5.71667 14 5.47933 14.0957 5.288 14.287C5.096 14.479 5 14.7167 5 15C5 15.2833 5.096 15.5207 5.288 15.712C5.47933 15.904 5.71667 16 6 16ZM6 12H10C10.2833 12 10.5207 11.904 10.712 11.712C10.904 11.5207 11 11.2833 11 11C11 10.7167 10.904 10.479 10.712 10.287C10.5207 10.0957 10.2833 10 10 10H6C5.71667 10 5.47933 10.0957 5.288 10.287C5.096 10.479 5 10.7167 5 11C5 11.2833 5.096 11.5207 5.288 11.712C5.47933 11.904 5.71667 12 6 12ZM6 8H10C10.2833 8 10.5207 7.904 10.712 7.712C10.904 7.52067 11 7.28333 11 7C11 6.71667 10.904 6.479 10.712 6.287C10.5207 6.09567 10.2833 6 10 6H6C5.71667 6 5.47933 6.09567 5.288 6.287C5.096 6.479 5 6.71667 5 7C5 7.28333 5.096 7.52067 5.288 7.712C5.47933 7.904 5.71667 8 6 8Z" fill="#1A1A1A"/>
</svg>
