<svg width="24" height="24" viewBox="0 0 24 24"  xmlns="http://www.w3.org/2000/svg">
<path d="M7 3C7 2.44772 7.44772 2 8 2C8.55228 2 9 2.44772 9 3V21C9 21.5523 8.55228 22 8 22C7.44772 22 7 21.5523 7 21V3Z" />
<path d="M11 6C11 5.44772 11.4477 5 12 5H22C22.5523 5 23 5.44772 23 6C23 6.55228 22.5523 7 22 7H12C11.4477 7 11 6.55228 11 6Z" />
<path d="M11 12C11 11.4477 11.4477 11 12 11H22C22.5523 11 23 11.4477 23 12C23 12.5523 22.5523 13 22 13H12C11.4477 13 11 12.5523 11 12Z" />
<path d="M11 18C11 17.4477 11.4477 17 12 17H18C18.5523 17 19 17.4477 19 18C19 18.5523 18.5523 19 18 19H12C11.4477 19 11 18.5523 11 18Z" />
<path fill-rule="evenodd" clip-rule="evenodd" d="M6.70711 12.7071C6.31658 13.0976 5.68342 13.0976 5.29289 12.7071L2.29289 9.70711C1.90237 9.31658 1.90237 8.68342 2.29289 8.29289C2.68342 7.90237 3.31658 7.90237 3.70711 8.29289L6.70711 11.2929C7.09763 11.6834 7.09763 12.3166 6.70711 12.7071Z" />
<path fill-rule="evenodd" clip-rule="evenodd" d="M2.29289 15.7071C2.68342 16.0976 3.31658 16.0976 3.70711 15.7071L6.70711 12.7071C7.09763 12.3166 7.09763 11.6834 6.70711 11.2929C6.31658 10.9024 5.68342 10.9024 5.29289 11.2929L2.29289 14.2929C1.90237 14.6834 1.90237 15.3166 2.29289 15.7071Z" />
</svg>
