<svg xmlns="http://www.w3.org/2000/svg" fill="none" viewBox="0 0 24 24"><mask id="a" fill="#fff"><path d="M3 4h18v15.6522c0 .6227-.2845 1.2198-.7908 1.6601-.5064.4403-1.1931.6877-1.9092.6877H5.7c-.716 0-1.4028-.2474-1.9092-.6877C3.2845 20.872 3 20.2749 3 19.6522V4Z"/></mask><path stroke="#000" stroke-linecap="round" stroke-linejoin="round" stroke-width="4" d="M3 4h18v15.6522c0 .6227-.2845 1.2198-.7908 1.6601-.5064.4403-1.1931.6877-1.9092.6877H5.7c-.716 0-1.4028-.2474-1.9092-.6877C3.2845 20.872 3 20.2749 3 19.6522V4Z" mask="url(#a)"/><path stroke="#000" stroke-linecap="round" stroke-linejoin="round" stroke-width="2" d="M8 3v1M12 3v1M16 3v1"/><path fill="#000" fill-rule="evenodd" d="M7 11c0-.5523.4477-1 1-1h8c.5523 0 1 .4477 1 1s-.4477 1-1 1H8c-.5523 0-1-.4477-1-1ZM7 15c0-.5523.4477-1 1-1h8c.5523 0 1 .4477 1 1s-.4477 1-1 1H8c-.5523 0-1-.4477-1-1Z" clip-rule="evenodd"/></svg>