<svg width="24" height="24" viewBox="0 0 24 24"  xmlns="http://www.w3.org/2000/svg">
<path fill-rule="evenodd" clip-rule="evenodd" d="M19 8C19 11.8038 20.2058 14.4019 21.0885 16.3038C21.3885 16.9502 21.6511 17.5162 21.8165 18.0218C21.9881 18.5467 21.5541 19 21.0018 19H16.9C16.4367 21.2822 14.419 23 12 23C9.58105 23 7.5633 21.2822 7.10003 19H2.99731C2.44503 19 2.01188 18.5467 2.18354 18.0218C2.34888 17.5162 2.61155 16.9502 2.91155 16.3038C3.79423 14.4019 5 11.8038 5 8C5 4.2 8.20001 1 12 1C15.8 1 19 4.2 19 8ZM7 8C7 5.30457 9.30458 3 12 3C14.6954 3 17 5.30457 17 8C17 11.9816 18.3037 15.0901 19.1859 17H4.81407C5.6963 15.0901 7 11.9816 7 8ZM9.17071 19C9.58255 20.1652 10.6938 21 12 21C13.3062 21 14.4175 20.1652 14.8293 19H9.17071Z" />
</svg>
