<svg width="24" height="24" viewBox="0 0 24 24"  xmlns="http://www.w3.org/2000/svg">
<path d="M12 11.1246C9.21 11.1246 6.94 8.85357 6.94 6.0623C6.94 3.27103 9.21 1 12 1C14.79 1 17.06 3.27103 17.06 6.0623C17.06 8.85357 14.79 11.1246 12 11.1246ZM12 3.00091C10.31 3.00091 8.94 4.37153 8.94 6.0623C8.94 7.75307 10.31 9.12369 12 9.12369C13.69 9.12369 15.06 7.75307 15.06 6.0623C15.06 4.37153 13.69 3.00091 12 3.00091Z" />
<path d="M11.99 15.0064C16.4 15.0064 19.97 17.3079 20 19.9991H4V19.9291C4.12 17.1878 7.63 15.0064 11.99 15.0064ZM11.99 13.0055C6.55 13.0055 2.14 16.0773 2 19.8891V19.9991C2 21.0996 2.9 22 4 22H20C21.09 22 21.98 21.1196 22 20.0291C21.96 16.1474 17.5 13.0055 11.99 13.0055Z" />
</svg>
