<svg width="24" height="24" viewBox="0 0 24 24"  xmlns="http://www.w3.org/2000/svg">
<path d="M22.5 11.8462C22.5 10.4038 21.3278 9.23081 19.8864 9.23081C19.3101 9.23081 18.7626 9.41912 18.3157 9.76043C16.8573 8.74697 14.9468 8.14282 12.9147 7.98982L14.0111 5.41629L17.201 6.16167C17.3029 7.14898 18.1288 7.92313 19.1416 7.92313C20.2223 7.92313 21.1017 7.04305 21.1017 5.9616C21.1017 4.88014 20.2223 4.00006 19.1416 4.00006C18.4568 4.00006 17.8544 4.35445 17.5042 4.88929L13.7759 4.01706C13.4597 3.94514 13.15 4.10599 13.0245 4.3976L11.5086 7.95451C9.31456 8.03036 7.22371 8.64889 5.64512 9.72643C5.21518 9.40735 4.68202 9.23081 4.11357 9.23081C2.67218 9.23081 1.5 10.4038 1.5 11.8462C1.5 12.8021 2.02141 13.6665 2.82116 14.1098C2.8107 14.2249 2.80678 14.3426 2.80678 14.4616C2.80678 18.0669 6.91008 21 11.9543 21C16.9971 21 21.1017 18.0669 21.1017 14.4616C21.1017 14.3596 21.0978 14.2589 21.0913 14.1582C21.9433 13.724 22.5 12.8387 22.5 11.8462ZM7.38052 13.8077C7.38052 13.0872 7.96727 12.5 8.68731 12.5C9.40734 12.5 9.99409 13.0872 9.99409 13.8077C9.99409 14.5296 9.40734 15.1154 8.68731 15.1154C7.96727 15.1154 7.38052 14.5296 7.38052 13.8077ZM14.9716 18.1453C14.0699 18.7979 13.0114 19.1248 11.9543 19.1248C10.8971 19.1248 9.83858 18.7979 8.9369 18.1453C8.64418 17.9335 8.57884 17.5242 8.79054 17.2326C9.00224 16.9409 9.41126 16.8756 9.70268 17.0861C11.05 18.0603 12.8586 18.0629 14.2058 17.0861C14.4973 16.8756 14.905 16.9383 15.118 17.2326C15.3297 17.5255 15.263 17.9335 14.9716 18.1453ZM15.2212 15.1154C14.4999 15.1154 13.9144 14.5296 13.9144 13.8077C13.9144 13.0872 14.4999 12.5 15.2212 12.5C15.9426 12.5 16.528 13.0872 16.528 13.8077C16.528 14.5296 15.9426 15.1154 15.2212 15.1154Z" fill="black"/>
</svg>
