<svg width="24" height="24" viewBox="0 0 24 24"  xmlns="http://www.w3.org/2000/svg">
<path d="M11 6C11 5.44772 11.4477 5 12 5H16C16.5523 5 17 5.44772 17 6C17 6.55228 16.5523 7 16 7H12C11.4477 7 11 6.55228 11 6Z" />
<path d="M11 12C11 11.4477 11.4477 11 12 11H19C19.5523 11 20 11.4477 20 12C20 12.5523 19.5523 13 19 13H12C11.4477 13 11 12.5523 11 12Z" />
<path d="M11 18C11 17.4477 11.4477 17 12 17H22C22.5523 17 23 17.4477 23 18C23 18.5523 22.5523 19 22 19H12C11.4477 19 11 18.5523 11 18Z" />
<path d="M5 4C4.44772 4 4 4.44772 4 5V18.5858L2.70711 17.2929C2.31658 16.9024 1.68342 16.9024 1.29289 17.2929C0.902369 17.6834 0.902369 18.3166 1.29289 18.7071L4.29289 21.7071C4.34171 21.7559 4.39432 21.7986 4.44977 21.8352C4.50366 21.8708 4.56023 21.9006 4.61862 21.9247C4.73615 21.9732 4.86495 22 5 22C5.25592 22 5.51184 21.9024 5.70711 21.7071L8.70711 18.7071C9.09763 18.3166 9.09763 17.6834 8.70711 17.2929C8.31658 16.9024 7.68342 16.9024 7.29289 17.2929L6 18.5858V5C6 4.44772 5.55228 4 5 4Z" />
</svg>
