<svg width="24" height="24" viewBox="0 0 24 24" fill="none" xmlns="http://www.w3.org/2000/svg">
<path d="M10 15.0001V19.0001C10 19.7958 10.3161 20.5589 10.8787 21.1215C11.4413 21.6841 12.2044 22.0001 13 22.0001C13 22.0001 14.4379 16.5148 16 13.0001C16 8.70436 16 2.00013 16 2.00013H5.72003C5.2377 1.99467 4.76965 2.16372 4.40212 2.47612C4.0346 2.78852 3.79235 3.22322 3.72003 3.70013L2.34003 12.7001C2.29652 12.9868 2.31586 13.2794 2.39669 13.5579C2.47753 13.8363 2.61793 14.0938 2.80817 14.3126C2.99842 14.5314 3.23395 14.7062 3.49846 14.8249C3.76297 14.9436 4.05012 15.0034 4.34003 15.0001H10Z" stroke="#1A1A1A" stroke-width="2" stroke-linecap="round" stroke-linejoin="round"/>
<path d="M22.3301 12.4606V1.46058H20.6601C20.6601 1.46058 19.5442 1.64871 19.1147 2.01739C18.6851 2.38608 18.406 2.89963 18.3301 3.46058V10.4606C18.406 11.0215 18.6851 11.5351 19.1147 11.9038C19.5442 12.2724 20.0941 12.4706 20.6601 12.4606H22.3301Z" fill="#1A1A1A"/>
</svg>
