<svg xmlns="http://www.w3.org/2000/svg" id="maintenance" fill="none" viewBox="0 0 137 207"><g clip-path="url(#a)"><path fill="#850213" d="M116.72 117.6H26.325V172.475H116.72V117.6Z"/><path fill="#850213" fill-rule="evenodd" d="M127.03 71.24H12.5751L4.34009 88.51H135.265L127.03 71.24Z" clip-rule="evenodd"/><path fill="#1A1A1A" d="M13.7399 33.19C13.6049 32.53 12.8249 32.15 12.2099 32.32 12.0949 32.35 11.9899 32.405 11.8899 32.47 11.8049 32.39 11.7149 32.315 11.6199 32.24 11.6699 31.95 11.7149 31.655 11.7499 31.36 11.8149 30.74 11.1699 30.205 10.5949 30.205 10.3749 30.205 10.1799 30.27 10.0149 30.37 10.0549 30.19 10.0949 30.01 10.1249 29.835 10.3449 28.52 8.84988 27.89 8.08988 28.68 8.05488 28.45 7.95988 28.235 7.77488 28.08 7.66988 27.995 7.56988 27.925 7.46988 27.87 8.16488 27.025 8.82488 26.145 9.19488 25.14 9.59488 24.065 8.13988 22.925 7.19488 23.605 5.81488 24.595 4.90988 26.21 3.89488 27.565 2.76488 29.08 1.51488 30.56.644882 32.245.00988227 33.48 1.52488 34.685 2.56988 33.73 3.56488 32.82 4.40988 31.745 5.22988 30.665 5.28488 30.715 5.34488 30.765 5.39988 30.815 5.38488 30.895 5.36988 30.975 5.35988 31.055 5.24988 31.65 5.51988 32.26 6.13988 32.43 6.45488 32.515 6.79988 32.445 7.06988 32.265 7.04488 32.4 7.01988 32.54 6.98988 32.675 6.73488 33.875 8.21488 34.46 8.87988 33.695 8.97988 33.78 9.08488 33.865 9.18488 33.95 9.01988 34.94 10.1299 35.485 10.7499 34.995 10.8949 35.06 11.0399 35.12 11.1899 35.165 11.0049 35.695 11.1499 36.295 11.6649 36.595 12.2149 36.915 12.9249 36.715 13.2499 36.18 13.8099 35.265 13.9399 34.225 13.7299 33.185L13.7399 33.19ZM121.955 25.295C120.77 24 118.91 23.205 117.415 22.3 115.87 21.365 114.35 20.385 112.67 19.715 111.52 19.26 110.605 20.98 111.48 21.765 112.515 22.695 113.695 23.455 114.875 24.195 114.83 24.255 114.79 24.315 114.745 24.375 114.6 24.365 114.455 24.355 114.31 24.34 113.705 24.29 113.19 24.89 113.19 25.46 113.19 25.765 113.3 26.005 113.475 26.185 113.27 26.165 113.065 26.145 112.86 26.125 111.78 26.005 111.435 27.585 112.2 28.13 112.13 28.235 112.06 28.34 111.99 28.445 111.935 28.445 111.88 28.445 111.83 28.44 110.935 28.375 110.6 29.57 111.1 30.12 111.05 30.26 111.005 30.405 110.97 30.555 110.97 30.555 110.965 30.555 110.96 30.555 109.74 30.1 108.885 32.105 110.07 32.67 111.025 33.13 112.055 33.26 113.08 32.945 113.725 32.75 114.13 32.075 113.95 31.415 113.905 31.26 113.825 31.11 113.715 30.975 113.775 30.89 113.835 30.8 113.895 30.71 114.17 30.73 114.44 30.745 114.71 30.75 115.755 30.76 116.065 29.595 115.635 28.915 115.89 28.95 116.14 28.98 116.395 29 117.575 29.085 117.94 27.495 117.175 26.845 117.435 26.75 117.665 26.545 117.81 26.32 117.84 26.275 117.86 26.225 117.885 26.18 118.765 26.765 119.67 27.3 120.64 27.575 121.995 27.96 122.855 26.275 121.965 25.3L121.955 25.295ZM130.075 51.68C129.86 50.31 128.775 48.98 128.09 47.79 127.37 46.54 126.7 45.24 125.73 44.165 124.9 43.245 123.35 44.215 123.68 45.355 123.93 46.225 124.325 47.045 124.755 47.845 124.29 47.725 123.72 47.935 123.495 48.36 123.44 48.46 123.41 48.565 123.385 48.665 123.37 48.655 123.355 48.645 123.34 48.635 122.53 48.07 121.58 48.975 121.685 49.78 121.67 49.79 121.65 49.795 121.635 49.805 120.98 49.48 120.26 50.085 120.23 50.715 120.205 50.74 120.18 50.77 120.155 50.795 119.76 50.555 119.21 50.61 118.855 50.885 118.425 51.215 118.23 51.9 118.555 52.38 119.05 53.11 119.765 53.66 120.64 53.85 121.37 54.01 122.09 53.585 122.195 52.815 122.2 52.775 122.195 52.735 122.2 52.7 122.33 52.785 122.46 52.865 122.595 52.935 123.15 53.22 123.845 53.08 124.17 52.52 124.215 52.445 124.245 52.37 124.27 52.29 124.31 52.315 124.345 52.345 124.385 52.365 125.315 52.895 126.25 52.07 126.195 51.205 126.285 51.195 126.37 51.175 126.455 51.145 126.82 51.85 127.235 52.515 127.795 52.995 128.875 53.925 130.28 53.015 130.07 51.67L130.075 51.68ZM104.02.075009C97.0301-.459991 89.2701 1.82001 84.5101 7.20001 82.0251 10.01 80.6051 14.315 81.4801 17.945 80.0751 19.005 78.8551 20.25 77.9651 21.475 75.9201 24.285 74.4801 27.325 74.9301 30.895 75.3201 33.96 76.8751 37.005 79.5351 38.675 80.6951 39.405 81.8051 37.505 80.6101 36.84 78.2101 35.5 76.8451 32.52 76.7501 29.835 76.6501 27 77.9851 24.645 79.6101 22.435 80.3351 21.45 81.1701 20.5 82.1101 19.69 82.7351 20.945 83.7101 22.05 85.1101 22.9 87.3301 24.245 90.3051 24.55 92.5701 23.145 94.6551 21.85 95.4751 19.195 93.6251 17.32 90.6251 14.285 86.6801 14.845 83.3201 16.74 83.2851 16.545 83.2601 16.35 83.2401 16.15 82.9501 13.04 84.4351 10.125 86.5901 7.97001 91.0951 3.46501 97.7801 1.54001 104.02 1.93501 105.215 2.01001 105.2.170009 104.02.080009V.075009ZM87.8051 17.245C89.1951 17.195 91.3001 17.5 92.2501 18.69 94.0051 20.9 90.5351 22.135 88.9751 22.06 86.6101 21.945 84.7751 20.445 83.8551 18.435 85.0501 17.74 86.3651 17.29 87.8051 17.24V17.245Z"/><path fill="#FFCAD6" d="M69.7151 87.41L66.3151 81.735C67.5151 80.36 68.5901 78.845 69.5201 77.19C70.4801 75.475 71.2301 73.705 71.7801 71.9L78.3951 71.79C78.9601 71.78 79.4051 71.315 79.3951 70.755L79.1551 56.34C79.1451 55.775 78.6801 55.33 78.1201 55.34L71.5001 55.45C70.2901 51.9 68.3401 48.6 65.7201 45.795L68.9351 40.01C69.2101 39.52 69.0301 38.9 68.5401 38.625L55.9401 31.625C55.4501 31.35 54.8301 31.53 54.5551 32.02L51.3401 37.805C47.3801 37.02 43.3451 37.16 39.5201 38.135L35.9151 32.125C35.6251 31.64 35.0001 31.485 34.5151 31.775L23.1101 38.615C22.6251 38.905 22.4701 39.53 22.7601 40.015L26.3601 46.02C25.0051 47.505 23.7951 49.17 22.7651 51.005C21.8051 52.72 21.0551 54.49 20.5051 56.295L13.8901 56.405C13.3251 56.415 12.8801 56.88 12.8901 57.44L13.1301 71.855C13.1401 72.42 13.6051 72.865 14.1651 72.855L20.7851 72.745C21.9951 76.295 23.9451 79.595 26.5651 82.4L23.3501 88.185C23.0751 88.675 23.2551 89.295 23.7451 89.57L36.3451 96.57C36.8351 96.845 37.4551 96.665 37.7301 96.175L40.9451 90.39C44.7101 91.135 48.5451 91.05 52.1951 90.2L55.6001 95.88C55.8901 96.365 56.5151 96.52 57.0001 96.23L69.3651 88.815C69.8501 88.525 70.0051 87.9 69.7151 87.415V87.41ZM40.5701 74.045C35.0751 70.965 33.1151 64.015 36.1951 58.515C39.2751 53.02 46.2251 51.06 51.7251 54.14C57.2201 57.22 59.1801 64.17 56.1001 69.67C53.0201 75.165 46.0701 77.125 40.5701 74.045Z"/><path fill="#1A1A1A" d="M59.705 77.01C59.42 77.01 59.135 76.91 58.9 76.71 58.385 76.265 58.325 75.485 58.77 74.97 59.49 74.13 60.135 73.21 60.68 72.235 61.015 71.64 61.765 71.43 62.36 71.76 62.955 72.095 63.165 72.845 62.835 73.44 62.21 74.56 61.47 75.615 60.645 76.575 60.4 76.86 60.055 77.005 59.71 77.005L59.705 77.01ZM63.3699 60.47C62.8299 60.47 62.3349 60.115 62.1799 59.57 60.9749 55.285 58.1699 51.73 54.2899 49.555 53.6949 49.22 53.4849 48.47 53.8149 47.875 54.1449 47.28 54.8999 47.07 55.4949 47.4 59.9549 49.895 63.1699 53.98 64.5599 58.9 64.7449 59.555 64.3649 60.24 63.7049 60.425 63.5949 60.455 63.4799 60.47 63.3699 60.47ZM87.855 79.945C87.5 79.945 87.15 79.795 86.905 79.5 86.47 78.975 86.54 78.195 87.065 77.76 89.25 75.945 91.74 74.59 94.465 73.74 95.115 73.535 95.81 73.9 96.015 74.55 96.22 75.2 95.855 75.895 95.205 76.1 92.79 76.855 90.58 78.055 88.645 79.665 88.415 79.855 88.135 79.95 87.855 79.95V79.945Z"/><path fill="#FFCAD6" d="M91.8999 62.34L92.0749 68.955C90.3549 69.565 88.6699 70.355 87.0499 71.34C85.4299 72.325 83.8499 73.535 82.4799 74.84L76.6649 71.685C76.1699 71.415 75.5499 71.6 75.2849 72.095L68.4099 84.765C68.1399 85.26 68.3249 85.88 68.8199 86.145L74.6399 89.305C73.9499 92.99 74.0249 96.825 74.9299 100.555L69.2899 104.015C68.8099 104.31 68.6599 104.935 68.9549 105.415L76.4899 117.705C76.7849 118.185 77.4099 118.335 77.8899 118.04L83.5299 114.58C86.5949 117.205 90.1799 119.075 93.9849 120.1L94.1699 127.105C94.1849 127.665 94.6549 128.11 95.2149 128.095L108.51 127.745C109.07 127.73 109.515 127.26 109.5 126.7L109.315 119.7C111.23 119.07 113.1 118.215 114.895 117.125C116.575 116.105 118.095 114.93 119.465 113.625L125.28 116.78C125.775 117.05 126.395 116.865 126.66 116.37L133.535 103.7C133.805 103.205 133.62 102.585 133.125 102.32L127.305 99.16C127.995 95.475 127.92 91.64 127.015 87.915L132.655 84.455C133.135 84.16 133.285 83.535 132.99 83.055L125.455 70.765C125.16 70.285 124.535 70.135 124.055 70.43L118.415 73.89C115.505 71.395 112.12 69.585 108.525 68.53L108.35 61.91C108.335 61.35 107.865 60.905 107.305 60.92L92.8949 61.3C92.3349 61.315 91.8899 61.785 91.9049 62.345L91.8999 62.34ZM110.72 88.3C113.995 93.685 112.285 100.7 106.9 103.975C101.515 107.25 94.4999 105.54 91.2249 100.155C87.9499 94.77 89.6599 87.755 95.0449 84.48C100.43 81.205 107.445 82.915 110.72 88.3Z"/><path fill="#1A1A1A" d="M118.875 105.77C118.67 105.77 118.465 105.72 118.27 105.61C117.675 105.275 117.465 104.525 117.795 103.93C120.315 99.435 120.93 94.23 119.535 89.27C118.135 84.31 114.89 80.195 110.4 77.675C109.805 77.34 109.595 76.59 109.925 75.995C110.255 75.4 111.01 75.19 111.605 75.52C116.675 78.36 120.335 83.005 121.915 88.6C123.49 94.195 122.795 100.065 119.955 105.14C119.73 105.545 119.31 105.77 118.875 105.77Z"/><path fill="#FFCAD6" d="M47.335 121.985L50.125 127.985C48.79 129.225 47.56 130.625 46.465 132.17C45.37 133.715 44.4 135.46 43.665 137.195L37.075 136.615C36.515 136.565 36.02 136.98 35.97 137.54L34.705 151.9C34.655 152.46 35.07 152.955 35.63 153.005L42.225 153.585C43.055 157.24 44.65 160.725 46.965 163.79L43.165 169.205C42.84 169.665 42.955 170.3 43.415 170.625L55.215 178.9C55.675 179.225 56.31 179.11 56.635 178.65L60.435 173.235C64.29 174.425 68.32 174.71 72.225 174.14L75.18 180.49C75.415 181 76.025 181.22 76.535 180.985L88.59 175.375C89.1 175.14 89.32 174.53 89.085 174.02L86.13 167.675C87.635 166.335 89.01 164.81 90.225 163.095C91.36 161.49 92.29 159.805 93.025 158.07L99.615 158.65C100.175 158.7 100.67 158.285 100.72 157.725L101.985 143.365C102.035 142.805 101.62 142.31 101.06 142.26L94.465 141.68C93.635 138.025 92.04 134.54 89.725 131.475L93.525 126.06C93.85 125.6 93.735 124.965 93.275 124.64L81.475 116.365C81.015 116.04 80.38 116.155 80.055 116.615L76.255 122.03C72.59 120.895 68.765 120.585 65.045 121.045L62.25 115.04C62.015 114.53 61.405 114.31 60.895 114.545L47.825 120.63C47.315 120.865 47.095 121.475 47.33 121.985H47.335ZM74.93 138.315C80.075 141.95 81.3 149.07 77.665 154.215C74.03 159.36 66.91 160.585 61.765 156.95C56.62 153.315 55.395 146.195 59.03 141.05C62.665 135.905 69.785 134.68 74.93 138.315Z"/><path fill="#1A1A1A" d="M84.7549 144.77C84.2049 144.77 83.7049 144.4 83.5599 143.84C83.4649 143.475 83.3549 143.11 83.2399 142.75C82.0449 139.18 79.5949 136.155 76.3499 134.235C75.7649 133.89 75.5699 133.13 75.9149 132.545C76.2599 131.96 77.0199 131.765 77.6049 132.11C81.3599 134.335 84.1899 137.835 85.5749 141.965C85.7149 142.38 85.8399 142.8 85.9499 143.225C86.1199 143.885 85.7199 144.56 85.0599 144.73C84.9549 144.755 84.8549 144.77 84.7499 144.77H84.7549Z"/><path fill="#EF4056" fill-rule="evenodd" d="M107.24 137.12L76.0451 166.48C74.4551 168.315 71.8851 169.05 70.0501 169.05C67.7251 169.05 65.4001 168.315 63.5651 166.48L32.8601 137.12C29.6801 133.695 29.1901 127.945 32.8601 124.275C36.2851 121.095 42.0351 120.605 45.4601 124.275L70.0501 147.885L95.1301 124.275C98.3101 120.605 104.06 121.095 107.24 124.275C110.42 127.945 110.42 133.695 107.24 137.12ZM134.205 88.43H4.34009C4.34009 88.43 4.35509 93.69 4.35509 100.665V139.935C4.35509 175.535 33.7151 205.14 70.0501 205.14C106.385 205.14 135.255 175.535 135.255 139.935V100.665C135.255 100.665 135.27 88.43 135.265 88.43" clip-rule="evenodd"/><path fill="#1A1A1A" d="M70.05 206.375C69.37 206.375 68.815 205.82 68.815 205.14C68.815 204.46 69.37 203.905 70.05 203.905C87.12 203.905 103.195 197.195 115.31 185.015C127.375 172.885 134.02 156.875 134.02 139.935V100.665C134.02 100.665 134.02 100.64 134.02 100.63C134.02 100.235 134.03 92.675 134.03 89.67H124.53C123.85 89.67 123.295 89.115 123.295 88.435C123.295 87.755 123.85 87.2 124.53 87.2H134.205C134.395 87.2 134.575 87.245 134.735 87.32C134.895 87.245 135.075 87.2 135.265 87.2C136.085 87.2 136.5 87.745 136.5 88.82V89.86C136.5 91.475 136.5 94.175 136.5 96.475V100.34C136.495 100.46 136.49 100.565 136.475 100.67H136.49V139.94C136.49 157.54 129.59 174.17 117.06 186.765C104.475 199.415 87.78 206.38 70.05 206.38V206.375ZM107.93 89.665H48.525C47.845 89.665 47.29 89.11 47.29 88.43C47.29 87.75 47.845 87.195 48.525 87.195H107.93C108.61 87.195 109.165 87.75 109.165 88.43C109.165 89.11 108.61 89.665 107.93 89.665Z"/></g><defs><clipPath id="a"><path fill="#fff" d="M0 0H136V206.375H0z" transform="translate(.5)"/></clipPath></defs></svg>