<svg
  width="182"
  height="49"
  viewBox="0 0 182 49"
  fill="none"
  xmlns="http://www.w3.org/2000/svg">
  <g clip-path="url(#clip0_2902_4151)">
    <path
      fill-rule="evenodd"
      clip-rule="evenodd"
      d="M22.1597 22.2279L15.4655 28.5234C15.3004 28.6963 15.1017 28.8337 14.8816 28.927C14.6615 29.0204 14.4246 29.0678 14.1855 29.0663C13.9312 29.0729 13.6783 29.0283 13.4417 28.935C13.2051 28.8417 12.9897 28.7017 12.8084 28.5234L6.21391 22.2279C5.85818 21.8572 5.65955 21.3633 5.65955 20.8495C5.65955 20.3357 5.85818 19.8418 6.21391 19.4711C6.951 18.7812 8.18123 18.6841 8.92094 19.4711L14.1855 24.5415L19.5497 19.4711C20.2396 18.6841 21.4698 18.7812 22.1728 19.4711C22.5056 19.8532 22.689 20.3428 22.689 20.8495C22.689 21.3562 22.5056 21.8459 22.1728 22.2279H22.1597ZM25.5539 11.7933H2.81701C2.46778 11.7856 2.12048 11.8471 1.7951 11.9742C1.46972 12.1013 1.17268 12.2915 0.921091 12.5338C0.669496 12.7762 0.468309 13.0658 0.329107 13.3862C0.189904 13.7066 0.115435 14.0514 0.109985 14.4006L0.109985 22.8181C0.109985 30.4461 6.4054 36.7966 14.1855 36.7966C17.8906 36.7855 21.441 35.3097 24.0622 32.691C26.6833 30.0723 28.1625 26.5232 28.177 22.8181V14.4006C28.1788 14.0564 28.112 13.7153 27.9806 13.3971C27.8492 13.079 27.6558 12.7901 27.4117 12.5475C27.1676 12.3048 26.8776 12.1131 26.5586 11.9836C26.2397 11.8542 25.8981 11.7895 25.5539 11.7933Z"
      fill="#EF4056" />
    <path
      fill-rule="evenodd"
      clip-rule="evenodd"
      d="M180.442 32.0226C179.968 32.0571 179.518 32.247 179.162 32.5629C178.472 33.1531 177.635 33.7433 176.455 33.7433C174.438 33.7433 173.307 32.5131 173.307 29.709V14.5397L179.558 14.6367C180.445 14.6367 181.035 14.0964 181.035 13.2596C181.035 12.373 180.445 11.8327 179.558 11.8327L173.307 11.8799V6.82256C173.307 5.8389 172.617 5.14903 171.781 5.14903C171.563 5.14856 171.348 5.19191 171.147 5.27648C170.947 5.36105 170.765 5.48511 170.614 5.64128C170.462 5.79745 170.344 5.98252 170.265 6.18547C170.187 6.38841 170.15 6.60508 170.157 6.82256V11.8904L167.5 11.8432C167.309 11.8308 167.118 11.8593 166.939 11.9266C166.761 11.994 166.598 12.0987 166.463 12.2337C166.328 12.3688 166.224 12.5311 166.156 12.7098C166.089 12.8885 166.06 13.0795 166.073 13.2701C166.07 13.4561 166.105 13.6407 166.176 13.8125C166.247 13.9843 166.353 14.1396 166.487 14.2688C166.621 14.3979 166.78 14.4982 166.954 14.5633C167.128 14.6284 167.314 14.657 167.5 14.6472L170.154 14.5397V29.8061C170.154 34.5801 173.058 36.7966 176.405 36.7966C177.282 36.8202 178.154 36.6617 178.967 36.3312C179.78 36.0008 180.515 35.5054 181.127 34.8765C181.473 34.483 181.817 34.0397 181.817 33.4495C181.83 33.2628 181.805 33.0754 181.741 32.8993C181.677 32.7233 181.577 32.5627 181.447 32.428C181.317 32.2933 181.16 32.1875 180.987 32.1177C180.813 32.0478 180.626 32.0154 180.439 32.0226"
      fill="#343434" />
    <path
      fill-rule="evenodd"
      clip-rule="evenodd"
      d="M165.086 22.868C165.086 17.3595 160.263 11.5467 153.807 11.5467C146.817 11.5467 141.602 17.3175 141.602 24.2451C141.602 31.1727 146.916 36.7966 153.857 36.7966C157.301 36.7966 160.648 35.5165 162.862 33.3498C163.355 32.8593 163.749 32.3164 163.749 31.776C163.761 31.5854 163.733 31.3944 163.665 31.2157C163.598 31.0369 163.493 30.8746 163.358 30.7396C163.223 30.6045 163.061 30.4999 162.882 30.4325C162.703 30.3652 162.512 30.3367 162.322 30.349C161.812 30.3577 161.322 30.5495 160.942 30.8894C158.875 32.7098 156.761 33.7433 153.86 33.7433C149.34 33.7433 145.308 30.3044 144.889 25.1789H162.463C164.15 25.1789 165.086 24.2949 165.086 22.868ZM144.98 22.4745C145.704 17.307 149.521 14.6053 153.815 14.6053C158.392 14.6053 161.59 18.4455 161.787 22.4745H144.98Z"
      fill="#343434" />
    <path
      fill-rule="evenodd"
      clip-rule="evenodd"
      d="M130.034 22.9991L139.197 14.7469C140.033 14.0072 140.133 12.9265 139.493 12.2366C138.803 11.4969 137.77 11.6962 137.033 12.3835L124.581 24.0667V2.24526C124.581 1.11209 124.088 0.375 123.054 0.375C121.921 0.375 121.381 1.11209 121.381 2.24526V34.9735C121.381 36.0569 122.021 36.7966 123.054 36.7966C123.988 36.7966 124.581 36.0569 124.581 34.9735V27.9174L127.77 25.032L137.822 36.2038C138.462 36.8936 139.545 37.1402 140.233 36.5002C141.02 35.7631 140.776 34.7768 140.186 34.0896L130.034 22.9991Z"
      fill="#343434" />
    <path
      fill-rule="evenodd"
      clip-rule="evenodd"
      d="M115.573 29.0191C115.13 29.0191 114.639 29.3627 114.343 29.7562C112.966 31.5793 110.012 33.7433 106.715 33.7433C101.791 33.7433 97.5603 29.8559 97.5603 24.2451C97.5603 18.2409 101.791 14.6472 106.715 14.6472C110.306 14.6472 112.276 16.3706 113.949 18.3878C114.101 18.5881 114.293 18.7534 114.514 18.8724C114.735 18.9915 114.979 19.0615 115.229 19.0776C115.967 19.0776 116.706 18.5373 116.706 17.7976C116.706 17.2572 116.36 16.7142 116.066 16.2709C114.046 13.3672 110.652 11.6936 106.715 11.6936C103.401 11.7117 100.229 13.043 97.8949 15.3958C95.5607 17.7486 94.2547 20.9309 94.2631 24.2451C94.2631 31.0861 99.8739 36.7966 106.715 36.7966C110.946 36.7966 114.584 34.3335 116.507 31.776C116.822 31.4196 117.013 30.9703 117.05 30.4959C117.058 30.2999 117.025 30.1044 116.953 29.9217C116.882 29.739 116.773 29.5731 116.635 29.4344C116.496 29.2957 116.33 29.1872 116.147 29.1157C115.965 29.0443 115.769 29.0114 115.573 29.0191Z"
      fill="#343434" />
    <path
      fill-rule="evenodd"
      clip-rule="evenodd"
      d="M78.8577 33.7433C73.7873 33.7433 69.5562 29.4624 69.5562 24.2451C69.5562 18.978 73.7873 14.5974 78.8577 14.5974C84.0252 14.5974 88.1592 18.978 88.1592 24.2451C88.1592 29.4624 84.0252 33.7433 78.8577 33.7433ZM78.9548 11.5468C77.2886 11.5436 75.6384 11.8703 74.0991 12.5079C72.5599 13.1456 71.162 14.0816 69.9862 15.2621C68.8104 16.4425 67.8799 17.844 67.2483 19.3857C66.6167 20.9275 66.2965 22.579 66.3062 24.2451C66.3062 31.1858 71.8147 36.7966 78.9548 36.7966C85.6489 36.7966 91.4564 31.1858 91.4564 24.2451C91.4564 17.3044 85.599 11.5468 78.9548 11.5468Z"
      fill="#343434" />
    <path
      fill-rule="evenodd"
      clip-rule="evenodd"
      d="M50.9507 33.7433C45.8829 33.7433 41.6492 29.4624 41.6492 24.2451C41.6492 18.9779 45.8829 14.5974 50.9507 14.5974C56.1182 14.5974 60.2521 18.9779 60.2521 24.2451C60.2521 29.4624 56.1182 33.7433 50.9507 33.7433ZM50.9979 11.5467C47.1577 11.5467 43.7634 13.7134 41.3502 16.6172L41.2531 13.1704C41.2033 11.9402 40.6131 11.35 39.7265 11.35C38.7927 11.35 38.1526 12.0897 38.1526 13.1232V46.6987C38.141 46.9174 38.1747 47.136 38.2515 47.341C38.3283 47.546 38.4467 47.7329 38.5991 47.89C38.7515 48.0471 38.9348 48.1711 39.1374 48.254C39.3399 48.337 39.5575 48.3773 39.7763 48.3723C40.76 48.3723 41.3502 47.6326 41.3502 46.6489V31.9727C43.7634 34.8266 47.1577 36.7966 50.9979 36.7966C52.6453 36.8015 54.2774 36.4798 55.7998 35.8502C57.3221 35.2206 58.7046 34.2955 59.8674 33.1284C61.0301 31.9612 61.95 30.5753 62.5739 29.0505C63.1977 27.5258 63.5132 25.8925 63.5021 24.2451C63.5021 17.3044 57.9937 11.5467 51.0005 11.5467"
      fill="#343434" />
  </g>
  <defs>
    <clipPath id="clip0_2902_4151">
      <rect
        width="181.78"
        height="48.0025"
        fill="white"
        transform="translate(0.109985 0.375)" />
    </clipPath>
  </defs>
</svg>