<svg xmlns="http://www.w3.org/2000/svg" viewBox="0 0 500 500" id="appstoreQR">
    <defs>
      <clipPath id="ap">
        <path d="M19 145H33V159H19zM19 173H33V187H19zM19 187H33V201H19zM19 201H33V215H19zM19 229H33V243H19zM19 271H33V285H19zM19 285H33V299H19zM19 299H33V313H19zM19 341H33V355H19zM19 355H33V369H19zM33 131H47V145H33zM33 173H47V187H33zM33 201H47V215H33zM33 215H47V229H33zM33 257H47V271H33zM33 299H47V313H33zM33 313H47V327H33zM33 327H47V341H33zM33 341H47V355H33zM33 355H47V369H33zM47 131H61V145H47zM47 159H61V173H47zM47 187H61V201H47zM47 201H61V215H47zM47 215H61V229H47zM47 271H61V285H47zM47 299H61V313H47zM61 159H75V173H61zM61 173H75V187H61zM61 201H75V215H61zM61 215H75V229H61zM61 229H75V243H61zM61 271H75V285H61zM61 285H75V299H61zM61 327H75V341H61zM61 355H75V369H61zM75 145H89V159H75zM75 159H89V173H75zM75 215H89V229H75zM75 229H89V243H75zM75 243H89V257H75zM75 257H89V271H75zM75 271H89V285H75zM75 313H89V327H75zM75 327H89V341H75zM75 355H89V369H75zM89 145H103V159H89zM89 159H103V173H89zM89 173H103V187H89zM89 215H103V229H89zM89 229H103V243H89zM89 243H103V257H89zM89 313H103V327H89zM103 131H117V145H103zM103 159H117V173H103zM103 187H117V201H103zM103 215H117V229H103zM103 243H117V257H103zM103 271H117V285H103zM103 299H117V313H103zM103 327H117V341H103zM103 355H117V369H103zM117 173H131V187H117zM117 229H131V243H117zM117 243H131V257H117zM117 257H131V271H117zM117 271H131V285H117zM117 285H131V299H117zM117 327H131V341H117zM117 341H131V355H117zM117 355H131V369H117zM131 33H145V47H131zM131 47H145V61H131zM131 61H145V75H131zM131 89H145V103H131zM131 103H145V117H131zM131 145H145V159H131zM131 159H145V173H131zM131 173H145V187H131zM131 201H145V215H131zM131 229H145V243H131zM131 243H145V257H131zM131 257H145V271H131zM131 271H145V285H131zM131 313H145V327H131zM131 439H145V453H131zM131 453H145V467H131zM145 47H159V61H145zM145 61H159V75H145zM145 75H159V89H145zM145 159H159V173H145zM145 187H159V201H145zM145 201H159V215H145zM145 257H159V271H145zM145 271H159V285H145zM145 285H159V299H145zM145 299H159V313H145zM145 313H159V327H145zM145 341H159V355H145zM145 383H159V397H145zM145 425H159V439H145zM145 439H159V453H145zM145 453H159V467H145zM159 19H173V33H159zM159 61H173V75H159zM159 75H173V89H159zM159 103H173V117H159zM159 131H173V145H159zM159 145H173V159H159zM159 159H173V173H159zM159 201H173V215H159zM159 215H173V229H159zM159 243H173V257H159zM159 271H173V285H159zM159 313H173V327H159zM159 341H173V355H159zM159 369H173V383H159zM159 397H173V411H159zM159 411H173V425H159zM159 425H173V439H159zM159 453H173V467H159zM159 467H173V481H159zM173 19H187V33H173zM173 33H187V47H173zM173 47H187V61H173zM173 117H187V131H173zM173 131H187V145H173zM173 145H187V159H173zM173 173H187V187H173zM173 215H187V229H173zM173 257H187V271H173zM173 285H187V299H173zM173 299H187V313H173zM173 327H187V341H173zM173 355H187V369H173zM173 383H187V397H173zM173 397H187V411H173zM173 425H187V439H173zM187 19H201V33H187zM187 89H201V103H187zM187 103H201V117H187zM187 131H201V145H187zM187 145H201V159H187zM187 173H201V187H187zM187 299H201V313H187zM187 327H201V341H187zM187 341H201V355H187zM187 369H201V383H187zM187 425H201V439H187zM187 453H201V467H187zM201 19H215V33H201zM201 47H215V61H201zM201 75H215V89H201zM201 131H215V145H201zM201 145H215V159H201zM201 159H215V173H201zM201 243H215V257H201zM201 257H215V271H201zM201 299H215V313H201zM201 313H215V327H201zM201 355H215V369H201zM201 397H215V411H201zM201 439H215V453H201zM201 453H215V467H201zM215 47H229V61H215zM215 103H229V117H215zM215 117H229V131H215zM215 131H229V145H215zM215 145H229V159H215zM215 159H229V173H215zM215 173H229V187H215zM215 187H229V201H215zM215 201H229V215H215zM215 229H229V243H215zM215 243H229V257H215zM215 257H229V271H215zM215 285H229V299H215zM215 299H229V313H215zM215 355H229V369H215zM215 383H229V397H215zM215 397H229V411H215zM215 411H229V425H215zM215 425H229V439H215zM215 439H229V453H215zM229 19H243V33H229zM229 47H243V61H229zM229 89H243V103H229zM229 159H243V173H229zM229 187H243V201H229zM229 257H243V271H229zM229 271H243V285H229zM229 313H243V327H229zM229 327H243V341H229zM229 341H243V355H229zM229 355H243V369H229zM229 369H243V383H229zM229 425H243V439H229zM229 439H243V453H229zM243 19H257V33H243zM243 33H257V47H243zM243 61H257V75H243zM243 75H257V89H243zM243 103H257V117H243zM243 131H257V145H243zM243 173H257V187H243zM243 187H257V201H243zM243 215H257V229H243zM243 229H257V243H243zM243 257H257V271H243zM243 271H257V285H243zM243 299H257V313H243zM243 313H257V327H243zM243 327H257V341H243zM243 341H257V355H243zM243 369H257V383H243zM243 383H257V397H243zM243 411H257V425H243zM243 439H257V453H243zM257 19H271V33H257zM257 33H271V47H257zM257 89H271V103H257zM257 131H271V145H257zM257 145H271V159H257zM257 187H271V201H257zM257 201H271V215H257zM257 215H271V229H257zM257 257H271V271H257zM257 271H271V285H257zM257 299H271V313H257zM257 327H271V341H257zM257 341H271V355H257zM257 355H271V369H257zM257 383H271V397H257zM257 411H271V425H257zM257 425H271V439H257zM257 453H271V467H257zM257 467H271V481H257zM271 19H285V33H271zM271 33H285V47H271zM271 47H285V61H271zM271 75H285V89H271zM271 89H285V103H271zM271 103H285V117H271zM271 117H285V131H271zM271 145H285V159H271zM271 159H285V173H271zM271 229H285V243H271zM271 243H285V257H271zM271 271H285V285H271zM271 313H285V327H271zM271 327H285V341H271zM271 355H285V369H271zM271 411H285V425H271zM271 439H285V453H271zM271 453H285V467H271zM285 33H299V47H285zM285 47H299V61H285zM285 61H299V75H285zM285 89H299V103H285zM285 117H299V131H285zM285 159H299V173H285zM285 243H299V257H285zM285 257H299V271H285zM285 271H299V285H285zM285 327H299V341H285zM285 355H299V369H285zM285 369H299V383H285zM285 383H299V397H285zM285 397H299V411H285zM285 411H299V425H285zM285 453H299V467H285zM299 19H313V33H299zM299 61H313V75H299zM299 89H313V103H299zM299 103H313V117H299zM299 117H313V131H299zM299 131H313V145H299zM299 173H313V187H299zM299 187H313V201H299zM299 201H313V215H299zM299 215H313V229H299zM299 229H313V243H299zM299 257H313V271H299zM299 285H313V299H299zM299 327H313V341H299zM299 341H313V355H299zM299 355H313V369H299zM299 425H313V439H299zM299 439H313V453H299zM299 453H313V467H299zM313 19H327V33H313zM313 47H327V61H313zM313 61H327V75H313zM313 89H327V103H313zM313 159H327V173H313zM313 173H327V187H313zM313 201H327V215H313zM313 243H327V257H313zM313 271H327V285H313zM313 299H327V313H313zM313 313H327V327H313zM313 341H327V355H313zM313 369H327V383H313zM313 383H327V397H313zM313 439H327V453H313zM313 467H327V481H313zM327 61H341V75H327zM327 103H341V117H327zM327 117H341V131H327zM327 131H341V145H327zM327 145H341V159H327zM327 173H341V187H327zM327 229H341V243H327zM327 257H341V271H327zM327 285H341V299H327zM327 299H341V313H327zM327 341H341V355H327zM327 397H341V411H327zM327 411H341V425H327zM327 425H341V439H327zM327 453H341V467H327zM327 467H341V481H327zM341 33H355V47H341zM341 47H355V61H341zM341 89H355V103H341zM341 117H355V131H341zM341 145H355V159H341zM341 173H355V187H341zM341 201H355V215H341zM341 229H355V243H341zM341 299H355V313H341zM341 369H355V383H341zM341 383H355V397H341zM341 397H355V411H341zM341 411H355V425H341zM341 425H355V439H341zM341 467H355V481H341zM355 19H369V33H355zM355 47H369V61H355zM355 61H369V75H355zM355 75H369V89H355zM355 103H369V117H355zM355 159H369V173H355zM355 187H369V201H355zM355 215H369V229H355zM355 229H369V243H355zM355 243H369V257H355zM355 285H369V299H355zM355 299H369V313H355zM355 327H369V341H355zM355 355H369V369H355zM355 369H369V383H355zM355 383H369V397H355zM355 397H369V411H355zM355 411H369V425H355zM355 453H369V467H355zM369 131H383V145H369zM369 145H383V159H369zM369 159H383V173H369zM369 201H383V215H369zM369 229H383V243H369zM369 285H383V299H369zM369 313H383V327H369zM369 341H383V355H369zM369 355H383V369H369zM369 411H383V425H369zM369 425H383V439H369zM383 145H397V159H383zM383 159H397V173H383zM383 187H397V201H383zM383 243H397V257H383zM383 257H397V271H383zM383 271H397V285H383zM383 285H397V299H383zM383 313H397V327H383zM383 341H397V355H383zM383 355H397V369H383zM383 383H397V397H383zM383 411H397V425H383zM397 131H411V145H397zM397 173H411V187H397zM397 201H411V215H397zM397 215H411V229H397zM397 257H411V271H397zM397 285H411V299H397zM397 299H411V313H397zM397 355H411V369H397zM397 411H411V425H397zM397 439H411V453H397zM397 467H411V481H397zM411 159H425V173H411zM411 173H425V187H411zM411 201H425V215H411zM411 243H425V257H411zM411 257H425V271H411zM411 271H425V285H411zM411 285H425V299H411zM411 327H425V341H411zM411 341H425V355H411zM411 355H425V369H411zM411 369H425V383H411zM411 383H425V397H411zM411 397H425V411H411zM411 411H425V425H411zM411 439H425V453H411zM411 453H425V467H411zM425 131H439V145H425zM425 145H439V159H425zM425 173H439V187H425zM425 187H439V201H425zM425 215H439V229H425zM425 229H439V243H425zM425 257H439V271H425zM425 285H439V299H425zM425 313H439V327H425zM425 327H439V341H425zM425 453H439V467H425zM425 467H439V481H425zM439 131H453V145H439zM439 145H453V159H439zM439 159H453V173H439zM439 173H453V187H439zM439 187H453V201H439zM439 229H453V243H439zM439 257H453V271H439zM439 299H453V313H439zM439 313H453V327H439zM439 341H453V355H439zM439 383H453V397H439zM439 397H453V411H439zM439 425H453V439H439zM439 439H453V453H439zM453 131H467V145H453zM453 159H467V173H453zM453 173H467V187H453zM453 187H467V201H453zM453 201H467V215H453zM453 215H467V229H453zM453 229H467V243H453zM453 243H467V257H453zM453 271H467V285H453zM453 299H467V313H453zM453 327H467V341H453zM453 355H467V369H453zM453 383H467V397H453zM453 411H467V425H453zM453 467H467V481H453zM467 187H481V201H467zM467 201H481V215H467zM467 229H481V243H467zM467 257H481V271H467zM467 285H481V299H467zM467 313H481V327H467zM467 341H481V355H467zM467 369H481V383H467zM467 439H481V453H467z"/>
        <path d="M 19 19v 98h 98v -98zM 33 33h 70v 70h -70z" clip-rule="evenodd"/>
        <path d="M47 47H89V89H47z"/>
        <path d="M 383 19v 98h 98v -98zM 397 33h 70v 70h -70z" clip-rule="evenodd" transform="rotate(90 432 68)"/>
        <path d="M411 47H453V89H411z" transform="rotate(90 432 68)"/>
        <path d="M 19 383v 98h 98v -98zM 33 397h 70v 70h -70z" clip-rule="evenodd" transform="rotate(-90 68 432)"/>
        <path d="M47 411H89V453H47z" transform="rotate(-90 68 432)"/>
      </clipPath>
    </defs>
    <path fill="#fff" d="M0 0H500V500H0z" clip-path="url('#clip-path-background-color')"/>
    <path d="M0 0H500V500H0z" clip-path="url('#ap')"/>
  </svg>