<svg width="410" height="271" viewBox="0 0 410 271" fill="none" xmlns="http://www.w3.org/2000/svg">
<mask id="mask0" mask-type="alpha" maskUnits="userSpaceOnUse" x="0" y="0" width="410" height="271">
<rect width="410" height="271" fill="#FDF0EC"/>
</mask>
<g mask="url(#mask0)">
<path d="M167.271 206.978C167.271 206.978 150.168 182.591 105.99 198.354C105.99 198.354 81.6437 197.281 70.3734 203.804C70.3734 203.804 80.6276 188.907 85.5635 178.834C90.4993 168.761 97.5361 156.41 97.5361 156.41L73.5218 137.737L70.3734 139.876L63.7944 131.421L60.7338 136.138L47.8329 164.445C47.8329 164.445 22.1629 198.303 10.8926 211.707C-0.377596 225.111 -4.60472 239.199 10.8926 248.363C26.39 257.521 49.2064 259.139 76.1873 258.204C172.201 254.893 172.201 254.893 172.201 254.893L167.271 206.978Z" fill="#95D2FF"/>
<path d="M367.439 232.651C365.564 231.484 286.772 244.255 268.258 235.116C253.175 227.658 300.501 199.201 279.911 189.535C225.121 155.57 180.341 165.65 146.938 155.143C48.1467 124.152 35.0702 55.1996 41.9941 19.215C48.8554 -16.7695 70.5429 6.63893 98.0568 -18.2561C125.571 -43.0884 213.224 -95.4062 290.328 -92.6213C367.432 -89.8363 405.176 -88.0801 408.543 -58.9073C411.911 -29.6655 391.453 -12.0966 347.495 -20.3323C303.474 -28.5679 248.314 -36.2139 256.668 -46.5257C265.022 -56.9001 266.64 -60.3374 281.203 -58.9763C287.481 -58.393 272.981 -52.2962 282.564 -55.7335C292.147 -59.1707 276.48 -64.7469 268.258 -65.4557C260.036 -66.1017 282.564 -61.3723 239.515 -46.5257C194.265 -23.8322 68.6463 -23.18 62.5 4.5C56.3475 32.1172 195.557 92.0874 251.431 120.746C307.306 149.404 388.091 191.348 384.598 198.354C381.099 205.354 367.439 232.651 367.439 232.651Z" fill="#F9BFD1"/>
<path d="M381.098 205.354C381.425 204.771 190.897 139.105 127.584 117.836C64.3337 96.5098 38.8267 42.2977 48.4726 7.86864C58.0558 -26.5604 81.2924 -46.2055 154.966 -74.2116C228.571 -102.218 356.952 -112.981 384.529 -89.3844C412.106 -65.7878 442.147 -30.6437 408.612 -16.9009C408.612 -16.9009 294.348 -18.1303 279.397 -27.2064C264.445 -36.1508 243.466 -46.9832 251.82 -53.1427C260.174 -59.3022 307.563 -45.1015 339.605 -43.0944C371.653 -41.0182 396.445 -51.8443 357.279 -63.3228C318.112 -74.8639 274.216 -74.2179 238.869 -63.3228C212.452 -55.1561 176.969 -59.0134 152.24 -43.1255C127.511 -27.2439 59.9171 -24.6244 64 5C68.0766 34.6307 197.563 68.4848 243.723 85.7966C289.883 103.108 393.723 180.453 393.723 180.453L381.098 205.354Z" fill="#EF4056"/>
<path d="M385.369 189.209C381.939 184.667 279.522 125.864 177.105 97.5316C74.6884 69.3311 36.5564 40.2837 53.6468 -11.3253C66.3972 -49.775 56.7513 -14.0476 86.3412 -36.741C115.925 -59.4344 177.3 -115.384 277.71 -111.106C378.119 -106.828 418.258 -99.4333 430.689 -79.3994C443.057 -59.4281 458.849 -30.5125 430.689 -25.0054C402.529 -19.492 343.161 -15.2142 309.952 -22.2832C271.432 -30.4498 228.771 -49.9004 233.688 -52.6916C233.688 -52.6916 305.807 -38.8799 319.987 -36.741C334.167 -34.5394 387.383 -27.7966 396.314 -41.5393C405.244 -55.2821 381.876 -75.2533 342.709 -79.4056C303.48 -83.5579 256.737 -90.6896 198.473 -65.8573C161.056 -50.0384 98.9002 -32.4646 74.8169 -15.9307C45.1643 4.49218 82.2019 40.083 120.077 38.8473C157.951 37.618 280.626 93.4358 309.952 102.386C339.279 111.331 401.425 159.829 401.425 159.829L385.369 189.209Z" fill="#FCB643"/>
<path d="M393.14 164.445C393.14 164.445 302.897 101.684 236.279 87.9412C169.598 74.1921 71.9728 65.3104 57.6608 20.9648C42.2513 -26.4919 62.8573 -29.5266 62.8573 -29.5266C67.8433 -32.2488 74.7512 -16.638 111.911 -46.5886C150.752 -77.8375 196.134 -96.7675 265.085 -98.1286C334.029 -99.427 388.154 -95.4064 409.647 -77.4486C426.223 -63.6369 439.883 -26.4229 387.634 -24.3468C335.39 -22.2706 260.939 -41.4641 243.592 -50.4085C226.175 -59.3529 220.612 -41.9784 297.585 -14.6873C336.814 -5.09061 423.501 6.70772 442.73 -16.7635C461.959 -40.2347 482.612 -90.5453 401.494 -107.788C320.376 -124.968 217.445 -129.829 155.23 -107.788C93.0144 -85.747 80.6223 -46.5886 64.0094 -19.5578C54.5954 5.91811 85.9587 36.79 109.264 41.2622C132.633 45.7344 240.424 46.5122 270.723 55.5256C301.015 64.4699 369.571 117.308 379.737 130.731C389.904 144.154 401.425 159.841 401.425 159.841L393.14 164.445Z" fill="#1CB0A8"/>
<path d="M375.203 115.559C354.036 94.1011 323.349 45.2632 252.14 25.6181C199.448 17.3729 157.653 16.7519 103.142 14.6644C18.4619 11.4216 96.2903 -50.9828 107.423 -66.67C118.555 -82.3572 112.695 -118.363 252.14 -125.883C392.362 -133.467 492.71 -118.766 488.627 -67.2199C484.544 -15.6736 391.001 1.82634 331.897 -11.2704C243.077 -30.9781 213.167 -63.331 216.855 -68.1294C220.48 -72.9905 239.835 -62.616 268.321 -48.6788C296.807 -34.7416 443.953 -3.7498 453.536 -58.8588C463.12 -113.968 368.342 -110.711 283.862 -112.141C206.049 -113.37 123.283 -83.419 84.7622 -55.0867C67.8662 -42.6361 25.2924 31.6596 129.848 49.8119C234.334 67.9641 266.703 53.2491 319.466 88.3869C372.23 123.525 396.828 157.502 398.966 154.78C401.036 152.127 396.376 137.017 375.203 115.559Z" fill="#95D2FF"/>
<path d="M363.036 220.332L352.029 198.097L382.265 130.732L399.356 151.543L363.036 220.332ZM324.647 228.047L326.786 203.993L346.661 202.764L354.626 223.444L324.647 228.047ZM319.335 224.284L312.279 226.228L315.842 206H321.668L319.335 224.284ZM382.328 120.031L346.918 197.181H312.286L305.876 237.895L367.445 232.708L408.682 150.69L382.328 120.031Z" fill="white"/>
<path d="M353.133 198.09L363.105 218.187L398.195 151.668L382.528 132.544L353.133 198.09ZM363.036 221.304C362.647 221.304 362.321 221.11 362.196 220.783L351.189 198.548C351.057 198.291 351.057 197.965 351.189 197.707L381.425 130.342C381.556 130.016 381.876 129.822 382.202 129.759C382.529 129.696 382.848 129.822 383.112 130.085L400.202 150.897C400.459 151.223 400.459 151.612 400.334 152.001L364.014 220.79C363.745 221.11 363.425 221.304 363.036 221.304ZM316.619 206.978L313.515 224.873L318.501 223.512L320.57 206.978H316.619ZM312.217 227.2C311.959 227.2 311.765 227.137 311.571 226.943C311.313 226.748 311.182 226.36 311.244 226.033L314.807 205.805C314.869 205.353 315.258 205.027 315.779 205.027H321.605C321.862 205.027 322.126 205.159 322.32 205.353C322.515 205.548 322.577 205.874 322.577 206.131L320.244 224.415C320.182 224.804 319.918 225.13 319.529 225.256L312.474 227.2C312.411 227.2 312.342 227.2 312.217 227.2ZM327.689 204.965L325.745 226.943L353.321 222.728L346.008 203.798L327.689 204.965ZM324.647 229.019C324.39 229.019 324.195 228.956 324.001 228.762C323.807 228.567 323.675 228.241 323.675 227.984L325.814 203.93C325.876 203.478 326.265 203.089 326.723 203.02L346.598 201.791C346.987 201.791 347.438 201.985 347.57 202.437L355.535 223.117C355.667 223.374 355.598 223.7 355.472 223.957C355.347 224.214 355.084 224.409 354.757 224.409L324.785 229.013C324.71 229.019 324.71 229.019 324.647 229.019ZM313.057 198.159L306.973 236.866L366.793 231.81L407.446 150.834L382.585 121.787L347.758 197.576C347.627 197.902 347.238 198.159 346.849 198.159H313.057ZM305.87 238.873C305.612 238.873 305.349 238.741 305.155 238.547C304.96 238.352 304.828 238.026 304.897 237.706L311.307 196.992C311.37 196.541 311.759 196.152 312.279 196.152H346.335L381.55 119.516C381.682 119.19 381.939 118.995 382.328 118.933C382.654 118.87 382.974 118.995 383.168 119.259L409.453 149.924C409.71 150.251 409.779 150.64 409.585 151.028L368.348 233.046C368.216 233.372 367.897 233.566 367.571 233.566L306.001 238.754C305.87 238.873 305.87 238.873 305.87 238.873Z" fill="white"/>
<path d="M327.3 211.707C326.779 211.707 326.391 211.319 326.328 210.798C326.265 210.277 326.654 209.826 327.237 209.763L348.342 208.013C348.862 207.95 349.314 208.339 349.376 208.923C349.439 209.443 349.05 209.895 348.467 209.958L327.363 211.707H327.3Z" fill="white"/>
<path d="M334.876 226.298C334.356 226.298 333.967 225.909 333.904 225.457L331.834 205.36C331.772 204.84 332.16 204.325 332.675 204.325C333.195 204.263 333.71 204.652 333.71 205.166L335.779 225.263C335.842 225.783 335.453 226.298 334.939 226.298C335.002 226.298 334.939 226.298 334.876 226.298Z" fill="white"/>
<path d="M343.612 226.034C343.161 226.034 342.772 225.708 342.64 225.256L338.238 204.507C338.106 203.986 338.432 203.472 339.015 203.34C339.536 203.209 340.05 203.535 340.182 204.118L344.585 224.867C344.716 225.388 344.39 225.902 343.807 226.034C343.744 226.034 343.681 226.034 343.612 226.034Z" fill="white"/>
<path d="M326.585 221.304C326.064 221.304 325.675 220.915 325.613 220.464C325.55 219.943 325.939 219.429 326.453 219.429L350.474 216.901C350.994 216.838 351.508 217.227 351.508 217.742C351.571 218.262 351.182 218.776 350.668 218.776L326.647 221.304C326.654 221.304 326.654 221.304 326.585 221.304Z" fill="white"/>
<path d="M305.869 156.404C305.869 156.404 304.251 163.473 310.855 168.077C314.418 170.542 312.147 173.979 307.751 172.16C300.112 169.049 301.536 162.952 301.536 162.952" fill="white"/>
<path d="M310.015 173.654C309.237 173.654 308.334 173.459 307.362 173.071C299.077 169.702 300.501 162.828 300.564 162.765L302.439 163.217C302.376 163.411 301.341 168.536 308.071 171.321C309.883 172.036 311.175 171.772 311.502 171.126C311.759 170.606 311.502 169.765 310.272 168.925C303.154 163.994 304.835 156.279 304.897 156.217L306.773 156.668L305.801 156.474L306.773 156.668C306.71 156.925 305.412 163.154 311.37 167.369C313.766 168.987 313.828 170.938 313.182 172.105C312.731 172.939 311.633 173.654 310.015 173.654Z" fill="white"/>
<path d="M288.265 116.142C275.445 112.705 267.16 120.031 258.938 137.926C254.987 146.419 254.536 155.689 257.903 162.112C261.591 169.181 270.466 174.883 274.091 177.348C281.015 181.952 299.272 175.598 304.327 161.397C309.369 147.071 312.085 122.559 288.265 116.142Z" fill="white"/>
<path d="M282.501 116.273C273.633 116.273 266.834 123.078 259.842 138.314C255.959 146.612 255.57 155.563 258.744 161.653C262.112 168.07 270.008 173.389 273.827 175.979L274.605 176.5C277.133 178.187 281.792 178.25 286.647 176.632C292.799 174.555 300.438 169.437 303.348 161.007C304.966 156.403 309.821 140.453 303.674 128.717C300.633 122.946 295.389 118.995 288.008 116.981C286.126 116.593 284.251 116.273 282.501 116.273ZM279.911 179.805C277.383 179.805 275.119 179.222 273.501 178.187L272.724 177.667C268.772 175.007 260.55 169.431 256.994 162.625C253.501 156.014 253.952 146.418 258.029 137.599C266.897 118.28 275.703 111.794 288.453 115.231C296.349 117.37 302.05 121.648 305.349 127.939C311.696 140.064 307.293 155.625 305.092 161.785C301.918 170.798 293.765 176.374 287.161 178.576C284.703 179.417 282.175 179.805 279.911 179.805Z" fill="white"/>
<path d="M279.973 98.3785C287.286 96.5658 296.932 97.469 300.174 102.982C303.348 108.496 298.362 119.516 285.994 122.759C273.626 126.002 267.543 119.065 267.674 110.183C267.737 103.628 279.973 98.3785 279.973 98.3785Z" fill="#010101"/>
<path d="M300.043 159.842C300.758 159.842 301.273 159.258 301.273 158.612C301.273 157.897 300.689 157.383 300.043 157.383C299.328 157.383 298.814 157.966 298.814 158.612C298.814 159.258 299.335 159.842 300.043 159.842Z" fill="#010101"/>
<path d="M288.265 116.142C272.272 114.197 267.16 120.03 258.938 137.925C254.987 146.418 254.536 155.689 257.903 162.105C259.195 164.633 261.271 167.036 263.404 169.105C267.48 168.848 271.369 166.772 272.661 166.057C275.119 164.633 274.994 161.974 274.799 158.599C274.605 155.231 275.709 152.571 277.521 150.238C279.334 147.842 283.022 146.87 287.299 149.655C291.57 152.377 295.847 154.259 301.993 152.509C303.869 151.988 305.618 150.89 307.237 149.529C309.106 136.238 306.779 118.349 288.265 116.142Z" fill="#010101"/>
<path d="M282.695 116.725C271.563 116.725 267.029 122.558 259.841 138.314C255.959 146.613 255.57 155.557 258.744 161.654C259.779 163.73 261.466 165.869 263.73 168.071C267.16 167.744 270.466 166.126 272.146 165.154C273.959 164.119 273.959 162.106 273.765 158.668V158.537C273.57 155.231 274.542 152.314 276.681 149.523C278.688 146.864 282.896 145.565 287.75 148.745C292.216 151.599 296.104 153.023 301.667 151.53C303.417 151.079 305.035 149.975 306.264 149.003C308.14 135.128 304.258 127.608 301.73 124.302C298.626 120.219 294.028 117.754 288.07 117.039C286.189 116.857 284.376 116.725 282.695 116.725ZM263.015 170.147L262.689 169.821C260.098 167.356 258.223 164.891 256.994 162.557C253.563 155.946 253.952 146.349 258.029 137.53C266.508 118.989 272.077 113.15 288.327 115.163C294.8 115.941 299.786 118.6 303.279 123.135C309.626 131.371 309.043 143.301 308.133 149.655L308.071 150.044L307.745 150.301C306.321 151.468 304.377 152.891 302.113 153.412C295.251 155.357 290.522 152.891 286.64 150.433C282.564 147.773 279.522 148.94 278.161 150.759C276.286 153.224 275.508 155.689 275.633 158.537V158.668C275.828 162.037 275.96 165.279 272.981 166.904C271.036 168.008 267.286 169.821 263.272 170.078L263.015 170.147Z" fill="black"/>
<path d="M289.751 177.41C289.425 177.41 289.168 177.279 288.974 177.021C284.245 170.605 287.293 159.973 287.418 159.515C287.55 158.995 288.133 158.737 288.647 158.869C289.168 159.001 289.425 159.584 289.293 160.099C289.293 160.23 286.377 170.21 290.523 175.855C290.849 176.306 290.78 176.89 290.328 177.216C290.14 177.348 289.946 177.41 289.751 177.41Z" fill="#010101"/>
<path d="M307.751 188.237L306.716 188.3C306.522 187.002 306.327 185.64 305.876 184.411C304.584 180.522 301.605 183.182 301.605 183.182C301.216 181.563 300.695 179.613 300.049 177.411C298.299 171.252 295.709 171.314 295.132 175.987C294.938 177.606 295.132 180.334 295.458 183.251C294.938 183.056 294.618 183.056 294.618 183.056C294.618 183.056 290.93 183.577 290.347 189.799C289.764 196.153 293.069 200.82 293.069 200.82L294.624 223.833L307.701 222.409C311.972 215.409 312.235 206.722 312.235 200.688C312.154 194.786 307.751 188.237 307.751 188.237Z" fill="white"/>
<path d="M294.674 184.09C294.223 184.222 291.758 185.063 291.306 189.924C290.786 195.826 293.834 200.229 293.834 200.298L293.966 200.493V200.75L295.452 222.791L307.042 221.561C310.667 215.339 311.188 207.881 311.188 200.75C311.188 196.014 308.209 190.764 307.237 189.146L305.813 189.278L305.681 188.368C305.487 186.944 305.23 185.709 304.903 184.674C304.709 184.09 304.383 183.375 303.869 183.25C303.285 183.118 302.445 183.639 302.188 183.833L301.021 184.868L300.632 183.313C300.306 181.889 299.792 179.944 299.077 177.605C298.168 174.299 297.133 173.521 296.938 173.521C296.807 173.584 296.292 174.105 296.029 176.049C295.897 177.473 296.029 179.938 296.355 183.049L296.55 184.542L295.126 184.09C294.931 184.153 294.737 184.09 294.674 184.09ZM293.702 224.999L292.084 201.208C291.369 200.173 288.848 195.631 289.362 189.798C289.945 183.507 293.57 182.34 294.348 182.215C294.154 180.139 293.959 177.674 294.154 175.993C294.605 172.424 296.029 171.778 296.807 171.715C297.973 171.652 299.654 172.493 300.952 177.228C301.473 178.978 301.862 180.471 302.182 181.701C302.765 181.443 303.542 181.249 304.383 181.443C305.48 181.701 306.258 182.61 306.779 184.103C307.105 185.012 307.362 186.047 307.494 187.214L308.209 187.151L308.535 187.603C308.729 187.86 313.132 194.477 313.132 200.762C313.132 208.346 312.549 216.255 308.472 222.998L308.215 223.387L293.702 224.999Z" fill="white"/>
<path d="M293.119 202.306C292.793 202.306 292.536 202.174 292.341 201.917C292.21 201.722 288.848 196.861 289.425 190.244C290.071 183.175 294.342 182.661 294.536 182.592C295.057 182.529 295.571 182.918 295.634 183.432C295.697 183.953 295.308 184.467 294.794 184.536C294.662 184.536 291.877 185.057 291.363 190.438C290.842 196.341 293.89 200.744 293.89 200.813C294.217 201.265 294.085 201.848 293.633 202.174C293.508 202.243 293.313 202.306 293.119 202.306Z" fill="white"/>
<path d="M297.327 195.632C296.876 195.632 296.487 195.306 296.355 194.854C296.224 194.271 293.633 180.848 294.154 175.987C294.543 172.876 295.64 171.966 296.487 171.772C297.008 171.64 298.042 171.64 299.14 173.07C299.786 173.911 300.432 175.404 300.953 177.285C301.668 179.619 302.182 181.632 302.508 183.056C303.223 185.972 303.737 188.375 304.063 191.222C304.126 191.743 303.737 192.257 303.223 192.326C302.702 192.389 302.188 192 302.125 191.486C301.799 188.701 301.285 186.361 300.57 183.576C300.181 182.153 299.73 180.208 299.015 177.869C298.431 175.667 297.848 174.695 297.528 174.3C297.202 173.848 296.945 173.716 296.882 173.716C296.75 173.779 296.236 174.362 296.042 176.307C295.59 180.848 298.243 194.459 298.243 194.591C298.375 195.111 297.986 195.626 297.465 195.757C297.453 195.632 297.39 195.632 297.327 195.632Z" fill="#010101"/>
<path d="M307.751 224.026C307.556 224.026 307.425 223.964 307.23 223.895C306.779 223.637 306.647 222.985 306.904 222.533C310.723 216.242 311.307 208.596 311.307 201.333C311.307 195.625 306.967 188.299 306.904 188.236C306.647 187.785 306.772 187.201 307.23 186.875C307.682 186.618 308.265 186.743 308.591 187.201C308.786 187.527 313.251 195.048 313.251 201.27C313.251 208.853 312.668 216.763 308.591 223.506C308.397 223.832 308.071 224.026 307.751 224.026Z" fill="#010101"/>
<path d="M305.869 238.811C305.349 238.811 304.96 238.422 304.897 237.901C304.835 237.381 305.223 236.866 305.807 236.866L366.855 231.742L407.508 150.766L381.613 120.621C381.286 120.232 381.286 119.586 381.744 119.26C382.133 118.933 382.779 118.933 383.105 119.391L409.39 149.994C409.647 150.32 409.716 150.709 409.522 151.098L368.285 233.116C368.154 233.442 367.834 233.636 367.508 233.636L305.938 238.823C305.869 238.811 305.869 238.811 305.869 238.811Z" fill="black"/>
<path d="M159.82 202.632C159.82 202.632 220.543 168.918 238.606 165.612C256.668 162.307 260.23 166.647 268.71 173.327C290.46 190.376 286.709 198.806 287.675 221.367L293.176 203.993C293.433 203.278 294.342 202.826 294.988 203.278C298.419 205.091 312.793 210.861 314.085 215.465C314.085 215.465 340.759 275.31 280.419 270.9C258.75 269.32 247.894 253.883 247.894 253.883C247.894 253.883 210.37 267.595 179.169 265.13C130.337 256.48 159.82 202.632 159.82 202.632Z" fill="#00CB77"/>
<path d="M282.113 233.624C281.529 233.624 281.14 233.103 281.14 232.589C282.627 203.541 272.661 189.93 272.529 189.799C272.203 189.347 272.272 188.764 272.724 188.437C273.175 188.111 273.759 188.18 274.085 188.632C274.536 189.215 284.64 202.895 283.085 232.72C283.085 233.235 282.633 233.624 282.113 233.624Z" fill="#010101"/>
<path d="M279.39 244.644C279.327 244.644 279.327 244.644 279.259 244.644C278.738 244.581 278.349 244.06 278.418 243.54C279.904 231.61 291.689 204.77 292.21 203.604C292.404 203.083 292.987 202.889 293.502 203.083C294.022 203.277 294.217 203.861 294.022 204.381C293.89 204.639 281.849 232.13 280.362 243.803C280.3 244.317 279.911 244.644 279.39 244.644Z" fill="#010101"/>
<path d="M249.355 254.887C249.029 254.887 248.772 254.755 248.577 254.498C242.105 246.005 238.217 231.999 237.182 212.874C236.404 198.674 237.439 186.813 237.508 186.681C237.571 186.16 238.028 185.771 238.543 185.771C239.063 185.834 239.452 186.292 239.452 186.806C239.389 187.258 235.244 233.749 250.202 253.262C250.528 253.714 250.459 254.297 250.007 254.623C249.807 254.824 249.55 254.887 249.355 254.887Z" fill="#010101"/>
<path d="M306.973 194.139C306.39 194.139 306.001 193.687 306.001 193.104C306.001 193.041 306.196 188.111 304.904 184.479C303.806 181.368 301.605 181.368 301.473 181.368C300.953 181.368 300.501 180.917 300.501 180.396C300.501 179.875 300.89 179.424 301.41 179.424C301.542 179.424 305.098 179.361 306.716 183.833C308.14 187.854 307.946 192.972 307.946 193.167C307.946 193.75 307.488 194.139 306.973 194.139Z" fill="#010101"/>
<path d="M269.487 121.781C266.383 121.781 263.209 120.357 260.099 117.566C256.862 114.587 254.918 111.149 254.793 111.018C254.536 110.566 254.661 109.983 255.182 109.719C255.633 109.462 256.216 109.588 256.474 110.108C256.536 110.24 263.855 122.948 272.918 119.184C273.439 118.99 273.953 119.184 274.21 119.705C274.404 120.226 274.21 120.74 273.689 121.003C272.335 121.524 270.911 121.781 269.487 121.781Z" fill="#010101"/>
<path d="M282.307 130.343C282.244 130.343 282.244 130.343 282.307 130.343C272.529 130.016 262.952 110.635 262.563 109.788C262.306 109.336 262.501 108.753 263.015 108.49C263.466 108.232 264.05 108.427 264.307 108.941C264.307 109.004 266.703 113.871 270.196 118.663C274.661 124.886 278.87 128.26 282.369 128.386C282.89 128.386 283.341 128.837 283.279 129.42C283.21 129.954 282.827 130.343 282.307 130.343Z" fill="#010101"/>
<path d="M306.904 133.78C301.599 131.383 299.008 152.973 299.008 152.973C299.008 152.973 315.773 154.271 315.904 152.973C316.745 147.911 316.099 137.794 306.904 133.78Z" fill="#010101"/>
<path d="M300.112 152.057C306.522 152.509 313.383 152.772 315.064 152.384C315.258 150.828 315.515 147.134 314.286 143.307C312.925 139.224 310.335 136.37 306.515 134.683C306.189 134.551 305.932 134.551 305.606 134.746C303.085 136.113 300.952 145.71 300.112 152.057ZM310.987 154.522C308.334 154.522 304.515 154.328 298.945 153.939C298.688 153.939 298.425 153.807 298.299 153.613C298.174 153.418 298.042 153.161 298.105 152.898C298.299 151.148 300.244 135.586 304.709 133.058C305.55 132.607 306.459 132.538 307.362 132.927C316.876 137.079 317.848 147.579 316.945 153.155C316.813 153.682 316.744 154.522 310.987 154.522Z" fill="black"/>
<path d="M150.168 230.663C151.034 242.449 158.165 254.203 161.614 258.625L163.182 257.402C159.839 253.124 152.972 241.74 152.15 230.518L150.168 230.663ZM159.463 200.279C157.726 202.908 155.192 207.543 153.204 212.975C151.216 218.4 149.736 224.71 150.168 230.663L152.15 230.518C151.743 224.961 153.129 218.959 155.067 213.658C157.005 208.371 159.463 203.873 161.119 201.377L159.463 200.279ZM161.614 258.625C161.953 259.058 162.574 259.133 163.007 258.794C163.439 258.456 163.515 257.835 163.176 257.402L161.614 258.625ZM161.119 201.377C161.42 200.919 161.294 200.305 160.837 199.997C160.379 199.696 159.764 199.822 159.457 200.279L161.119 201.377Z" fill="black"/>
<path d="M71.609 112.843C71.609 112.843 71.3707 113.865 72.7693 115.32C74.1616 116.769 77.9936 116.374 79.3169 117.767C80.6402 119.159 81.0103 122.653 82.4214 124.741C83.8325 126.836 85.6639 127.633 85.6639 127.633L100.032 113.508L81.8381 79.8939C81.8381 79.8939 72.7003 62.7327 71.5965 62.0553C70.4926 61.3779 68.7491 65.3734 68.9874 69.8268C69.232 74.2864 71.5588 94.3831 71.609 100.668C71.6592 106.959 71.609 112.843 71.609 112.843Z" fill="#EF4056"/>
<path d="M69.7461 61.8611C69.7461 61.8611 74.9516 65.2733 81.1606 81.5627C87.3445 97.7705 100.126 117.441 98.8969 115.321C97.6175 113.119 100.346 117.252 100.032 113.508C99.7185 109.763 80.9034 69.6012 75.3969 63.6237C73.5154 61.5789 71.3893 58.7751 71.3893 60.4624C71.3893 62.1559 69.7461 61.8611 69.7461 61.8611Z" fill="#FCB643"/>
<path d="M90.5308 121.831C90.5308 121.831 94.6826 125.036 98.1195 130.869C101.556 136.703 105.112 141.012 105.112 141.012L119.769 124.942L98.2638 77.799C98.2638 77.799 95.6171 75.2273 95.222 77.799C95.0213 79.0848 94.6826 87.0319 93.5663 97.6949C93.3091 100.141 100.296 108.069 100.057 110.365C99.2484 118.124 90.5308 121.831 90.5308 121.831Z" fill="#EF4056"/>
<path d="M95.5169 79.3165C95.5169 79.3165 100.961 90.3496 103.946 97.5252C106.931 104.701 108.06 109.236 110.788 114.605C113.51 119.974 116.59 127.457 116.954 128.348C117.317 129.238 119.669 127.896 119.77 125.556C119.87 123.217 113.015 106.212 110.788 101.477C108.562 96.7411 103.112 82.7663 101.262 79.3102C99.4116 75.8604 98.2639 71.6454 96.5454 72.8434C94.827 74.0477 94.4068 76.3559 95.5169 79.3165Z" fill="#FCB643"/>
<path d="M79.8813 106.232C81.2109 103.09 85.1119 104.438 85.5634 106.979C86.0087 109.519 84.9676 111.313 82.7224 111.313C80.4771 111.313 78.2381 110.115 79.8813 106.232Z" fill="#95D2FF"/>
<path d="M144.768 202.876C144.768 202.876 134.32 202.305 129.139 204.4C123.52 206.677 139.858 214.38 143.514 215.923" stroke="black" stroke-width="2.06207" stroke-miterlimit="10" stroke-linecap="round" stroke-linejoin="round"/>
<path d="M84.8864 122.458C84.8864 122.458 94.4883 119.409 98.8973 115.32C103.306 111.23 95.4667 103.239 91.0577 93.9246C86.6487 84.6165 82.2397 71.4633 76.1875 63.6229C70.1353 55.7824 68.3793 60.8128 69.1193 72.6425C69.8594 84.4722 71.4587 95.3987 71.6593 106.959C71.6593 106.959 68.9688 123.097 62.2393 134.557" stroke="black" stroke-width="2.06207" stroke-miterlimit="10" stroke-linecap="round" stroke-linejoin="round"/>
<path d="M49.7144 164.446C49.7144 164.446 65.4626 144.292 77.9934 133.692C90.5243 123.092 98.897 115.32 98.897 115.32" stroke="black" stroke-width="2.06207" stroke-miterlimit="10" stroke-linecap="round" stroke-linejoin="round"/>
<path d="M93.3154 153.494C93.3154 153.494 101.933 143.797 109.371 136.201C113.216 132.275 117.662 128.907 118.503 127.734C120.955 124.303 120.459 124.002 116.546 114.355C112.626 104.708 105.57 89.999 103.877 86.2356C98.7906 74.9202 96.9467 65.5054 94.9461 80.2078C92.751 96.3466 93.5788 98.3162 93.5788 98.3162" stroke="black" stroke-width="2.06207" stroke-miterlimit="10" stroke-linecap="round" stroke-linejoin="round"/>
<path d="M73.522 137.731L97.5363 156.404" stroke="black" stroke-width="2.06207" stroke-miterlimit="10" stroke-linecap="round" stroke-linejoin="round"/>
<path d="M69.8778 105.165C69.8778 105.165 64.0075 96.867 61.6117 87.0695C59.2159 77.2721 67.6702 87.7846 71.6088 105.504" stroke="black" stroke-width="2.06207" stroke-miterlimit="10" stroke-linecap="round" stroke-linejoin="round"/>
<path d="M71.6087 105.498C71.6087 105.498 65.2869 103.924 56.933 101.885C48.5791 99.8466 48.9867 94.2955 54.694 96.2525C60.395 98.222 71.6087 105.498 71.6087 105.498Z" stroke="black" stroke-width="2.06207" stroke-miterlimit="10" stroke-linecap="round" stroke-linejoin="round"/>
</g>
</svg>
