<svg width="345" height="223" viewBox="0 0 345 223" fill="none" xmlns="http://www.w3.org/2000/svg">
<path d="M137.153 170.147C137.153 170.147 123.063 150.056 86.6667 163.042C86.6667 163.042 66.6087 162.158 57.3237 167.532C57.3237 167.532 65.7716 155.26 69.838 146.961C73.9044 138.662 79.7017 128.487 79.7017 128.487L59.9175 113.103L57.3237 114.866L51.9036 107.9L49.3822 111.786L38.7538 135.107C38.7538 135.107 17.6056 163.001 8.3206 174.043C-0.964368 185.086 -4.44688 196.693 8.3206 204.242C21.0881 211.787 39.8853 213.12 62.1135 212.35C141.214 209.622 141.214 209.622 141.214 209.622L137.153 170.147Z" fill="#95D2FF"/>
<path d="M302.06 191.298C300.516 190.337 235.603 200.858 220.351 193.328C207.924 187.184 246.914 163.74 229.951 155.776C184.813 127.795 147.921 136.099 120.402 127.443C39.0122 101.911 28.2392 45.1046 33.9434 15.4587C39.5961 -14.1871 57.4633 5.09794 80.1306 -15.4118C102.798 -35.8698 175.011 -78.9718 238.533 -76.6774C302.055 -74.383 333.15 -72.9362 335.924 -48.9022C338.699 -24.8114 321.845 -10.3373 285.63 -17.1222C249.363 -23.9071 203.92 -30.2063 210.802 -38.7016C217.685 -47.2486 219.018 -50.0804 231.015 -48.9591C236.187 -48.4785 224.241 -43.4557 232.136 -46.2875C240.031 -49.1192 227.124 -53.7131 220.351 -54.2971C213.577 -54.8293 232.136 -50.933 196.671 -38.7016C159.391 -20.0057 61.7957 -17.9404 56.7321 4.8637C51.6634 27.6161 160.456 75.4945 206.488 99.1047C252.52 122.715 319.075 157.27 316.197 163.042C313.314 168.809 302.06 191.298 302.06 191.298Z" fill="#F9BFD1"/>
<path d="M313.314 168.809C313.583 168.328 156.617 114.23 104.456 96.7068C52.348 79.1374 31.3341 34.4748 39.2808 6.11055C47.1759 -22.2538 66.3194 -38.4383 127.015 -61.5111C187.654 -84.5839 293.421 -93.4513 316.14 -74.0112C338.859 -54.5712 363.609 -25.6178 335.981 -14.2958C335.981 -14.2958 241.845 -15.3087 229.527 -22.786C217.209 -30.1548 199.926 -39.0791 206.808 -44.1535C213.69 -49.228 252.732 -37.5288 279.13 -35.8752C305.533 -34.1648 325.958 -43.0839 293.69 -52.5403C261.423 -62.0485 225.259 -61.5163 196.138 -52.5403C174.375 -45.8123 145.143 -48.9901 124.769 -35.9009C104.396 -22.8168 50.257 -20.6835 53.6207 3.72253C56.9792 28.1337 162.109 56.0491 200.138 70.3113C238.166 84.5736 323.715 148.294 323.715 148.294L313.314 168.809Z" fill="#EF4056"/>
<path d="M316.833 155.508C314.007 151.766 229.631 103.321 145.255 79.9797C60.8787 56.7467 29.4638 32.8161 43.5437 -9.70192C54.0481 -41.3786 46.1013 -11.9446 70.4789 -30.6405C94.8513 -49.3365 145.415 -95.4304 228.137 -91.9062C310.86 -88.382 343.928 -82.2895 354.169 -65.7846C364.358 -49.3313 377.369 -25.5092 354.169 -20.9722C330.97 -16.43 282.059 -12.9058 254.701 -18.7295C222.965 -25.4576 187.82 -41.4819 191.871 -43.7814C191.871 -43.7814 251.285 -32.4027 262.968 -30.6405C274.65 -28.8268 318.491 -23.2717 325.849 -34.5937C333.207 -45.9156 313.955 -62.3689 281.687 -65.7898C249.368 -69.2106 210.859 -75.086 162.858 -54.628C132.033 -41.5956 80.8256 -27.1175 60.9846 -13.496C36.5554 3.32932 67.0687 32.6508 98.2718 31.6328C129.475 30.6199 230.54 76.6053 254.701 83.9793C278.861 91.3481 330.06 131.303 330.06 131.303L316.833 155.508Z" fill="#FCB643"/>
<path d="M323.234 135.106C323.234 135.106 248.888 83.4006 194.005 72.0786C139.07 60.7515 58.6414 53.4344 46.8505 16.9003C34.1554 -22.1969 51.1316 -24.697 51.1316 -24.697C55.2393 -26.9397 60.9304 -14.0787 91.5444 -38.7534C123.543 -64.4978 160.931 -80.0933 217.736 -81.2146C274.536 -82.2843 319.127 -78.9719 336.834 -64.1774C350.49 -52.7987 361.744 -22.14 318.698 -20.4296C275.657 -18.7191 214.321 -34.5316 200.029 -41.9004C185.681 -49.2693 181.098 -34.9553 244.511 -12.4716C276.83 -4.5654 348.248 5.15463 364.089 -14.1821C379.931 -33.5188 396.946 -74.9671 330.117 -89.1725C263.288 -103.326 178.488 -107.331 127.232 -89.1725C75.9765 -71.014 65.7673 -38.7534 52.0808 -16.4842C44.325 4.50411 70.1637 29.9379 89.364 33.6223C108.616 37.3067 197.42 37.9474 222.381 45.3731C247.338 52.7419 303.817 96.2728 312.193 107.331C320.568 118.39 330.06 131.313 330.06 131.313L323.234 135.106Z" fill="#1CB0A8"/>
<path d="M308.457 94.8313C291.019 77.1533 265.737 36.9183 207.072 20.7338C163.661 13.9409 129.229 13.4294 84.3204 11.7096C14.5565 9.03799 78.6753 -42.3737 87.8466 -55.2976C97.0179 -68.2215 92.1901 -97.8847 207.072 -104.081C322.594 -110.328 405.265 -84.2116 401.901 -41.7452C398.537 0.721115 321.472 15.1384 272.779 4.34868C199.605 -11.8875 174.964 -38.5414 178.002 -42.4945C180.989 -46.4993 196.934 -37.9523 220.402 -26.4702C243.87 -14.988 365.097 10.5445 372.992 -34.857C380.887 -80.2585 302.804 -91.5804 233.206 -92.7586C169.1 -93.7714 100.913 -69.0963 69.1778 -45.7548C55.2581 -35.4973 20.1838 25.711 106.322 40.6657C192.403 55.6204 219.069 43.4975 262.539 72.4458C306.008 101.394 326.273 129.386 328.034 127.144C329.74 124.958 325.901 112.509 308.457 94.8313Z" fill="#95D2FF"/>
<path d="M298.433 181.149L289.365 162.83L314.275 107.331L328.355 124.477L298.433 181.149ZM266.806 187.505L268.568 167.687L284.942 166.674L291.504 183.712L266.806 187.505ZM262.43 184.404L256.617 186.006L259.552 169.341H264.352L262.43 184.404ZM314.327 98.5154L285.154 162.075H256.622L251.342 195.617L302.065 191.344L336.038 123.774L314.327 98.5154Z" fill="white"/>
<path d="M290.275 162.825L298.49 179.381L327.399 124.58L314.492 108.824L290.275 162.825ZM298.433 181.949C298.113 181.949 297.844 181.789 297.741 181.52L288.673 163.202C288.564 162.99 288.564 162.721 288.673 162.509L313.583 107.011C313.691 106.742 313.955 106.582 314.223 106.53C314.492 106.478 314.756 106.582 314.973 106.799L329.052 123.944C329.264 124.213 329.264 124.533 329.161 124.854L299.239 181.526C299.017 181.789 298.754 181.949 298.433 181.949ZM260.193 170.147L257.635 184.89L261.743 183.768L263.448 170.147H260.193ZM256.566 186.807C256.354 186.807 256.194 186.755 256.033 186.595C255.822 186.435 255.713 186.114 255.765 185.846L258.7 169.181C258.751 168.808 259.072 168.54 259.5 168.54H264.3C264.512 168.54 264.729 168.648 264.889 168.808C265.05 168.969 265.101 169.237 265.101 169.449L263.179 184.512C263.128 184.833 262.911 185.102 262.59 185.205L256.777 186.807C256.726 186.807 256.669 186.807 256.566 186.807ZM269.312 168.488L267.711 186.595L290.43 183.122L284.405 167.527L269.312 168.488ZM266.806 188.305C266.595 188.305 266.434 188.254 266.274 188.093C266.114 187.933 266.006 187.665 266.006 187.453L267.767 167.635C267.819 167.263 268.14 166.943 268.517 166.886L284.891 165.873C285.211 165.873 285.583 166.034 285.692 166.406L292.254 183.443C292.362 183.655 292.305 183.923 292.202 184.135C292.099 184.347 291.882 184.507 291.613 184.507L266.92 188.3C266.858 188.305 266.858 188.305 266.806 188.305ZM257.258 162.881L252.246 194.77L301.528 190.605L335.02 123.893L314.538 99.9621L285.847 162.401C285.738 162.669 285.418 162.881 285.097 162.881H257.258ZM251.337 196.423C251.125 196.423 250.908 196.315 250.748 196.155C250.587 195.995 250.479 195.726 250.536 195.462L255.816 161.92C255.868 161.548 256.188 161.228 256.617 161.228H284.674L313.686 98.0915C313.794 97.8228 314.006 97.6626 314.327 97.6109C314.595 97.5592 314.859 97.6626 315.019 97.8796L336.674 123.143C336.885 123.412 336.942 123.733 336.782 124.053L302.81 191.623C302.701 191.892 302.438 192.052 302.169 192.052L251.445 196.325C251.337 196.423 251.337 196.423 251.337 196.423Z" fill="white"/>
<path d="M268.992 174.043C268.564 174.043 268.243 173.723 268.191 173.294C268.14 172.865 268.46 172.493 268.941 172.442L286.327 171C286.756 170.948 287.128 171.269 287.18 171.749C287.232 172.178 286.911 172.55 286.431 172.602L269.044 174.043H268.992Z" fill="white"/>
<path d="M275.234 186.063C274.805 186.063 274.484 185.743 274.433 185.37L272.728 168.814C272.676 168.385 272.996 167.961 273.42 167.961C273.849 167.909 274.273 168.23 274.273 168.654L275.978 185.21C276.029 185.639 275.709 186.063 275.285 186.063C275.337 186.063 275.285 186.063 275.234 186.063Z" fill="white"/>
<path d="M282.431 185.846C282.059 185.846 281.739 185.577 281.63 185.205L278.003 168.111C277.894 167.682 278.163 167.258 278.644 167.15C279.073 167.041 279.496 167.31 279.605 167.79L283.232 184.884C283.34 185.313 283.072 185.737 282.591 185.846C282.54 185.846 282.488 185.846 282.431 185.846Z" fill="white"/>
<path d="M268.403 181.95C267.974 181.95 267.654 181.629 267.602 181.257C267.55 180.828 267.871 180.405 268.295 180.405L288.084 178.322C288.513 178.27 288.936 178.591 288.936 179.015C288.988 179.443 288.668 179.867 288.244 179.867L268.455 181.95C268.46 181.95 268.46 181.95 268.403 181.95Z" fill="white"/>
<path d="M251.337 128.482C251.337 128.482 250.003 134.305 255.444 138.098C258.379 140.129 256.509 142.961 252.887 141.462C246.593 138.899 247.766 133.877 247.766 133.877" fill="white"/>
<path d="M254.752 142.693C254.111 142.693 253.367 142.532 252.566 142.212C245.741 139.437 246.914 133.773 246.966 133.722L248.51 134.094C248.459 134.254 247.606 138.476 253.15 140.77C254.644 141.359 255.708 141.142 255.977 140.61C256.189 140.181 255.977 139.489 254.964 138.796C249.099 134.735 250.484 128.379 250.536 128.327L252.081 128.699L251.28 128.539L252.081 128.699C252.029 128.911 250.96 134.042 255.868 137.515C257.842 138.848 257.894 140.455 257.361 141.416C256.989 142.103 256.085 142.693 254.752 142.693Z" fill="white"/>
<path d="M236.833 95.3117C226.272 92.4799 219.446 98.5155 212.673 113.258C209.417 120.255 209.045 127.893 211.82 133.184C214.858 139.008 222.169 143.705 225.156 145.736C230.86 149.529 245.901 144.294 250.066 132.595C254.22 120.793 256.457 100.598 236.833 95.3117Z" fill="white"/>
<path d="M232.085 95.4197C224.779 95.4197 219.178 101.026 213.416 113.578C210.218 120.415 209.898 127.789 212.512 132.806C215.287 138.093 221.792 142.475 224.939 144.609L225.579 145.038C227.662 146.428 231.501 146.48 235.5 145.146C240.569 143.436 246.862 139.219 249.259 132.274C250.592 128.481 254.592 115.34 249.528 105.672C247.022 100.918 242.703 97.6624 236.621 96.0037C235.071 95.6833 233.526 95.4197 232.085 95.4197ZM229.951 147.761C227.868 147.761 226.003 147.281 224.67 146.428L224.029 145.999C220.774 143.808 214 139.214 211.071 133.607C208.193 128.161 208.565 120.255 211.923 112.989C219.229 97.0733 226.484 91.7302 236.988 94.5619C243.493 96.324 248.19 99.8483 250.908 105.031C256.137 115.02 252.509 127.84 250.696 132.915C248.081 140.341 241.364 144.934 235.924 146.748C233.898 147.441 231.816 147.761 229.951 147.761Z" fill="white"/>
<path d="M230.002 80.6776C236.027 79.1842 243.974 79.9283 246.645 84.4705C249.259 89.0127 245.152 98.0919 234.962 100.764C224.773 103.435 219.761 97.7199 219.87 90.4028C219.922 85.0027 230.002 80.6776 230.002 80.6776Z" fill="#010101"/>
<path d="M246.537 131.313C247.126 131.313 247.549 130.833 247.549 130.3C247.549 129.711 247.069 129.288 246.537 129.288C245.948 129.288 245.524 129.768 245.524 130.3C245.524 130.833 245.953 131.313 246.537 131.313Z" fill="#010101"/>
<path d="M236.833 95.3115C223.658 93.7096 219.446 98.5153 212.673 113.258C209.417 120.255 209.045 127.892 211.82 133.179C212.884 135.261 214.595 137.24 216.351 138.946C219.71 138.734 222.913 137.023 223.978 136.434C226.003 135.261 225.9 133.07 225.74 130.29C225.58 127.515 226.489 125.324 227.982 123.402C229.475 121.428 232.514 120.627 236.037 122.921C239.556 125.164 243.08 126.714 248.144 125.273C249.688 124.844 251.13 123.939 252.463 122.818C254.003 111.868 252.086 97.1305 236.833 95.3115Z" fill="#010101"/>
<path d="M232.245 95.7926C223.074 95.7926 219.338 100.598 213.417 113.579C210.219 120.416 209.898 127.784 212.513 132.807C213.365 134.518 214.755 136.28 216.62 138.094C219.447 137.825 222.17 136.492 223.554 135.691C225.048 134.838 225.048 133.179 224.887 130.347V130.239C224.727 127.516 225.528 125.113 227.29 122.813C228.944 120.622 232.411 119.553 236.41 122.173C240.089 124.524 243.292 125.697 247.875 124.467C249.317 124.095 250.65 123.185 251.662 122.384C253.207 110.954 250.009 104.758 247.927 102.035C245.369 98.6708 241.582 96.64 236.673 96.0509C235.123 95.9011 233.63 95.7926 232.245 95.7926ZM216.031 139.804L215.763 139.535C213.629 137.504 212.084 135.474 211.071 133.551C208.245 128.105 208.565 120.199 211.924 112.933C218.909 97.658 223.498 92.8471 236.885 94.5058C242.217 95.1466 246.325 97.3376 249.203 101.074C254.432 107.859 253.951 117.687 253.202 122.922L253.151 123.242L252.882 123.454C251.709 124.415 250.107 125.588 248.242 126.017C242.589 127.619 238.694 125.588 235.495 123.563C232.137 121.372 229.631 122.333 228.509 123.831C226.965 125.862 226.324 127.893 226.427 130.239V130.347C226.587 133.122 226.696 135.794 224.242 137.132C222.64 138.042 219.55 139.535 216.243 139.747L216.031 139.804Z" fill="black"/>
<path d="M238.058 145.788C237.789 145.788 237.577 145.679 237.417 145.467C233.521 140.181 236.033 131.422 236.136 131.045C236.244 130.616 236.725 130.404 237.149 130.513C237.577 130.621 237.789 131.102 237.681 131.525C237.681 131.634 235.278 139.855 238.693 144.506C238.962 144.878 238.905 145.359 238.533 145.627C238.378 145.736 238.218 145.788 238.058 145.788Z" fill="#010101"/>
<path d="M252.887 154.707L252.034 154.759C251.874 153.689 251.714 152.568 251.342 151.555C250.277 148.351 247.823 150.542 247.823 150.542C247.503 149.209 247.074 147.602 246.542 145.788C245.1 140.713 242.966 140.765 242.491 144.615C242.331 145.948 242.491 148.196 242.76 150.599C242.331 150.439 242.067 150.439 242.067 150.439C242.067 150.439 239.029 150.868 238.549 155.994C238.068 161.228 240.791 165.073 240.791 165.073L242.072 184.032L252.845 182.859C256.364 177.092 256.581 169.936 256.581 164.964C256.514 160.102 252.887 154.707 252.887 154.707Z" fill="white"/>
<path d="M242.114 151.291C241.742 151.4 239.711 152.092 239.339 156.097C238.91 160.96 241.421 164.587 241.421 164.644L241.53 164.804V165.016L242.754 183.175L252.303 182.162C255.289 177.036 255.718 170.892 255.718 165.016C255.718 161.115 253.264 156.789 252.463 155.456L251.29 155.565L251.182 154.816C251.021 153.642 250.81 152.624 250.541 151.772C250.381 151.291 250.112 150.702 249.688 150.599C249.208 150.49 248.515 150.919 248.304 151.079L247.343 151.932L247.022 150.651C246.754 149.478 246.33 147.876 245.741 145.948C244.992 143.225 244.139 142.584 243.979 142.584C243.87 142.636 243.447 143.065 243.23 144.667C243.121 145.84 243.23 147.87 243.498 150.433L243.659 151.663L242.486 151.291C242.325 151.343 242.165 151.291 242.114 151.291ZM241.313 184.994L239.98 165.393C239.391 164.541 237.314 160.799 237.737 155.994C238.218 150.811 241.204 149.85 241.845 149.746C241.685 148.036 241.525 146.005 241.685 144.62C242.057 141.68 243.23 141.148 243.87 141.096C244.831 141.044 246.216 141.737 247.286 145.638C247.715 147.08 248.035 148.31 248.298 149.322C248.779 149.111 249.42 148.95 250.112 149.111C251.016 149.322 251.657 150.072 252.086 151.302C252.355 152.051 252.566 152.904 252.675 153.865L253.264 153.813L253.533 154.185C253.693 154.397 257.32 159.849 257.32 165.026C257.32 171.274 256.839 177.79 253.481 183.345L253.269 183.666L241.313 184.994Z" fill="white"/>
<path d="M240.833 166.298C240.564 166.298 240.352 166.189 240.192 165.977C240.083 165.817 237.314 161.812 237.789 156.361C238.321 150.537 241.84 150.113 242 150.056C242.429 150.005 242.853 150.325 242.904 150.749C242.956 151.178 242.636 151.601 242.212 151.658C242.104 151.658 239.809 152.087 239.386 156.521C238.957 161.383 241.468 165.011 241.468 165.068C241.737 165.44 241.628 165.92 241.256 166.189C241.153 166.246 240.993 166.298 240.833 166.298Z" fill="white"/>
<path d="M244.299 160.799C243.927 160.799 243.607 160.53 243.498 160.158C243.39 159.678 241.256 148.619 241.685 144.614C242.005 142.051 242.909 141.302 243.607 141.142C244.036 141.033 244.888 141.033 245.793 142.211C246.325 142.904 246.857 144.134 247.286 145.684C247.875 147.606 248.299 149.265 248.567 150.438C249.156 152.841 249.58 154.82 249.849 157.166C249.9 157.595 249.58 158.019 249.156 158.076C248.727 158.127 248.304 157.807 248.252 157.383C247.983 155.089 247.56 153.161 246.971 150.867C246.65 149.694 246.278 148.092 245.689 146.165C245.209 144.351 244.728 143.55 244.465 143.224C244.196 142.852 243.984 142.744 243.932 142.744C243.824 142.795 243.4 143.276 243.24 144.878C242.868 148.619 245.054 159.833 245.054 159.941C245.162 160.37 244.842 160.794 244.413 160.902C244.403 160.799 244.351 160.799 244.299 160.799Z" fill="#010101"/>
<path d="M252.887 184.192C252.726 184.192 252.618 184.141 252.458 184.084C252.086 183.872 251.977 183.334 252.189 182.962C255.336 177.779 255.816 171.48 255.816 165.496C255.816 160.794 252.241 154.758 252.189 154.707C251.977 154.335 252.08 153.854 252.458 153.585C252.83 153.373 253.31 153.477 253.579 153.854C253.739 154.123 257.418 160.318 257.418 165.445C257.418 171.692 256.937 178.208 253.579 183.763C253.419 184.032 253.15 184.192 252.887 184.192Z" fill="#010101"/>
<path d="M251.337 196.372C250.908 196.372 250.587 196.052 250.536 195.623C250.484 195.194 250.804 194.77 251.285 194.77L301.58 190.549L335.072 123.836L313.738 99.0015C313.469 98.6811 313.469 98.1488 313.846 97.8801C314.166 97.6114 314.699 97.6114 314.967 97.9886L336.622 123.201C336.834 123.469 336.891 123.79 336.73 124.11L302.758 191.68C302.649 191.949 302.386 192.109 302.117 192.109L251.393 196.383C251.337 196.372 251.337 196.372 251.337 196.372Z" fill="black"/>
<path d="M131.015 166.566C131.015 166.566 181.041 138.791 195.921 136.067C210.802 133.344 213.737 136.92 220.723 142.423C238.642 156.469 235.552 163.414 236.348 182.001L240.879 167.687C241.091 167.098 241.84 166.726 242.372 167.098C245.198 168.591 257.041 173.345 258.105 177.138C258.105 177.138 280.08 226.441 230.369 222.809C212.518 221.506 203.574 208.789 203.574 208.789C203.574 208.789 172.66 220.085 146.955 218.054C106.725 210.929 131.015 166.566 131.015 166.566Z" fill="#00CB77"/>
<path d="M231.765 192.098C231.284 192.098 230.964 191.669 230.964 191.246C232.188 167.315 223.978 156.102 223.87 155.993C223.601 155.621 223.658 155.14 224.03 154.872C224.402 154.603 224.882 154.66 225.151 155.032C225.523 155.512 233.847 166.783 232.566 191.354C232.566 191.778 232.194 192.098 231.765 192.098Z" fill="#010101"/>
<path d="M229.522 201.178C229.47 201.178 229.47 201.178 229.413 201.178C228.984 201.126 228.664 200.697 228.721 200.268C229.945 190.44 239.654 168.328 240.083 167.367C240.243 166.938 240.724 166.778 241.147 166.938C241.576 167.098 241.736 167.579 241.576 168.008C241.468 168.219 231.547 190.868 230.323 200.485C230.271 200.909 229.951 201.178 229.522 201.178Z" fill="#010101"/>
<path d="M204.778 209.617C204.509 209.617 204.297 209.508 204.137 209.296C198.805 202.299 195.601 190.76 194.749 175.005C194.108 163.306 194.961 153.534 195.017 153.425C195.069 152.996 195.446 152.676 195.87 152.676C196.299 152.728 196.619 153.105 196.619 153.529C196.567 153.901 193.152 192.202 205.475 208.278C205.744 208.65 205.687 209.131 205.315 209.399C205.15 209.565 204.938 209.617 204.778 209.617Z" fill="#010101"/>
<path d="M252.246 159.57C251.765 159.57 251.445 159.198 251.445 158.717C251.445 158.665 251.605 154.604 250.541 151.612C249.637 149.049 247.823 149.049 247.714 149.049C247.286 149.049 246.914 148.677 246.914 148.248C246.914 147.819 247.234 147.447 247.663 147.447C247.771 147.447 250.701 147.395 252.034 151.079C253.207 154.392 253.047 158.608 253.047 158.769C253.047 159.249 252.67 159.57 252.246 159.57Z" fill="#010101"/>
<path d="M221.363 99.9573C218.806 99.9573 216.191 98.7843 213.629 96.4847C210.962 94.0302 209.361 91.1984 209.257 91.0899C209.045 90.7178 209.149 90.2373 209.578 90.0202C209.95 89.8084 210.43 89.9117 210.642 90.3406C210.694 90.4491 216.724 100.918 224.19 97.8179C224.619 97.6577 225.042 97.8179 225.254 98.2468C225.414 98.6757 225.254 99.0995 224.825 99.3165C223.709 99.7454 222.536 99.9573 221.363 99.9573Z" fill="#010101"/>
<path d="M231.925 107.011C231.873 107.011 231.873 107.011 231.925 107.011C223.869 106.742 215.979 90.7746 215.659 90.077C215.447 89.705 215.607 89.2244 216.031 89.0073C216.403 88.7955 216.884 88.9557 217.095 89.3794C217.095 89.4311 219.069 93.441 221.947 97.389C225.626 102.515 229.093 105.295 231.976 105.399C232.405 105.399 232.777 105.771 232.725 106.251C232.669 106.69 232.353 107.011 231.925 107.011Z" fill="#010101"/>
<path d="M252.189 109.842C247.818 107.868 245.684 125.655 245.684 125.655C245.684 125.655 259.495 126.725 259.604 125.655C260.296 121.485 259.764 113.15 252.189 109.842Z" fill="#010101"/>
<path d="M246.593 124.9C251.874 125.272 257.527 125.489 258.911 125.169C259.072 123.888 259.283 120.844 258.271 117.692C257.15 114.328 255.016 111.976 251.869 110.586C251.6 110.478 251.388 110.478 251.12 110.638C249.043 111.765 247.286 119.671 246.593 124.9ZM255.553 126.931C253.367 126.931 250.221 126.771 245.632 126.451C245.421 126.451 245.204 126.342 245.1 126.182C244.997 126.022 244.888 125.81 244.94 125.593C245.1 124.151 246.702 111.331 250.381 109.248C251.073 108.876 251.822 108.819 252.566 109.14C260.405 112.56 261.206 121.211 260.461 125.805C260.353 126.239 260.296 126.931 255.553 126.931Z" fill="black"/>
<path d="M123.063 189.66C123.776 199.369 129.651 209.053 132.492 212.696L133.784 211.689C131.03 208.164 125.372 198.785 124.696 189.541L123.063 189.66ZM130.72 164.628C129.289 166.794 127.201 170.612 125.564 175.087C123.926 179.557 122.706 184.756 123.063 189.66L124.696 189.541C124.36 184.962 125.502 180.017 127.098 175.651C128.695 171.294 130.72 167.589 132.084 165.533L130.72 164.628ZM132.492 212.696C132.771 213.053 133.283 213.115 133.639 212.836C133.996 212.557 134.058 212.045 133.779 211.689L132.492 212.696ZM132.084 165.533C132.332 165.155 132.229 164.649 131.852 164.396C131.475 164.148 130.968 164.251 130.715 164.628L132.084 165.533Z" fill="black"/>
<path d="M58.3416 92.5936C58.3416 92.5936 58.1452 93.4359 59.2974 94.6347C60.4445 95.8284 63.6015 95.5029 64.6917 96.6501C65.7819 97.7972 66.0868 100.676 67.2493 102.396C68.4119 104.122 69.9206 104.779 69.9206 104.779L81.7581 93.1413L66.7688 65.4488C66.7688 65.4488 59.2406 51.3106 58.3312 50.7525C57.4218 50.1944 55.9854 53.4861 56.1818 57.155C56.3833 60.8291 58.3002 77.3857 58.3416 82.5635C58.3829 87.7465 58.3416 92.5936 58.3416 92.5936Z" fill="#EF4056"/>
<path d="M56.8071 50.5925C56.8071 50.5925 61.0957 53.4036 66.2109 66.8236C71.3055 80.1764 81.8357 96.3816 80.823 94.635C79.7689 92.8212 82.0166 96.2266 81.7582 93.1416C81.4999 90.0566 65.9991 56.9692 61.4625 52.0446C59.9124 50.36 58.1609 48.0501 58.1609 49.4402C58.1609 50.8354 56.8071 50.5925 56.8071 50.5925Z" fill="#FCB643"/>
<path d="M73.9302 99.9983C73.9302 99.9983 77.3507 102.639 80.1822 107.445C83.0136 112.25 85.9433 115.801 85.9433 115.801L98.0184 102.561L80.301 63.7226C80.301 63.7226 78.1205 61.604 77.795 63.7226C77.6297 64.782 77.3507 71.3292 76.431 80.1139C76.2191 82.1292 81.9751 88.6609 81.7787 90.5522C81.1122 96.9444 73.9302 99.9983 73.9302 99.9983Z" fill="#EF4056"/>
<path d="M78.0378 64.9736C78.0378 64.9736 82.5227 74.0632 84.9822 79.9748C87.4417 85.8863 88.3717 89.6224 90.6193 94.0458C92.8618 98.4692 95.3987 104.634 95.6984 105.368C95.9981 106.102 97.9357 104.996 98.0183 103.068C98.101 101.141 92.4536 87.1317 90.6193 83.2303C88.7851 79.3288 84.295 67.8157 82.7708 64.9684C81.2465 62.1263 80.301 58.6537 78.8852 59.6407C77.4695 60.6329 77.1233 62.5345 78.0378 64.9736Z" fill="#FCB643"/>
<path d="M65.1571 87.1471C66.2525 84.5582 69.4663 85.6692 69.8383 87.762C70.2052 89.8549 69.3475 91.3327 67.4977 91.3327C65.6479 91.3327 63.8033 90.3458 65.1571 87.1471Z" fill="#95D2FF"/>
<path d="M118.614 166.768C118.614 166.768 110.006 166.297 105.738 168.023C101.108 169.899 114.568 176.245 117.58 177.516" stroke="black" stroke-width="1.69883" stroke-miterlimit="10" stroke-linecap="round" stroke-linejoin="round"/>
<path d="M69.2803 100.515C69.2803 100.515 77.1909 98.0039 80.8232 94.6347C84.4556 91.2655 77.9969 84.6821 74.3646 77.0084C70.7322 69.3399 67.0999 58.5037 62.1138 52.0444C57.1277 45.585 55.681 49.7294 56.2907 59.4752C56.9004 69.2211 58.2179 78.2228 58.3833 87.7465C58.3833 87.7465 56.1667 101.042 50.6226 110.483" stroke="black" stroke-width="1.69883" stroke-miterlimit="10" stroke-linecap="round" stroke-linejoin="round"/>
<path d="M40.3037 135.106C40.3037 135.106 53.2779 118.503 63.6014 109.77C73.9249 101.037 80.8227 94.6348 80.8227 94.6348" stroke="black" stroke-width="1.69883" stroke-miterlimit="10" stroke-linecap="round" stroke-linejoin="round"/>
<path d="M76.2246 126.084C76.2246 126.084 83.324 118.095 89.4519 111.837C92.6193 108.603 96.2826 105.828 96.975 104.861C98.9952 102.035 98.5871 101.787 95.3629 93.8391C92.1336 85.8915 86.3208 73.7737 84.9257 70.6732C80.7353 61.3511 79.2163 53.5947 77.568 65.7073C75.7596 79.0032 76.4416 80.6258 76.4416 80.6258" stroke="black" stroke-width="1.69883" stroke-miterlimit="10" stroke-linecap="round" stroke-linejoin="round"/>
<path d="M59.9175 113.098L79.7017 128.481" stroke="black" stroke-width="1.69883" stroke-miterlimit="10" stroke-linecap="round" stroke-linejoin="round"/>
<path d="M56.9156 86.2686C56.9156 86.2686 52.0793 79.432 50.1056 71.3604C48.1318 63.2888 55.0968 71.9495 58.3416 86.5476" stroke="black" stroke-width="1.69883" stroke-miterlimit="10" stroke-linecap="round" stroke-linejoin="round"/>
<path d="M58.3418 86.5426C58.3418 86.5426 53.1336 85.2455 46.2512 83.5661C39.3689 81.8866 39.7047 77.3134 44.4066 78.9257C49.1034 80.5483 58.3418 86.5426 58.3418 86.5426Z" stroke="black" stroke-width="1.69883" stroke-miterlimit="10" stroke-linecap="round" stroke-linejoin="round"/>
</svg>
