<svg width="330" height="133" viewBox="0 0 330 133" fill="none" xmlns="http://www.w3.org/2000/svg">
<path d="M224.202 106.897C224.165 106.383 243.274 103.811 249.521 104.546" stroke="black" stroke-width="2.52784" stroke-miterlimit="10" stroke-linecap="round" stroke-linejoin="round"/>
<path d="M49.8675 102.231C49.8675 102.231 67.2862 103.223 74.0479 102.231C80.8096 101.239 80.8096 101.239 80.8096 101.239" stroke="black" stroke-width="2.52784" stroke-miterlimit="10" stroke-linecap="round" stroke-linejoin="round"/>
<path d="M81.765 38.4134C81.765 38.4134 85.6603 22.7988 98.1548 18.7573L209.465 17.2877C209.465 17.2877 220.196 20.2637 222.548 34.5557L81.765 38.4134Z" fill="#F9B651" stroke="#F8B652" stroke-width="2.52784" stroke-miterlimit="10" stroke-linecap="round" stroke-linejoin="round"/>
<path d="M111.2 57.4081L81.03 38.5971L223.614 34.5557L202.557 52.2278L111.2 57.4081Z" fill="#EF425A"/>
<path d="M84.8886 125.121L76.4365 78.4604L232.617 71.4797L220.71 121.52L84.8886 125.121Z" fill="#F9B651" stroke="#F8B652" stroke-width="2.52784" stroke-miterlimit="10" stroke-linecap="round" stroke-linejoin="round"/>
<path d="M149.382 82.3181C149.382 82.3181 150.117 87.0944 150.852 89.6662C151.587 92.238 150.852 93.3402 155.262 92.9728C160.737 92.5319 162.685 92.9728 165.037 92.9728C167.389 92.9728 167.021 92.9728 168.124 88.9314C169.226 84.8899 169.961 81.5833 169.961 81.5833L149.382 82.3181Z" fill="#EF425A"/>
<path d="M158.679 88.0863C158.679 88.0863 164.633 86.1758 165 90.401C165.368 94.6261 165 98.043 165 98.043" stroke="black" stroke-width="2.52784" stroke-miterlimit="10" stroke-linecap="round" stroke-linejoin="round"/>
<path d="M155.409 98.4104C155.445 98.3001 167.205 97.9327 168.307 97.9327C169.41 97.9327 169.153 99.2186 169.263 102.231C169.373 105.244 167.572 112.261 163.898 114.098C160.223 115.936 157.283 112.629 155.445 110.424C153.608 108.22 151.072 98.5573 153.241 98.4104C155.445 98.3001 155.409 98.4104 155.409 98.4104Z" stroke="black" stroke-width="2.52784" stroke-miterlimit="10" stroke-linecap="round" stroke-linejoin="round"/>
<path d="M160.958 106.016C162.581 106.016 163.898 104.7 163.898 103.076C163.898 101.453 162.581 100.137 160.958 100.137C159.334 100.137 158.018 101.453 158.018 103.076C158.018 104.7 159.334 106.016 160.958 106.016Z" fill="black"/>
<path d="M161.693 104.362H161.362C160.627 104.362 160.076 104.95 160.076 105.648V110.02C160.076 110.755 160.664 111.306 161.362 111.306H161.693C162.428 111.306 162.979 110.718 162.979 110.02V105.648C162.979 104.913 162.391 104.362 161.693 104.362Z" fill="black"/>
<path d="M81.9488 109.322L76.4365 78.8278L232.617 71.4797L225.267 101.974" stroke="black" stroke-width="2.52784" stroke-miterlimit="10" stroke-linecap="round" stroke-linejoin="round"/>
<path d="M77.7962 86.3229C77.9064 86.5066 230.779 79.085 230.779 79.085" stroke="black" stroke-width="2.52784" stroke-miterlimit="10" stroke-linecap="round" stroke-linejoin="round"/>
<path d="M109.473 86.3229L115.757 117.405" stroke="black" stroke-width="2.52784" stroke-miterlimit="10" stroke-linecap="round" stroke-linejoin="round"/>
<path d="M118.954 84.8533L124.944 119.61" stroke="black" stroke-width="2.52784" stroke-miterlimit="10" stroke-linecap="round" stroke-linejoin="round"/>
<path d="M189.217 81.1058L188.592 117.405" stroke="black" stroke-width="2.52784" stroke-miterlimit="10" stroke-linecap="round" stroke-linejoin="round"/>
<path d="M198 80.6648L195.501 113.364" stroke="black" stroke-width="2.52784" stroke-miterlimit="10" stroke-linecap="round" stroke-linejoin="round"/>
<path d="M112.634 56.6366C111.347 57.151 76.4365 78.4604 76.4365 78.4604L232.617 71.1123L201.013 51.2725L112.634 56.6366Z" fill="black" stroke="black" stroke-width="2.52784" stroke-miterlimit="10" stroke-linecap="round" stroke-linejoin="round"/>
<path d="M222.548 34.372L81.765 38.5971" stroke="black" stroke-width="2.52784" stroke-miterlimit="10" stroke-linecap="round" stroke-linejoin="round"/>
<path d="M124.944 45.2472L189.217 43.4469" stroke="black" stroke-width="2.52784" stroke-miterlimit="10" stroke-linecap="round"/>
<path d="M112.634 38.5971C112.634 38.5971 114.839 41.6833 115.757 47.1209C116.676 52.5584 112.634 56.6366 112.634 56.6366" stroke="black" stroke-width="2.52784" stroke-miterlimit="10" stroke-linecap="round" stroke-linejoin="round"/>
<path d="M201.638 34.9966C201.638 34.9966 199.066 39.2953 198.735 43.4469C198.441 47.5986 201.013 51.2726 201.013 51.2726" stroke="black" stroke-width="2.52784" stroke-miterlimit="10" stroke-linecap="round" stroke-linejoin="round"/>
<path d="M123.107 18.5737C123.107 18.5737 120.902 21.1455 119.8 24.4521C118.697 27.7588 118.954 29.9999 118.954 29.9999" stroke="black" stroke-width="2.52784" stroke-miterlimit="10" stroke-linecap="round" stroke-linejoin="round"/>
<path d="M128.913 18.5737C128.913 18.5737 126.965 20.8148 126.157 24.3052C125.348 27.7588 124.981 30.0367 124.981 30.0367" stroke="black" stroke-width="2.52784" stroke-miterlimit="10" stroke-linecap="round" stroke-linejoin="round"/>
<path d="M178.744 18.5737C178.744 18.5737 181.537 20.0433 182.639 22.9825C183.742 25.9217 183.742 28.861 183.742 28.861" stroke="black" stroke-width="2.52784" stroke-miterlimit="10" stroke-linecap="round" stroke-linejoin="round"/>
<path d="M184.624 18.5737C184.624 18.5737 186.681 19.6759 187.784 22.2477C188.886 24.8195 189.327 26.877 189.327 26.877" stroke="black" stroke-width="2.52784" stroke-miterlimit="10" stroke-linecap="round" stroke-linejoin="round"/>
<path d="M157.062 25.4443C157.062 25.4443 152.322 20.5946 149.749 23.1664C147.508 25.4076 151.403 28.9346 154.159 30.7349C156.915 32.5352 159.488 32.1678 162.244 28.8612C165 25.5545 165.735 22.9827 164.265 21.8805C162.795 20.7783 159.818 20.9252 157.062 25.4443Z" fill="#EF425A"/>
<path d="M324.12 42.0877C324.12 39.7731 323.753 37.7523 323.275 36.6501C322.577 35.1438 320.372 34.9601 320.923 38.5974C321.364 41.5366 315.668 47.2313 315.668 47.2313C315.668 47.2313 314.088 44.2921 312.912 42.2347C311.369 39.5159 308.87 39.6996 310.413 42.3081C310.707 42.7858 311.075 44.4391 311.405 45.2106C312.508 47.7824 312.692 49.0684 312.692 49.0684C312.692 49.0684 304.607 54.9468 304.607 61.1927C304.607 61.1927 304.203 53.2935 302.586 46.6802C301.888 43.8145 299.83 38.8545 298.286 36.4664C297.074 34.5559 295.236 33.1965 295.236 31.9841C295.236 29.7797 292.112 27.759 293.95 35.107C295.787 42.4551 297.992 46.4965 299.095 49.0684C300.197 51.6402 300.565 57.1512 300.197 60.8253C299.83 64.4993 298.36 65.9689 298.36 65.9689C298.36 65.9689 296.522 61.1927 296.522 57.886C296.522 54.5794 296.155 54.212 296.522 52.7424C296.89 51.2728 294.317 49.3255 293.215 55.2407C292.112 61.1927 295.236 67.8059 295.126 72.3985C295.052 76.991 293.803 80.5181 292.223 85.0004C290.643 89.4827 289.908 104.399 289.908 104.399L293.215 103.444C293.582 103.444 308.135 100.505 308.135 100.505C308.135 100.505 311.92 86.8007 314.492 79.4893C317.065 72.2148 319.196 63.2501 317.579 52.1178C317.653 52.1178 324.12 47.5987 324.12 42.0877ZM312.912 63.3971C311.626 67.8427 308.943 72.3617 308.943 72.3617C308.943 72.3617 307.4 67.1446 308.171 62.2214C309.017 56.9675 313.28 54.5794 313.61 54.4324C313.537 54.7631 314.125 59.2454 312.912 63.3971Z" fill="#82ECB7"/>
<path d="M294.281 80.6649C293.987 80.6282 291.047 87.0577 290.496 91.54C289.944 96.0591 290.496 101.57 290.496 101.57" stroke="black" stroke-width="2.52784" stroke-miterlimit="10" stroke-linecap="round" stroke-linejoin="round"/>
<path d="M317.506 64.8664C317.506 64.8664 318.241 70.7448 316.403 75.1537C314.566 79.5625 310.156 89.4824 309.054 93.5239C307.951 97.5653 308.208 101.607 308.208 101.607" stroke="black" stroke-width="2.52784" stroke-miterlimit="10" stroke-linecap="round" stroke-linejoin="round"/>
<path d="M244.67 97.0142C243.641 99.5861 244.119 103.921 244.67 105.648C245.846 109.322 248.456 110.057 256.173 109.322C263.89 108.587 268.851 109.322 271.313 105.648C273.775 101.974 272.489 94.9935 271.203 92.4217C268.998 88.0129 260.913 88.7477 254.666 89.4825C248.419 90.2173 246.067 93.5239 244.67 97.0142Z" fill="#F06491" stroke="#F06491" stroke-width="2.52784" stroke-miterlimit="10" stroke-linecap="round" stroke-linejoin="round"/>
<path d="M252.976 97.0142C252.976 97.0142 257.238 97.1979 261.281 95.3609C265.323 93.5239 262.53 91.4664 257.128 91.5766C251.726 91.6869 243.201 96.0957 252.976 97.0142Z" stroke="black" stroke-width="2.52784" stroke-miterlimit="10" stroke-linecap="round" stroke-linejoin="round"/>
<path d="M282.08 109.322C281.676 109.433 275.282 111.159 271.607 110.057C267.932 108.955 259.48 100.872 259.113 88.0129C258.745 75.1538 265.36 73.3168 269.77 72.582C274.179 71.8471 283.734 72.9494 286.674 84.7063C289.614 96.4632 294.023 106.016 282.08 109.322Z" fill="#18AFA1"/>
<path d="M284.065 110.425C283.366 110.204 281.492 110.057 276.347 107.853C271.203 105.648 272.893 99.8434 275.539 99.2556C278.185 98.6677 280.022 100.505 280.022 100.505C280.022 100.505 277.634 95.4713 282.889 94.2957C288.107 93.1567 290.275 97.0144 290.275 97.0144C290.275 97.0144 292.921 91.3197 296.228 92.4219C299.536 93.5241 302.623 94.6263 301.814 101.607C301.006 108.588 288.842 111.894 284.065 110.425Z" fill="#EF425A"/>
<path d="M284.8 103.444C284.8 103.444 283.954 99.9902 287.446 99.2554C292.149 98.3002 295.089 101.607 295.089 101.607C295.089 101.607 297.331 97.2715 301.888 99.2554C306.481 101.239 301.153 109.469 296.559 110.792C287.372 113.4 271.938 109.359 277.45 102.746C279.618 100.1 284.8 103.444 284.8 103.444Z" fill="#FCB230"/>
<path d="M288.548 105.648C288.548 105.648 289.577 103.811 291.414 103.811C293.252 103.811 293.656 105.648 293.656 105.648C293.656 105.648 296.375 103.076 299.021 103.811C301.667 104.546 303.872 109.837 294.244 111.269C285.13 112.629 282.595 108.551 283.844 106.897C286.086 103.995 288.548 105.648 288.548 105.648Z" fill="#F06492"/>
<path d="M269.733 83.2365C271.57 82.1343 272.562 80.9587 273.04 79.5625C273.775 77.3581 273.04 75.5211 269.733 76.9907C266.426 78.4603 264.441 80.7382 265.433 82.7222C266.426 84.7062 268.153 84.1551 269.733 83.2365Z" stroke="black" stroke-width="2.52784" stroke-miterlimit="10" stroke-linecap="round" stroke-linejoin="round"/>
<path d="M29.5438 19.9494C29.5438 19.9494 31.6396 24.6469 36.428 26.6527C41.2165 28.6586 47.6152 29.5571 49.6682 27.5483C51.7212 25.5395 45.7515 17.9149 41.6081 16.3336C37.4646 14.7524 31.0676 16.1971 31.0676 16.1971C31.0676 16.1971 30.1895 13.9134 29.279 11.9838C28.3684 10.0542 26.3517 11.0115 26.4416 15.1127C26.5316 19.2138 26.8477 20.1081 26.412 21.7684C25.9764 23.4286 27.9894 23.7071 29.5438 19.9494Z" fill="#EF425A"/>
<path d="M48.8423 28.0739C47.7906 28.5761 46.2636 28.7186 44.5343 28.6119C40.6403 26.8283 38.6457 22.5247 38.6349 22.4632C38.4831 22.1416 38.6385 21.7659 38.9656 21.6449C39.2873 21.4931 39.6631 21.6485 39.7788 21.9448C39.7842 21.9756 40.5954 23.701 42.1493 25.3271C43.6363 26.9334 45.8968 28.435 48.8423 28.0739Z" fill="black"/>
<path d="M43.4216 23.2025C43.9306 23.1128 44.2705 22.6275 44.1807 22.1186C44.0909 21.6097 43.6055 21.27 43.0965 21.3597C42.5875 21.4495 42.2477 21.9347 42.3375 22.4436C42.4272 22.9525 42.9126 23.2923 43.4216 23.2025Z" fill="black"/>
<path d="M12.5478 98.0747C12.5478 98.0747 12.1068 101.785 13.7605 103.953C15.4142 106.121 17.3986 107.554 24.5278 107.15C36.3975 106.488 35.7727 104.027 34.7805 97.5235C33.7883 91.0205 23.5723 92.6003 18.3908 93.1147C13.246 93.6291 12.5478 98.0747 12.5478 98.0747Z" fill="#18AFA1"/>
<path d="M18.9621 96.096C15.8018 97.5656 19.8441 98.778 23.5189 98.7413C27.1937 98.7046 32.5222 97.6024 28.6637 95.7286C27.745 95.251 22.1225 94.6264 18.9621 96.096Z" stroke="black" stroke-width="2.52784" stroke-miterlimit="10" stroke-linecap="round" stroke-linejoin="round"/>
<path d="M36.7484 111.159C40.9009 111.306 49.8675 109.616 52.3297 106.53C54.7918 103.444 56.0045 99.0717 54.2773 94.8098C52.5502 90.5847 49.1693 87.0208 40.4232 88.3802C32.1548 89.6662 22.2328 88.9681 27.6348 102.342C30.6849 109.873 31.0524 110.976 36.7484 111.159Z" fill="#F06492"/>
<path d="M35.7194 97.0144C38.402 96.7939 40.2761 97.0144 43.216 95.9122C46.1559 94.81 49.0957 91.2829 43.216 91.5768C37.3363 91.8707 30.8318 91.2094 31.3463 94.2956C31.8608 97.3818 35.5724 97.0144 35.7194 97.0144Z" stroke="black" stroke-width="2.52784" stroke-miterlimit="10" stroke-linecap="round" stroke-linejoin="round"/>
</svg>
