<svg width="1840" height="1445" viewBox="0 0 1840 1445" fill="none" xmlns="http://www.w3.org/2000/svg">
<path d="M1282.75 314.29L1277.82 318.4L1225.35 248.99L1265.33 318.4L1272.34 313.73" stroke="#231F20" stroke-width="5" stroke-miterlimit="10" stroke-linecap="round" stroke-linejoin="round"/>
<path d="M1044.52 452.73L1078.38 507.43L1051.22 521.94" stroke="#231F20" stroke-width="5" stroke-miterlimit="10" stroke-linecap="round" stroke-linejoin="round"/>
<path d="M1044.52 449.01L1088.43 495.89L1075.15 502.22" stroke="#231F20" stroke-width="5" stroke-miterlimit="10" stroke-linecap="round" stroke-linejoin="round"/>
<path d="M1041.54 444.91L1099.22 482.12L1084.94 492.17" stroke="#231F20" stroke-width="5" stroke-miterlimit="10" stroke-linecap="round" stroke-linejoin="round"/>
<path d="M1035.22 442.68L1105.54 470.22L1092.19 477.59" stroke="#231F20" stroke-width="5" stroke-miterlimit="10" stroke-linecap="round" stroke-linejoin="round"/>
<path d="M1726.19 500.5C1731.77 497.75 1752.98 469.85 1752.98 405.1C1752.98 340.35 1712.79 314.29 1712.79 314.29C1712.79 314.29 1734 275.61 1720.6 245.47C1707.2 215.33 1686.28 204.04 1636.88 211.98L1627.91 194.66C1611.47 162.92 1580.46 141.21 1544.97 136.94C1506.29 132.29 1455.99 133.04 1416.97 157.28" stroke="#231F20" stroke-width="5" stroke-miterlimit="10" stroke-linecap="round" stroke-linejoin="round"/>
<path d="M1741.26 518.4C1745.89 539.7 1710.56 549.1 1680.98 547.42C1651.4 545.75 1632.42 537.75 1670.38 521.93C1708.34 506.11 1738.47 505.57 1741.26 518.4Z" fill="#1CAFA1"/>
<path d="M1478.94 172.36C1476.15 170.69 1456.06 169.57 1443.22 153.38C1430.38 137.19 1428.15 123.8 1435.96 118.78C1443.77 113.76 1460.52 133.85 1460.52 133.85C1460.52 133.85 1447.68 98.6899 1463.87 94.2199C1480.06 89.7499 1488.99 127.71 1488.99 127.71C1488.99 127.71 1486.76 98.6899 1498.48 100.36C1510.2 102.03 1507.97 126.03 1501.83 139.99C1495.69 153.95 1491.78 172.36 1491.78 172.36H1478.94Z" fill="#06B9B1"/>
<path d="M992.73 567.41L1055.76 528.65C1058.85 526.75 1060.45 523.15 1059.78 519.58L1045.24 445.3L1098.33 465.72C1101.39 466.9 1104.67 464.65 1104.68 461.37C1104.69 459.87 1103.73 458.53 1102.3 458.04L1048.95 439.88C1048.95 439.88 1048.75 435.77 1044.84 434.01C1044.19 433.72 1043.47 433.5 1042.73 433.34C1038.64 432.47 1034.37 433.41 1030.85 435.68L1025.17 439.34C1007.59 450.67 990.95 463.39 975.41 477.4C974.3 478.4 973.66 479.83 973.66 481.33V488.37C973.66 490.08 974.49 491.69 975.88 492.68L977.77 494.03L987 564.66C987.34 567.39 990.39 568.85 992.73 567.41Z" fill="#FF3355"/>
<path d="M1230.56 544.36C1230.56 544.36 1243.87 577.89 1255.03 596.31C1264.95 612.68 1277.86 630.54 1287.67 641.68C1289.64 643.91 1292.96 644.31 1295.4 642.62C1297.58 641.11 1298.48 638.33 1297.59 635.83C1293.31 623.84 1280.89 589.72 1273.81 576.71C1265.16 560.8 1243.95 535.43 1243.95 535.43L1230.56 544.36Z" fill="#1CAFA1"/>
<path d="M1356.8 487.33C1352.76 497.54 1362.29 505.66 1370.1 506.45C1377.91 507.24 1385.73 500.61 1386.84 489.97C1387.96 479.33 1382.37 476.91 1377.35 475.61C1372.33 474.31 1362.47 473.01 1356.8 487.33Z" fill="#1CAFA1"/>
<path d="M1331.2 518.4C1331.67 526.86 1333.82 532.85 1343.31 531.48C1352.8 530.12 1355.53 525.65 1355.84 518.4C1356.15 511.14 1349.08 505.66 1343.4 506.45C1337.73 507.24 1330.8 511.17 1331.2 518.4Z" fill="#1CAFA1"/>
<path d="M1336.61 456.45C1334.31 467.94 1346.1 471.15 1353.35 468.54C1360.61 465.94 1368.42 461.66 1364.51 449.01C1360.6 436.36 1352.23 441.75 1348.32 442.68C1344.42 443.61 1338.29 448.08 1336.61 456.45Z" fill="#1CAFA1"/>
<path d="M1304.24 527.33C1312.61 530.12 1321.05 525.23 1319.9 519.02C1318.75 512.81 1314.84 505.22 1306.47 506.51C1298.1 507.8 1298.33 512.95 1297.94 519.02C1297.55 525.09 1304.24 527.33 1304.24 527.33Z" fill="#1CAFA1"/>
<path d="M1273.82 500.5C1272.42 507.8 1280.8 509.28 1284.7 507.7C1288.61 506.12 1298.76 497.97 1289.93 492.17C1276.33 483.24 1273.82 500.5 1273.82 500.5Z" fill="#1CAFA1"/>
<path d="M1017.36 648.45C1025.57 661.93 1055.64 649.45 1072.38 634.94C1089.12 620.43 1095.5 608.27 1085.45 601.01C1075.4 593.75 1050.1 608.82 1038.19 617.2C1026.29 625.57 1009.54 635.61 1017.36 648.45Z" fill="#1CAFA1"/>
<path d="M1129.54 188.54C1157.53 196.8 1177.26 209.19 1180.61 218.4C1183.96 227.61 1188.14 231.27 1180.61 238.65C1173.08 246.03 1167.25 243.68 1157.19 240.25C1147.13 236.82 1130.38 233.35 1113.64 231.74C1096.9 230.13 1070.38 238.65 1070.38 208.52C1070.38 185.67 1113.46 183.8 1129.54 188.54Z" fill="#1CAFA1"/>
<path d="M840.7 63.5199C870 59.3299 903.01 61.0099 920 90.3099C936.99 119.61 931.96 130.05 931.96 130.05C931.96 130.05 920.24 146.35 898.47 130.05C876.7 113.75 859.96 103.29 845.73 98.0499C831.5 92.8099 811.4 96.1699 809.73 83.6099C808.06 71.0499 840.7 63.5199 840.7 63.5199Z" fill="#1CAFA1"/>
<path d="M673.26 731.61C714.05 713.97 745.65 700.25 766.19 686.4C780.5 676.75 803.03 655.42 766.19 667.14C729.35 678.86 674.1 694.77 645.63 704.81C617.16 714.86 583.68 727.41 599.58 740.81C615.5 754.22 673.26 731.61 673.26 731.61Z" fill="#1CAFA1"/>
<path d="M574.471 416.82C587.871 433.56 612.141 442.68 624.701 432.68C637.261 422.68 612.981 394.21 599.581 385.01C586.181 375.8 574.461 369.74 564.421 374.86C554.381 379.98 574.471 416.82 574.471 416.82Z" fill="#1CAFA1"/>
<path d="M513.36 123.8C525.08 123.8 529.27 70.2199 513.36 47.6099C497.45 25.0099 491.59 20.8199 473.17 22.4899C454.75 24.1599 438.84 39.8899 454.75 52.4399C470.66 64.9999 480.38 72.9699 492.1 86.1099C507.05 102.89 499.12 123.8 513.36 123.8Z" fill="#1CAFA1"/>
<path d="M239.59 433.02C258.01 455.33 276.43 476.26 286.47 482.12C296.52 487.98 283.96 452.57 276.42 433.02C268.89 413.47 254.65 377.47 232.89 381.66C211.13 385.85 239.59 433.02 239.59 433.02Z" fill="#1CAFA1"/>
<path d="M746.92 324.17C745.96 323.89 745.56 322.77 746.12 321.94C751.4 314.1 773.55 280.97 777.48 271.15C781.39 261.38 793.75 238.55 796.78 232.99C797.16 232.3 798.01 232.02 798.72 232.37C804.04 234.98 824.98 245.24 837.09 251.05C847.92 256.25 858.13 259.37 862.16 260.51C863.08 260.77 863.51 261.81 863.04 262.64C859.68 268.58 847.89 289.38 838.88 304.07C828.95 320.27 815 344.8 810.98 352.89C810.6 353.65 809.66 353.93 808.93 353.5C803.69 350.46 784.78 339.54 775.7 334.76C767.07 330.24 752.21 325.71 746.92 324.17Z" fill="#1CAFA1"/>
<path d="M1285.98 318.23C1287.56 320.12 1290.28 320.59 1292.4 319.33C1302.55 313.32 1331.03 296.31 1343.31 287.27C1355.76 278.1 1369.74 266.22 1374.22 262.37C1375.04 261.66 1375.16 260.44 1374.5 259.58C1369.26 252.88 1348.11 225.85 1338.85 214.97C1330.55 205.2 1319.15 194.53 1314.6 190.36C1313.41 189.27 1311.66 189.06 1310.25 189.84L1219.98 239.17C1218.79 239.82 1218.12 241.14 1218.31 242.49L1229.36 321.94L1260.85 315.28L1224.11 250.38C1223.5 249.31 1223.8 247.96 1224.79 247.24C1225.82 246.5 1227.25 246.68 1228.06 247.67L1285.98 318.23Z" fill="#FF3355"/>
<path d="M896.8 1057.01C896.8 1057.01 895.68 1132.92 928.06 1167.52C960.43 1202.12 989.46 1216.64 989.46 1216.64C989.46 1216.64 1061.27 1150.86 1078.39 1119.01C1095.51 1087.16 1128.99 1035.81 1132.34 1016.83C1135.69 997.85 1141.27 936.46 1111.13 921.95C1080.99 907.44 1022.48 924.43 971.13 970.2C919.77 1015.95 896.8 1057.01 896.8 1057.01Z" fill="#FF3355"/>
<path d="M920 990.03L934.19 1034.12L976.05 986.12L960.43 964.36L920 990.03Z" fill="#FF3355"/>
<path d="M681.71 106.4L699.85 115.25C701.38 116 702.14 117.74 701.64 119.37C698.96 128.06 690.56 154.45 684.08 165.1C678.41 174.42 667.14 189.93 661.39 197.72C659.35 200.49 655.61 201.39 652.54 199.85L635.57 191.41C632.28 189.77 630.79 185.9 632.13 182.48C635.3 174.43 641.52 159.42 649.47 143.89C659 125.28 672.96 111.47 677.85 106.96C678.9 105.99 680.43 105.77 681.71 106.4Z" fill="#FF3355"/>
<path d="M896.8 1057.01C870.01 1035.8 798.1 997.73 771.31 991.03C744.52 984.33 704.8 1014.59 685.82 1041.38C666.84 1068.17 607.84 1151.89 595.48 1174.22C595.48 1174.22 512.15 1183.13 476.35 1193.49C472.73 1194.54 470.16 1197.74 469.94 1201.5L464.8 1288.08C464.8 1288.08 502.75 1293.66 547.4 1293.66C592.05 1293.66 765.08 1284.73 796.33 1276.91C827.59 1269.1 875.59 1257.94 875.59 1257.94L892.98 1267.1C895.43 1268.39 898.32 1268.59 900.92 1267.65C909.76 1264.44 930.72 1256.27 943.67 1246.78C954.66 1238.73 980.47 1221.27 985.4 1218.67C987.64 1217.49 988.53 1214.75 987.43 1212.47C976.22 1189.21 920.81 1076.02 896.8 1057.01ZM717.08 1156.82L736.76 1128.49C738.74 1125.64 740.59 1122.71 742.31 1119.7L758.38 1091.61L776.17 1116.12C781.04 1122.84 786.53 1129.08 792.57 1134.77L808.73 1150.01L717.08 1156.82Z" fill="#1CAFA1"/>
<path d="M280.61 602.12V615.28H292.88V602.5L280.61 602.12Z" fill="#1CAFA1"/>
<path d="M1028.52 470.22L1038.19 502.22" stroke="#231F20" stroke-width="5" stroke-miterlimit="10" stroke-linecap="round" stroke-linejoin="round"/>
<path d="M1013.63 482.12L1021.08 502.22" stroke="#231F20" stroke-width="5" stroke-miterlimit="10" stroke-linecap="round" stroke-linejoin="round"/>
<path d="M1031.12 450.5L975.31 494.03" stroke="#231F20" stroke-width="5" stroke-miterlimit="10" stroke-linecap="round" stroke-linejoin="round"/>
<path d="M1088.43 540.17C1088.43 540.17 1111.13 540.17 1117.83 514.5" stroke="#231F20" stroke-width="5" stroke-miterlimit="10" stroke-linecap="round" stroke-linejoin="round"/>
<path d="M1242.84 168.45C1242.84 168.45 1139.03 280.75 1141.26 460.14" stroke="#231F20" stroke-width="5" stroke-miterlimit="10" stroke-linecap="round" stroke-linejoin="round"/>
<path d="M1252.89 379.43C1252.89 379.43 1262.94 362.69 1277.45 364.92C1291.96 367.15 1294.19 385.01 1294.19 385.01C1294.19 385.01 1306.47 370.5 1323.21 369.38C1339.95 368.26 1343.3 374.86 1343.3 374.86" stroke="#231F20" stroke-width="5" stroke-miterlimit="10" stroke-linecap="round" stroke-linejoin="round"/>
<path d="M1463.87 280.67C1466.1 282.31 1506.29 407.34 1539.78 422.96" stroke="#231F20" stroke-width="5" stroke-miterlimit="10" stroke-linecap="round" stroke-linejoin="round"/>
<path d="M1463.87 550.22C1485.08 529.01 1506.29 496.64 1532 449.01C1557.71 401.38 1594.47 190.78 1591.12 188.55" stroke="#231F20" stroke-width="5" stroke-miterlimit="10" stroke-linecap="round" stroke-linejoin="round"/>
<path d="M1430.38 561.38C1438.46 553.85 1447.93 554.03 1458.57 551.62C1473.2 548.3 1486.3 549.16 1527.61 544.64C1598.94 536.83 1645.3 537.11 1678.2 534.59C1691.97 533.54 1707.22 527.33 1707.22 527.33" stroke="#231F20" stroke-width="5" stroke-miterlimit="10" stroke-linecap="round" stroke-linejoin="round"/>
<path d="M1689.35 468.54C1689.35 468.54 1669.26 497.75 1655.86 514.49C1642.46 531.23 1631.75 537.16 1631.75 537.16" stroke="#231F20" stroke-width="5" stroke-miterlimit="10" stroke-linecap="round" stroke-linejoin="round"/>
<path d="M1628.63 392.48C1628.63 392.48 1599.91 416.34 1584.98 427.98C1571.42 438.55 1549.82 451.42 1557.63 461.47C1565.44 471.52 1586.14 451.04 1595.03 439.7C1608.16 422.96 1631.54 396.5 1631.54 396.5" stroke="#231F20" stroke-width="5" stroke-miterlimit="10" stroke-linecap="round" stroke-linejoin="round"/>
<path d="M1630.62 394.47C1594.78 352.17 1659.39 319.5 1659.39 319.5L1680.43 341.45L1681.66 342.68L1703.61 363.72C1703.61 363.72 1670.94 428.34 1628.64 392.49" stroke="#231F20" stroke-width="5" stroke-miterlimit="10" stroke-linecap="round" stroke-linejoin="round"/>
<path d="M1635.77 364.71L1658.55 341.93" stroke="#231F20" stroke-width="5" stroke-miterlimit="10" stroke-linecap="round" stroke-linejoin="round"/>
<path d="M1647.16 374.86L1671.13 350.89" stroke="#231F20" stroke-width="5" stroke-miterlimit="10" stroke-linecap="round" stroke-linejoin="round"/>
<path d="M1659.15 387.24L1680.95 365.44" stroke="#231F20" stroke-width="5" stroke-miterlimit="10" stroke-linecap="round" stroke-linejoin="round"/>
<path d="M1260.84 263.14L1273.82 283.98" stroke="#231F20" stroke-width="5" stroke-miterlimit="10" stroke-linecap="round" stroke-linejoin="round"/>
<path d="M1240.2 244.25L1306.47 208.51" stroke="#231F20" stroke-width="5" stroke-miterlimit="10" stroke-linecap="round" stroke-linejoin="round"/>
<path d="M1272.34 248.99L1293.08 287.27L1309.47 279.67L1286.4 241.19L1272.34 248.99Z" stroke="#231F20" stroke-width="5" stroke-miterlimit="10" stroke-linecap="round" stroke-linejoin="round"/>
<path d="M1240.81 257.35L1168.22 300.23" stroke="#231F20" stroke-width="5" stroke-miterlimit="10" stroke-linecap="round" stroke-linejoin="round"/>
<path d="M1232.44 253.02L1242.84 265.69L1251.22 254.4L1239.87 246.78L1232.44 253.02Z" fill="#FF3355"/>
<path d="M925.82 1164.17C925.82 1164.17 932.52 1179.8 952.61 1194.31C972.7 1208.82 982.75 1209.94 982.75 1209.94" stroke="#231F20" stroke-width="5" stroke-miterlimit="10" stroke-linecap="round" stroke-linejoin="round"/>
<path d="M952.61 1194.31C952.61 1194.31 864.42 1232.26 794.1 1238.96C723.78 1245.66 622.19 1254.59 595.4 1254.59C568.61 1254.59 532.89 1260.17 518.38 1260.17C503.87 1260.17 491.59 1260.87 480.43 1254.17" stroke="#231F20" stroke-width="5" stroke-miterlimit="10" stroke-linecap="round" stroke-linejoin="round"/>
<path d="M464.8 1245.66V1288.08C464.8 1288.08 499.4 1294.78 563.03 1293.66C626.66 1292.54 717.06 1287.97 755.03 1281.38C805.61 1272.61 864.77 1263.4 878.17 1255.59" stroke="#231F20" stroke-width="5" stroke-miterlimit="10" stroke-linecap="round" stroke-linejoin="round"/>
<path d="M867.77 1245.66C867.77 1245.66 883.4 1265.88 902.37 1269.72" stroke="#231F20" stroke-width="5" stroke-miterlimit="10" stroke-linecap="round" stroke-linejoin="round"/>
<path d="M472.61 1194.31C472.61 1194.31 471.49 1171.98 472.61 1153.01C473.73 1134.04 485.63 1129.57 492.7 1123.61C499.77 1117.66 510.56 1102.03 499.77 1090.49C488.98 1078.96 474.1 1103.89 474.1 1103.89C474.1 1103.89 478.19 1082.68 475.59 1074.87C472.99 1067.06 464.8 1072.64 462.94 1076.73C461.08 1080.82 462.2 1100.92 462.94 1108.36" stroke="#231F20" stroke-width="5" stroke-miterlimit="10" stroke-linecap="round" stroke-linejoin="round"/>
<path d="M451.78 1078.96C451.78 1078.96 461.35 1077.81 461.96 1090.88" stroke="#231F20" stroke-width="5" stroke-miterlimit="10" stroke-linecap="round" stroke-linejoin="round"/>
<path d="M451.78 1110.96C452.15 1109.84 451.78 1100.94 448.8 1090.88C445.82 1080.82 442.1 1081.18 439.13 1084.91C436.16 1088.64 433.92 1110.22 434.66 1109.1C435.4 1107.98 432.06 1091.98 424.61 1092.73C417.17 1093.47 416.42 1098.31 418.66 1106.87C420.89 1115.43 427.59 1152.27 426.47 1170.5C425.35 1188.73 423.49 1203.24 416.05 1220.73C408.61 1238.22 406 1266.13 416.05 1276.17C426.1 1286.22 429.82 1290.68 444.7 1289.57C459.58 1288.45 464.79 1275.43 464.79 1275.43" stroke="#231F20" stroke-width="5" stroke-miterlimit="10" stroke-linecap="round" stroke-linejoin="round"/>
<path d="M1072.05 1050.31L949.7 1065.6C948.13 1065.8 946.64 1064.88 946.09 1063.4L920 992.26" stroke="#231F20" stroke-width="5" stroke-miterlimit="10" stroke-linecap="round" stroke-linejoin="round"/>
<path d="M1072.05 978.87L982.75 1012.35L960.26 963.84L954.29 950.96L902.38 971.05L907.32 995.74L960.26 963.84" stroke="#231F20" stroke-width="5" stroke-miterlimit="10" stroke-linecap="round" stroke-linejoin="round"/>
<path d="M914.66 981.66C921.73 982.01 920 974.78 920 974.78C920 974.78 919.5 970.31 914.66 972.18C909.82 974.03 908.89 981.37 914.66 981.66Z" fill="#231F20"/>
<path d="M906.61 969.6C906.61 969.6 885.26 951.33 858.1 946.86C830.94 942.39 817.91 945.74 818.66 933.09C819.4 920.44 857.36 921.56 873.36 922.67C889.36 923.79 938.1 929.74 944.8 936.44C951.5 943.14 950.45 952.44 950.45 952.44L906.61 969.6Z" stroke="#231F20" stroke-width="5" stroke-miterlimit="10" stroke-linecap="round" stroke-linejoin="round"/>
<path d="M823.98 941.96C823.98 941.96 814.56 943.51 816.79 953.93C819.02 964.35 831.67 959.88 846.56 957.28C861.44 954.68 862.83 952.52 877.58 952.48" stroke="#231F20" stroke-width="5" stroke-miterlimit="10" stroke-linecap="round" stroke-linejoin="round"/>
<path d="M928.05 894.87C915.04 887.89 882.38 870.75 873.04 864.68C871.53 863.69 869.56 863.77 868.12 864.88L825.55 896.99C824.95 897.44 824.57 898.12 824.49 898.86L823.44 908.61C822.85 914.17 826.65 919.23 832.15 920.22L975.31 945.82L987.22 932.73V922.31C987.22 920.95 986.39 919.73 985.12 919.23C976.21 915.75 941.31 901.98 928.05 894.87ZM978.69 925.15L977.22 927.38C975.78 929.54 973.26 930.72 970.68 930.42C960.11 929.19 932.59 925.88 923.18 923.61C911.43 920.78 899.46 913.58 875.62 911.85C847.02 909.77 842.47 899.98 842.47 899.98C843.59 899.98 877.59 873.94 877.59 873.94C877.59 873.94 915.4 897.38 938.47 906.68C955.63 913.6 970.66 918.73 977.23 920.9C979 921.49 979.72 923.59 978.69 925.15Z" fill="#0D0C0C"/>
<path d="M868.89 902.2L882.66 886.96" stroke="#231F20" stroke-width="5" stroke-miterlimit="10" stroke-linecap="round" stroke-linejoin="round"/>
<path d="M886.38 906.68L897.54 894.58" stroke="#231F20" stroke-width="5" stroke-miterlimit="10" stroke-linecap="round" stroke-linejoin="round"/>
<path d="M906.84 910.4L913.91 902.2" stroke="#231F20" stroke-width="5" stroke-miterlimit="10" stroke-linecap="round" stroke-linejoin="round"/>
<path d="M921.77 913.98L924.98 910.24" stroke="#231F20" stroke-width="5" stroke-miterlimit="10" stroke-linecap="round" stroke-linejoin="round"/>
<path d="M1175.87 147.98L1168.22 113.75L1179.59 94.4" stroke="#231F20" stroke-width="5" stroke-miterlimit="10" stroke-linecap="round" stroke-linejoin="round"/>
<path d="M1152.8 105.19L1168.22 116.75" stroke="#231F20" stroke-width="5" stroke-miterlimit="10" stroke-linecap="round" stroke-linejoin="round"/>
<path d="M1144.61 53.1C1167.25 45.01 1191.12 59.43 1193.73 76.91C1196.33 94.4 1189.64 110.77 1190.38 128.26C1191.12 145.75 1200.43 174.4 1200.43 174.4C1200.43 174.4 1197.45 180.35 1186.29 183.7C1175.13 187.05 1169.92 183.7 1169.92 183.7C1169.92 183.7 1167.69 152.82 1152.8 143.14C1137.92 133.47 1120.06 132.35 1115.59 101.09C1111.12 69.83 1128.98 58.68 1144.61 53.1Z" stroke="#231F20" stroke-width="5" stroke-miterlimit="10" stroke-linecap="round" stroke-linejoin="round"/>
<path d="M1164.53 159.67C1164.53 159.67 1171.03 161.01 1179.59 157.66C1188.15 154.31 1192.04 150.59 1192.04 150.59" stroke="#231F20" stroke-width="5" stroke-miterlimit="10" stroke-linecap="round" stroke-linejoin="round"/>
<path d="M1167.3 168.45C1167.3 168.45 1171.4 169.57 1182.19 165.1C1192.98 160.63 1195.69 157.92 1195.69 157.92" stroke="#231F20" stroke-width="5" stroke-miterlimit="10" stroke-linecap="round" stroke-linejoin="round"/>
<path d="M1168.22 175.52C1168.22 175.52 1177.12 177.99 1186.8 173.52C1196.47 169.05 1197.61 166.45 1197.61 166.45" stroke="#231F20" stroke-width="5" stroke-miterlimit="10" stroke-linecap="round" stroke-linejoin="round"/>
<path d="M1093.26 267.8C1093.26 267.8 1093.26 267.8 1099.21 289.75C1105.16 311.7 1105.91 347.42 1099.21 348.17C1092.51 348.91 1084.7 341.84 1072.79 323.61C1060.88 305.38 1055.67 265.94 1055.67 265.94L975.3 297.2C975.3 297.2 987.69 338.75 1004.93 356.48C1017.83 369.74 1023.35 376.44 1033.29 381.93C1033.85 382.24 1034.53 382.29 1035.14 382.09L1056.2 374.87C1060.36 372.94 1072.28 366.25 1076.09 363.69L1099.2 348.18" stroke="#231F20" stroke-width="5" stroke-miterlimit="10" stroke-linecap="round" stroke-linejoin="round"/>
<path d="M1073.17 275.61C1073.17 275.61 1081.36 296.13 1086.19 307.08C1091.03 318.03 1092.89 335.52 1092.89 335.52" stroke="#231F20" stroke-width="5" stroke-miterlimit="10" stroke-linecap="round" stroke-linejoin="round"/>
<path d="M993.54 305.57C993.54 305.57 996.89 319.52 1011.03 335.52L1031.12 324.17C1031.12 324.17 1024.05 315.43 1019.59 307.24C1015.12 299.05 1013.64 295.71 1013.64 295.71L993.54 305.57Z" stroke="#231F20" stroke-width="5" stroke-miterlimit="10" stroke-linecap="round" stroke-linejoin="round"/>
<path d="M1028.52 292.36C1028.52 292.36 1037.45 289.38 1044.52 285.66" stroke="#231F20" stroke-width="5" stroke-miterlimit="10" stroke-linecap="round" stroke-linejoin="round"/>
<path d="M1033.36 303.89L1049.73 297.94" stroke="#231F20" stroke-width="5" stroke-miterlimit="10" stroke-linecap="round" stroke-linejoin="round"/>
<path d="M1038.19 316.61L1053.45 310.84" stroke="#231F20" stroke-width="5" stroke-miterlimit="10" stroke-linecap="round" stroke-linejoin="round"/>
<path d="M1015.87 345.94C1015.87 345.94 1033.73 338.87 1041.54 335.52C1049.35 332.17 1056.42 327 1056.42 327" stroke="#231F20" stroke-width="5" stroke-miterlimit="10" stroke-linecap="round" stroke-linejoin="round"/>
<path d="M1025.17 360.08C1025.17 360.08 1035.59 356.73 1045.82 350.78C1056.05 344.83 1066.47 339.62 1066.47 339.62" stroke="#231F20" stroke-width="5" stroke-miterlimit="10" stroke-linecap="round" stroke-linejoin="round"/>
<path d="M1011.03 335.52C1011.03 335.52 1003.59 320.78 1009.54 316.61C1015.49 312.44 1031.12 324.17 1031.12 324.17L1011.03 335.52Z" fill="#231F20"/>
<path d="M975.31 248.99C975.31 248.99 967.87 209.62 1021.08 176.2C1074.29 142.78 1124.52 150.59 1124.52 150.59" stroke="#231F20" stroke-width="5" stroke-miterlimit="10" stroke-linecap="round" stroke-linejoin="round"/>
<path d="M876.7 84.73C876.7 84.73 915.77 111.52 933.63 145.57C951.49 179.62 953.19 188.55 953.19 188.55" stroke="#231F20" stroke-width="5" stroke-miterlimit="10" stroke-linecap="round" stroke-linejoin="round"/>
<path d="M941.45 98.05C941.45 98.05 933.64 120.09 941.45 163.25" stroke="#231F20" stroke-width="5" stroke-miterlimit="10" stroke-linecap="round" stroke-linejoin="round"/>
<path d="M868.89 208.51C868.89 208.51 853.26 168.45 789.63 185.19C726 201.93 714.84 217.25 709.26 255.92C709.26 255.92 676.89 232.08 630 253.84C583.12 275.61 537.35 301.08 539.58 374.85" stroke="#231F20" stroke-width="5" stroke-miterlimit="10" stroke-linecap="round" stroke-linejoin="round"/>
<path d="M743.87 349.84C743.87 351.51 778.47 382.4 778.47 382.4" stroke="#231F20" stroke-width="5" stroke-miterlimit="10" stroke-linecap="round" stroke-linejoin="round"/>
<path d="M769.54 336.47C769.54 336.47 780.7 381.66 778.47 409.57C776.24 437.48 757.85 501.15 778.77 530.71" stroke="#231F20" stroke-width="5" stroke-miterlimit="10" stroke-linecap="round" stroke-linejoin="round"/>
<path d="M914.95 290.55C914.95 290.55 893.45 311.37 900.15 336.47C906.85 361.57 914.18 362.36 920 361.41C923.23 360.88 929.15 357.89 932.43 354.38C935.29 351.32 930.69 347 927.73 349.97C922.53 355.19 914.94 365.67 914.94 382.42C914.94 404.75 923.58 404.75 923.58 404.75" stroke="#231F20" stroke-width="5" stroke-miterlimit="10" stroke-linecap="round" stroke-linejoin="round"/>
<path d="M585.36 404.73C585.36 404.73 603.22 416.95 625.55 428.33C647.88 439.71 727.13 494.04 727.13 494.04C727.13 494.04 801.92 550.23 836.53 561.39C871.13 572.55 967.13 588.46 967.13 588.46" stroke="#231F20" stroke-width="5" stroke-miterlimit="10" stroke-linecap="round" stroke-linejoin="round"/>
<path d="M1095.12 918.22L1099.96 902.2" stroke="#231F20" stroke-width="5" stroke-miterlimit="10" stroke-linecap="round" stroke-linejoin="round"/>
<path d="M1123.03 934.22L1126.01 908.48" stroke="#231F20" stroke-width="5" stroke-miterlimit="10" stroke-linecap="round" stroke-linejoin="round"/>
<path d="M1136.42 902.2C1136.42 902.2 1127.86 912.26 1111.86 906.68C1095.86 901.1 1082.01 892.46 1086.19 869.1C1089.91 848.26 1091.77 851.61 1091.77 851.61" stroke="#231F20" stroke-width="5" stroke-miterlimit="10" stroke-linecap="round" stroke-linejoin="round"/>
<path d="M1097.54 858.31C1097.54 858.31 1076.52 835.24 1068.7 826.31C1060.89 817.38 1063.12 800.26 1080.98 816.64C1098.84 833.02 1114.47 851.42 1114.47 851.42" stroke="#231F20" stroke-width="5" stroke-miterlimit="10" stroke-linecap="round" stroke-linejoin="round"/>
<path d="M1128.24 819.24C1127.12 819.24 1105.83 823.82 1104.57 840.32" stroke="#231F20" stroke-width="5" stroke-miterlimit="10" stroke-linecap="round" stroke-linejoin="round"/>
<path d="M1132.02 897.7C1130.66 897.8 1129.63 898.95 1129.58 900.31C1129.42 904.69 1130.07 912.7 1136.42 915.61C1145.35 919.7 1165.47 907.85 1171.02 900.35C1178.46 890.3 1178.83 877.28 1179.21 870.58C1179.21 870.58 1188.59 859.35 1190 847.88C1192.23 829.77 1176.23 824.07 1176.23 824.07C1176.23 824.07 1183.3 811.42 1174 801.74C1167.85 795.34 1153.53 797.65 1153.53 798.76C1153.53 799.87 1144.99 784.99 1133.08 787.97C1121.17 790.95 1114.83 798.02 1114.46 805.83C1114.09 813.64 1119.67 824.34 1119.67 824.34C1119.67 824.34 1137.16 821.46 1142.74 825.55C1148.32 829.64 1152.04 837.46 1149.44 843.41C1146.84 849.36 1142.37 853.08 1145.35 854.57C1148.33 856.06 1157.63 852.71 1158.75 858.29C1159.87 863.87 1158.75 872.88 1151.25 883.82C1145.47 892.27 1136.68 897.37 1132.02 897.7Z" fill="#231F20"/>
<path d="M1130.84 841.19C1132.69 841.19 1134.19 839.69 1134.19 837.84C1134.19 835.99 1132.69 834.49 1130.84 834.49C1128.99 834.49 1127.49 835.99 1127.49 837.84C1127.49 839.69 1128.99 841.19 1130.84 841.19Z" fill="#231F20"/>
<path d="M1085.59 872.94C1085.59 872.94 1091.03 883.24 1107.78 879.89C1124.53 876.54 1130.85 863.99 1130.85 863.99" stroke="#231F20" stroke-width="5" stroke-miterlimit="10" stroke-linecap="round" stroke-linejoin="round"/>
<path d="M651.5 188.54C651.5 188.54 668.24 166.49 677.45 150.59C686.66 134.69 690.85 121.19 690.85 121.19" stroke="#231F20" stroke-width="5" stroke-miterlimit="10" stroke-linecap="round" stroke-linejoin="round"/>
<path d="M504.15 285.66C504.15 285.66 506.66 242.16 521.73 208.51C536.8 174.87 548.52 163.25 548.52 163.25" stroke="#231F20" stroke-width="5" stroke-miterlimit="10" stroke-linecap="round" stroke-linejoin="round"/>
<path d="M480.71 38.4C480.71 38.4 497.45 51.8 504.15 71.05C510.85 90.3 515.87 138.23 517.55 163.24C519.22 188.25 521.74 208.5 521.74 208.5" stroke="#231F20" stroke-width="5" stroke-miterlimit="10" stroke-linecap="round" stroke-linejoin="round"/>
<path d="M679.12 103.71L699.49 116.27L711.21 91.15C711.21 91.15 718.74 93.38 721.81 98.41C724.88 103.44 727.67 108.74 726 116.27C726 116.27 735.21 107.62 735.49 98.69C735.77 89.76 732.14 80.55 713.16 75.81C694.18 71.07 688.88 72.18 688.88 72.18L695.3 60.18L686.04 55.42C685.74 55.27 685.38 55.34 685.17 55.6L661.51 84.1C661.23 84.44 661.32 84.94 661.69 85.17C663.84 86.43 670.12 90.05 671.16 90.05C672.42 90.05 681.9 81.12 681.9 81.12L693.9 88.93L679.12 103.71Z" stroke="#231F20" stroke-width="5" stroke-miterlimit="10" stroke-linecap="round" stroke-linejoin="round"/>
<path d="M694.19 104.12C695.19 104.12 696 103.31 696 102.31C696 101.31 695.19 100.5 694.19 100.5C693.19 100.5 692.38 101.31 692.38 102.31C692.38 103.31 693.19 104.12 694.19 104.12Z" fill="#231F20"/>
<path d="M765.08 69.1L785.45 55.33" stroke="#231F20" stroke-width="5" stroke-miterlimit="10" stroke-linecap="round" stroke-linejoin="round"/>
<path d="M782.38 50.6801L788.52 58.2201" stroke="#231F20" stroke-width="5" stroke-miterlimit="10" stroke-linecap="round" stroke-linejoin="round"/>
<path d="M651.5 38.4L645.36 17.75" stroke="#231F20" stroke-width="5" stroke-miterlimit="10" stroke-linecap="round" stroke-linejoin="round"/>
<path d="M640.89 17.75H650.38" stroke="#231F20" stroke-width="5" stroke-miterlimit="10" stroke-linecap="round" stroke-linejoin="round"/>
<path d="M626.66 117.66L616.33 91.71" stroke="#231F20" stroke-width="5" stroke-miterlimit="10" stroke-linecap="round" stroke-linejoin="round"/>
<path d="M611.03 94.5L621.5 88.36" stroke="#231F20" stroke-width="5" stroke-miterlimit="10" stroke-linecap="round" stroke-linejoin="round"/>
<path d="M294.85 130.65C294.85 130.65 335.04 108.88 360.99 123.46C386.94 138.04 395.32 154.39 396.15 171.33C396.15 171.33 416.24 161.63 433.82 176.2C451.4 190.77 455.59 208.51 455.59 208.51" stroke="#231F20" stroke-width="5" stroke-miterlimit="10" stroke-linecap="round" stroke-linejoin="round"/>
<path d="M407.03 219.24C407.03 219.24 394.8 250.68 379.15 265.94" stroke="#231F20" stroke-width="5" stroke-miterlimit="10" stroke-linecap="round" stroke-linejoin="round"/>
<path d="M245.45 419.33C245.45 419.33 304.89 502.77 360.98 540.17C360.98 540.17 372.7 503.05 379.4 468.54C386.1 434.03 396.98 354.03 392.8 310.84C388.62 267.65 345.92 208.51 345.92 208.51" stroke="#231F20" stroke-width="5" stroke-miterlimit="10" stroke-linecap="round" stroke-linejoin="round"/>
<path d="M818.63 651.24C818.63 651.24 775.4 655.43 740.24 660.45C705.08 665.47 623.03 672.17 585.36 675.52C547.69 678.87 541.83 681.38 494.1 675.52C446.38 669.66 334.19 641.19 290.66 645.38C247.13 649.57 191.87 657.1 151.68 710.68C151.68 710.68 151.68 712.56 149.17 716.75C146.66 720.94 141.64 727.42 131.59 736.63C111.5 755.05 96.4302 770.96 93.9202 793.56C91.4102 816.16 112.34 828.72 133.27 827.89C154.2 827.06 173.46 815.33 177.64 787.7C181.82 760.07 161.66 752.5 154.2 736.44C146.74 720.38 152.33 710.18 154 707.67" stroke="#231F20" stroke-width="5" stroke-miterlimit="10" stroke-linecap="round" stroke-linejoin="round"/>
<path d="M112.25 755.92C112.25 755.92 115.41 767.33 134.94 767.33C154.47 767.33 165.64 755.92 165.64 755.92" stroke="#231F20" stroke-width="5" stroke-miterlimit="10" stroke-linecap="round" stroke-linejoin="round"/>
<path d="M99.8496 814.71C99.8496 814.71 113.17 800.82 134.38 801.94C155.59 803.06 167.23 812.4 167.23 812.4" stroke="#231F20" stroke-width="5" stroke-miterlimit="10" stroke-linecap="round" stroke-linejoin="round"/>
<path d="M118.75 604.91C114.44 627.39 138.84 640.63 189.63 631.7C240.42 622.77 264.42 615.51 286.75 614.96C309.08 614.4 313.54 621.1 316.33 625.56C319.12 630.03 328.05 632.88 328.05 619.73C328.05 606.58 329.72 607.14 328.05 597.65C326.38 588.16 322.47 589.28 314.65 594.86C306.84 600.44 300.7 603.79 280.6 602.12C260.51 600.45 210.27 589.28 187.95 584.82C165.63 580.36 123.78 578.68 118.75 604.91Z" stroke="#231F20" stroke-width="5" stroke-miterlimit="10" stroke-linecap="round" stroke-linejoin="round"/>
<path d="M280.61 602.12V615.28" stroke="#231F20" stroke-width="5" stroke-miterlimit="10" stroke-linecap="round" stroke-linejoin="round"/>
<path d="M292.88 602.5V615.28" stroke="#231F20" stroke-width="5" stroke-miterlimit="10" stroke-linecap="round" stroke-linejoin="round"/>
<path d="M444.15 482.68C444.15 482.68 424.06 473.19 436.34 445.84C448.62 418.49 462.01 426.86 464.25 429.1C466.48 431.33 460.9 419.05 464.25 399.52C467.6 379.99 474.3 374.34 474.3 374.34" stroke="#231F20" stroke-width="5" stroke-miterlimit="10" stroke-linecap="round" stroke-linejoin="round"/>
<path d="M556.89 219.24L529.54 268.91L531.22 277.98L539.51 272.26L565.82 224.45" stroke="#231F20" stroke-width="5" stroke-miterlimit="10" stroke-linecap="round" stroke-linejoin="round"/>
<path d="M548.52 213.66C556.89 219.24 566.38 223.71 573.08 228.17C579.78 232.64 579.22 220.36 575.87 217.01C572.52 213.66 578.1 210.31 585.36 198.59C592.62 186.87 603.78 166.78 603.78 166.78L585.36 157.29C585.36 157.29 562.48 199.15 560.24 203.06C558 206.97 551.34 201.5 547.68 202.5C539.51 204.73 548.52 213.66 548.52 213.66Z" stroke="#231F20" stroke-width="5" stroke-miterlimit="10" stroke-linecap="round" stroke-linejoin="round"/>
<path d="M596.93 163.25L579.77 188.54" stroke="#231F20" stroke-width="5" stroke-miterlimit="10" stroke-linecap="round" stroke-linejoin="round"/>
<path d="M249.36 203.61C247.69 204.73 210.29 262.21 243.22 320.82C276.15 379.43 328.8 385.56 328.8 385.56C328.8 385.56 364.89 334.21 332.52 265.93C305.25 208.41 249.36 203.61 249.36 203.61Z" stroke="#231F20" stroke-width="5" stroke-miterlimit="10" stroke-linecap="round" stroke-linejoin="round"/>
<path d="M232.85 242.59C232.85 242.59 244.9 250.17 268.34 239.1C291.78 228.03 291.61 219.24 291.61 219.24" stroke="#231F20" stroke-width="5" stroke-miterlimit="10" stroke-linecap="round" stroke-linejoin="round"/>
<path d="M230.1 259.91C230.1 259.91 253.47 267.56 276.35 255.29C299.23 243.02 301.82 229.14 301.82 229.14" stroke="#231F20" stroke-width="5" stroke-miterlimit="10" stroke-linecap="round" stroke-linejoin="round"/>
<path d="M275.98 360.45C275.98 360.45 286.83 350.4 308 340.92C329.17 331.43 345.52 334.29 345.52 334.29" stroke="#231F20" stroke-width="5" stroke-miterlimit="10" stroke-linecap="round" stroke-linejoin="round"/>
<path d="M292.88 372.18C292.88 372.18 299.03 362.68 314.65 356.54C330.28 350.4 343.13 349.84 343.13 349.84" stroke="#231F20" stroke-width="5" stroke-miterlimit="10" stroke-linecap="round" stroke-linejoin="round"/>
<path d="M280.61 273.38L301.82 324.73" stroke="#231F20" stroke-width="5" stroke-miterlimit="10" stroke-linecap="round" stroke-linejoin="round"/>
<path d="M270.01 290.68L299.03 278.64" stroke="#231F20" stroke-width="5" stroke-miterlimit="10" stroke-linecap="round" stroke-linejoin="round"/>
<path d="M275.98 306.31L305.17 294.59" stroke="#231F20" stroke-width="5" stroke-miterlimit="10" stroke-linecap="round" stroke-linejoin="round"/>
<path d="M280.61 320.82L313.54 306.31" stroke="#231F20" stroke-width="5" stroke-miterlimit="10" stroke-linecap="round" stroke-linejoin="round"/>
<path d="M1416.98 634.52C1416.98 634.52 1394.94 653.98 1386.98 685.26C1379.02 716.54 1354.32 806.95 1365.55 894.58C1376.78 982.21 1380.14 1045.84 1422.55 1108.35C1464.97 1170.86 1467.2 1153 1487.29 1175.33C1507.38 1197.66 1516.31 1216.65 1539.75 1227.25C1563.19 1237.85 1622.82 1274.68 1631.52 1279.15H1721.71C1721.71 1279.15 1716.13 1288.33 1689.34 1293.79C1662.55 1299.25 1640.22 1302.59 1640.22 1302.59C1640.22 1302.59 1679.29 1315.99 1675.94 1315.99C1672.59 1315.99 1632.41 1324.92 1607.85 1322.69C1583.29 1320.46 1517.43 1317.11 1506.27 1314.88L1531.99 1362.88C1531.99 1362.88 1460.51 1352.83 1430.37 1341.67C1400.23 1330.51 1312.04 1293.8 1312.04 1293.8L1322.09 1345.02C1322.09 1345.02 1279.67 1342.79 1248.42 1334.97C1217.17 1327.15 1170.1 1314.88 1152.33 1302.6C1134.56 1290.32 1134.56 1290.32 1134.56 1290.32L1096.31 1310.2C1093.18 1311.82 1089.45 1309.56 1089.45 1306.03V1275.81L936.75 1329.98C933.7 1331.06 931.17 1327.43 933.24 1324.94L979.17 1269.73C979.17 1269.73 908.71 1298.13 882.66 1302.6C856.61 1307.07 811.96 1293.8 811.96 1293.8C811.96 1293.8 872.63 1289.25 919.37 1260.21C966.11 1231.17 1007.69 1214.46 1064.43 1139.09C1121.17 1063.72 1153.91 960.59 1162.47 930.48C1171.03 900.37 1193.73 788.75 1194.84 722.51C1195.96 656.27 1197.07 635.06 1168.05 613.85C1139.03 592.64 1099.96 583.15 1026.28 588.45C952.61 593.75 956.59 588.73 919.99 605.19C883.39 621.65 769.12 678.15 726.35 697.9C683.58 717.65 635.58 726.17 635.58 726.17" stroke="#231F20" stroke-width="5" stroke-miterlimit="10" stroke-linecap="round" stroke-linejoin="round"/>
<path d="M773.82 300.91C775.12 302.21 801.91 316.61 801.91 316.61" stroke="#231F20" stroke-width="5" stroke-miterlimit="10" stroke-linecap="round" stroke-linejoin="round"/>
<path d="M782.38 277.98L823.38 297.94" stroke="#231F20" stroke-width="5" stroke-miterlimit="10" stroke-linecap="round" stroke-linejoin="round"/>
<path d="M792.61 262.96L807.12 271.15" stroke="#231F20" stroke-width="5" stroke-miterlimit="10" stroke-linecap="round" stroke-linejoin="round"/>
<path d="M797.45 248.99L823.38 261.47" stroke="#231F20" stroke-width="5" stroke-miterlimit="10" stroke-linecap="round" stroke-linejoin="round"/>
<path d="M829.11 278.55L837.63 265.94C839.49 269.29 846.56 271.15 846.56 271.15" stroke="#231F20" stroke-width="5" stroke-miterlimit="10" stroke-linecap="round" stroke-linejoin="round"/>
<path d="M821.63 271.15C824.98 267.43 828.59 269.96 829.82 272.82C831.05 275.69 834.52 283.05 824.89 281.75C822.3 281.4 820.68 279.08 820.32 277.57C819.67 274.76 821.63 271.15 821.63 271.15Z" fill="#231F20"/>
<path d="M861.45 468.54L851.77 424.08L826.84 449.01L834.67 486.33" stroke="#231F20" stroke-width="5" stroke-miterlimit="10" stroke-linecap="round" stroke-linejoin="round"/>
<path d="M853.84 433.59L829.51 457.88" stroke="#231F20" stroke-width="5" stroke-miterlimit="10" stroke-linecap="round" stroke-linejoin="round"/>
<path d="M679.5 292.36C679.5 292.36 679.87 298.69 672.06 300.92C664.25 303.15 657.92 297.94 657.92 297.94L679.5 351.52" stroke="#231F20" stroke-width="5" stroke-miterlimit="10" stroke-linecap="round" stroke-linejoin="round"/>
<path d="M628.89 522.68C628.89 522.68 646.75 513.75 657.91 517.84C669.07 521.93 669.07 529.79 684.33 530.7C699.59 531.61 718.56 523.79 738.66 535.7C758.75 547.61 762.1 561.75 754.29 584.07C746.48 606.4 730.1 609 718.2 608.26C706.29 607.52 689.55 594.86 677.64 582.21C665.73 569.56 665.36 569.93 654.57 569.56C643.78 569.19 635.22 563.23 628.9 551.7C622.58 540.17 611.04 536.82 611.04 536.82L545.18 513.01C545.18 513.01 546.51 514.87 539.52 516.73C532.53 518.59 523.23 510.78 515.04 506.31C506.85 501.84 507.97 494.78 510.95 487.33C513.93 479.89 518.02 475.42 525.09 475.8C532.16 476.18 539.97 479.15 545.56 479.89C551.14 480.63 550.4 483.98 550.77 487.33C551.14 490.68 557.43 494.82 573.1 500.35C591.13 506.73 628.89 522.68 628.89 522.68Z" stroke="#231F20" stroke-width="5" stroke-miterlimit="10" stroke-linecap="round" stroke-linejoin="round"/>
<path d="M534.75 498.12L624.43 530.7" stroke="#231F20" stroke-width="5" stroke-miterlimit="10" stroke-linecap="round" stroke-linejoin="round"/>
<path d="M711.5 550.22C711.5 550.22 700.71 577.01 701.83 577.38C702.95 577.75 711.5 580.73 711.5 580.73L720.8 553.68L711.5 550.22Z" stroke="#231F20" stroke-width="5" stroke-miterlimit="10" stroke-linecap="round" stroke-linejoin="round"/>
<path d="M652.33 553.6C658.698 553.6 663.86 548.438 663.86 542.07C663.86 535.702 658.698 530.54 652.33 530.54C645.962 530.54 640.8 535.702 640.8 542.07C640.8 548.438 645.962 553.6 652.33 553.6Z" stroke="#231F20" stroke-width="5" stroke-miterlimit="10" stroke-linecap="round" stroke-linejoin="round"/>
<path d="M534.75 465.75L530.8 476.56" stroke="#231F20" stroke-width="5" stroke-miterlimit="10" stroke-linecap="round" stroke-linejoin="round"/>
<path d="M546.29 468.73L542.54 478.89" stroke="#231F20" stroke-width="5" stroke-miterlimit="10" stroke-linecap="round" stroke-linejoin="round"/>
<path d="M512.43 519.7L518.03 508.31" stroke="#231F20" stroke-width="5" stroke-miterlimit="10" stroke-linecap="round" stroke-linejoin="round"/>
<path d="M523.22 524.54L527.43 514.41" stroke="#231F20" stroke-width="5" stroke-miterlimit="10" stroke-linecap="round" stroke-linejoin="round"/>
<path d="M504.14 1099.15C504.14 1099.15 495.78 1099.15 490.75 1108.36C485.73 1117.57 492.7 1123.62 492.7 1123.62" stroke="#231F20" stroke-width="5" stroke-miterlimit="10" stroke-linecap="round" stroke-linejoin="round"/>
<path d="M1116.84 925.57C1111.75 927.41 1108.22 931.33 1108.22 935.89C1108.22 942.21 1114.99 947.33 1123.35 947.33C1125.72 947.33 1127.95 946.91 1129.95 946.17C1127.13 937.78 1122.94 930.5 1116.84 925.57Z" fill="#FF3355"/>
<path d="M1103.12 208.51C1103.12 208.51 1109.82 201.13 1136.42 208.51C1163.02 215.89 1168.9 224.38 1168.9 224.38" stroke="#231F20" stroke-width="5" stroke-miterlimit="10" stroke-linecap="round" stroke-linejoin="round"/>
<path d="M676.43 343.89C676.43 343.89 669.55 338.18 663.87 347.64C658.2 357.1 658.66 366.31 663.87 367.15C669.08 367.99 674.57 364.64 679.5 357.94C684.43 351.24 676.43 343.89 676.43 343.89Z" fill="#231F20"/>
<path d="M835.12 479.39C835.12 479.39 832.24 477.1 826.84 480.17C821.44 483.24 814.52 493.57 819.88 496.59C828.61 501.5 833.86 498.58 835.68 494.03C839.35 484.86 835.12 479.39 835.12 479.39Z" fill="#231F20"/>
<path d="M860.63 464.8C860.16 464.53 852.14 464.64 849.91 472.27C847.68 479.9 849.91 490.22 858.84 484.36C867.77 478.5 866.05 467.84 860.63 464.8Z" fill="#231F20"/>
<path d="M1491.77 172.36C1446 163.99 1435.96 118.78 1435.96 118.78" stroke="#231F20" stroke-width="5" stroke-miterlimit="10" stroke-linecap="round" stroke-linejoin="round"/>
<path d="M1485.96 171.45C1451.91 136.1 1458.42 98.05 1458.42 98.05" stroke="#231F20" stroke-width="5" stroke-miterlimit="10" stroke-linecap="round" stroke-linejoin="round"/>
<path d="M1491.77 170.26C1480.61 113.33 1495.65 102.05 1495.65 102.05" stroke="#231F20" stroke-width="5" stroke-miterlimit="10" stroke-linecap="round" stroke-linejoin="round"/>
<path d="M1539.87 299.29C1538.87 309.52 1526.12 313.59 1519.36 305.85C1504.62 288.98 1484.2 261.61 1474.47 230.41C1458.28 178.5 1487.65 171.49 1487.65 171.49C1487.65 171.49 1525.26 160.64 1536.42 215.9C1542.87 247.82 1541.87 278.81 1539.87 299.29Z" stroke="#231F20" stroke-width="5" stroke-miterlimit="10" stroke-linecap="round" stroke-linejoin="round"/>
<path d="M1513.54 199.71C1513.54 199.71 1505.48 205.29 1491.65 207.52C1477.82 209.75 1469.14 207.52 1469.14 207.52" stroke="#231F20" stroke-width="5" stroke-miterlimit="10" stroke-linecap="round" stroke-linejoin="round"/>
<path d="M1527.6 224.82C1527.6 224.82 1515.77 235.42 1501.82 237.66C1487.87 239.89 1476.95 237.66 1476.95 237.66" stroke="#231F20" stroke-width="5" stroke-miterlimit="10" stroke-linecap="round" stroke-linejoin="round"/>
<path d="M1515.77 261.1C1515.77 261.1 1510.75 266.12 1501.82 265.01C1492.89 263.89 1487.65 263.14 1487.65 263.14" stroke="#231F20" stroke-width="5" stroke-miterlimit="10" stroke-linecap="round" stroke-linejoin="round"/>
<path d="M1527.6 283.98C1527.6 283.98 1519.13 291.38 1506.85 290.47" stroke="#231F20" stroke-width="5" stroke-miterlimit="10" stroke-linecap="round" stroke-linejoin="round"/>
<path d="M1635.77 257.75C1635.77 257.75 1625.17 250.49 1614.56 253.84C1603.96 257.19 1598.37 273.44 1603.96 280.66C1609.54 287.89 1618.47 299.05 1625.73 296.82C1632.99 294.59 1635.78 287.27 1635.78 287.27C1635.78 287.27 1640.14 296.27 1647.17 294.03C1654.2 291.8 1659.73 285.06 1661.71 275.04C1663.69 265.01 1664.73 257.05 1658.03 252.35C1651.33 247.65 1644.14 246.59 1635.77 257.75Z" stroke="#231F20" stroke-width="5" stroke-miterlimit="10" stroke-linecap="round" stroke-linejoin="round"/>
<path d="M1635.77 236.54C1635.77 236.54 1627.5 241.84 1632.47 253.84" stroke="#231F20" stroke-width="5" stroke-miterlimit="10" stroke-linecap="round" stroke-linejoin="round"/>
<path d="M1482.01 571.7L1512.15 588.45" stroke="#231F20" stroke-width="5" stroke-miterlimit="10" stroke-linecap="round" stroke-linejoin="round"/>
<path d="M1517.22 698.96C1520.51 696.45 1560.7 643.7 1560.7 643.7C1560.7 643.7 1584.98 637.84 1607.58 651.23C1630.18 664.62 1642.74 687.23 1642.74 687.23L1614.27 753.37C1614.27 753.37 1598.63 724.27 1576.6 711.51C1544.8 693.1 1517.22 698.96 1517.22 698.96Z" stroke="#231F20" stroke-width="5" stroke-miterlimit="10" stroke-linecap="round" stroke-linejoin="round"/>
<path d="M1568.8 670.5L1546.78 700.02" stroke="#231F20" stroke-width="5" stroke-miterlimit="10" stroke-linecap="round" stroke-linejoin="round"/>
<path d="M1619.79 697.9L1601.76 734.7" stroke="#231F20" stroke-width="5" stroke-miterlimit="10" stroke-linecap="round" stroke-linejoin="round"/>
<path d="M1517.22 698.96C1517.22 698.96 1531.43 726.59 1557.79 739.98C1584.15 753.37 1614.28 753.38 1614.28 753.38" stroke="#231F20" stroke-width="5" stroke-miterlimit="10" stroke-linecap="round" stroke-linejoin="round"/>
<path d="M1560.7 643.7C1560.7 643.7 1545.63 641.19 1539.77 614.4C1533.91 587.61 1546.78 580.07 1546.78 580.07C1546.78 580.07 1563.21 574.21 1574.09 585.09C1574.09 585.09 1576.67 559.97 1601.75 564.16C1626.83 568.35 1631.53 588.44 1631.53 588.44C1631.53 588.44 1636.5 572.53 1647.15 580.07C1657.81 587.6 1653.62 598.49 1653.62 598.49C1653.62 598.49 1672.88 590.96 1684.6 609.37C1696.32 627.78 1680.94 647.04 1680.94 647.04C1680.94 647.04 1706.69 650.39 1703.6 670.48C1700.51 690.57 1688.79 694.76 1642.74 687.22" stroke="#231F20" stroke-width="5" stroke-miterlimit="10" stroke-linecap="round" stroke-linejoin="round"/>
<path d="M1368.98 535.7C1403.31 508.07 1406.65 480.84 1396.61 460.13C1386.57 439.42 1368.14 430.8 1347.21 433.02C1326.28 435.24 1322.09 448.19 1321.26 460.13C1320.42 472.07 1319.59 483.75 1311.21 484.19C1302.84 484.63 1299.49 474.12 1288.61 475.61C1277.73 477.1 1255.96 486.38 1261.82 509.37C1267.68 532.36 1283.59 541.61 1312.05 546.36C1340.52 551.1 1368.98 535.7 1368.98 535.7Z" stroke="#231F20" stroke-width="5" stroke-miterlimit="10" stroke-linecap="round" stroke-linejoin="round"/>
<path d="M1302.01 580.08C1302.01 580.08 1314.52 630.31 1319.54 658.78C1324.56 687.25 1322.94 740.83 1322.94 740.83" stroke="#231F20" stroke-width="5" stroke-miterlimit="10" stroke-linecap="round" stroke-linejoin="round"/>
<path d="M1327.2 575.05C1327.2 575.05 1321.51 611.89 1312.59 620.26" stroke="#231F20" stroke-width="5" stroke-miterlimit="10" stroke-linecap="round" stroke-linejoin="round"/>
<path d="M1230.56 544.36C1230.56 544.36 1234.75 542.96 1238.37 540.17C1241.99 537.38 1243.95 535.43 1243.95 535.43C1243.95 535.43 1239.42 528.42 1233 531.49C1226.58 534.56 1230.56 544.36 1230.56 544.36Z" stroke="#231F20" stroke-width="5" stroke-miterlimit="10" stroke-linecap="round" stroke-linejoin="round"/>
<path d="M1222.75 468.54C1222.75 468.54 1201.54 493.28 1209.91 512.82C1218.28 532.35 1233.01 531.48 1233.01 531.48C1233.01 531.48 1241.63 516.73 1236.65 507.8C1231.67 498.87 1219.95 495.31 1218 489.97C1216.05 484.63 1217.17 477.57 1222.75 468.54Z" stroke="#231F20" stroke-width="5" stroke-miterlimit="10" stroke-linecap="round" stroke-linejoin="round"/>
<path d="M1232.52 529.01C1232.74 530.1 1219.96 520.64 1217.17 508.92C1214.38 497.2 1214.38 486.32 1214.38 486.32C1214.38 486.32 1224.73 504.39 1227.52 509.98C1230.31 515.55 1232.02 526.53 1232.52 529.01Z" stroke="#231F20" stroke-width="5" stroke-miterlimit="10" stroke-linecap="round" stroke-linejoin="round"/>
<path d="M1243.96 553.84C1243.96 553.84 1253.84 575.09 1258.74 582.35C1263.64 589.61 1273.82 605.19 1273.82 605.19" stroke="#231F20" stroke-width="5" stroke-miterlimit="10" stroke-linecap="round" stroke-linejoin="round"/>
<path d="M1632.48 255.92C1632.48 253.84 1632.71 241.32 1624.89 238.65C1617.07 235.98 1615.12 238.49 1615.96 242.12C1616.8 245.75 1632.48 255.92 1632.48 255.92Z" stroke="#231F20" stroke-width="5" stroke-miterlimit="10" stroke-linecap="round" stroke-linejoin="round"/>
<path d="M574.02 1177.01C574.02 1177.01 674.01 1163.27 739.87 1154.89C805.73 1146.51 849.109 1145.19 849.109 1145.19" stroke="#231F20" stroke-width="5" stroke-miterlimit="10" stroke-linecap="round" stroke-linejoin="round"/>
<path d="M761.169 1078.93C761.169 1078.93 738.84 1127.06 716.52 1157.89" stroke="#231F20" stroke-width="5" stroke-miterlimit="10" stroke-linecap="round" stroke-linejoin="round"/>
<path d="M755.359 1090.94C761.169 1096.87 803.589 1145.19 803.589 1145.19" stroke="#231F20" stroke-width="5" stroke-miterlimit="10" stroke-linecap="round" stroke-linejoin="round"/>
<path d="M1108.22 590.2C1108.22 590.2 1072.43 594.83 1041.55 627.22" stroke="#231F20" stroke-width="5" stroke-miterlimit="10" stroke-linecap="round" stroke-linejoin="round"/>
<path d="M661.35 452.73L616.26 460.14" stroke="#231F20" stroke-width="5" stroke-miterlimit="10" stroke-linecap="round" stroke-linejoin="round"/>
</svg>
