<svg width="1127" height="938" viewBox="0 0 1127 938" fill="none" xmlns="http://www.w3.org/2000/svg">
<path d="M897.408 186.257C897.408 186.257 902.128 185.64 906.842 185.024C909.466 184.681 911.757 184.242 913.286 183.924C914.381 183.69 915.467 184.347 915.761 185.428C917.049 190.123 920.288 202.082 921.38 207.352C922.755 213.989 937.02 261.34 937.02 261.34" stroke="#EF4056" stroke-width="6.20089" stroke-miterlimit="10" stroke-linecap="round" stroke-linejoin="round"/>
<path d="M939.092 268.921L916.711 182.841L893.271 185.906L914.196 272.846L939.092 268.921Z" fill="#EF4056"/>
<path d="M779.686 177.615C779.686 177.615 779.828 176.409 779.934 179.72C780.463 196.517 782.078 249.851 782.598 262.284C782.636 263.202 783.347 263.944 784.262 264.017C788.905 264.38 799.397 265.614 799.397 265.614C799.397 265.614 801.019 251.638 799.083 239.567C797.147 227.496 796.179 178.653 796.179 178.653C796.179 178.653 793.236 176.321 788.711 176.953C785.73 177.371 779.878 179.478 779.878 179.478" fill="#1CB0A8"/>
<path d="M779.686 177.615C779.686 177.615 779.828 176.409 779.934 179.72C780.463 196.517 782.078 249.851 782.598 262.284C782.636 263.202 783.347 263.944 784.262 264.017C788.905 264.38 799.397 265.614 799.397 265.614C799.397 265.614 801.019 251.638 799.083 239.567C797.147 227.496 796.179 178.653 796.179 178.653C796.179 178.653 793.236 176.321 788.711 176.953C785.73 177.371 779.878 179.478 779.878 179.478" stroke="#1CB0A8" stroke-width="6.20089" stroke-miterlimit="10" stroke-linecap="round" stroke-linejoin="round"/>
<path d="M779.686 177.615C779.686 177.615 779.828 176.409 779.934 179.72C780.463 196.517 782.078 249.851 782.598 262.284C782.636 263.202 783.347 263.944 784.262 264.017C788.905 264.38 799.397 265.614 799.397 265.614C799.397 265.614 801.019 251.638 799.083 239.567C797.147 227.496 796.179 178.653 796.179 178.653C796.179 178.653 793.236 176.321 788.711 176.953C785.73 177.371 779.878 179.478 779.878 179.478" fill="#FCB643"/>
<path d="M779.686 177.615C779.686 177.615 779.828 176.409 779.934 179.72C780.463 196.517 782.078 249.851 782.598 262.284C782.636 263.202 783.347 263.944 784.262 264.017C788.905 264.38 799.397 265.614 799.397 265.614C799.397 265.614 801.019 251.638 799.083 239.567C797.147 227.496 796.179 178.653 796.179 178.653C796.179 178.653 793.236 176.321 788.711 176.953C785.73 177.371 779.878 179.478 779.878 179.478" stroke="#FCB643" stroke-width="6.20089" stroke-miterlimit="10" stroke-linecap="round" stroke-linejoin="round"/>
<path d="M802.18 175.226C802.18 175.226 800.853 206.489 801.859 235.057C802.864 263.624 801.518 267.097 804.508 267.672C807.498 268.247 812.204 270.128 815.508 268.209C818.812 266.291 819.09 262.797 819.41 260.048C819.731 257.3 819.366 252.286 818.701 249.016C818.036 245.745 817.31 209.169 817.345 198.156C817.374 190.782 817.874 182.518 818.197 177.867C818.328 176.037 816.628 174.628 814.851 175.084C811.423 175.966 807.856 176.134 804.355 175.573L802.18 175.226Z" fill="#EF4056" stroke="#EF4056" stroke-width="6.20089" stroke-miterlimit="10" stroke-linecap="round" stroke-linejoin="round"/>
<path d="M896.087 262.959C894.968 245.588 892.507 217.146 891.049 197.327C890.339 187.666 887.988 178.258 886.944 174.447C886.655 173.398 885.709 172.671 884.62 172.663C880.961 172.649 872.636 172.616 867.658 172.678C861.15 172.755 848.146 172.164 848.146 172.164" stroke="#95D5D2" stroke-width="6.20089" stroke-miterlimit="10" stroke-linecap="round" stroke-linejoin="round"/>
<path d="M846.336 236.508L844.846 173.324L885.807 174.403L891.362 202.927L895.839 272.412L848.576 271.167L846.336 236.508Z" fill="#95D5D2"/>
<path d="M858.163 191.457C858.163 191.457 867.434 191.198 869.92 191.767C872.407 192.335 873.155 192.479 873.155 192.479" stroke="black" stroke-width="3.78236" stroke-miterlimit="10" stroke-linecap="round" stroke-linejoin="round"/>
<path d="M860.327 204.279L872.593 204.353" stroke="black" stroke-width="3.78236" stroke-miterlimit="10" stroke-linecap="round" stroke-linejoin="round"/>
<path d="M873.062 237.677C872.503 236.918 872.134 236.026 872.131 235.082C872.121 233.627 871.533 231.627 868.326 231.701C863.312 231.817 858.193 236.19 858.792 241.967C859.392 247.738 863.863 249.11 866.598 249.685C869.34 250.261 872.521 247.236 873.767 243.616C874.745 240.774 873.894 238.802 873.062 237.677Z" fill="black"/>
<path d="M840.374 175.645C840.354 176.396 836.627 175.299 830.346 176.133C824.066 176.967 822.859 175.439 821.61 184.669C820.361 193.9 823.109 251.302 823.109 251.302L824.162 268.354C825.422 268.139 842.794 264.337 842.794 264.337C842.794 264.337 840.229 181.155 839.603 176.383" fill="#1CB0A8"/>
<path d="M840.374 175.645C840.354 176.396 836.627 175.299 830.346 176.133C824.066 176.967 822.859 175.439 821.61 184.669C820.361 193.9 823.109 251.302 823.109 251.302L824.162 268.354C825.422 268.139 842.794 264.337 842.794 264.337C842.794 264.337 840.229 181.155 839.603 176.383" stroke="#1CB0A8" stroke-width="6.20089" stroke-miterlimit="10" stroke-linecap="round" stroke-linejoin="round"/>
<path d="M840.698 174.206L847.002 265.613" stroke="black" stroke-width="3.78236" stroke-linecap="round"/>
<path d="M794.995 177.358L798.147 264.037" stroke="black" stroke-width="3.78236" stroke-linecap="round"/>
<path d="M282.552 114.195C282.552 114.195 276.923 125.46 276.923 136.718C276.923 147.977 276.923 171.405 276.923 171.405C276.923 171.405 361.393 174.781 372.651 171.405C372.651 171.405 370.398 141.224 372.651 132.212C374.904 123.201 372.651 114.195 372.651 114.195C372.651 114.195 348.998 114.195 333.234 114.195C317.47 114.195 297.193 119.824 282.552 114.195Z" fill="#EF4056"/>
<path d="M280.997 136.718C280.997 136.718 281.429 138.971 305.082 136.718C328.735 134.465 367.676 136.718 367.676 136.718" stroke="black" stroke-width="3.78236" stroke-miterlimit="10" stroke-linecap="round" stroke-linejoin="round"/>
<path d="M333.233 114.195C333.233 114.195 324.814 105.817 301.698 100.677C271.293 93.9184 244.512 100.677 244.512 100.677" stroke="black" stroke-width="3.78236" stroke-miterlimit="10" stroke-linecap="round" stroke-linejoin="round"/>
<path d="M373.65 55.6312C373.65 55.6312 373.774 65.7662 358.01 72.5252C342.246 79.2841 320.095 89.4191 333.234 114.195C333.234 114.195 330.609 105.183 342.997 99.9262C355.385 94.6692 373.092 87.1593 374.718 75.1502C376.344 63.1411 373.65 55.6312 373.65 55.6312Z" fill="#00CB77" stroke="#00CB77" stroke-width="6.20089" stroke-miterlimit="10" stroke-linecap="round" stroke-linejoin="round"/>
<path d="M373.65 55.6312C373.65 55.6312 376.344 63.1411 374.718 75.1502C373.092 87.1593 355.385 94.6692 342.997 99.9262C330.609 105.183 333.234 114.195 333.234 114.195" stroke="black" stroke-width="3.78236" stroke-miterlimit="10" stroke-linecap="round" stroke-linejoin="round"/>
<path d="M290.062 81.5371C300.83 77.4504 317.093 56.1265 317.463 55.6396C316.979 55.7584 289.284 62.5237 267.539 61.2671C255.172 60.5505 245.767 57.5121 236.383 71.7811C230.747 80.3383 250.769 83.2803 250.769 83.2803C251.651 85.1543 256.253 86.553 267.539 86.7941C273.616 86.925 279.176 85.6642 290.062 81.5371Z" fill="#00CB77"/>
<path d="M317.47 55.6312C317.47 55.6312 300.955 77.4032 290.062 81.5371C279.176 85.6642 273.616 86.925 267.539 86.7941C256.253 86.553 251.651 85.1543 250.769 83.2803C250.769 83.2803 230.747 80.3383 236.383 71.7811C245.767 57.5121 255.172 60.5505 267.539 61.2671C289.476 62.5348 317.47 55.6381 317.47 55.6381" stroke="#00CB77" stroke-width="6.20089" stroke-miterlimit="10" stroke-linecap="round" stroke-linejoin="round"/>
<path d="M291.936 99.0513C290.813 98.6793 262.654 96.9293 255.523 90.5423C248.392 84.1623 247.641 74.0273 259.65 69.5213C271.66 65.0153 294.189 62.0113 303.952 59.7583C307.29 58.9882 309.925 58.2623 311.948 57.6404M250.769 83.2804C251.651 85.1545 256.254 86.5531 267.539 86.7943C271.657 86.8829 275.537 86.3327 280.997 84.685" stroke="black" stroke-width="3.78236" stroke-miterlimit="10" stroke-linecap="round" stroke-linejoin="round"/>
<path d="M200.07 88.9991C197.018 85.6575 193.394 80.9173 191.175 76.2804C187.048 67.6474 191.548 56.7613 196.054 46.9984C200.56 37.2354 204.687 29.7323 207.318 19.5904C208.807 13.858 209.379 8.2359 209.599 4.43268C209.627 3.89527 210.391 3.84015 210.502 4.37067C211.583 9.66899 214.036 18.867 219.334 28.9744C227.595 44.7385 234.354 56.7545 229.097 68.7704C226.831 73.9447 223.806 78.7676 221.091 82.5846" fill="#00CB77"/>
<path d="M200.07 88.9991C197.018 85.6575 193.394 80.9173 191.175 76.2804C187.048 67.6474 191.548 56.7613 196.054 46.9984C200.56 37.2354 204.687 29.7323 207.318 19.5904C208.807 13.858 209.379 8.2359 209.599 4.43268C209.627 3.89527 210.391 3.84015 210.502 4.37067C211.583 9.66899 214.036 18.867 219.334 28.9744C227.595 44.7385 234.354 56.7545 229.097 68.7704C226.831 73.9447 223.806 78.7676 221.091 82.5846" stroke="#00CB77" stroke-width="6.20089" stroke-miterlimit="10" stroke-linecap="round" stroke-linejoin="round"/>
<path d="M215.727 105.935C215.727 105.935 214.225 123.201 223.237 130.711C232.249 138.221 244.637 144.229 252.147 132.213C259.657 120.197 246.139 99.9266 230.747 87.9106C215.355 75.8947 204.469 63.5067 202.588 55.6246C202.588 55.6246 207.094 70.2656 202.588 92.4166C198.082 114.568 193.576 123.986 197.331 135.609C201.086 147.233 213.474 142.616 218.352 136.663C223.23 130.711 221.852 129.333 221.852 129.333" fill="#00CB77"/>
<path d="M215.727 105.935C215.727 105.935 214.225 123.201 223.237 130.711C232.249 138.221 244.637 144.229 252.147 132.213C259.657 120.197 246.139 99.9266 230.747 87.9106C215.355 75.8947 204.469 63.5067 202.588 55.6246C202.588 55.6246 207.094 70.2656 202.588 92.4166C198.082 114.568 193.576 123.986 197.331 135.609C201.086 147.233 213.474 142.616 218.352 136.663C223.23 130.711 221.852 129.333 221.852 129.333" stroke="#00CB77" stroke-width="6.20089" stroke-miterlimit="10" stroke-linecap="round" stroke-linejoin="round"/>
<path d="M215.727 105.935C215.727 105.935 214.225 123.201 223.237 130.711C232.249 138.221 244.637 144.229 252.147 132.213M230.747 87.9106C215.355 75.8947 204.469 63.5067 202.588 55.6246C202.588 55.6246 207.094 70.2656 202.588 92.4166C198.082 114.568 193.576 123.986 197.331 135.609C201.086 147.233 213.474 142.616 218.352 136.663C223.23 130.711 221.852 129.333 221.852 129.333" stroke="black" stroke-width="3.78236" stroke-miterlimit="10" stroke-linecap="round" stroke-linejoin="round"/>
<path d="M145.236 33.0119C144.224 31.1034 146.105 28.9607 148.13 29.7117C151.155 30.8278 155.199 33.2324 159.416 38.3653C168.049 48.8793 169.551 54.1294 170.302 64.2713C171.053 74.4132 175.18 79.9458 178.184 88.9991C181.188 98.0524 181.56 106.692 176.682 114.202C171.804 121.712 161.29 121.333 155.282 114.202C149.274 107.071 148.151 96.1852 148.902 82.2952C149.653 68.4052 153.029 57.8913 151.906 50.0092C151.182 44.9245 147.655 37.5937 145.236 33.0119Z" fill="#00CB77" stroke="#00CB77" stroke-width="6.20089" stroke-miterlimit="10" stroke-linecap="round" stroke-linejoin="round"/>
<path d="M145.236 33.0118C147.654 37.5936 151.182 44.9244 151.905 50.0091C153.029 57.8912 149.652 68.4051 148.901 82.2951C148.15 96.1851 149.274 107.071 155.282 114.202C161.289 121.333 171.803 121.712 176.681 114.202C178.277 111.746 177.993 109.169 178.557 106.496" stroke="black" stroke-width="3.78236" stroke-miterlimit="10" stroke-linecap="round" stroke-linejoin="round"/>
<path d="M159.415 88.9993C159.415 88.9993 162.04 102.559 172.554 105.941C183.068 109.318 199.563 105.941 199.563 105.941" stroke="black" stroke-width="3.78236" stroke-miterlimit="10" stroke-linecap="round" stroke-linejoin="round"/>
<path d="M196.235 122.036C196.235 122.036 185.322 128.457 173.685 129.959C162.048 131.461 127.888 122.787 108.362 125.998C94.6577 128.251 70.9565 136.512 52.9877 144.869C45.3606 148.417 38.767 151.98 34.4057 155.114C19.7647 165.628 9.25074 172.008 5.1237 175.384C0.996658 178.76 -0.505336 168.625 10.0017 161.494C20.5088 154.363 28.7698 150.608 41.7848 149.857" stroke="black" stroke-width="3.78236" stroke-miterlimit="10" stroke-linecap="round" stroke-linejoin="round"/>
<path d="M154.909 146.481C154.909 146.481 145.146 138.489 136.141 136.67C127.129 134.844 123.14 135.237 112.867 142.795C104.903 148.659 100.1 157.367 89.2144 159.62C78.3284 161.873 63.6874 167.881 94.0924 167.881C124.497 167.881 143.272 165.256 150.403 158.869C157.534 152.482 154.909 146.481 154.909 146.481Z" fill="#00CB77" stroke="#00CB77" stroke-width="6.20089" stroke-miterlimit="10" stroke-linecap="round" stroke-linejoin="round"/>
<path d="M89.2144 159.62C78.3284 161.873 63.6874 167.881 94.0924 167.881C124.497 167.881 143.272 165.256 150.403 158.869C154.655 155.062 155.439 151.391 155.378 149.047" stroke="black" stroke-width="3.78236" stroke-miterlimit="10" stroke-linecap="round" stroke-linejoin="round"/>
<path d="M129.011 149.051C129.011 149.051 126.758 153.268 139.897 151.566C153.036 149.864 185.9 135.712 195.939 126.459" stroke="black" stroke-width="3.78236" stroke-miterlimit="10" stroke-linecap="round" stroke-linejoin="round"/>
<path d="M81.4264 130.446C81.4264 130.446 71.2735 123.775 52.3756 123.775C41.3975 123.775 32.7288 127.596 48.2216 130.62C63.7144 133.643 74.6717 132.423 74.6717 132.423" stroke="black" stroke-width="6.2415" stroke-miterlimit="10" stroke-linecap="round" stroke-linejoin="round"/>
<rect x="266.766" y="498.208" width="91.4071" height="63.0394" rx="12.6079" transform="rotate(-3.54509 266.766 498.208)" fill="#EF4056"/>
<path d="M333.836 524.569C335.811 525.693 335.983 528.474 334.162 529.834L308.736 548.816C306.729 550.314 303.86 548.985 303.705 546.485L301.556 511.805C301.401 509.304 304.085 507.631 306.262 508.871L333.836 524.569Z" fill="white"/>
<path d="M414.121 542.861C414.121 542.861 414.121 535.854 418.607 535.103C419.92 534.884 421.712 534.719 423.666 534.538L423.667 534.538C428.416 534.099 434.123 533.572 436.252 531.975C439.256 529.722 435.88 519.587 435.88 519.587C435.88 519.587 440.386 519.208 447.145 515.081C453.904 510.954 456.157 506.82 457.28 495.934C458.41 485.048 457.597 475.602 457.597 475.602L453.532 474.162C455.778 465.157 470.047 436.619 514.721 436.247C559.395 435.875 564.652 478.296 564.652 478.296C564.652 478.296 560.525 477.917 559.774 478.668C559.023 479.419 561.654 499.696 566.533 506.827C571.417 513.958 579.299 513.958 579.299 513.958C579.299 513.958 580.422 524.472 583.426 527.097C584.481 528.021 586.499 528.386 588.683 528.475C593.568 528.675 597.489 532.582 597.661 537.467L597.695 538.355L598.067 558.253L413.332 560.323L414.121 542.861Z" fill="#FCB643"/>
<path d="M425.303 543.24C425.303 543.24 482.011 544.659 506.771 543.95C531.53 543.24 588.239 538.355 588.239 538.355" stroke="black" stroke-width="3.78236" stroke-miterlimit="10" stroke-linecap="round" stroke-linejoin="round"/>
<path d="M508.912 517.707C530.267 517.707 547.578 502.579 547.578 483.919C547.578 465.258 530.267 450.131 508.912 450.131C487.557 450.131 470.246 465.258 470.246 483.919C470.246 502.579 487.557 517.707 508.912 517.707Z" fill="white" stroke="black" stroke-width="3.78236" stroke-miterlimit="10" stroke-linecap="round" stroke-linejoin="round"/>
<path d="M463.673 528.971C463.673 528.971 495.208 530.094 509.47 530.094C523.739 530.094 553.393 526.718 558.271 525.967" stroke="black" stroke-width="3.78236" stroke-miterlimit="10" stroke-linecap="round" stroke-linejoin="round"/>
<path d="M506.466 459.894L507.217 462.898" stroke="black" stroke-width="3.78236" stroke-miterlimit="10" stroke-linecap="round" stroke-linejoin="round"/>
<path d="M519.984 460.273L518.861 463.649" stroke="black" stroke-width="3.78236" stroke-miterlimit="10" stroke-linecap="round" stroke-linejoin="round"/>
<path d="M531.249 468.905L528.431 471.344" stroke="black" stroke-width="3.78236" stroke-miterlimit="10" stroke-linecap="round" stroke-linejoin="round"/>
<path d="M539.696 482.423L535.004 482.547" stroke="black" stroke-width="3.78236" stroke-miterlimit="10" stroke-linecap="round" stroke-linejoin="round"/>
<path d="M489.827 465.398L492.328 469.153" stroke="black" stroke-width="3.78236" stroke-miterlimit="10" stroke-linecap="round" stroke-linejoin="round"/>
<path d="M481.064 475.665L485.57 477.918" stroke="black" stroke-width="3.78236" stroke-miterlimit="10" stroke-linecap="round" stroke-linejoin="round"/>
<path d="M479.065 488.177L483.068 488.425" stroke="black" stroke-width="3.78236" stroke-miterlimit="10" stroke-linecap="round" stroke-linejoin="round"/>
<path d="M486.32 499.938L489.827 497.189" stroke="black" stroke-width="3.78236" stroke-miterlimit="10" stroke-linecap="round" stroke-linejoin="round"/>
<path d="M500.59 508.198L503.091 502.19" stroke="black" stroke-width="3.78236" stroke-miterlimit="10" stroke-linecap="round" stroke-linejoin="round"/>
<path d="M520.356 505.698L518.358 501.192" stroke="black" stroke-width="3.78236" stroke-miterlimit="10" stroke-linecap="round" stroke-linejoin="round"/>
<path d="M530.375 494.432L533.372 495.686" stroke="black" stroke-width="3.78236" stroke-miterlimit="10" stroke-linecap="round" stroke-linejoin="round"/>
<path d="M509.467 481.523V461.036" stroke="#FCB643" stroke-width="6.20938" stroke-linecap="round" stroke-linejoin="round"/>
<circle cx="509.467" cy="483.099" r="6.30394" fill="black"/>
<path d="M211.075 468.438L200.286 472.813L225.335 561.6L238.515 557.233C238.515 557.233 228.174 522.385 225.491 514.55C222.807 506.714 215.127 482.222 214.283 478.354C213.446 474.48 211.075 468.438 211.075 468.438Z" fill="#95D5D2" stroke="#95D5D2" stroke-width="6.20089" stroke-miterlimit="10" stroke-linecap="round" stroke-linejoin="round"/>
<path d="M226.226 470.343C229.344 469.693 233.07 468.597 235.522 467.725C236.077 467.53 236.69 467.81 236.907 468.353C238.21 471.596 241.795 482.705 244.114 487.519C246.892 493.278 256.683 528.703 260.792 539.911C262.641 544.963 264.3 548.656 265.408 550.935C266.15 552.47 265.511 554.311 263.976 555.046C259.098 557.386 250.527 560.39 250.589 559.649C250.673 558.654 229.084 492.726 229.084 492.726L224.432 473.165C224.139 471.882 224.945 470.608 226.226 470.343Z" fill="#1CB0A8" stroke="#1CB0A8" stroke-width="6.20089" stroke-miterlimit="10" stroke-linecap="round" stroke-linejoin="round"/>
<path d="M619.786 580.81C621.046 579.55 620.311 633.869 619.786 661.186L600.874 662.762L594.57 585.538C602.45 584.488 618.525 582.071 619.786 580.81Z" fill="#F9BFD1"/>
<path d="M619.615 582.279L598.973 585.283L602.349 661.871" stroke="#F9BFD1" stroke-width="6.20089" stroke-miterlimit="10" stroke-linecap="round" stroke-linejoin="round"/>
<path d="M487.698 624.251L485.823 599.475L423.504 600.908L404.358 601.349C404.358 601.349 406.61 605.104 407.361 611.484C408.112 617.864 407.734 623.872 407.734 623.872L487.698 624.251Z" fill="#EF4056" stroke="#EF4056" stroke-width="6.20089" stroke-miterlimit="10" stroke-linecap="round" stroke-linejoin="round"/>
<path d="M423.505 600.97C423.505 600.97 426.13 604.347 426.881 611.105C427.632 617.864 426.509 624.623 426.509 624.623" fill="#EF4056"/>
<path d="M423.505 600.97C423.505 600.97 426.13 604.347 426.881 611.105C427.632 617.864 426.509 624.623 426.509 624.623" stroke="black" stroke-width="3.78236" stroke-miterlimit="10" stroke-linecap="round" stroke-linejoin="round"/>
<path d="M436.265 611.857C436.265 611.857 438.89 614.861 442.645 614.861C444.526 614.861 446.682 614.013 448.37 613.173C449.934 612.394 451.753 612.304 453.352 613.007C454.282 613.414 455.563 613.738 457.279 613.738C461.785 613.738 465.912 612.987 469.667 614.11C473.422 615.233 473.422 615.233 473.422 615.233" fill="#EF4056"/>
<path d="M436.265 611.857C436.265 611.857 438.89 614.861 442.645 614.861C444.526 614.861 446.682 614.013 448.37 613.173C449.934 612.394 451.753 612.304 453.352 613.007C454.282 613.414 455.563 613.738 457.279 613.738C461.785 613.738 465.912 612.987 469.667 614.11C473.422 615.233 473.422 615.233 473.422 615.233" stroke="black" stroke-width="3.78236" stroke-miterlimit="10" stroke-linecap="round" stroke-linejoin="round"/>
<path d="M399.102 643.168C399.102 643.168 397.978 633.033 396.848 627.404H490.702L491.826 645.8L399.102 643.168Z" fill="#1CB0A8" stroke="#1CB0A8" stroke-width="6.20089" stroke-miterlimit="10" stroke-linecap="round" stroke-linejoin="round"/>
<path d="M390.089 660.434C390.089 660.434 390.84 655.556 390.089 650.671C389.338 645.793 387.836 642.789 387.836 642.789L491.825 645.793L492.197 659.683L390.089 660.434Z" fill="#F9BFD1" stroke="#F9BFD1" stroke-width="6.20089" stroke-miterlimit="10" stroke-linecap="round" stroke-linejoin="round"/>
<path d="M588.266 662.762L578.81 576.082L592.888 574.803C594.667 574.641 596.225 575.989 596.321 577.773L600.874 662.762H588.266Z" fill="#EF4056"/>
<path d="M553.394 621.324C554.896 632.217 557.149 662.622 557.149 662.622H571.418L569.355 626.514C569.355 618.253 564.659 587.915 564.659 587.915H550.769C550.769 587.915 551.892 610.438 553.394 621.324Z" fill="#95D5D2" stroke="#95D5D2" stroke-width="6.20089" stroke-miterlimit="10" stroke-linecap="round" stroke-linejoin="round"/>
<path d="M520.591 658.859C520.591 658.859 524.967 621.632 527.183 609.798C529.398 597.965 532.823 575.215 534.564 571.392L547.486 575.432C547.486 575.432 545.454 586.537 544.712 592.539C543.968 598.548 537.944 640.78 536.64 652.07C535.337 663.36 535.337 663.36 535.337 663.36L520.591 658.859Z" fill="#FCB643" stroke="#FCB643" stroke-width="6.20089" stroke-miterlimit="10" stroke-linecap="round" stroke-linejoin="round"/>
<path d="M568.414 569.897L573.671 662.249H586.059L579.3 568.774L568.414 569.897Z" fill="#1CB0A8" stroke="#1CB0A8" stroke-width="6.20089" stroke-miterlimit="10" stroke-linecap="round" stroke-linejoin="round"/>
<circle cx="607.178" cy="593.418" r="3.15197" fill="black"/>
<path d="M607.178 599.722C605.437 599.722 604.026 601.133 604.026 602.874V607.602C604.026 609.343 605.437 610.754 607.178 610.754C608.919 610.754 610.33 609.343 610.33 607.602V602.874C610.33 601.133 608.919 599.722 607.178 599.722Z" fill="black"/>
<circle cx="607.178" cy="618.634" r="3.15197" fill="black"/>
<path d="M467.801 282.7L487.575 191.602L474.808 188.095L453.532 280.199C453.539 280.199 468.304 282.197 467.801 282.7Z" fill="#EF4056" stroke="#EF4056" stroke-width="6.20089" stroke-miterlimit="10" stroke-linecap="round" stroke-linejoin="round"/>
<path d="M192.625 189.597C192.625 191.285 194.878 235.208 197.696 250.414C200.514 265.62 203.325 283.072 203.325 283.072L216.843 280.254C216.843 280.254 213.466 241.402 212.337 226.761C211.213 212.12 208.961 187.344 207.266 187.344C205.571 187.344 192.625 189.597 192.625 189.597Z" fill="#EF4056" stroke="#EF4056" stroke-width="6.20089" stroke-miterlimit="10" stroke-linecap="round" stroke-linejoin="round"/>
<path d="M210.077 189.852L233.71 187.406C234.034 187.371 234.33 187.599 234.378 187.922C234.847 190.995 237.079 205.712 238.422 214.752C239.924 224.887 242.549 249.291 243.679 258.675C244.465 265.206 245.795 273.55 246.525 278.028C246.794 279.675 245.498 281.156 243.831 281.101L216.836 280.261L210.077 189.852Z" fill="#FCB643" stroke="#FCB643" stroke-width="6.20089" stroke-miterlimit="10" stroke-linecap="round" stroke-linejoin="round"/>
<path d="M221.907 201.234C221.907 201.234 223.409 203.859 223.781 209.116C224.153 214.373 224.532 225.259 225.283 229.765C226.034 234.271 227.908 239.149 227.908 239.149" stroke="black" stroke-width="3.78236" stroke-miterlimit="10" stroke-linecap="round" stroke-linejoin="round"/>
<path d="M226.034 271.062L236.92 269.56" stroke="black" stroke-width="3.78236" stroke-miterlimit="10" stroke-linecap="round" stroke-linejoin="round"/>
<path d="M249.687 186.221L274.842 277.822L258.32 281.949L236.92 189.597L249.687 186.221Z" fill="#1CB0A8"/>
<path d="M276.457 190.656C275.976 189.022 274.282 188.066 272.634 188.498L255.817 192.91C254.103 193.36 253.096 195.133 253.589 196.835L277.354 278.963C277.833 280.619 279.553 281.582 281.215 281.127L298.393 276.418C300.095 275.951 301.082 274.179 300.583 272.487L276.457 190.656Z" fill="#95D5D2" stroke="#95D5D2" stroke-width="6.20089" stroke-miterlimit="10" stroke-linecap="round" stroke-linejoin="round"/>
<path d="M263.578 207.992H271.088" stroke="black" stroke-width="3.78236" stroke-miterlimit="10" stroke-linecap="round" stroke-linejoin="round"/>
<path d="M268.455 220.76L272.589 220.381" stroke="black" stroke-width="3.78236" stroke-miterlimit="10" stroke-linecap="round" stroke-linejoin="round"/>
<path d="M281.594 266.936L284.977 265.055" stroke="black" stroke-width="3.78236" stroke-miterlimit="10" stroke-linecap="round" stroke-linejoin="round"/>
<path d="M251.005 544.868L254.388 542.987" stroke="black" stroke-width="3.78236" stroke-miterlimit="10" stroke-linecap="round" stroke-linejoin="round"/>
<path d="M232.093 488.132L235.476 486.251" stroke="black" stroke-width="3.78236" stroke-miterlimit="10" stroke-linecap="round" stroke-linejoin="round"/>
<path d="M277.846 184.718L306.377 284.201L319.144 279.323L290.985 179.461C290.985 179.461 281.973 180.585 277.846 184.718Z" fill="#FCB643" stroke="#FCB643" stroke-width="6.20089" stroke-miterlimit="10" stroke-linecap="round" stroke-linejoin="round"/>
<path d="M295.862 196.356L306.748 192.229C306.748 192.229 311.626 210.997 317.262 223.764C322.891 236.531 337.16 277.45 337.16 277.45L321.396 282.707L319.143 279.331" fill="#EF4056" stroke="#EF4056" stroke-width="6.20089" stroke-miterlimit="10" stroke-linecap="round" stroke-linejoin="round"/>
<path d="M315.621 270.341L332.957 265.614L337.865 278.068L320.349 282.949L315.621 270.341Z" fill="#F9BFD1" stroke="#F9BFD1" stroke-width="6.20938" stroke-linecap="round" stroke-linejoin="round"/>
<path d="M315.621 268.765L332.956 262.462" stroke="black" stroke-width="3.78236" stroke-miterlimit="10" stroke-linecap="round" stroke-linejoin="round"/>
<path d="M509.098 179.09C509.601 180.089 502.842 286.455 502.842 286.455L486.072 285.201L491.825 179.586L509.098 179.09Z" fill="#F9BFD1" stroke="#F9BFD1" stroke-width="6.20089" stroke-miterlimit="10" stroke-linecap="round" stroke-linejoin="round"/>
<path d="M517.875 191.326L543.34 191.14C546.372 191.119 548.818 193.62 548.721 196.652C548.074 217.115 544.98 285.717 544.766 285.077C544.649 284.718 536.065 283.327 527.121 283.203C517.427 283.065 507.334 284.208 507.726 284.078C508.388 283.857 512.901 212.492 513.893 195.108C514.01 192.993 515.753 191.34 517.875 191.326Z" fill="#FCB643" stroke="#FCB643" stroke-width="6.20089" stroke-miterlimit="10" stroke-linecap="round" stroke-linejoin="round"/>
<path d="M524.366 204.865L532.372 205.864" stroke="black" stroke-width="3.78236" stroke-miterlimit="10" stroke-linecap="round" stroke-linejoin="round"/>
<path d="M521.61 216.626C521.61 216.626 531.366 216.819 533.867 216.819C536.368 216.819 540.13 217.873 540.13 217.873" stroke="black" stroke-width="3.78236" stroke-miterlimit="10" stroke-linecap="round" stroke-linejoin="round"/>
<path d="M517.607 259.928C517.607 259.928 526.364 261.182 536.127 260.927" stroke="black" stroke-width="3.78236" stroke-miterlimit="10" stroke-linecap="round" stroke-linejoin="round"/>
<path d="M521.858 271.186H528.872" stroke="black" stroke-width="3.78236" stroke-miterlimit="10" stroke-linecap="round" stroke-linejoin="round"/>
<path d="M217.91 475.219L245.093 560.391" stroke="black" stroke-width="3.78236" stroke-linecap="round" stroke-linejoin="round"/>
<path d="M551.636 182.369C550.664 182.355 549.858 183.106 549.81 184.078C549.162 197.72 544.946 287.192 545.635 286.957C546.386 286.709 561.151 286.957 561.151 286.957L566.311 184.45C566.36 183.43 565.56 182.576 564.541 182.562L551.636 182.369Z" fill="#EF4056" stroke="black" stroke-width="3.78236" stroke-miterlimit="10" stroke-linecap="round" stroke-linejoin="round"/>
<path d="M551.636 182.369C550.664 182.355 549.858 183.106 549.81 184.078C549.162 197.72 544.946 287.192 545.635 286.957C546.386 286.709 561.151 286.957 561.151 286.957L566.311 184.45C566.36 183.43 565.56 182.576 564.541 182.562L551.636 182.369Z" stroke="#EF4056" stroke-width="6.20089" stroke-miterlimit="10" stroke-linecap="round" stroke-linejoin="round"/>
<path d="M584.681 284.202C584.681 283.313 587.457 198.843 588.071 180.378C588.133 178.456 586.568 176.871 584.639 176.919L570.212 177.264C568.483 177.305 567.07 178.649 566.946 180.378C565.706 198.023 559.574 286.51 561.152 286.958C562.909 287.454 584.681 284.202 584.681 284.202Z" fill="#FCB643" stroke="#FCB643" stroke-width="6.20089" stroke-miterlimit="10" stroke-linecap="round" stroke-linejoin="round"/>
<path d="M584.681 284.202C584.681 283.313 587.457 198.843 588.071 180.378C588.133 178.456 586.568 176.871 584.639 176.919L570.212 177.264C568.483 177.305 567.07 178.649 566.946 180.378C565.706 198.023 559.574 286.51 561.152 286.958C562.909 287.454 584.681 284.202 584.681 284.202Z" fill="#95D5D2" stroke="#95D5D2" stroke-width="6.20089" stroke-miterlimit="10" stroke-linecap="round" stroke-linejoin="round"/>
<path d="M607.534 191.718C607.623 190.354 606.493 189.224 605.129 189.328C602.773 189.5 599.273 189.652 596.696 189.348C595.401 189.197 594.291 188.976 593.375 188.742C591.714 188.315 590.088 189.541 589.999 191.25C589.069 209.308 585.045 286.151 585.934 285.703C586.933 285.2 601.202 286.454 601.202 286.454L607.534 191.718Z" fill="#1CB0A8" stroke="#1CB0A8" stroke-width="6.20089" stroke-miterlimit="10" stroke-linecap="round" stroke-linejoin="round"/>
<path d="M606.328 201.86C605.329 201.612 603.82 200.42 599.197 199.856C595.153 199.366 589.689 200.358 589.689 200.358M586.69 275.07L600.874 276.646" stroke="black" stroke-width="3.78236" stroke-miterlimit="10" stroke-linecap="round" stroke-linejoin="round"/>
<path d="M197.503 562.946L619.722 557.882" stroke="black" stroke-width="3.78236" stroke-miterlimit="10" stroke-linecap="round" stroke-linejoin="round"/>
<path d="M447.152 758.35L444.34 742.579L572.733 740.767L569.915 760.038L447.152 758.35Z" fill="#1CB0A8" stroke="#1CB0A8" stroke-width="6.20089" stroke-miterlimit="10" stroke-linecap="round" stroke-linejoin="round"/>
<path d="M424.628 721.743V740.332L589.062 736.949V718.367L432.244 721.743" fill="#FCB643" stroke="#FCB643" stroke-width="6.20089" stroke-miterlimit="10" stroke-linecap="round" stroke-linejoin="round"/>
<path d="M438.704 718.034L440.957 703.393L567.097 702.828L565.974 715.526L438.704 718.034Z" fill="#EF4056" stroke="#EF4056" stroke-width="6.20089" stroke-miterlimit="10" stroke-linecap="round" stroke-linejoin="round"/>
<path d="M457.852 676.401L459.354 699.42L552.836 699.296L550.769 677.152L465.34 676.401" fill="#95D5D2" stroke="#95D5D2" stroke-width="6.20089" stroke-miterlimit="10" stroke-linecap="round" stroke-linejoin="round"/>
<path d="M531.531 700.585L529.955 676.946H552.018L553.594 699.009L531.531 700.585Z" fill="#1CB0A8" stroke="#1CB0A8" stroke-width="6.20938" stroke-linejoin="round"/>
<path d="M528.803 677.276L529.933 699.296" stroke="black" stroke-width="3.78236" stroke-miterlimit="10" stroke-linecap="round" stroke-linejoin="round"/>
<path d="M470.991 684.656L471.432 689.727" stroke="black" stroke-width="3.78236" stroke-miterlimit="10" stroke-linecap="round" stroke-linejoin="round"/>
<path d="M479.815 684.849L479.877 689.162" stroke="black" stroke-width="3.78236" stroke-miterlimit="10" stroke-linecap="round" stroke-linejoin="round"/>
<path d="M489.014 685.035V688.79" stroke="black" stroke-width="3.78236" stroke-miterlimit="10" stroke-linecap="round" stroke-linejoin="round"/>
<path d="M511.043 194.694L504.739 281.373" stroke="black" stroke-width="3.78236" stroke-linecap="round" stroke-linejoin="round"/>
<path d="M273.069 185.238L304.589 279.797" stroke="black" stroke-width="3.78236" stroke-linecap="round" stroke-linejoin="round"/>
<path d="M422.788 739.985H589.842" stroke="black" stroke-width="3.78236" stroke-linecap="round"/>
<path d="M843.576 394.844L871.943 397.996V420.06H843.576V394.844Z" fill="#95D5D2"/>
<path d="M909.767 587.114L991.718 478.371L1032.69 490.979C1032.69 517.771 1034.75 589.418 1023.24 617.058C1015.36 635.97 909.767 617.058 909.767 587.114Z" fill="#FFFBE3"/>
<path d="M516.416 400.764C516.416 400.764 525.428 386.123 555.833 383.305C586.245 380.487 594.127 389.499 594.127 389.499" stroke="black" stroke-width="3.78236" stroke-miterlimit="10" stroke-linecap="round" stroke-linejoin="round"/>
<path d="M602.016 369.236C601.14 361.382 601.802 327.628 601.451 312.925C601.361 309.101 598.164 306.097 594.34 306.235L564.052 309.087C560.828 309.391 557.596 309.549 554.358 309.563L503.153 309.742C497.641 309.942 492.77 308.984 493.872 320.201C495.594 337.722 501.499 360.107 498.964 415.977C498.888 417.706 605.033 415.55 609.753 415.936C607.934 414.51 603.111 379.089 602.016 369.236ZM520.364 397.829C519.24 396.706 519.24 332.506 519.24 332.506C522.058 331.941 576.681 331.941 576.681 331.941L582.31 397.829C582.304 397.829 521.487 398.952 520.364 397.829Z" fill="black"/>
<path d="M609.747 415.929C609.796 415.971 609.851 415.985 609.893 415.971C609.949 415.957 609.893 415.943 609.747 415.929Z" fill="black"/>
<path d="M853.031 619.611L1102.85 619.611L1121.69 643.203C1121.69 643.203 970.774 643.675 932.102 643.409C893.429 643.142 719.171 643.433 719.171 643.433L735.582 619.081L744.222 618.936" stroke="black" stroke-width="3.78236" stroke-miterlimit="10" stroke-linecap="round" stroke-linejoin="round"/>
<path d="M416.498 417.541C415.499 412.787 414.493 391.573 414.493 381.307C414.493 371.048 413.239 347.016 411.737 343.268C410.235 339.52 411.489 337.763 411.489 337.763C411.489 337.763 461.544 331.259 470.053 330.253C478.562 329.247 501.836 328.999 505.839 330.253C509.842 331.507 508.843 331.004 509.346 334.511C509.849 338.018 511.847 407.344 512.102 411.595C512.35 415.853 491.329 416.349 475.813 416.349C460.297 416.349 416.498 417.541 416.498 417.541Z" fill="#95D5D2" stroke="#95D5D2" stroke-width="6.20089" stroke-miterlimit="10" stroke-linecap="round" stroke-linejoin="round"/>
<path d="M428.011 352.342L429.134 403.589L501.533 399.083L502.381 384.442C502.884 375.802 502.443 367.128 501.085 358.578L499.466 348.436C499.363 347.781 498.77 347.313 498.109 347.368L428.011 352.342Z" fill="white" stroke="black" stroke-width="3.78236" stroke-miterlimit="10" stroke-linecap="round" stroke-linejoin="round"/>
<path d="M530.499 390.071L524.305 357.971C524.305 357.971 535.57 352.342 552.464 351.212C569.358 350.089 581.181 355.153 581.181 355.153L583.999 387.253C583.999 387.253 575.552 383.877 560.911 385C548.551 385.951 530.499 390.071 530.499 390.071Z" stroke="black" stroke-width="3.78236" stroke-miterlimit="10" stroke-linecap="round" stroke-linejoin="round"/>
<path d="M535.563 364.73L536.693 375.43" stroke="black" stroke-width="3.78236" stroke-miterlimit="10" stroke-linecap="round" stroke-linejoin="round"/>
<path d="M547.392 365.288L548.639 374.3" stroke="black" stroke-width="3.78236" stroke-miterlimit="10" stroke-linecap="round" stroke-linejoin="round"/>
<path d="M556.962 362.477L559.215 374.865" stroke="black" stroke-width="3.78236" stroke-miterlimit="10" stroke-linecap="round" stroke-linejoin="round"/>
<path d="M567.098 360.224L568.786 372.612" stroke="black" stroke-width="3.78236" stroke-miterlimit="10" stroke-linecap="round" stroke-linejoin="round"/>
<path d="M548.516 350.647L546.635 341.236C546.118 338.638 547.758 336.096 550.334 335.504L555.543 334.298C558.189 333.685 560.828 335.345 561.42 337.991L564.28 350.647H548.516Z" stroke="black" stroke-width="3.78236" stroke-miterlimit="10" stroke-linecap="round" stroke-linejoin="round"/>
<path d="M447.414 361.408C448.379 358.525 447.104 355.5 444.568 354.651C442.031 353.802 439.192 355.451 438.228 358.334C437.263 361.218 438.537 364.243 441.074 365.092C443.611 365.941 446.449 364.291 447.414 361.408Z" fill="black"/>
<path d="M475.517 356.628L478.838 356.455C482.738 356.29 485.983 359.425 485.955 363.332L485.942 365.275C485.914 369.023 482.862 372.047 479.114 372.047H475.827C472.079 372.047 469.034 369.023 468.999 365.275L468.986 363.497C468.951 359.825 471.845 356.786 475.517 356.628Z" fill="black"/>
<path d="M437.272 402.583L438.822 376.312C438.588 372.392 440.104 368.981 444.01 368.575C448.13 368.147 451.782 371.214 452.078 375.347L452.788 402.335L437.272 402.583Z" fill="black"/>
<path d="M449.535 383.808L450.865 385.414C452.629 387.55 455.915 387.515 457.638 385.345L464.734 376.402C465.871 374.969 465.609 372.881 464.155 371.772C462.715 370.676 460.662 370.959 459.574 372.399L455.839 377.332C455.24 378.124 454.02 378.007 453.58 377.125L451.292 372.543L449.535 383.808Z" fill="black"/>
<path d="M191.495 283.636C193.183 283.636 616.084 288.142 616.084 288.142" stroke="black" stroke-width="3.78236" stroke-miterlimit="10" stroke-linecap="round" stroke-linejoin="round"/>
<path d="M194.569 418.223C196.257 417.658 618.91 417.1 618.91 417.1" stroke="black" stroke-width="3.78236" stroke-miterlimit="10" stroke-linecap="round" stroke-linejoin="round"/>
<path d="M416.491 935.543L412.171 760.602" stroke="black" stroke-width="3.78236" stroke-miterlimit="10" stroke-linecap="round" stroke-linejoin="round"/>
<path d="M199.632 667.12C199.632 667.12 619.467 662.049 620.032 662.614" stroke="black" stroke-width="3.78236" stroke-miterlimit="10" stroke-linecap="round" stroke-linejoin="round"/>
<path d="M393.659 827.613L385.777 829.301L389.718 870.971H395.912" stroke="black" stroke-width="3.78236" stroke-miterlimit="10" stroke-linecap="round" stroke-linejoin="round"/>
<path d="M428.011 826.483L437.016 825.925L437.581 873.224L430.257 873.789" stroke="black" stroke-width="3.78236" stroke-miterlimit="10" stroke-linecap="round" stroke-linejoin="round"/>
<path d="M281.594 616.965C281.594 618.467 282.345 630.855 283.847 639.116C285.349 647.377 290.606 664.271 290.606 664.271L325.896 663.899C325.896 663.899 336.782 635.368 338.663 627.486C340.537 619.604 340.537 615.284 340.537 615.284C340.537 615.284 321.39 616.228 310.504 617.351C299.618 618.467 281.594 616.965 281.594 616.965Z" stroke="black" stroke-width="3.78236" stroke-miterlimit="10" stroke-linecap="round" stroke-linejoin="round"/>
<path d="M266.202 587.683C268.076 588.055 296.235 617.716 296.235 617.716" stroke="black" stroke-width="3.78236" stroke-miterlimit="10" stroke-linecap="round" stroke-linejoin="round"/>
<path d="M304.495 582.426L302.993 617.344" stroke="black" stroke-width="3.78236" stroke-miterlimit="10" stroke-linecap="round" stroke-linejoin="round"/>
<path d="M342.039 577.92C342.039 577.92 326.647 601.945 318.014 616.586" stroke="black" stroke-width="3.78236" stroke-miterlimit="10" stroke-linecap="round" stroke-linejoin="round"/>
<path d="M330.774 584.307L345.415 588.813" stroke="black" stroke-width="7.57887" stroke-miterlimit="10" stroke-linecap="round" stroke-linejoin="round"/>
<path d="M321.389 598.197L334.156 602.703" stroke="black" stroke-width="7.57887" stroke-miterlimit="10" stroke-linecap="round" stroke-linejoin="round"/>
<path d="M295.863 583.178L303.745 585.431L310.876 580.174" stroke="black" stroke-width="7.57887" stroke-miterlimit="10" stroke-linecap="round" stroke-linejoin="round"/>
<path d="M296.614 598.948L310.125 599.32" stroke="black" stroke-width="7.57887" stroke-miterlimit="10" stroke-linecap="round" stroke-linejoin="round"/>
<path d="M307.499 609.455L302.242 612.459" stroke="black" stroke-width="7.57887" stroke-miterlimit="10" stroke-linecap="round" stroke-linejoin="round"/>
<path d="M270.708 581.675L269.268 590.687L265.079 592.94" stroke="black" stroke-width="7.57887" stroke-miterlimit="10" stroke-linecap="round" stroke-linejoin="round"/>
<path d="M284.226 594.063L280.092 600.45L273.34 605.328" stroke="black" stroke-width="7.57887" stroke-miterlimit="10" stroke-linecap="round" stroke-linejoin="round"/>
<path d="M218.152 760.224C218.152 760.224 216.278 732.816 215.527 722.309C214.776 711.795 214.404 695.28 214.404 695.28C214.404 695.28 235.053 693.405 246.69 693.027C258.327 692.654 282.731 691.153 295.87 690.023C309.009 688.9 313.887 690.023 313.887 690.023L318.765 760.038C318.765 760.038 218.524 760.603 218.152 760.224Z" fill="#1CB0A8" stroke="#1CB0A8" stroke-width="6.20089" stroke-miterlimit="10" stroke-linecap="round" stroke-linejoin="round"/>
<path d="M235.191 708.418C233.972 708.811 233.124 709.907 233.042 711.188C232.904 713.462 232.656 717.265 232.415 720.434C232.098 724.561 235.804 743.185 236.962 748.834C237.155 749.792 237.982 750.488 238.96 750.516C242.577 750.633 251.424 750.922 258.693 751.211C268.077 751.583 279.714 752.334 290.228 751.211C296.18 750.571 299.722 749.579 301.679 748.828C302.912 748.359 303.697 747.153 303.608 745.837C303.229 740.319 302.175 724.947 301.872 720.055C301.624 716.108 300.893 710.857 300.418 707.729C300.197 706.276 298.847 705.263 297.386 705.463C295.106 705.78 291.544 706.165 287.603 706.165C280.844 706.165 246.305 707.288 241.806 707.288C239.249 707.295 236.824 707.895 235.191 708.418Z" fill="white" stroke="black" stroke-width="3.78236" stroke-miterlimit="10" stroke-linecap="round" stroke-linejoin="round"/>
<path d="M255.695 746.333C255.695 746.333 258.699 732.064 268.083 731.692C277.467 731.32 282.724 742.957 283.475 745.961C284.226 748.965 284.019 751.735 284.019 751.735" stroke="black" stroke-width="3.78236" stroke-miterlimit="10" stroke-linecap="round" stroke-linejoin="round"/>
<path d="M262.454 715.55C266.581 712.925 271.913 717.513 272.589 720.056C274.091 725.685 271.838 728.503 268.083 729.626C264.328 730.749 259.746 726.174 259.326 722.557C258.823 718.306 262.454 715.55 262.454 715.55Z" stroke="black" stroke-width="3.78236" stroke-miterlimit="10" stroke-linecap="round" stroke-linejoin="round"/>
<path d="M259.822 718.932C259.822 718.932 259.064 716.652 255.695 717.809C251.313 719.311 254.572 725.815 251.568 726.945C248.564 728.075 247.062 722.067 243.686 724.32C240.427 726.497 243.686 732.829 243.686 736.205" stroke="black" stroke-width="3.78236" stroke-miterlimit="10" stroke-linecap="round" stroke-linejoin="round"/>
<path d="M904.496 322.522C906.36 322.571 907.911 321.1 907.96 319.236C908.009 317.372 906.538 315.821 904.674 315.772C902.81 315.723 901.26 317.194 901.21 319.058C901.161 320.922 902.633 322.473 904.496 322.522Z" fill="black"/>
<path d="M905.981 308.859L842.597 348.503C842.597 348.503 889.527 348.987 903.794 348.991C918.068 348.994 967.323 346.535 967.323 346.535C967.323 346.535 960.705 341.102 950 334.059C939.303 327.009 905.981 308.859 905.981 308.859Z" stroke="black" stroke-width="3.78236" stroke-miterlimit="10" stroke-linecap="round" stroke-linejoin="round"/>
<path d="M842.6 362.77C842.6 362.77 842.309 387.926 842.813 397.326C843.317 406.727 846.612 466.901 846.612 466.901C846.612 466.901 858.176 469.831 868.677 470.487C879.177 471.135 911.182 467.849 922.104 466.634C933.025 465.419 941.283 465.637 948.781 466.213C956.278 466.783 968.692 465.986 968.692 465.986C968.692 465.986 970.569 451.762 970.766 444.261C970.964 436.761 970.796 386.05 970.632 378.161C970.467 370.272 967.955 365.698 967.955 365.698L842.6 362.77Z" stroke="black" stroke-width="3.78236" stroke-miterlimit="10" stroke-linecap="round" stroke-linejoin="round"/>
<path d="M871.111 363.899C871.111 363.899 872.876 368.074 873.63 382.368C874.377 396.662 874.644 415.064 874.884 420.329C875.118 425.594 875.773 443.635 876.267 453.414C876.76 463.193 877.323 470.342 877.323 470.342" stroke="black" stroke-width="3.78236" stroke-miterlimit="10" stroke-linecap="round" stroke-linejoin="round"/>
<path d="M899.642 364.272C899.642 364.272 901.647 373.712 902.513 383.501C903.378 393.29 904.663 401.581 904.376 412.47C904.089 423.359 904.619 445.897 905.241 450.8C905.864 455.696 907.8 467.767 907.8 467.767" stroke="black" stroke-width="3.78236" stroke-miterlimit="10" stroke-linecap="round" stroke-linejoin="round"/>
<path d="M932.657 365.52C932.657 365.52 934.027 384.71 934.511 394.861C934.995 405.012 936.575 430.59 938.251 438.146C939.927 445.703 940.613 464.93 940.613 464.93" stroke="black" stroke-width="3.78236" stroke-miterlimit="10" stroke-linecap="round" stroke-linejoin="round"/>
<path d="M843.209 394.332C843.209 394.332 851.812 397.936 865.325 398.291C878.838 398.647 904.366 398.947 913.408 397.683C922.449 396.418 938.303 393.458 950.315 393.775C962.327 394.091 970.578 394.308 970.578 394.308" stroke="black" stroke-width="3.78236" stroke-miterlimit="10" stroke-linecap="round" stroke-linejoin="round"/>
<path d="M846.554 419.645C846.554 419.645 844.472 419.908 859.898 418.811C875.324 417.715 903.124 417.323 912.173 416.059C921.221 414.795 943.035 413.495 954.306 413.412C965.577 413.33 970.476 412.335 970.476 412.335" stroke="black" stroke-width="3.78236" stroke-miterlimit="10" stroke-linecap="round" stroke-linejoin="round"/>
<path d="M846.399 444.364C846.399 444.364 849.806 445.577 859.598 444.339C869.39 443.101 902.113 441.33 917.158 440.596C932.195 439.868 945.356 439.464 956.268 438.621C967.18 437.784 970.104 438.234 970.104 438.234" stroke="black" stroke-width="3.78236" stroke-miterlimit="10" stroke-linecap="round" stroke-linejoin="round"/>
<path d="M1043.54 447.301C1043.54 447.301 1048.34 450.432 1055.41 467.139C1062.49 483.846 1065.68 511.334 1066.01 521.123C1066.64 539.914 1064.27 573.279 1060.15 587.065" stroke="black" stroke-width="3.78236" stroke-miterlimit="10" stroke-linecap="round" stroke-linejoin="round"/>
<path d="M1035.96 436.556C1037.29 436.129 1038.73 436.774 1039.29 438.063C1040.71 441.319 1042.92 448.139 1042.14 457.781C1041.35 467.561 1036.71 481.899 1034.04 489.514C1033.01 492.436 1029.85 494.014 1026.9 493.061C1022.21 491.546 1015.36 489.201 1010.57 487C1003.25 483.637 998.367 480.993 995.549 478.341C993.976 476.852 993.639 474.472 994.729 472.599C998.129 466.733 1006.82 452.778 1015.76 446.576C1024.11 440.786 1032.17 437.772 1035.96 436.556Z" stroke="black" stroke-width="3.78236" stroke-miterlimit="10" stroke-linecap="round" stroke-linejoin="round"/>
<path d="M1029.61 434.541L1032.84 427.314C1033.27 426.353 1034.35 425.872 1035.35 426.188L1047.1 429.881C1048.26 430.242 1048.85 431.512 1048.4 432.631L1044.42 442.444" stroke="black" stroke-width="3.78236" stroke-miterlimit="10" stroke-linecap="round" stroke-linejoin="round"/>
<path d="M1024.85 615.056C1027.72 610.107 1035.05 598.803 1049.14 591.283C1055.85 587.703 1063.2 582.7 1073.93 588.62C1084.67 594.534 1088.67 601.718 1092.62 608.576C1096.57 615.441 1098.31 620.746 1099.75 623.41C1101.18 626.073 1099.2 630.157 1092.4 631.48C1085.6 632.804 1067.15 634.572 1052.92 633.446C1038.67 632.319 1033.47 630.308 1027.85 629.781C1022.23 629.253 1020.13 623.188 1024.85 615.056Z" fill="black"/>
<path d="M790.412 619.022L828.704 619.589" stroke="black" stroke-width="3.78236" stroke-miterlimit="10" stroke-linecap="round" stroke-linejoin="round"/>
<path d="M741.873 537.001L752.419 578.584" stroke="black" stroke-width="3.78236" stroke-miterlimit="10" stroke-linecap="round" stroke-linejoin="round"/>
<path d="M755.949 544.505L759.537 579.15" stroke="black" stroke-width="3.78236" stroke-miterlimit="10" stroke-linecap="round" stroke-linejoin="round"/>
<path d="M767.542 517.772L767.599 579.735" stroke="black" stroke-width="3.78236" stroke-miterlimit="10" stroke-linecap="round" stroke-linejoin="round"/>
<path d="M785.418 537.769L776.074 578.773" stroke="black" stroke-width="3.78236" stroke-miterlimit="10" stroke-linecap="round" stroke-linejoin="round"/>
<path d="M742.649 578.706L745.82 629.489C745.82 629.489 754.799 630.849 764.551 631.106C774.304 631.362 789.797 628.014 789.797 628.014C789.797 628.014 788.733 597.191 788.463 593.056C788.2 588.92 786.636 576.859 786.636 576.859C786.636 576.859 777.538 579.997 765.533 579.681C753.528 579.365 742.649 578.706 742.649 578.706Z" fill="#FCB643" stroke="#FCB643" stroke-width="6.20089" stroke-miterlimit="10" stroke-linecap="round" stroke-linejoin="round"/>
<path d="M754.037 602.667L758.172 630.938" stroke="black" stroke-width="3.78236" stroke-miterlimit="10" stroke-linecap="round" stroke-linejoin="round"/>
<path d="M745.443 643.746L752.82 919.838" stroke="black" stroke-width="3.78236" stroke-miterlimit="10" stroke-linecap="round" stroke-linejoin="round"/>
<path d="M731.224 927.285L722.094 643.951" stroke="black" stroke-width="3.78236" stroke-miterlimit="10" stroke-linecap="round" stroke-linejoin="round"/>
<path d="M1096.28 926.061L1095.83 643.397" stroke="black" stroke-width="3.78236" stroke-miterlimit="10" stroke-linecap="round" stroke-linejoin="round"/>
<path d="M1117.44 928.896L1118.93 643.62" stroke="black" stroke-width="3.78236" stroke-miterlimit="10" stroke-linecap="round" stroke-linejoin="round"/>
<path d="M914.013 795.396C914.013 795.396 914.853 794.102 914.172 795.89C913.49 797.698 912.837 800.783 912.986 805.88C913.284 816.026 914.587 852.114 915.978 863.419C917.369 874.725 916.776 897.24 916.776 897.24C916.776 897.24 897.488 902.363 884.332 909.909C871.176 917.454 866.508 923.52 866.508 923.52C866.508 923.52 885.838 930.977 921.866 931.925C947.254 932.594 981.819 929.933 986.398 927.242C990.976 924.544 980.443 918.07 972.118 913.343C963.792 908.617 941.633 894.517 939.38 894.458C937.128 894.399 939.542 866.859 938.686 856.698C937.83 846.537 936.921 816.655 937.04 812.151C937.126 808.879 937.61 801.745 937.872 798.092C937.97 796.723 936.484 797.676 936.484 797.676" stroke="black" stroke-width="3.78236" stroke-miterlimit="10" stroke-linecap="round" stroke-linejoin="round"/>
<path d="M857.807 783.592C857.807 783.592 899.76 794.835 925.643 796.082C951.525 797.328 962.72 799.877 976.901 796.308C991.076 792.739 997.981 787.289 997.981 787.289C997.981 787.289 994.917 775.381 989.432 769.599C983.953 763.824 972.32 756.191 965.585 755.449C958.843 754.706 916.697 750.784 898.062 752.547C879.427 754.311 869.295 754.044 863.029 756.698C856.763 759.352 854.943 764.37 854.809 769.439C854.669 774.494 857.807 783.592 857.807 783.592Z" fill="#95D5D2" stroke="#95D5D2" stroke-width="6.20089" stroke-miterlimit="10" stroke-linecap="round" stroke-linejoin="round"/>
<path d="M863.023 756.691C863.023 756.691 868.502 762.466 892.072 765.906C915.643 769.345 935.238 773.803 953.285 773.148C971.325 772.5 976.959 772.648 984.467 765.519" stroke="black" stroke-width="3.78236" stroke-miterlimit="10" stroke-linecap="round" stroke-linejoin="round"/>
<path d="M621.472 935.171L617.338 173.143L189.242 173.832L204.262 935.171H621.472Z" stroke="black" stroke-width="3.78236" stroke-miterlimit="10" stroke-linecap="round" stroke-linejoin="round"/>
<path d="M856.248 343.603C888.67 341.469 926.918 339.902 959.177 342.564C965.923 343.114 968.617 340.559 969.667 343.591C970.711 346.624 971.896 358.675 972.127 364.312C972.35 369.949 973.46 370.729 955.07 370.245C936.681 369.761 915.588 372.211 905.048 373.057C894.508 373.903 872.724 374.08 858.829 374.094C847.918 374.103 841.654 373.538 839.469 373.295C838.96 373.24 838.579 372.816 838.585 372.299C838.614 369.64 838.074 361.603 838.703 357.084C838.983 355.1 839.263 353.115 839.412 351.121C839.575 348.844 841.112 345.962 844.2 345.168C849.481 343.797 856.248 343.603 856.248 343.603Z" fill="#1CB0A8"/>
<path d="M969.73 369.85C967.446 370.427 963.131 370.458 955.07 370.245C936.68 369.761 915.587 372.211 905.047 373.057C894.508 373.903 872.723 374.081 858.828 374.094C851.892 374.1 845.257 373.877 841.931 373.649" stroke="black" stroke-width="3.78236" stroke-linecap="round" stroke-linejoin="round"/>
<path d="M201.32 760.038H619.467" stroke="black" stroke-width="3.78236" stroke-miterlimit="10" stroke-linecap="round" stroke-linejoin="round"/>
<path d="M260.033 381.707L254.703 398.867L267.303 399.307L270.894 386.817L281.919 387.202L287.779 400.022L302.064 397.367L296.314 381.397L260.033 381.707Z" fill="black" stroke="black" stroke-width="3.15197"/>
<path d="M249.966 413.021L254.421 400.153C254.421 400.153 267.489 398.859 281.001 399.075C294.519 399.299 309.567 398.57 309.567 398.57L317.026 412.605" stroke="black" stroke-width="3.78236" stroke-miterlimit="10" stroke-linecap="round" stroke-linejoin="round"/>
<path d="M270.061 387.298C269.321 387.175 258.621 385.023 258.621 385.023L253.728 381.598C253.728 381.598 254.604 374.493 258.035 372.986C258.274 373.243 262.411 362.37 267.214 361.035C272.018 359.7 275.496 360.573 275.496 360.573C275.496 360.573 282.286 359.81 285.767 360.428C289.254 361.053 292.651 363.681 294.803 367.004C295.718 368.421 298.156 373.443 298.717 373.766C301.522 375.38 304.117 383.792 303.992 383.602L296.356 387.092L296.352 387.209C295.853 386.967 292.592 387.557 287.756 387.916C285.145 388.109 282.158 385.836 278.815 385.728C276.074 385.64 273.065 387.794 270.061 387.298Z" fill="#FCB643" stroke="#FCB643" stroke-width="6.20089" stroke-miterlimit="10" stroke-linecap="round" stroke-linejoin="round"/>
<path d="M272.34 360.456C272.34 360.456 274.99 363.554 275.726 371.094C276.462 378.635 276.034 387.354 276.034 387.354C276.034 387.354 271.735 386.674 270.419 388.634C269.102 390.594 267.532 397.861 267.532 397.861" stroke="black" stroke-width="3.78236" stroke-miterlimit="10" stroke-linecap="round" stroke-linejoin="round"/>
<path d="M280.267 360.264C280.267 360.264 279.281 362.449 278.373 366.926C277.465 371.403 278.099 387.42 278.099 387.42C278.099 387.42 282.552 386.258 283.922 390.063C285.292 393.868 287.944 398.656 287.944 398.656" stroke="black" stroke-width="3.78236" stroke-miterlimit="10" stroke-linecap="round" stroke-linejoin="round"/>
<path d="M300.523 351.826C300.523 351.826 306.88 352.613 309.576 350.825C312.265 349.044 321.572 332.651 323.108 329.133C324.637 325.615 319.501 327.601 318.159 328.305C316.818 329.01 305.202 336.305 303.629 338.318C302.049 340.325 299.878 348.797 300.523 351.826Z" fill="#00CB77" stroke="#00CB77" stroke-width="6.20089" stroke-miterlimit="10" stroke-linecap="round" stroke-linejoin="round"/>
<path d="M253.951 343.622C253.951 343.622 249.026 336.784 244.87 334.757C240.715 332.736 235.398 331.799 233.053 331.621C230.709 331.442 229.278 332.144 230.915 333.614C232.553 335.078 234.793 338.259 236.359 341.788C237.925 345.317 238.74 348.82 242.989 350.94C247.237 353.06 251.933 353.038 253.726 352.818C255.512 352.598 256.022 348.672 253.951 343.622Z" fill="#00CB77" stroke="#00CB77" stroke-width="6.20089" stroke-miterlimit="10" stroke-linecap="round" stroke-linejoin="round"/>
<path d="M255.263 343.579C255.286 342.918 255.53 338.707 258.699 334.026C261.868 329.345 267.3 326.998 272.949 326.727C278.591 326.455 287.478 327.42 292.656 329.766C297.835 332.104 301.646 335.905 303.224 336.519C304.801 337.139 302.16 342.679 301.636 344.26C301.112 345.842 301.404 350.919 297.972 355.025C294.54 359.131 291.327 362.494 278.366 362.51C268.135 362.525 261.657 359.672 258.202 356.359C254.747 353.04 255.149 346.856 255.263 343.579Z" fill="#00CB77" stroke="#00CB77" stroke-width="6.20089" stroke-miterlimit="10" stroke-linecap="round" stroke-linejoin="round"/>
<path d="M287.109 347.562C286.284 349.277 286.384 352.135 288.703 353.064C291.021 353.993 293.565 353.606 294.875 351.025C296.185 348.444 294.872 345.765 292.169 345.202C289.465 344.638 287.822 346.084 287.109 347.562Z" fill="black"/>
<path d="M267.654 345.38C269.54 345.266 271.566 346.268 272.357 347.895C273.148 349.522 273.126 352.713 270.753 353.568C268.372 354.422 264.646 353.727 263.868 351.728C263.089 349.729 262.982 347.471 264.516 346.587C266.043 345.696 265.678 345.497 267.654 345.38Z" fill="black"/>
<path d="M274.61 410.117C275.99 410.166 277.149 409.086 277.197 407.705C277.245 406.325 276.165 405.166 274.785 405.118C273.404 405.07 272.246 406.15 272.198 407.531C272.15 408.911 273.23 410.069 274.61 410.117Z" fill="black"/>
<path d="M281.754 409.87C283.203 409.921 284.419 408.787 284.469 407.338C284.52 405.889 283.386 404.674 281.937 404.623C280.489 404.573 279.273 405.706 279.222 407.155C279.172 408.604 280.305 409.819 281.754 409.87Z" fill="black"/>
<path d="M289.636 410.021C291.016 410.07 292.174 408.99 292.223 407.609C292.271 406.229 291.191 405.071 289.81 405.022C288.43 404.974 287.272 406.054 287.224 407.435C287.175 408.815 288.255 409.973 289.636 410.021Z" fill="black"/>
<path d="M319.669 330.702C319.669 330.702 306.64 336.197 302.466 342.807" stroke="black" stroke-width="3.78236" stroke-miterlimit="10" stroke-linecap="round" stroke-linejoin="round"/>
<path d="M230.916 333.615C230.916 333.615 246.344 336.128 251.847 345.151" stroke="black" stroke-width="3.78236" stroke-miterlimit="10" stroke-linecap="round" stroke-linejoin="round"/>
<path d="M1028.93 249.205C1028.93 249.205 1106.76 271.039 1115.08 188.632C1123.4 106.226 1041 95.4072 1041 95.4072L1034.34 114.553" stroke="black" stroke-width="3.78236" stroke-miterlimit="10" stroke-linecap="round" stroke-linejoin="round"/>
<path d="M1040.17 270.858L988.557 270.024C988.557 270.024 981.9 265.028 993.553 260.868C1005.21 256.708 1009.09 244.377 1009.64 244.56C1010.19 244.743 1026.65 244.56 1026.65 244.56C1026.65 244.56 1032.56 259.551 1038.11 263.067C1043.66 266.583 1040.17 270.858 1040.17 270.858Z" stroke="black" stroke-width="6.20938" stroke-miterlimit="10" stroke-linecap="round" stroke-linejoin="round"/>
<path d="M1021.86 246.07C986.456 246.07 957.76 217.374 957.76 181.974C957.76 146.575 986.456 117.879 1021.86 117.879C1057.25 117.879 1085.95 146.575 1085.95 181.974C1085.95 217.374 1057.25 246.07 1021.86 246.07Z" fill="#1CB0A8" stroke="#1CB0A8" stroke-width="6.20938" stroke-miterlimit="10" stroke-linecap="round" stroke-linejoin="round"/>
<mask id="mask0" mask-type="alpha" maskUnits="userSpaceOnUse" x="954" y="114" width="136" height="136">
<path d="M1021.86 246.07C986.456 246.07 957.76 217.374 957.76 181.974C957.76 146.575 986.456 117.879 1021.86 117.879C1057.25 117.879 1085.95 146.575 1085.95 181.974C1085.95 217.374 1057.25 246.07 1021.86 246.07Z" fill="#1CB0A8" stroke="#1CB0A8" stroke-width="6.20938" stroke-miterlimit="10" stroke-linecap="round" stroke-linejoin="round"/>
</mask>
<g mask="url(#mask0)">
<path d="M1092.96 158.777C1092.96 158.777 1099.62 162.102 1097.4 169.873C1095.18 177.644 1091.11 178.377 1086.67 182.449C1082.23 186.522 1088.89 196.505 1088.89 196.505C1092.96 203.163 1092.96 206.862 1080.39 205.382C1067.82 203.903 1067.07 197.985 1067.45 191.327C1067.82 184.669 1059.31 177.644 1053.39 172.466C1047.47 167.287 1045.99 161.369 1048.95 158.044C1051.91 154.718 1048.21 157.677 1046.73 151.386C1045.25 145.094 1041.93 133.638 1042.67 130.306C1043.41 126.973 1049.32 124.387 1056.72 128.826C1064.12 133.265 1080.76 142.882 1085.57 148.427C1090.37 153.972 1092.96 158.777 1092.96 158.777Z" fill="#82ECB7" stroke="#1CB0A8" stroke-width="6.20938" stroke-miterlimit="10" stroke-linecap="round" stroke-linejoin="round"/>
<path d="M1091.01 174.206C1091.01 174.206 1085.51 164.371 1107.26 159.15C1116.5 156.931 1120.32 142.508 1108.12 144.728C1095.92 146.947 1090.05 147.511 1077.85 148.991" fill="#82ECB7"/>
<path d="M1091.01 174.206C1091.01 174.206 1085.51 164.371 1107.26 159.15C1116.5 156.931 1120.32 142.508 1108.12 144.728C1095.92 146.947 1090.05 147.511 1077.85 148.991" stroke="#1CB0A8" stroke-width="6.20938" stroke-miterlimit="10" stroke-linecap="round" stroke-linejoin="round"/>
<path d="M1071.88 226.275C1069.03 230.619 1074.84 236.259 1071.14 240.331C1067.44 244.396 1060.04 245.136 1053.76 243.657C1047.47 242.177 1043.4 238.478 1044.51 227.755C1045.63 217.032 1046.36 209.634 1053.02 208.154C1059.68 206.675 1060.04 205.195 1067.44 210C1074.84 214.805 1078.17 216.665 1071.88 226.275Z" fill="#82ECB7" stroke="#82ECB7" stroke-width="6.20938" stroke-miterlimit="10" stroke-linecap="round" stroke-linejoin="round"/>
<path d="M994.73 145.094C994.73 145.094 1002.49 151.012 1003.61 155.451C1004.72 159.89 1003.61 161.369 998.062 171.719C992.517 182.069 989.185 187.621 988.818 196.498C988.452 205.376 964.927 187.812 964.927 178.934C964.927 170.057 960.199 145.094 994.73 145.094Z" fill="#82ECB7" stroke="#82ECB7" stroke-width="6.20938" stroke-miterlimit="10" stroke-linecap="round" stroke-linejoin="round"/>
<path d="M971.309 120.623C971.309 120.623 979.073 126.541 980.186 130.98C981.299 135.418 980.186 136.898 974.641 147.248C969.096 157.598 965.764 163.15 965.397 172.027C965.031 180.904 941.506 163.34 941.506 154.463C941.506 145.586 936.778 120.623 971.309 120.623Z" fill="#82ECB7" stroke="#82ECB7" stroke-width="6.20938" stroke-miterlimit="10" stroke-linecap="round" stroke-linejoin="round"/>
<path d="M963.351 204.15C954.526 197.846 942.864 201.524 938.136 204.15C928.049 206.917 933.933 234.721 938.136 248.278C946.541 249.854 965.243 250.8 972.807 241.974C982.263 230.942 974.383 212.03 963.351 204.15Z" fill="#82ECB7"/>
<path d="M1041.95 125.498C1054.27 119.663 1051.43 106.829 1048.47 101.142C1046.68 90.2189 1000.88 84.0394 978.211 82.315C973.526 89.7614 967.18 107.422 979.275 118.495C987.532 126.053 996.141 125.006 1009.06 125.498C1019.79 125.908 1034.96 128.809 1041.95 125.498Z" fill="#82ECB7"/>
</g>
<path d="M756.59 266.288C756.59 266.288 777.253 261.326 802.771 261.997C828.289 262.669 938.64 265.071 940.885 265.131C943.131 265.19 981.491 263.443 992.765 262.988C1004.05 262.534 1082.17 262.894 1086.18 262.999C1090.18 263.105 1091.09 266.637 1091.01 269.888C1090.92 273.139 1091.36 275.652 1085.1 275.742C1078.84 275.832 1001.48 274.232 988.192 275.136C974.901 276.041 946.555 278.044 926.795 277.276C907.034 276.508 832.66 277.299 822.169 276.272C811.678 275.245 801.383 276.476 792.603 277.244C783.823 278.012 777.516 279.604 770.766 279.426C764.016 279.248 757.233 279.821 753.853 275.225C750.466 270.628 756.59 266.288 756.59 266.288Z" fill="black"/>
<path d="M982.537 639.099C981.417 639.228 926.186 639.869 904.033 639.658C881.88 639.447 838.683 639.812 832.717 638.152C832.717 638.152 827.63 631.636 831.413 630.606C835.196 629.582 863.006 628.811 875.42 628.008C887.833 627.211 920.506 627.32 932.9 627.267C945.294 627.222 960.739 625.374 968.247 625.572C975.754 625.77 981.421 624.416 983.252 626.339C985.076 628.262 986.439 633.557 985.978 636.929C985.51 640.307 985.171 638.796 982.537 639.099Z" stroke="black" stroke-width="3.78236" stroke-miterlimit="10" stroke-linecap="round" stroke-linejoin="round"/>
<path d="M835.696 634.394L969.655 629.666L968.079 607.602L961.775 588.69L944.439 582.386L832.544 632.818L835.696 634.394Z" fill="white"/>
<path d="M966.503 623.362C940.762 628.615 890.541 637.861 857.76 639.122" stroke="black" stroke-width="3.78236" stroke-linecap="round"/>
<path d="M954.619 576.981C954.619 576.981 952.143 571.285 947.408 565.522C942.68 559.767 941.287 555.595 941.287 555.595C912.92 572.931 881.995 603.846 838.736 609.019L831.406 630.606" fill="#EF4056"/>
<path d="M954.619 576.981C954.619 576.981 952.143 571.285 947.408 565.522C942.68 559.767 941.287 555.595 941.287 555.595C912.92 572.931 881.995 603.846 838.736 609.019L831.406 630.606M954.619 576.981C954.619 576.981 912.92 599.722 894.008 607.602C875.096 615.482 831.406 630.606 831.406 630.606M954.619 576.981L831.406 630.606" stroke="#EF4056" stroke-width="6.20089" stroke-miterlimit="10" stroke-linecap="round" stroke-linejoin="round"/>
<path d="M873.52 602.875C873.52 602.875 882.976 598.147 889.28 596.57C895.584 594.994 899.69 590.919 903.464 590.267" stroke="black" stroke-width="3.78236" stroke-miterlimit="10" stroke-linecap="round" stroke-linejoin="round"/>
<path d="M846.892 613.369C846.892 613.369 839.881 604.789 833.24 606.248C826.633 607.701 826.639 612.457 829.955 614.798C833.27 617.139 835.522 617.198 835.522 617.198" stroke="black" stroke-width="3.78236" stroke-miterlimit="10" stroke-linecap="round" stroke-linejoin="round"/>
<path d="M843.621 623.428C844.754 623.086 838.152 617.274 829.045 620.79C819.937 624.307 823.483 632.285 827.197 633.885C830.912 635.486 830.912 635.486 830.912 635.486" stroke="black" stroke-width="3.78236" stroke-miterlimit="10" stroke-linecap="round" stroke-linejoin="round"/>
<path d="M838.848 634.394C838.848 634.394 870.368 631.242 903.464 618.634C936.559 606.026 960.199 591.842 960.199 591.842" stroke="black" stroke-width="3.78236" stroke-linecap="round"/>
<path d="M964.927 607.602C941.813 618.109 884.867 638.491 842 635.97" stroke="black" stroke-width="3.78236" stroke-linecap="round"/>
</svg>
