<svg xmlns="http://www.w3.org/2000/svg" viewBox="0 0 120 24">
  <path d="M3 18V8.77 6.34a14.32 14.32 0 0 1-1.66.08c.08.78.11 2.91.11 4V14c0 1.07 0 3.19-.11 4zM9.89 10.94a2.62 2.62 0 0 1 1.92.77v4A2.46 2.46 0 0 1 9.65 17c-1.36 0-2.51-1-2.51-2.93a2.83 2.83 0 0 1 2.75-3.13zm0-1.32a4.35 4.35 0 0 0-4.22 4.64 3.73 3.73 0 0 0 3.74 4 3.33 3.33 0 0 0 2.54-1.23l.13.93h1.39c-.08-.78-.11-1.82-.11-2.83v-8c0-.64 0-1.55.07-2a16.11 16.11 0 0 1-1.7.21c.08.79.1 1.86.1 3v1.88a3.37 3.37 0 0 0-1.97-.6zM23.15 13.62c0-2.21-1-4-3.37-4s-4.11 2-4.11 4.56a3.82 3.82 0 0 0 4 4.12 5.32 5.32 0 0 0 3-1l.07-1.55a4.59 4.59 0 0 1-3 1.2 2.45 2.45 0 0 1-2.66-2.63l5-.14zm-5.93-.4a2.51 2.51 0 0 1 2.46-2.32c1.28 0 1.89.76 2.07 2.19zM27.64 17c-1 0-1.41-.54-1.41-1.24 0-.92.69-1.67 2.75-1.67a7.83 7.83 0 0 1 .82.05l-.05.78A2.08 2.08 0 0 1 27.64 17zm2.27-.25a1.37 1.37 0 0 0 1.34 1.44 2.41 2.41 0 0 0 1-.26l.15-1.05a2.22 2.22 0 0 1-.71.14c-.4 0-.56-.21-.52-.75l.09-3.52a2.75 2.75 0 0 0-3-3.15 5.51 5.51 0 0 0-2.86.8l.35 1.31a4.09 4.09 0 0 1 2.3-.71c1.27 0 1.81.62 1.78 1.92v.29h-.8c-2.85 0-4.26 1.1-4.26 2.72a2.32 2.32 0 0 0 2.55 2.38 2.92 2.92 0 0 0 2.59-1.54zM35.91 18a12.8 12.8 0 0 1-.08-1.73V7.15c0-.64 0-1.55.08-2a16.45 16.45 0 0 1-1.7.21c.08.79.11 1.86.11 3v6.73c0 1.06 0 2.16-.11 2.93zM49.22 14.78c0-3.29-5.07-3.32-5.07-5.52A1.82 1.82 0 0 1 46.2 7.5a4 4 0 0 1 2.24.82l.5-1.32a4.68 4.68 0 0 0-2.69-.85 3.4 3.4 0 0 0-3.62 3.33c0 3 5.07 3.2 5.07 5.53 0 1.25-.88 1.94-2.2 1.94a5.45 5.45 0 0 1-3.24-1.22l-.09 1.62a6.45 6.45 0 0 0 3.25 1 3.49 3.49 0 0 0 3.8-3.57zM53.86 17c-1 0-1.41-.54-1.41-1.24 0-.92.69-1.67 2.75-1.67a7.83 7.83 0 0 1 .82.05l-.05.78A2.08 2.08 0 0 1 53.86 17zm2.27-.25a1.37 1.37 0 0 0 1.34 1.44 2.45 2.45 0 0 0 1-.26l.15-1.05A2.22 2.22 0 0 1 58 17c-.4 0-.56-.21-.53-.75l.1-3.52a2.76 2.76 0 0 0-3-3.15 5.51 5.51 0 0 0-2.86.8l.29 1.35a4.09 4.09 0 0 1 2.27-.73c1.27 0 1.81.62 1.78 1.92v.29h-.8c-2.85 0-4.26 1.1-4.26 2.72a2.32 2.32 0 0 0 2.55 2.38 2.93 2.93 0 0 0 2.59-1.54zM67.66 18c0-.46-.06-1.2-.06-1.82v-3.65c0-1.86-.9-2.91-2.61-2.91a3.72 3.72 0 0 0-3 1.79l-.11-1.63c-.5 0-.92.08-1.48.08.07.76.1 2 .1 3V15c0 1 0 2.25-.1 3h1.68a16.7 16.7 0 0 1-.08-1.82v-2.95A2.73 2.73 0 0 1 64.59 11c1.09 0 1.49.77 1.49 1.89V15c0 1 0 2.25-.12 3zM73 9.62a2.64 2.64 0 0 0-2.91 2.46c0 2.61 4.2 2.13 4.2 3.79 0 .72-.72 1.11-1.64 1.11A4.71 4.71 0 0 1 70 16l-.08 1.57a5.76 5.76 0 0 0 2.76.7c1.7 0 3.17-1 3.17-2.67 0-2.53-4.24-2.24-4.24-3.63 0-.75.71-1 1.46-1a3.45 3.45 0 0 1 2 .64l.51-1.31A5 5 0 0 0 73 9.62z" />
</svg>
