<svg xmlns="http://www.w3.org/2000/svg" viewBox="0 0 120 24">
  <path d="M2.82 6.36H1.41V18h1.41zM6.8 12.75A2.17 2.17 0 0 1 9 10.36a1.94 1.94 0 0 1 2 2.19V18h1.34v-5.55c0-2.22-1.19-3.29-2.95-3.29a2.58 2.58 0 0 0-2.55 1.48h-.08V9.27h-1.3V18H6.8zM18.62 9.27h-1.87V7.18h-1.34v2.09h-1.32v1.14h1.32v5.45a2.23 2.23 0 0 0 2.37 2.25 2.78 2.78 0 0 0 1-.16l-.28-1.2a2.64 2.64 0 0 1-.59.07c-.59 0-1.16-.18-1.16-1.32v-5.09h1.87zM24.29 18.18A3.39 3.39 0 0 0 27.77 16l-1.3-.37A2.14 2.14 0 0 1 24.29 17a2.65 2.65 0 0 1-2.72-2.89h6.34v-.57c0-3.25-1.94-4.36-3.75-4.36-2.37 0-3.94 1.86-3.94 4.54s1.55 4.46 4.07 4.46zm-2.72-5.25a2.61 2.61 0 0 1 2.59-2.57 2.36 2.36 0 0 1 2.38 2.57zM30 18h1.34v-5.52a2.07 2.07 0 0 1 2.2-2.05 1.58 1.58 0 0 1 .77.16l.46-1.14a1.88 1.88 0 0 0-1.11-.31 2.36 2.36 0 0 0-2.28 1.45h-.09V9.27H30z" />
</svg>
