<svg xmlns="http://www.w3.org/2000/svg" viewBox="0 0 120 24">
  <path d="M1.49 18V6.83h4.45a3 3 0 0 1 2.3.87 3.23 3.23 0 0 1 .82 2.3 3.29 3.29 0 0 1-.82 2.35 3 3 0 0 1-2.3.85H2.83V18zm1.34-5.95h3.11a1.7 1.7 0 0 0 1.23-.42 1.53 1.53 0 0 0 .45-1.18v-.83a1.54 1.54 0 0 0-.45-1.19A1.69 1.69 0 0 0 5.94 8H2.83zM12.42 18a1.33 1.33 0 0 1-1-.37 1.41 1.41 0 0 1-.34-1V6.16h1.28v10.72h1.22V18zM18.53 18.19a3.81 3.81 0 0 1-1.54-.3 3.32 3.32 0 0 1-1.17-.89 4.16 4.16 0 0 1-.75-1.36 5.86 5.86 0 0 1-.26-1.79 5.77 5.77 0 0 1 .26-1.77 4 4 0 0 1 .75-1.36A3.23 3.23 0 0 1 17 9.86a3.65 3.65 0 0 1 1.54-.31 3.35 3.35 0 0 1 1.46.31 3.12 3.12 0 0 1 1.12.84 3.67 3.67 0 0 1 .72 1.3 4.9 4.9 0 0 1 .25 1.61v.61h-5.93v.39a2.94 2.94 0 0 0 .16 1 2.56 2.56 0 0 0 .48.78 2.21 2.21 0 0 0 .77.53 2.64 2.64 0 0 0 1 .19A2.45 2.45 0 0 0 20 16.7a2.35 2.35 0 0 0 .91-1l.91.65a3.19 3.19 0 0 1-1.25 1.38 3.8 3.8 0 0 1-2.04.46zm0-7.57a2.26 2.26 0 0 0-1 .2 2 2 0 0 0-.76.51 2.54 2.54 0 0 0-.48.8 2.86 2.86 0 0 0-.17 1v.11h4.56v-.17a2.45 2.45 0 0 0-.61-1.76 2 2 0 0 0-1.54-.69zM23 18l3.06-4.16-2.93-4.1h1.5l2.1 3.08h.05l2.17-3.08h1.43l-2.91 4 3 4.26h-1.5l-2.15-3.23-2.4 3.23zM39.17 18.19a4.88 4.88 0 0 1-2.32-.51 5 5 0 0 1-1.63-1.44l1-.83a4.59 4.59 0 0 0 1.31 1.2 3.53 3.53 0 0 0 1.7.4 2.55 2.55 0 0 0 1.77-.58 1.94 1.94 0 0 0 .64-1.53 1.58 1.58 0 0 0-.48-1.24 3.72 3.72 0 0 0-1.54-.66l-.91-.21a5.51 5.51 0 0 1-2.36-1.06 2.58 2.58 0 0 1-.8-2 3.12 3.12 0 0 1 .28-1.32 2.72 2.72 0 0 1 .75-1 3.55 3.55 0 0 1 1.17-.57 5.13 5.13 0 0 1 1.5-.21 4.65 4.65 0 0 1 2.16.46A4.25 4.25 0 0 1 43 8.46l-1 .74a3.48 3.48 0 0 0-1.12-1 3.36 3.36 0 0 0-1.63-.37 2.79 2.79 0 0 0-1.7.47 1.59 1.59 0 0 0-.61 1.36 1.46 1.46 0 0 0 .51 1.21 4.19 4.19 0 0 0 1.55.63l.91.21a4.76 4.76 0 0 1 2.38 1.12 2.7 2.7 0 0 1 .74 2 3.45 3.45 0 0 1-.27 1.39 2.77 2.77 0 0 1-.76 1.06 3.5 3.5 0 0 1-1.22.67 4.94 4.94 0 0 1-1.61.24zM51.2 18a1.31 1.31 0 0 1-1-.38 2 2 0 0 1-.38-1h-.12a2.14 2.14 0 0 1-.9 1.15 2.81 2.81 0 0 1-1.48.38 2.91 2.91 0 0 1-2-.67 2.38 2.38 0 0 1-.72-1.82 2.1 2.1 0 0 1 .85-1.8 4.61 4.61 0 0 1 2.67-.62h1.58v-.82a1.79 1.79 0 0 0-.48-1.34 2 2 0 0 0-1.47-.46 2.33 2.33 0 0 0-1.27.33 2.88 2.88 0 0 0-.83.9l-.77-.72A2.93 2.93 0 0 1 46 10a3.33 3.33 0 0 1 1.85-.48 3.44 3.44 0 0 1 2.34.74 2.6 2.6 0 0 1 .81 2.08v4.54h.94V18zm-3.68-.9a3 3 0 0 0 .88-.1 2 2 0 0 0 .69-.32 1.7 1.7 0 0 0 .45-.48 1.11 1.11 0 0 0 .16-.59v-1.37H48a3.16 3.16 0 0 0-1.61.32 1 1 0 0 0-.5.93v.33a1.16 1.16 0 0 0 .43.95 2 2 0 0 0 1.2.33zM53.75 18V9.74H55v1.35h.06a2.85 2.85 0 0 1 .88-1.09 2.44 2.44 0 0 1 1.49-.42 2.58 2.58 0 0 1 2 .83 3.32 3.32 0 0 1 .75 2.32V18h-1.26v-5.07c0-1.48-.63-2.23-1.87-2.23a3.23 3.23 0 0 0-.76.1 2.18 2.18 0 0 0-.64.29 1.54 1.54 0 0 0-.46.49 1.41 1.41 0 0 0-.16.69V18zM65.32 18.19a3.93 3.93 0 0 1-1.93-.43 4.53 4.53 0 0 1-1.33-1.18l.91-.74a3.61 3.61 0 0 0 1.07.94 2.81 2.81 0 0 0 1.38.32 2 2 0 0 0 1.26-.35 1.16 1.16 0 0 0 .47-1 1.17 1.17 0 0 0-.32-.82 1.89 1.89 0 0 0-1.12-.48l-.66-.09a7.39 7.39 0 0 1-1-.24 3.42 3.42 0 0 1-.85-.45 2.12 2.12 0 0 1-.56-.7 2.35 2.35 0 0 1-.19-1 2.32 2.32 0 0 1 .22-1.05 2.11 2.11 0 0 1 .61-.77 2.74 2.74 0 0 1 .94-.45 4.41 4.41 0 0 1 1.17-.16A3.67 3.67 0 0 1 67 9.9a3.76 3.76 0 0 1 1.2 1l-.85.77a2.4 2.4 0 0 0-.8-.69 2.54 2.54 0 0 0-1.33-.32A1.86 1.86 0 0 0 64 11a1.16 1.16 0 0 0-.4.93 1 1 0 0 0 .4.88 3.24 3.24 0 0 0 1.18.4l.64.1a3.28 3.28 0 0 1 2 .8 2 2 0 0 1 .58 1.52 2.3 2.3 0 0 1-.82 1.88 3.35 3.35 0 0 1-2.26.68z" />
</svg>
