<svg xmlns="http://www.w3.org/2000/svg" viewBox="0 0 120 24">
  <path d="M12.11 6.77l.26 3.34h-.51l-.6-1.33a3.25 3.25 0 0 0-.51-.8 1.23 1.23 0 0 0-.59-.38 3 3 0 0 0-.88-.11H8.06v8.72a1.26 1.26 0 0 0 .12.59.78.78 0 0 0 .32.35 1.63 1.63 0 0 0 .54.16 6.76 6.76 0 0 0 .72.07V18H4.83v-.62a6.56 6.56 0 0 0 .71-.07 1.39 1.39 0 0 0 .52-.16.77.77 0 0 0 .34-.35 1.41 1.41 0 0 0 .11-.59V7.49H5.33a3 3 0 0 0-.88.11 1.28 1.28 0 0 0-.61.4 4 4 0 0 0-.51.8c-.16.35-.36.79-.59 1.33h-.5l.24-3.34zM16 16.53a1.17 1.17 0 0 0 0 .47.78.78 0 0 0 .26.25 1.57 1.57 0 0 0 .4.13c.15 0 .31.06.5.08V18h-3.91v-.56l.48-.08a1.34 1.34 0 0 0 .4-.13.78.78 0 0 0 .26-.25 1 1 0 0 0 .09-.45v-5.47l-1.15-.56v-.34l2.22-.8H16zm-.8-8.31a1 1 0 0 1-.73-.3 1 1 0 0 1-.31-.77 1 1 0 0 1 1.78-.75 1 1 0 0 1 .3.75 1.08 1.08 0 0 1-.3.77 1 1 0 0 1-.79.3zM22.23 9.36a3.38 3.38 0 0 1 1.39.27 2.6 2.6 0 0 1 1 .74 3.1 3.1 0 0 1 .61 1.12 4.73 4.73 0 0 1 .21 1.44v.49h-5.72a5 5 0 0 0 .19 1.44A3.46 3.46 0 0 0 20.5 16a2.71 2.71 0 0 0 .93.72 2.83 2.83 0 0 0 1.22.25 2.67 2.67 0 0 0 1.5-.38 4.64 4.64 0 0 0 1-1l.27.14a3.23 3.23 0 0 1-1.15 1.76 3.4 3.4 0 0 1-2.21.69 3.76 3.76 0 0 1-1.57-.32 3.47 3.47 0 0 1-1.12-.86 3.91 3.91 0 0 1-.74-1.31 5.29 5.29 0 0 1-.24-1.69 5.92 5.92 0 0 1 .29-1.9 4.32 4.32 0 0 1 .8-1.47 3.39 3.39 0 0 1 1.21-1 3.47 3.47 0 0 1 1.54-.27zm-.24.78a1.74 1.74 0 0 0-.86.21 2.42 2.42 0 0 0-.68.56 2.8 2.8 0 0 0-.44.8 3.39 3.39 0 0 0-.23.95H24a3 3 0 0 0-.49-1.83 1.72 1.72 0 0 0-1.51-.69zM36.93 18v-.56l.49-.08a1.37 1.37 0 0 0 .39-.13.81.81 0 0 0 .27-.25 1 1 0 0 0 .09-.45V12.1a1.69 1.69 0 0 0-.32-1.2 1.3 1.3 0 0 0-1.05-.36 3.06 3.06 0 0 0-1.2.24 4.45 4.45 0 0 0-1 .61v5.14a1 1 0 0 0 .09.45.78.78 0 0 0 .26.25 1.31 1.31 0 0 0 .38.13l.5.08V18h-3.99v-.56l.49-.08a1.37 1.37 0 0 0 .39-.13A.72.72 0 0 0 33 17a1 1 0 0 0 .1-.45V12.1a1.74 1.74 0 0 0-.32-1.2 1.34 1.34 0 0 0-1.06-.36 3.23 3.23 0 0 0-1.22.24 4.66 4.66 0 0 0-1 .61v5.14a1.17 1.17 0 0 0 .08.45.78.78 0 0 0 .26.25 1.57 1.57 0 0 0 .4.13c.15 0 .31.06.5.08V18h-3.99v-.56l.48-.08a1.34 1.34 0 0 0 .4-.13.78.78 0 0 0 .26-.25 1 1 0 0 0 .09-.45v-5.47l-1.15-.56v-.34l2.22-.8h.4v1.57c.2-.19.4-.38.61-.56a6.45 6.45 0 0 1 .69-.51 3.68 3.68 0 0 1 .78-.36 2.93 2.93 0 0 1 .9-.14 2.22 2.22 0 0 1 1.34.38 2 2 0 0 1 .69 1.26 7.1 7.1 0 0 1 .63-.58 4.66 4.66 0 0 1 .72-.51 4 4 0 0 1 .8-.39 3 3 0 0 1 .91-.14 2 2 0 0 1 1.58.62 3 3 0 0 1 .55 2v4.55a1 1 0 0 0 .09.45.78.78 0 0 0 .26.25 1.21 1.21 0 0 0 .38.13l.5.08V18zM44.39 19.68a.86.86 0 0 0 .09.43.65.65 0 0 0 .26.26 1.45 1.45 0 0 0 .4.14l.49.08v.56h-4v-.56l.49-.08a1.38 1.38 0 0 0 .39-.14.67.67 0 0 0 .27-.26.86.86 0 0 0 .09-.43v-8.62l-1.16-.56v-.34l2.29-.8h.39v1.39a4.24 4.24 0 0 1 1.16-1 3.17 3.17 0 0 1 1.57-.38 3.08 3.08 0 0 1 1.43.32 3 3 0 0 1 1 .85 3.75 3.75 0 0 1 .64 1.28 5.93 5.93 0 0 1 .2 1.55 5.75 5.75 0 0 1-.32 2 4.57 4.57 0 0 1-.86 1.5 3.65 3.65 0 0 1-1.26 1 3.47 3.47 0 0 1-1.51.34 3.16 3.16 0 0 1-1.29-.24 1.94 1.94 0 0 1-.8-.64zm2.06-2.26a2.19 2.19 0 0 0 1-.24 2.3 2.3 0 0 0 .79-.67 3.32 3.32 0 0 0 .51-1.07A4.86 4.86 0 0 0 49 14a6.33 6.33 0 0 0-.14-1.31 3.57 3.57 0 0 0-.43-1.15 2.48 2.48 0 0 0-.79-.82 2 2 0 0 0-1.13-.32 3.3 3.3 0 0 0-1.16.21 2.23 2.23 0 0 0-.92.58v4a2.21 2.21 0 0 0 .57 1.67 2 2 0 0 0 1.45.56zM55.8 17.33a1.89 1.89 0 0 0 1-.24 2 2 0 0 0 .71-.71 3.43 3.43 0 0 0 .43-1.08 6.24 6.24 0 0 0 .14-1.41 5.55 5.55 0 0 0-.17-1.43 3.48 3.48 0 0 0-.5-1.16 2.27 2.27 0 0 0-.8-.8 1.84 1.84 0 0 0-1.07-.31 1.92 1.92 0 0 0-1 .26 2.12 2.12 0 0 0-.71.69 3.43 3.43 0 0 0-.41 1.08 6.22 6.22 0 0 0-.15 1.41 6.59 6.59 0 0 0 .16 1.43 4.51 4.51 0 0 0 .5 1.18 2.77 2.77 0 0 0 .8.8 2.09 2.09 0 0 0 1.07.29zm-.19.83a4.18 4.18 0 0 1-1.62-.3 4 4 0 0 1-1.22-.86 4.12 4.12 0 0 1-.77-1.37 5.2 5.2 0 0 1-.27-1.71 5.1 5.1 0 0 1 .27-1.87 4.26 4.26 0 0 1 .85-1.44 3.86 3.86 0 0 1 2.85-1.25 3.94 3.94 0 0 1 1.6.32 3.7 3.7 0 0 1 2 2.22 5.14 5.14 0 0 1 .27 1.7 5.43 5.43 0 0 1-.32 1.89 4.39 4.39 0 0 1-.86 1.42 3.71 3.71 0 0 1-2.8 1.25zM63.87 18.16a7.44 7.44 0 0 1-1.56-.16 3.74 3.74 0 0 1-1.31-.62l-.1-2.13h.6a3.21 3.21 0 0 0 .83 1.61 2.14 2.14 0 0 0 1.58.58 1.88 1.88 0 0 0 1.2-.34 1.17 1.17 0 0 0 .43-1 1.34 1.34 0 0 0-.14-.66A1.23 1.23 0 0 0 65 15a2.77 2.77 0 0 0-.69-.37l-.94-.33a8 8 0 0 1-1-.37 3.52 3.52 0 0 1-.75-.51 2.14 2.14 0 0 1-.48-.69 2.47 2.47 0 0 1-.16-.94 2.25 2.25 0 0 1 .19-1 2.13 2.13 0 0 1 .55-.77 2.2 2.2 0 0 1 .88-.51 3.39 3.39 0 0 1 1.13-.18 5.36 5.36 0 0 1 2.64.67v2h-.61a2 2 0 0 0-2.08-1.92 1.41 1.41 0 0 0-1 .36 1.19 1.19 0 0 0-.37.9 1.29 1.29 0 0 0 .48 1.06 4.41 4.41 0 0 0 1.41.67c.39.13.76.26 1.09.4a3.31 3.31 0 0 1 .85.48 2 2 0 0 1 .54.7 2.3 2.3 0 0 1 .19 1 2.38 2.38 0 0 1-.21 1 2.25 2.25 0 0 1-.59.79 3 3 0 0 1-.94.51 3.61 3.61 0 0 1-1.26.21z" />
</svg>
