<svg xmlns="http://www.w3.org/2000/svg" viewBox="0 0 120 24">
  <path d="M11.5 6.51h1.74a2.75 2.75 0 0 1-.09.73 1.32 1.32 0 0 0-.8.58 9 9 0 0 0-.66 1.42Q10 13.51 8.14 18a2.76 2.76 0 0 1-.67.07q-2-5.33-3.51-9c-.27-.61-.46-1-.58-1.27A1.4 1.4 0 0 0 3 7.36a.89.89 0 0 0-.49-.17 2.87 2.87 0 0 1-.08-.73H6.54a3.3 3.3 0 0 1-.09.73 2.12 2.12 0 0 0-.83.17.44.44 0 0 0-.24.44 3.75 3.75 0 0 0 .39 1.26q1.16 2.73 2.54 6.53c1-2.25 1.83-4.36 2.53-6.33a3.53 3.53 0 0 0 .24-1.12.93.93 0 0 0-.22-.65 1.2 1.2 0 0 0-.72-.3 3.26 3.26 0 0 1-.08-.73c.5.03.94.05 1.44.05zM16.57 18.15a4 4 0 0 1-2-.49 3.49 3.49 0 0 1-1.34-1.43 4.51 4.51 0 0 1-.48-2.12 4.27 4.27 0 0 1 .5-2.06 3.68 3.68 0 0 1 1.36-1.46 3.82 3.82 0 0 1 2-.53 3.61 3.61 0 0 1 2.8 1.11 4.11 4.11 0 0 1 1 2.94 4.28 4.28 0 0 1-.5 2.07 3.58 3.58 0 0 1-1.36 1.45 3.73 3.73 0 0 1-1.98.52zm.13-.81a1.67 1.67 0 0 0 1.5-.82 4.13 4.13 0 0 0 .51-2.21 4.59 4.59 0 0 0-.33-1.8 2.87 2.87 0 0 0-.83-1.21 1.79 1.79 0 0 0-1.15-.42 1.65 1.65 0 0 0-1.47.78 4 4 0 0 0-.49 2.09A5 5 0 0 0 15 16.4a1.87 1.87 0 0 0 1.7.94zM21.54 18.05a2.78 2.78 0 0 1 .08-.73 1.09 1.09 0 0 0 .92-.31 1.94 1.94 0 0 0 .26-1.17V8.22a2.14 2.14 0 0 0-.09-.69.61.61 0 0 0-.36-.38 2 2 0 0 0-.83-.15 1.18 1.18 0 0 1 .15-.63 5.29 5.29 0 0 0 1.21-.19A3.18 3.18 0 0 0 24 5.81c.25.08.38.31.38.68v9.35a2.16 2.16 0 0 0 .17 1.16.87.87 0 0 0 .78.31 2.54 2.54 0 0 1 .08.73c-.59 0-1.23-.05-1.92-.05s-1.39.01-1.95.06zM26.62 18.05a2.78 2.78 0 0 1 .08-.73 1.09 1.09 0 0 0 .92-.31 1.94 1.94 0 0 0 .26-1.17V8.22a2.14 2.14 0 0 0-.09-.69.61.61 0 0 0-.36-.38A2 2 0 0 0 26.6 7a1.18 1.18 0 0 1 .15-.63A5.29 5.29 0 0 0 28 6.2a3.18 3.18 0 0 0 1-.39c.25.08.38.31.38.68v9.35a2.16 2.16 0 0 0 .25 1.16.87.87 0 0 0 .78.31 2.54 2.54 0 0 1 .08.73c-.59 0-1.23-.05-1.92-.05s-1.39.01-1.95.06zM38.24 16.2a3.74 3.74 0 0 0 .84.81 2.15 2.15 0 0 0 .93.26 2.58 2.58 0 0 1-.08.73 14.35 14.35 0 0 0-2.18.15 23.39 23.39 0 0 0-1.46-1.93q-.95-1.17-1.8-2v1.66a2.16 2.16 0 0 0 .22 1.12.87.87 0 0 0 .78.31 2.54 2.54 0 0 1 .08.73C35 18 34.34 18 33.65 18s-1.39 0-1.95.05a2.78 2.78 0 0 1 .08-.73 1.09 1.09 0 0 0 .92-.32 1.94 1.94 0 0 0 .3-1.16V8.22a2.14 2.14 0 0 0-.09-.69.61.61 0 0 0-.36-.38 2 2 0 0 0-.87-.15 1.18 1.18 0 0 1 .15-.63A5.29 5.29 0 0 0 33 6.2a3.18 3.18 0 0 0 1.07-.39c.25.08.38.31.38.68v7.16l1.25-1.14c.73-.65 1.09-1.1 1.09-1.36s-.16-.27-.49-.27a2.37 2.37 0 0 1-.1-.7H39.56a1.85 1.85 0 0 1-.12.71 2.47 2.47 0 0 0-1 .26 5.16 5.16 0 0 0-1.09.78l-1.62 1.46c.73.71 1.55 1.61 2.51 2.81zM44.62 18.15a4 4 0 0 1-2-.49 3.43 3.43 0 0 1-1.34-1.43 4.51 4.51 0 0 1-.48-2.12 4.27 4.27 0 0 1 .49-2.06 3.76 3.76 0 0 1 1.36-1.46 3.85 3.85 0 0 1 2-.53 3.63 3.63 0 0 1 2.81 1.11 4.1 4.1 0 0 1 1 2.94 4.28 4.28 0 0 1-.46 2.07 3.65 3.65 0 0 1-1.36 1.45 3.76 3.76 0 0 1-2.02.52zm.14-.81a1.65 1.65 0 0 0 1.49-.82 4.13 4.13 0 0 0 .51-2.21 4.59 4.59 0 0 0-.32-1.8 2.87 2.87 0 0 0-.83-1.21 1.82 1.82 0 0 0-1.16-.42 1.65 1.65 0 0 0-1.46.78 3.87 3.87 0 0 0-.49 2.09 5.05 5.05 0 0 0 .59 2.65 1.9 1.9 0 0 0 1.67.94zM54.76 10.21a1.87 1.87 0 0 1 1.17.41 13.68 13.68 0 0 0-.12 2 3.08 3.08 0 0 1-1 .15 1.86 1.86 0 0 0-.25-1 .68.68 0 0 0-.58-.29 1 1 0 0 0-.65.35 2.58 2.58 0 0 0-.57.88 3.15 3.15 0 0 0-.22 1.19v1.6a3.24 3.24 0 0 0 .15 1.12.94.94 0 0 0 .46.53 2.71 2.71 0 0 0 .9.17 2.25 2.25 0 0 1 .08.73C53.64 18 52.93 18 52 18s-1.8 0-2.24.05a2.58 2.58 0 0 1 .08-.73 1.23 1.23 0 0 0 .92-.32 1.9 1.9 0 0 0 .24-1.16v-3.37a1.66 1.66 0 0 0-.11-.67.57.57 0 0 0-.35-.38 2.06 2.06 0 0 0-.82-.15 1.18 1.18 0 0 1 .15-.63 6.16 6.16 0 0 0 1.21-.21 4.68 4.68 0 0 0 1.07-.37c.25.08.38.33.38.75a5.44 5.44 0 0 1-.11 1.09 5.3 5.3 0 0 1-.12.57l.14-.4a1.81 1.81 0 0 1 .22-.48 2.47 2.47 0 0 1 2.1-1.38zM65.72 17.32a2.28 2.28 0 0 1 .09.73C65.32 18 64.7 18 64 18h-1.68a1.57 1.57 0 0 1-.34 0 2.2 2.2 0 0 1 .09-.73 1.13 1.13 0 0 0 .9-.32 1.86 1.86 0 0 0 .27-1.16v-2.53a2.36 2.36 0 0 0-.43-1.6 1.42 1.42 0 0 0-1.15-.48 1.69 1.69 0 0 0-.92.29 2.12 2.12 0 0 0-.73.94 4.2 4.2 0 0 0-.32 1.59v1.82a2 2 0 0 0 .25 1.18 1.13 1.13 0 0 0 .92.31 2.28 2.28 0 0 1 .09.73l-2-.05c-.86 0-1.53 0-2 .05a2.58 2.58 0 0 1 .08-.73 1.12 1.12 0 0 0 .87-.31 1.94 1.94 0 0 0 .26-1.17v-3.36a1.89 1.89 0 0 0-.1-.67.62.62 0 0 0-.36-.38 2 2 0 0 0-.82-.15 1.09 1.09 0 0 1 .16-.63 6.07 6.07 0 0 0 1.2-.21 4.51 4.51 0 0 0 1.07-.37c.25.08.38.33.38.75a3.92 3.92 0 0 1-.12 1 .93.93 0 0 0 .08-.17c.05-.09.11-.18.17-.27a3.12 3.12 0 0 1 1-.85 2.93 2.93 0 0 1 1.48-.37 2.41 2.41 0 0 1 1.75.66 2.84 2.84 0 0 1 .68 2.11v2.92A2 2 0 0 0 65 17a.89.89 0 0 0 .72.32z" />
</svg>
