<svg xmlns="http://www.w3.org/2000/svg" viewBox="0 0 120 24">
  <path d="M18.2 6.4H17l-3 9.73-3.35-9.73H9.42L6.1 16.13l-3-9.84-1.2.27 3.61 11.49h1L10 8.08l3.49 10h1.05zM27.49 18v-6.08a2.35 2.35 0 0 0-2.64-2.58 4.87 4.87 0 0 0-3.1 1.38V5.14l-1.18.2V18h1.18v-6.13a4.47 4.47 0 0 1 2.88-1.45 1.52 1.52 0 0 1 1.66 1.74V18zM32 6.64a.87.87 0 0 0-.87-.85.86.86 0 1 0 .87.85zM31.75 18V9.52h-1.18V18zM38.81 18l-.16-1a4 4 0 0 1-.83.08c-1 0-1.33-.37-1.33-1.23v-5.32h2.21l-.14-1h-2.07V6.38l-1.16.21v2.93H34v1h1.36v5.53c0 1.57.89 2.08 2.27 2.08a5.18 5.18 0 0 0 1.18-.13zM48.09 18v-6.06a2.36 2.36 0 0 0-2.64-2.6 5 5 0 0 0-3.17 1.43l-.21-1.25h-.91V18h1.18v-6.13a4.47 4.47 0 0 1 2.88-1.45 1.52 1.52 0 0 1 1.67 1.74V18zM57.79 17l-.18-1.08a4.85 4.85 0 0 1-3.09 1.25c-1.79 0-2.8-1.21-2.83-3.31h6.11v-.26c0-2.35-1.16-4.24-3.55-4.24-2.17 0-3.77 1.7-3.77 4.4 0 2.93 1.66 4.44 4 4.44a5.17 5.17 0 0 0 3.31-1.2zm-3.55-6.69c1.44 0 2.24 1.09 2.35 2.62h-4.85c.26-1.71 1.18-2.64 2.5-2.64zM67.06 9.52h-1.24l-2.62 7.09-2.73-7.2-1.21.22 3.35 8.42-.37.88c-.37.93-.82 1.25-1.57 1.25a4.32 4.32 0 0 1-.68-.07l.17 1.06a2.58 2.58 0 0 0 .53 0c1.23 0 2-.48 2.62-2.12z" />
</svg>
