<svg xmlns="http://www.w3.org/2000/svg" viewBox="0 0 120 24">
  <path d="M10 18l.46-3.38-1.1-.15-.49 2.41H3.36v-.05l6.76-9.5v-.7H2.24L1.8 9.92l1.09.15.49-2.32h4.9l-6.72 9.48V18zM12.94 8.2h1.33V6.61h-1.33zm2.71 9.8v-1h-1.36v-6.79h-2.63v1h1.4V17H11.7v1zM20.31 18v-1h-1.37V6h-2.6v1h1.38v10h-1.37v1zM25 18v-1h-1.41V6H21v1h1.38v10H21v1zM26.72 10.81l-.28 1.8 1 .12.3-1.34a3.39 3.39 0 0 1 1.51-.32c1.4 0 1.76.77 1.76 1.89v.7c-.42 0-.91-.07-1.38-.07C27.89 13.59 26 14 26 16a2.15 2.15 0 0 0 2.36 2.19A3.09 3.09 0 0 0 31 16.56c0 1 .51 1.58 1.42 1.58a2.12 2.12 0 0 0 1-.27v-.8a1.42 1.42 0 0 1-.53.1c-.45 0-.66-.26-.66-.84v-3.67c0-1.75-1-2.6-2.78-2.6a4.79 4.79 0 0 0-2.73.75zM31 15.08a2.27 2.27 0 0 1-2.29 2.08 1.28 1.28 0 0 1-1.45-1.31c0-1.21 1.14-1.45 2.29-1.45.53 0 1 0 1.45.08zM46.3 14.82c0-2.61-2.22-3-3.74-3.33-1.28-.3-2.54-.61-2.54-2 0-1.22 1-1.87 2.38-1.87a4.64 4.64 0 0 1 2.17.47l.17 1.7 1-.11-.1-2.25a6.2 6.2 0 0 0-3.41-1c-2 0-3.63 1-3.63 3.15s1.82 2.68 3.43 3c1.4.32 2.84.6 2.84 2.33 0 1.54-1.24 2.12-2.75 2.12a5.1 5.1 0 0 1-2.36-.51l.07-1.44-1-.08-.25 2.24a6.59 6.59 0 0 0 3.66.93c2.31.01 4.06-1.17 4.06-3.35zM51.36 18v-1H50V6h-2.61v1h1.38v10h-1.36v1zM53.12 10.81l-.28 1.8 1 .12.3-1.34a3.38 3.38 0 0 1 1.5-.32c1.4 0 1.77.77 1.77 1.89v.7c-.42 0-.91-.07-1.38-.07-1.75 0-3.64.44-3.64 2.4a2.15 2.15 0 0 0 2.36 2.19 3.09 3.09 0 0 0 2.66-1.62c0 1 .51 1.58 1.42 1.58a2.11 2.11 0 0 0 1-.27v-.8a1.34 1.34 0 0 1-.52.1c-.46 0-.67-.26-.67-.84v-3.67c0-1.75-1-2.6-2.78-2.6a4.83 4.83 0 0 0-2.74.75zm4.31 4.27a2.29 2.29 0 0 1-2.29 2.08 1.29 1.29 0 0 1-1.46-1.31c0-1.21 1.14-1.45 2.3-1.45.52 0 1 0 1.45.08zM68.85 13.91c0-2.47-1.41-3.85-3.35-3.85a2.9 2.9 0 0 0-2.78 1.76V6h-2.57v1h1.34v8.77a16.12 16.12 0 0 1-.24 2.23h1.22l.18-1.3a2.92 2.92 0 0 0 2.73 1.48c2.47 0 3.47-2.18 3.47-4.27zm-1.3.12c0 1.61-.72 3.09-2.43 3.09a2.34 2.34 0 0 1-2.4-2.34v-1.17a2.6 2.6 0 0 1 2.49-2.5c1.31 0 2.34.98 2.34 2.89z" />
</svg>
