<svg fill="none" height="41" viewBox="0 0 41 41" width="41" xmlns="http://www.w3.org/2000/svg" xmlns:xlink="http://www.w3.org/1999/xlink"><linearGradient id="a" gradientUnits="userSpaceOnUse" x1="34.5935" x2="4.44609" y1="6.63135" y2="35.7129"><stop offset=".05" stop-color="#fff44f"/><stop offset=".37" stop-color="#ff980e"/><stop offset=".53" stop-color="#ff3647"/><stop offset=".7" stop-color="#e31587"/></linearGradient><radialGradient id="b" cx="0" cy="0" gradientTransform="matrix(38.4001 0 0 39.0468 27.859 4.94452)" gradientUnits="userSpaceOnUse" r="1"><stop offset=".13" stop-color="#ffbd4f"/><stop offset=".28" stop-color="#ff980e"/><stop offset=".47" stop-color="#ff3750"/><stop offset=".78" stop-color="#eb0878"/><stop offset=".86" stop-color="#e50080"/></radialGradient><radialGradient id="c" cx="0" cy="0" gradientTransform="matrix(39.3601 0 0 39.0468 16.7245 21.0718)" gradientUnits="userSpaceOnUse" r="1"><stop offset=".3" stop-color="#960e18"/><stop offset=".35" stop-color="#b11927" stop-opacity=".74"/><stop offset=".43" stop-color="#db293d" stop-opacity=".34"/><stop offset=".5" stop-color="#f5334b" stop-opacity=".09"/><stop offset=".53" stop-color="#ff3750" stop-opacity="0"/></radialGradient><radialGradient id="d" cx="0" cy="0" gradientTransform="matrix(12.6039 0 0 21.3983 24.3355 -1.20463)" gradientUnits="userSpaceOnUse" r="1"><stop offset=".13" stop-color="#fff44f"/><stop offset=".53" stop-color="#ff980e"/></radialGradient><radialGradient id="e" cx="0" cy="0" gradientTransform="matrix(16.6784 0 0 18.2797 16.0177 31.1522)" gradientUnits="userSpaceOnUse" r="1"><stop offset=".35" stop-color="#3a8ee6"/><stop offset=".67" stop-color="#9059ff"/><stop offset="1" stop-color="#c139e6"/></radialGradient><radialGradient id="f" cx="0" cy="0" gradientTransform="matrix(8.85621 0 0 10.785 18.8675 17.0567)" gradientUnits="userSpaceOnUse" r="1"><stop offset=".21" stop-color="#9059ff" stop-opacity="0"/><stop offset=".97" stop-color="#6e008b" stop-opacity=".6"/></radialGradient><radialGradient id="g" cx="0" cy="0" gradientTransform="matrix(13.2594 0 0 13.3065 19.3897 3.50556)" gradientUnits="userSpaceOnUse" r="1"><stop offset=".1" stop-color="#ffe226"/><stop offset=".79" stop-color="#ff7139"/></radialGradient><radialGradient id="h" cx="0" cy="0" gradientTransform="matrix(63.303 0 0 53.1394 31.4989 -5.22372)" gradientUnits="userSpaceOnUse" r="1"><stop offset=".11" stop-color="#fff44f"/><stop offset=".46" stop-color="#ff980e"/><stop offset=".72" stop-color="#ff3647"/><stop offset=".9" stop-color="#e31587"/></radialGradient><radialGradient id="i" cx="0" cy="0" gradientTransform="matrix(4.38299248 19.59970406 -84.78556892 18.96021031 7.98963 12.325)" gradientUnits="userSpaceOnUse" r="1"><stop offset="0" stop-color="#fff44f"/><stop offset=".3" stop-color="#ff980e"/><stop offset=".57" stop-color="#ff3647"/><stop offset=".74" stop-color="#e31587"/></radialGradient><radialGradient id="j" cx="0" cy="0" gradientTransform="matrix(36.3452 0 0 35.7067 19.5259 8.29161)" gradientUnits="userSpaceOnUse" r="1"><stop offset=".14" stop-color="#fff44f"/><stop offset=".48" stop-color="#ff980e"/><stop offset=".66" stop-color="#ff3647"/><stop offset=".9" stop-color="#e31587"/></radialGradient><radialGradient id="k" cx="0" cy="0" gradientTransform="matrix(43.6857 0 0 39.082 28.9594 10.38)" gradientUnits="userSpaceOnUse" r="1"><stop offset=".09" stop-color="#fff44f"/><stop offset=".63" stop-color="#ff980e"/></radialGradient><linearGradient id="l" gradientUnits="userSpaceOnUse" x1="31.875" x2="7.76752" y1="6.05011" y2="32.3902"><stop offset=".17" stop-color="#fff44f" stop-opacity=".8"/><stop offset=".6" stop-color="#fff44f" stop-opacity="0"/></linearGradient><clipPath id="m"><path d="m.625.625h40v40h-40z"/></clipPath><g clip-path="url(#m)"><path d="m38.0241 13.6213c-.816-1.9628-2.4687-4.08183-3.7665-4.75159 1.0562 2.07069 1.6675 4.14789 1.9011 5.69809 0 .0031.0012.0107.0037.0313-2.123-5.29166-5.723-7.42541-8.6626-12.07135-.1484-.23492-.2972-.47046-.4422-.71875-.0739-.12679-.1428-.25637-.2068-.38843-.1221-.2358-.2163-.485033-.2807-.742659.0005-.012197-.0036-.024121-.0115-.03343s-.019-.015331-.0311-.016883c-.0115-.003301-.0237-.003301-.0353 0-.0026.000938-.0065.003985-.0093.005078-.0042.001641-.0094.005391-.0138.007813.0021-.002813.0065-.009141.0078-.010625-4.7164 2.762186-6.3164 7.871956-6.4634 10.428436-1.8834.1295-3.6841.8234-5.1673 1.9913-.1553-.1312-.3177-.2538-.4864-.3672-.4279-1.4972-.4461-3.08185-.0526-4.58847-1.9288.8782-3.4289 2.26637-4.51956 3.49217h-.00868c-.74429-.9427-.69179-4.05256-.64937-4.70186-.00891-.04024-.55524.28359-.6268.33242-.65678.46881-1.27079.99482-1.83484 1.57188-.64186.6509-1.22832 1.35416-1.75328 2.10256 0 .001-.00055.002-.00086.003 0-.001.00055-.002.00086-.003-1.20732 1.7109-2.06358 3.6441-2.5193 5.6879-.00898.0407-.01656.0829-.02531.1239-.03531.1653-.1625.9922-.18477 1.1719-.00172.0138-.0025.0271-.00414.0409-.16443.8549-.26627 1.7207-.30469 2.5904 0 .032-.00195.0638-.00195.0959.00031 10.3682 8.40659 18.773 18.77559 18.773 9.2864 0 16.9969-6.7412 18.5064-15.5961.0318-.2403.0573-.4818.0854-.7243.3732-3.2195-.0415-6.6035-1.2178-9.4333zm-21.6402 14.6949c.0878.0419.1703.0878.2605.128.0037.0026.0089.0055.0127.0079-.0918-.0439-.1829-.0892-.2732-.1359zm19.78-13.7125-.0025-.0182c.0009.0066.0021.0136.0031.0202z" fill="url(#a)"/><path d="m38.0245 13.6213c-.8161-1.9628-2.4688-4.08191-3.7666-4.75167 1.0562 2.07067 1.6676 4.14787 1.9012 5.69817 0-.0046.0008.0037.0028.0176.0009.0067.0021.0136.0031.0202 1.7715 4.8024.8064 9.6858-.5843 12.67-2.1515 4.6172-7.3605 9.3492-15.5137 9.1184-8.809-.2495-16.5695-6.7856-18.01817-15.3464-.26399-1.35 0-2.0355.13281-3.1316-.1618.845-.22344 1.0891-.30469 2.5904 0 .0321-.00195.0638-.00195.0959.00016 10.3678 8.4064 18.7726 18.7755 18.7726 9.2863 0 16.9968-6.7412 18.5064-15.5961.0318-.2403.0572-.4818.0853-.7243.3732-3.2195-.0414-6.6035-1.2177-9.4332z" fill="url(#b)"/><path d="m38.0245 13.6213c-.8161-1.9628-2.4688-4.08191-3.7666-4.75167 1.0562 2.07067 1.6676 4.14787 1.9012 5.69817 0-.0046.0008.0037.0028.0176.0009.0067.0021.0136.0031.0202 1.7715 4.8024.8064 9.6858-.5843 12.67-2.1515 4.6172-7.3605 9.3492-15.5137 9.1184-8.809-.2495-16.5695-6.7856-18.01817-15.3464-.26399-1.35 0-2.0355.13281-3.1316-.1618.845-.22344 1.0891-.30469 2.5904 0 .0321-.00195.0638-.00195.0959.00016 10.3678 8.4064 18.7726 18.7755 18.7726 9.2863 0 16.9968-6.7412 18.5064-15.5961.0318-.2403.0572-.4818.0853-.7243.3732-3.2195-.0414-6.6035-1.2177-9.4332z" fill="url(#c)"/><path d="m28.9003 15.8281c.041.0288.0782.0574.1167.0859-.4712-.8362-1.058-1.6019-1.743-2.2743-5.8363-5.83565-1.5304-12.653308-.8042-12.999558.0021-.002813.0065-.009141.0078-.010625-4.7164 2.762183-6.3164 7.871953-6.4634 10.428483.2187-.0152.4368-.0336.6595-.0336 3.5196 0 6.5851 1.9352 8.2266 4.8037z" fill="url(#d)"/><path d="m20.6851 16.9933c-.0307.4671-1.6808 2.0776-2.2578 2.0776-5.339 0-6.2056 3.2293-6.2056 3.2293.2365 2.7195 2.1297 4.959 4.4227 6.144.1046.054.2105.1029.3164.1511.1817.0805.3656.1557.5515.2255.7862.2784 1.6097.4372 2.4431.4712 9.3578.4389 11.1707-11.187 4.4175-14.5631 1.7295-.3008 3.5246.3947 4.5271 1.099-1.6415-2.8683-4.707-4.8035-8.2265-4.8035-.2227 0-.4407.0184-.6596.0335-1.8834.1295-3.684.8234-5.1673 1.9913.2863.2422.6094.5659 1.2902 1.2365 1.2736 1.2553 4.5414 2.5551 4.5483 2.7076z" fill="url(#e)"/><path d="m20.6851 16.9933c-.0307.4671-1.6808 2.0776-2.2578 2.0776-5.339 0-6.2056 3.2293-6.2056 3.2293.2365 2.7195 2.1297 4.959 4.4227 6.144.1046.054.2105.1029.3164.1511.1817.0805.3656.1557.5515.2255.7862.2784 1.6097.4372 2.4431.4712 9.3578.4389 11.1707-11.187 4.4175-14.5631 1.7295-.3008 3.5246.3947 4.5271 1.099-1.6415-2.8683-4.707-4.8035-8.2265-4.8035-.2227 0-.4407.0184-.6596.0335-1.8834.1295-3.684.8234-5.1673 1.9913.2863.2422.6094.5659 1.2902 1.2365 1.2736 1.2553 4.5414 2.5551 4.5483 2.7076z" fill="url(#f)"/><path d="m13.9711 12.4246c.1308.0844.2605.1703.3892.2578-.428-1.4972-.4462-3.08178-.0527-4.58841-1.9287.87821-3.4289 2.26641-4.51951 3.49221.09023-.0026 2.81361-.0516 4.18301.8384z" fill="url(#g)"/><path d="m2.04862 21.0476c1.44867 8.5608 9.20918 15.097 18.01808 15.3464 8.1532.2308 13.3623-4.5015 15.5138-9.1184 1.3906-2.9844 2.3558-7.8672.5843-12.6699l-.0006-.0021-.0025-.0182c-.002-.0139-.0032-.0222-.0028-.0176 0 .003.0011.0106.0036.0312.666 4.3485-1.5461 8.5613-5.004 11.4097l-.0103.0245c-6.7379 5.4861-13.1855 3.31-14.491 2.4192-.0917-.0442-.1829-.0896-.2734-.1362-3.9283-1.8773-5.5511-5.4561-5.2031-8.5253-3.317 0-4.44802-2.7976-4.44802-2.7976s2.97805-2.1233 6.90302-.2766c3.6351 1.7104 7.049.2768 7.0494.2766-.007-.1525-3.2748-1.4523-4.5487-2.7075-.6807-.6706-1.0039-.994-1.2901-1.2366-.1553-.1311-.3177-.2537-.4864-.3671-.1288-.0873-.2585-.1733-.3891-.2579-1.3694-.89-4.09281-.841-4.18304-.8386h-.00867c-.7443-.9428-.6918-4.0526-.64938-4.7019-.0089-.04023-.55523.28359-.62679.33242-.65679.46881-1.2708.99482-1.83485 1.57188-.64187.65105-1.22833 1.3545-1.75328 2.103 0 .001-.00055.0021-.00086.003 0-.001.00055-.002.00086-.003-1.20732 1.7109-2.06358 3.6441-2.5193 5.6879-.00898.0407-.67578 2.9564-.34687 4.4687z" fill="url(#h)"/><path d="m27.2739 13.6396c.685.6725 1.2717 1.4381 1.743 2.2744.1033.0777.1999.1551.2818.2306 4.2564 3.9219 2.0263 9.4688 1.8599 9.8641 3.4579-2.8484 5.67-7.0612 5.004-11.4097-2.123-5.29156-5.7229-7.42531-8.6625-12.07125-.1485-.23492-.2973-.47046-.4423-.71875-.0738-.12679-.1428-.25637-.2067-.38843-.1222-.2358-.2164-.485033-.2807-.742659.0004-.012197-.0037-.024121-.0116-.03343s-.019-.015331-.0311-.016883c-.0115-.003301-.0237-.003301-.0352 0-.0027.000938-.0066.003985-.0094.005078-.0041.001641-.0094.005391-.0137.007813-.7259.345937-5.0318 7.163591.8045 12.999111z" fill="url(#i)"/><path d="m29.2987 16.1446c-.082-.0755-.1785-.153-.2819-.2306-.0382-.0288-.0757-.0574-.1166-.086-1.0025-.7042-2.7977-1.3997-4.5271-1.0989 6.7532 3.376 4.9402 15.002-4.4176 14.5631-.8334-.034-1.6569-.1928-2.4431-.4712-.1859-.0699-.3698-.1451-.5515-.2255-.1059-.0482-.2118-.0971-.3164-.1511.0038.0026.0089.0054.0128.0078 1.3054.8906 7.753 3.0669 14.4909-2.4192l.0104-.0245c.1663-.3948 2.3965-5.9419-1.8599-9.8639z" fill="url(#j)"/><path d="m12.2219 22.3003s.8666-3.2293 6.2056-3.2293c.5772 0 2.2273-1.6106 2.2578-2.0776.0306-.467-3.414 1.4337-7.0494-.2767-3.92494-1.8467-6.90299.2767-6.90299.2767s1.13102 2.7976 4.44799 2.7976c-.3479 3.0692 1.2749 6.6484 5.2031 8.5253.0878.0419.1703.0878.2605.128-2.2928-1.1851-4.1861-3.4245-4.4226-6.144z" fill="url(#k)"/><path d="m38.0243 13.6213c-.816-1.9628-2.4688-4.08183-3.7666-4.75159 1.0563 2.07069 1.6676 4.14789 1.9012 5.69809 0 .0031.0012.0107.0037.0313-2.1231-5.29166-5.723-7.42541-8.6626-12.07135-.1484-.23492-.2973-.47046-.4423-.71875-.0738-.12679-.1428-.25637-.2067-.38843-.1221-.2358-.2163-.485033-.2807-.742659.0005-.012197-.0037-.024121-.0116-.03343s-.0189-.015331-.031-.016883c-.0116-.003301-.0238-.003301-.0353 0-.0026.000938-.0065.003985-.0094.005078-.0041.001641-.0093.005391-.0137.007813.0021-.002813.0065-.009141.0078-.010625-4.7164 2.762186-6.3164 7.871956-6.4634 10.428436.2187-.0152.4368-.0335.6595-.0335 3.5198 0 6.5852 1.9351 8.2266 4.8034-1.0025-.7042-2.7977-1.3997-4.5271-1.099 6.7532 3.3761 4.9402 15.0021-4.4176 14.5632-.8334-.034-1.6569-.1929-2.4431-.4712-.1859-.0699-.3698-.1451-.5515-.2255-.1059-.0483-.2118-.0971-.3164-.1511.0038.0025.0089.0054.0128.0078-.0918-.0442-.1829-.0896-.2735-.1362.0878.0419.1703.0878.2605.128-2.293-1.185-4.1862-3.4244-4.4227-6.1439 0 0 .8666-3.2293 6.2056-3.2293.5772 0 2.2273-1.6106 2.2578-2.0776-.0069-.1525-3.2748-1.4524-4.5487-2.7075-.6807-.6706-1.0039-.994-1.2901-1.2366-.1553-.1312-.3177-.2537-.4863-.3672-.428-1.4972-.4462-3.08179-.0527-4.58841-1.9288.87821-3.4289 2.26641-4.51954 3.49221h-.00867c-.74429-.9428-.69179-4.0526-.64937-4.7019-.00891-.04023-.55524.2836-.6268.33243-.65678.4688-1.27079.99481-1.83484 1.57187-.64168.651-1.22795 1.3544-1.75274 2.1028 0 .001-.00054.002-.00086.003 0-.001.00055-.002.00086-.003-1.20731 1.7109-2.06357 3.6441-2.51929 5.6879-.00899.0407-.01657.0829-.02532.1239-.03531.1653-.19421 1.0042-.2164 1.1841-.00172.0138.00164-.0138 0 0-.14491.8668-.23737 1.7416-.27688 2.6195 0 .032-.00195.0638-.00195.0959 0 10.3678 8.4062 18.7726 18.7753 18.7726 9.2863 0 16.9969-6.7412 18.5064-15.5961.0318-.2403.0573-.4818.0853-.7243.3732-3.2195-.0414-6.6035-1.2177-9.4333zm-1.8626.9642c.0009.0066.0021.0136.0031.0202l-.0006-.002z" fill="url(#l)"/></g></svg>