<svg xmlns="http://www.w3.org/2000/svg" viewBox="0 0 120 24">
  <path d="M1.45 7.09l1.84.51v9.28l-1.84.51.05.61h4.83C8.92 18 11 16.72 11 14.71c0-1.55-1.26-2.52-3.53-2.79 2-.38 3-1.53 3-2.92 0-1.6-1.44-2.52-3.92-2.52H1.5zm4.81.24c1.62 0 2.62.68 2.62 2s-1 2.27-2.73 2.27H4.73V7.33zm0 5c1.85 0 3.07.84 3.07 2.44s-1.13 2.37-3.07 2.37H4.73v-4.77zM16.45 17.44l-1.51-.39V5.63l-.18-.09a8 8 0 0 0-2.41 1v.27l.7.31c.38.16.47.3.47.75v9.2l-1.22.42.09.5h4zM24.94 17.28l-.12-.28-1.37.18a7.43 7.43 0 0 1-.07-1.28v-4a1.94 1.94 0 0 0-2.07-2.23 4.14 4.14 0 0 0-2.54 1 1.92 1.92 0 0 0-.88 1.55 2.21 2.21 0 0 0 .09.59l1.15-.07a6.6 6.6 0 0 1 .22-1.8 5.92 5.92 0 0 1 1.13-.15c1.19 0 1.55.6 1.53 1.77v1.13l-2 .45c-1.67.4-2.59 1.21-2.59 2.41a1.73 1.73 0 0 0 1.84 1.82A3.49 3.49 0 0 0 22 16.65h.07c0 1 .38 1.58 1.12 1.58a2.62 2.62 0 0 0 1.75-.95zM19 16c0-.68.41-1.1 1.33-1.39l1.67-.5v1.95a2.92 2.92 0 0 1-1.93 1.08A1 1 0 0 1 19 16zM29.8 17.44l-1.51-.39v-5.44a4.22 4.22 0 0 1 2.3-.76 1.41 1.41 0 0 1 1.62 1.57v4.66L31 17.5l.09.5h4l.09-.56-1.51-.39V12a2.12 2.12 0 0 0-2.21-2.39 4.76 4.76 0 0 0-3.24 1.54h-.11l.27-1.46-.18-.09a7.45 7.45 0 0 0-2.47 1v.27l.71.3c.37.17.46.31.46.76v5.2l-1.22.42.09.5h4zM42.84 16.18l-.38-.38A3.07 3.07 0 0 1 40.1 17c-1.62 0-2.68-1.38-2.68-3.33s1-3.15 2.43-3.15a2.62 2.62 0 0 1 1.3.35l.39 1.35h.92a4.86 4.86 0 0 0 .14-2.13 5.85 5.85 0 0 0-2.32-.48C37.55 9.58 36 11.7 36 14.15c0 2.64 1.67 4.1 3.65 4.1a3.4 3.4 0 0 0 3.19-2.07zM47.93 18.25a4.3 4.3 0 0 0 4.13-4.59 3.76 3.76 0 0 0-3.78-4.08 4.19 4.19 0 0 0-4.11 4.5c0 2.46 1.57 4.17 3.76 4.17zm-2.21-4.57c0-2 .92-3.19 2.3-3.19 1.59 0 2.49 1.5 2.49 3.6s-1 3.24-2.27 3.24c-1.53 0-2.52-1.58-2.52-3.65z" />
</svg>
