<svg xmlns="http://www.w3.org/2000/svg" viewBox="0 0 120 24">
  <path d="M7.42 18.14c2.92 0 5-1.76 5-5.07v-.85H7.67v1.16H11c0 2-1.12 3.64-3.6 3.64-2.69 0-4.1-1.85-4.1-4.68v-.13c0-2.8 1.5-4.72 4.13-4.72A2.9 2.9 0 0 1 10.68 10h1.39c-.35-2.58-2.38-3.64-4.65-3.64a5.49 5.49 0 0 0-5.54 5.84v.13c0 3.37 2.02 5.81 5.54 5.81zM14.61 18h1.33v-4.59c0-2.07 1.07-2.59 2.75-2.67V9.49a2.92 2.92 0 0 0-2.75 1.65V9.63h-1.33zM22.77 17.09c-1.17 0-1.58-.55-1.58-1.41 0-1.23 1.23-1.65 2.91-1.65h1.15v1c0 1.34-1.07 2.06-2.48 2.06zm-.13 1.05a3 3 0 0 0 2.61-1.2V18h1.33v-5.52c0-2.34-1.46-3-3.06-3s-3.13.7-3.31 2.61h1.33c.13-1 .77-1.51 1.92-1.51s1.79.56 1.79 1.89v.61h-1.2c-2.14 0-4.19.65-4.19 2.59 0 1.72 1.23 2.47 2.78 2.47zM33.22 17c-1.63 0-2.75-1-2.75-3.15v-.13c0-2.14 1.18-3.17 2.73-3.17s2.58 1.06 2.58 3.17v.13c0 2.07-.9 3.15-2.56 3.15zm-4 3.87h1.33v-4.25a3.15 3.15 0 0 0 2.83 1.52c2.3 0 3.81-1.76 3.81-4.32v-.12c0-2.61-1.62-4.21-3.81-4.21A3.42 3.42 0 0 0 30.52 11V9.63h-1.33zM39.22 18h1.33v-5.07a2.2 2.2 0 0 1 2.33-2.29c1.35 0 2 .66 2 2.13V18h1.33v-5.14c0-2.43-1.22-3.37-2.94-3.37A2.87 2.87 0 0 0 40.55 11V5.63h-1.33zM49.45 7.89a.88.88 0 1 0-.88-.89.89.89 0 0 0 .88.89zM48.81 18h1.33V9.63h-1.33zM52.86 18h1.33v-4.34L57.9 18h1.62l-3.89-4.48 3.58-3.89h-1.55l-3.47 3.86V5.63h-1.33z" />
</svg>
