<svg xmlns="http://www.w3.org/2000/svg" viewBox="0 0 120 24">
  <path d="M2 18.23h.86l.38-1.37a4.49 4.49 0 0 0 3.4 1.42 3.47 3.47 0 0 0 3.67-3.48c0-2.24-1.8-2.75-3.78-3.26-1.62-.43-3-.78-3-2.39a1.91 1.91 0 0 1 2.05-2c1.33 0 2.54.77 3.43 3h.79V6.38h-.91l-.35 1.21a3.92 3.92 0 0 0-2.92-1.26 3.25 3.25 0 0 0-3.5 3.25c0 2.24 1.84 2.84 3.67 3.33s3.12.89 3.12 2.43a2 2 0 0 1-2.28 2.1c-1.68 0-2.78-.93-3.88-3.18H2zM18.7 14.13c.05-2.08-1-4.14-3.26-4.14a3.88 3.88 0 0 0-3.74 4.16c0 2.34 1.4 4 3.69 4a3.17 3.17 0 0 0 3.27-2.47h-.73a2.22 2.22 0 0 1-2.24 1.54c-1.49 0-2.49-1.05-2.52-3.1zm-3.35-3.39c1.21 0 1.82 1 2 2.64h-4.17c.18-1.75 1.02-2.64 2.17-2.64zM19.93 18h3.87v-.91h-1.19v-3.43a2.59 2.59 0 0 1 2.27-2.55 1.3 1.3 0 0 1 1 .36 2.3 2.3 0 0 1 .46 1.63v4h-1.21v.9H29v-.91h-1.32v-4.6c0-1.61-.8-2.49-2.13-2.49-1 0-2.05.55-3 2.16v-2h-2.62V11h1.31v6.05h-1.31zM30.91 8.08v2.1h-1.59V11h1.59v5a1.87 1.87 0 0 0 2 2.14c1 0 1.85-.56 2.29-2.1l-.63-.25c-.33 1-.72 1.4-1.31 1.4s-1-.44-1-1.22V11h2.57v-.86h-2.55V7.9zM38 8.34a1 1 0 0 0 1-1 .94.94 0 0 0-1-1 1 1 0 0 0-1 1 .93.93 0 0 0 1 1zM36 18h4.32v-.91h-1.54v-7H36V11h1.48v6.05H36zM41.16 18H45v-.91h-1.16v-3.43a2.59 2.59 0 0 1 2.27-2.55 1.33 1.33 0 0 1 1 .36 2.3 2.3 0 0 1 .45 1.63v4h-1.2v.9h3.86v-.91h-1.31v-4.6c0-1.61-.8-2.49-2.13-2.49-1 0-2.05.55-3 2.16v-2h-2.62V11h1.31v6.05h-1.31zM58.19 14.13c.05-2.08-1-4.14-3.25-4.14a3.89 3.89 0 0 0-3.75 4.16c0 2.34 1.4 4 3.69 4a3.19 3.19 0 0 0 3.28-2.47h-.74a2.21 2.21 0 0 1-2.24 1.54c-1.49 0-2.48-1.05-2.52-3.1zm-3.34-3.39c1.21 0 1.82 1 1.94 2.64h-4.11c.17-1.75 1.01-2.64 2.17-2.64zM59.15 18h4.32v-.91H62V6h-2.85v.94h1.48v10.15h-1.48z" />
</svg>
