<svg width="24" height="24" viewBox="0 0 24 24"  xmlns="http://www.w3.org/2000/svg">
<path d="M19 8C20.6569 8 22 6.65685 22 5C22 3.34315 20.6569 2 19 2C17.3431 2 16 3.34315 16 5C16 5.12546 16.0077 5.24911 16.0227 5.37053L7.08254 9.84059C6.54298 9.32012 5.80887 9 5 9C3.34315 9 2 10.3431 2 12C2 13.6569 3.34315 15 5 15C5.80895 15 6.54311 14.6798 7.08268 14.1593L16.0227 18.6293C16.0077 18.7508 16 18.8745 16 19C16 20.6569 17.3431 22 19 22C20.6569 22 22 20.6569 22 19C22 17.3431 20.6569 16 19 16C18.1911 16 17.457 16.3201 16.9175 16.8406L7.97734 12.3705C7.9923 12.2491 8 12.1255 8 12C8 11.8745 7.99229 11.7507 7.97732 11.6293L16.9173 7.15927C17.4569 7.67982 18.191 8 19 8Z" />
</svg>
