<svg width="24" height="24" viewBox="0 0 24 24"  xmlns="http://www.w3.org/2000/svg">
<path d="M21.5808 17.924C21.2217 18.7275 20.7967 19.4672 20.3043 20.1473C19.633 21.0743 19.0834 21.716 18.6598 22.0724C18.0032 22.6573 17.2997 22.9569 16.5464 22.9739C16.0056 22.9739 15.3534 22.8248 14.5942 22.5224C13.8325 22.2214 13.1325 22.0724 12.4925 22.0724C11.8212 22.0724 11.1013 22.2214 10.3312 22.5224C9.56002 22.8248 8.93874 22.9824 8.46373 22.998C7.74132 23.0278 7.02125 22.7198 6.30251 22.0724C5.84376 21.6848 5.26997 21.0204 4.58259 20.0791C3.84508 19.0739 3.23875 17.9084 2.76374 16.5795C2.25502 15.1442 2 13.7543 2 12.4087C2 10.8673 2.34384 9.5379 3.03254 8.42385C3.57379 7.52901 4.29386 6.82313 5.19508 6.30493C6.09629 5.78674 7.07006 5.52267 8.11872 5.50578C8.69251 5.50578 9.44497 5.6777 10.38 6.0156C11.3125 6.35462 11.9112 6.52655 12.1737 6.52655C12.3699 6.52655 13.035 6.32552 14.1625 5.92473C15.2288 5.55305 16.1287 5.39916 16.8659 5.45978C18.8635 5.61595 20.3644 6.37876 21.3625 7.75304C19.5758 8.80164 18.6921 10.2703 18.7097 12.1544C18.7258 13.622 19.2754 14.8432 20.3556 15.8129C20.8451 16.2629 21.3918 16.6108 22 16.8578C21.8681 17.2283 21.7289 17.5833 21.5808 17.924ZM16.9993 0.460128C16.9993 1.61039 16.5654 2.68439 15.7007 3.67847C14.6572 4.86024 13.395 5.54312 12.0262 5.43536C12.0088 5.29736 11.9987 5.15213 11.9987 4.99951C11.9987 3.89526 12.4949 2.71349 13.3762 1.74724C13.8162 1.25801 14.3758 0.851216 15.0544 0.526712C15.7315 0.207051 16.372 0.0302682 16.9744 0C16.9919 0.153769 16.9993 0.307552 16.9993 0.460114V0.460128Z" />
</svg>
