<svg width="24" height="24" viewBox="0 0 24 24"  xmlns="http://www.w3.org/2000/svg">
<path d="M12 1C12.5523 1 13 1.44772 13 2V4C13 4.55228 12.5523 5 12 5C11.4477 5 11 4.55228 11 4V2C11 1.44772 11.4477 1 12 1Z" />
<path fill-rule="evenodd" clip-rule="evenodd" d="M12 17C14.7614 17 17 14.7614 17 12C17 9.23858 14.7614 7 12 7C9.23858 7 7 9.23858 7 12C7 14.7614 9.23858 17 12 17ZM12 15C13.6569 15 15 13.6569 15 12C15 10.3431 13.6569 9 12 9C10.3431 9 9 10.3431 9 12C9 13.6569 10.3431 15 12 15Z" />
<path d="M13 20C13 19.4477 12.5523 19 12 19C11.4477 19 11 19.4477 11 20V22C11 22.5523 11.4477 23 12 23C12.5523 23 13 22.5523 13 22V20Z" />
<path d="M23 12C23 12.5523 22.5523 13 22 13H20C19.4477 13 19 12.5523 19 12C19 11.4477 19.4477 11 20 11H22C22.5523 11 23 11.4477 23 12Z" />
<path d="M4 13C4.55228 13 5 12.5523 5 12C5 11.4477 4.55228 11 4 11H2C1.44772 11 1 11.4477 1 12C1 12.5523 1.44772 13 2 13H4Z" />
<path d="M4.22182 4.22182C4.61234 3.83129 5.24551 3.83129 5.63603 4.22182L7.05024 5.63603C7.44077 6.02656 7.44077 6.65972 7.05024 7.05024C6.65972 7.44077 6.02655 7.44077 5.63603 7.05024L4.22182 5.63603C3.83129 5.24551 3.83129 4.61234 4.22182 4.22182Z" />
<path d="M18.3639 16.9497C17.9734 16.5592 17.3402 16.5592 16.9497 16.9497C16.5592 17.3403 16.5592 17.9734 16.9497 18.364L18.3639 19.7782C18.7545 20.1687 19.3876 20.1687 19.7781 19.7782C20.1687 19.3876 20.1687 18.7545 19.7781 18.364L18.3639 16.9497Z" />
<path d="M19.7782 4.22183C20.1687 4.61236 20.1687 5.24552 19.7782 5.63604L18.3639 7.05026C17.9734 7.44078 17.3402 7.44078 16.9497 7.05026C16.5592 6.65973 16.5592 6.02657 16.9497 5.63604L18.3639 4.22183C18.7545 3.83131 19.3876 3.83131 19.7782 4.22183Z" />
<path d="M7.05025 18.364C7.44077 17.9734 7.44077 17.3403 7.05025 16.9497C6.65972 16.5592 6.02656 16.5592 5.63603 16.9497L4.22182 18.364C3.8313 18.7545 3.8313 19.3876 4.22182 19.7782C4.61234 20.1687 5.24551 20.1687 5.63603 19.7782L7.05025 18.364Z" />
</svg>
