<svg xmlns="http://www.w3.org/2000/svg" width="24" height="22"><defs/><path fill-rule="evenodd" d="M5 0a1 1 0 011 1v20a1 1 0 11-2 0v-8.586l-2.293 2.293a1 1 0 01-1.414-1.414L2.586 11 .293 8.707a1 1 0 011.414-1.414L4 9.586V1a1 1 0 011-1zm16.414 11l2.293-2.293a1 1 0 00-1.414-1.414L20 9.586V1a1 1 0 10-2 0v20a1 1 0 102 0v-8.586l2.293 2.293a1 1 0 001.414-1.414L21.414 11zM16 5a1 1 0 01-1 1H9a1 1 0 010-2h6a1 1 0 011 1zm-4 13a1 1 0 100-2H9a1 1 0 100 2h3zm4-5a1 1 0 01-1 1H9a1 1 0 110-2h6a1 1 0 011 1zm-1-3a1 1 0 100-2H9a1 1 0 100 2h6z"/></svg>