<svg width="24" height="24" viewBox="0 0 24 24"  xmlns="http://www.w3.org/2000/svg">
<path fill-rule="evenodd" clip-rule="evenodd" d="M12 23C18.0751 23 23 18.0751 23 12C23 5.92487 18.0751 1 12 1C5.92487 1 1 5.92487 1 12C1 18.0751 5.92487 23 12 23ZM6.34297 6.34315C6.62583 6.06029 7.05005 5.97322 7.42147 6.12178L14.4925 8.95021C14.7466 9.05185 14.948 9.25319 15.0496 9.5073L17.878 16.5784C18.0266 16.9498 17.9395 17.374 17.6567 17.6569C17.3738 17.9397 16.9496 18.0268 16.5782 17.8782L9.50711 15.0498C9.25301 14.9482 9.05167 14.7468 8.95003 14.4927L6.1216 7.42165C5.97303 7.05023 6.06011 6.62602 6.34297 6.34315ZM10.6478 13.352L10.6478 13.352L13.3518 10.648L13.3518 10.648L8.84513 8.84532L10.6478 13.352Z" />
</svg>
