<svg xmlns="http://www.w3.org/2000/svg" width="24" height="24"><defs/><path fill-rule="nonzero" d="M16.293 10.707c-.943-.943.471-2.357 1.414-1.414l2 2c.943.943-.471 2.357-1.414 1.414l-2-2zM1 20c0-4.35 3.919-8 9-8 5.082 0 9 3.65 9 8 0 1.534-1.12 3-2.6 3H3.6C2.118 23 1 21.545 1 20zm2 0c0 .539.355 1 .6 1h12.8c.24 0 .6-.472.6-1 0-3.213-2.993-6-7-6s-7 2.787-7 6zm7-10a5 5 0 110-10 5 5 0 010 10zm0-2a3 3 0 100-6 3 3 0 000 6zm8.293 3.293l4-4c.943-.943 2.357.471 1.414 1.414l-4 4c-.943.943-2.357-.471-1.414-1.414z"/></svg>