<svg width="24" height="24" viewBox="0 0 24 24"  xmlns="http://www.w3.org/2000/svg">
<path d="M12 2.83333C6.93739 2.83333 2.83333 6.93739 2.83333 12C2.83333 17.0626 6.93739 21.1667 12 21.1667C16.7812 21.1667 20.7083 17.5055 21.1293 12.8344C21.1747 12.3302 21.6203 11.9583 22.1245 12.0037C22.6287 12.0491 23.0006 12.4947 22.9552 12.9989C22.4499 18.6064 17.7385 23 12 23C5.92487 23 1 18.0751 1 12C1 5.92487 5.92487 1 12 1C15.4566 1 18.5397 2.59433 20.5557 5.08588L20.5556 3.41619C20.5556 2.90993 20.966 2.49952 21.4723 2.49952C21.9786 2.49951 22.389 2.90991 22.389 3.41618L22.389 7.76378C22.389 8.52318 21.7734 9.13879 21.014 9.13879H17.5833C17.077 9.13879 16.6666 8.72839 16.6666 8.22213C16.6666 7.71587 17.077 7.30546 17.5833 7.30546L19.8752 7.30546C18.2742 4.62568 15.3456 2.83333 12 2.83333Z" />
<path d="M15.9302 13.6225C15.9302 15.0158 14.931 15.905 13.4185 15.905C11.8052 15.905 11.0535 15.025 10.9893 13.8517H12.3552C12.4377 14.4017 12.6577 14.7683 13.4093 14.7683C14.0785 14.7683 14.436 14.3008 14.436 13.6042C14.436 12.8983 14.0327 12.4583 13.3727 12.4583C12.7585 12.4583 12.3827 12.6783 12.1168 12.9808H11.2918L11.3835 9.25H15.536V10.3775H12.4927L12.4652 12.0183C12.7218 11.7067 13.1802 11.4133 13.9227 11.4133C15.1143 11.4133 15.9302 12.2292 15.9302 13.6225Z" />
<path d="M9.85575 15.8042H8.37075V10.7167L7.04158 11.5875V10.3225L8.55408 9.25H9.85575V15.8042Z" />
</svg>
