<svg width="18" height="18" viewBox="0 0 18 18" fill="none" xmlns="http://www.w3.org/2000/svg">
<path d="M9 16C8.03167 16 7.12167 15.8161 6.27 15.4484C5.41833 15.0811 4.6775 14.5825 4.0475 13.9525C3.4175 13.3225 2.91887 12.5817 2.5516 11.73C2.18387 10.8783 2 9.96833 2 9C2 8.03167 2.18387 7.12167 2.5516 6.27C2.91887 5.41833 3.4175 4.6775 4.0475 4.0475C4.6775 3.4175 5.41833 2.91863 6.27 2.5509C7.12167 2.18363 8.03167 2 9 2C9.96833 2 10.8783 2.18363 11.73 2.5509C12.5817 2.91863 13.3225 3.4175 13.9525 4.0475C14.5825 4.6775 15.0811 5.41833 15.4484 6.27C15.8161 7.12167 16 8.03167 16 9C16 9.96833 15.8161 10.8783 15.4484 11.73C15.0811 12.5817 14.5825 13.3225 13.9525 13.9525C13.3225 14.5825 12.5817 15.0811 11.73 15.4484C10.8783 15.8161 9.96833 16 9 16ZM8.3 14.565V13.2C7.915 13.2 7.58553 13.063 7.3116 12.7891C7.0372 12.5147 6.9 12.185 6.9 11.8V11.1L3.54 7.74C3.505 7.95 3.4728 8.16 3.4434 8.37C3.41447 8.58 3.4 8.79 3.4 9C3.4 10.4117 3.86387 11.6483 4.7916 12.71C5.71887 13.7717 6.88833 14.39 8.3 14.565ZM13.13 12.78C13.3633 12.5233 13.5733 12.2461 13.76 11.9484C13.9467 11.6511 14.1014 11.342 14.2241 11.0209C14.3464 10.7003 14.4397 10.3708 14.5041 10.0325C14.568 9.69417 14.6 9.35 14.6 9C14.6 7.85667 14.2822 6.8125 13.6466 5.8675C13.0105 4.9225 12.1617 4.24 11.1 3.82V4.1C11.1 4.485 10.963 4.81447 10.6891 5.0884C10.4147 5.3628 10.085 5.5 9.7 5.5H8.3V6.9C8.3 7.09833 8.23303 7.26447 8.0991 7.3984C7.9647 7.5328 7.79833 7.6 7.6 7.6H6.2V9H10.4C10.5983 9 10.7647 9.06697 10.8991 9.2009C11.033 9.3353 11.1 9.50167 11.1 9.7V11.8H11.8C12.1033 11.8 12.3775 11.8903 12.6225 12.0709C12.8675 12.252 13.0367 12.4883 13.13 12.78Z" fill="#008078"/>
</svg>
