<svg width="24" height="24" viewBox="0 0 24 24"  xmlns="http://www.w3.org/2000/svg">
<path fill-rule="evenodd" clip-rule="evenodd" d="M5.51189 8.54563C4.20186 9.57986 4.00342 11.4613 5.0015 12.7412L4.27816 13.4645C3.35453 14.3881 3.15906 15.7642 3.69175 16.8793L1.17962 19.3914C0.653973 19.9171 0.865267 20.8121 1.5705 21.0472L5.81314 22.4614C6.17248 22.5812 6.56864 22.4877 6.83648 22.2199L7.93438 21.122C9.04951 21.6547 10.4256 21.4592 11.3492 20.5356L12.0951 19.7897C13.4195 20.6848 15.2718 20.3868 16.2283 19.0204L22.6338 9.86961C23.4686 8.67704 23.3268 7.05725 22.2974 6.0279L18.1854 1.91586C17.1097 0.840166 15.3992 0.739891 14.2051 1.68253L5.51189 8.54563ZM15.4444 3.2523L6.75118 10.1154C6.28136 10.4863 6.24045 11.1841 6.66372 11.6074L13.0635 18.0071C13.5031 18.4468 14.2332 18.3829 14.5898 17.8735L20.9954 8.72269C21.2736 8.32516 21.2263 7.78523 20.8832 7.44211L16.7712 3.33007C16.4126 2.97151 15.8424 2.93808 15.4444 3.2523ZM6.39948 14.1716L5.69237 14.8787C5.30185 15.2692 5.30185 15.9024 5.69237 16.2929L8.5208 19.1213C8.91132 19.5119 9.54449 19.5119 9.93501 19.1213L10.6421 18.4142L6.39948 14.1716Z" />
</svg>
