<svg width="24" height="24" viewBox="0 0 24 24"  xmlns="http://www.w3.org/2000/svg">
<path fill-rule="evenodd" clip-rule="evenodd" d="M12 4C7.58172 4 4 7.58172 4 12V12.8H6.5C7.60457 12.8 8.5 13.6954 8.5 14.8V20C8.5 21.1046 7.60457 22 6.5 22H5C3.34315 22 2 20.6569 2 19V12C2 6.47715 6.47715 2 12 2C17.5228 2 22 6.47715 22 12V19C22 20.6569 20.6569 22 19 22H17.5C16.3954 22 15.5 21.1046 15.5 20V14.8C15.5 13.6954 16.3954 12.8 17.5 12.8H20V12C20 7.58172 16.4183 4 12 4ZM20 14.8L17.5 14.8V20H19C19.5523 20 20 19.5523 20 19V14.8ZM4 14.8V19C4 19.5523 4.44772 20 5 20H6.5V14.8H4Z" />
</svg>
