<svg width="18" height="18" viewBox="0 0 18 18" fill="none" xmlns="http://www.w3.org/2000/svg">
<path d="M5.23529 15C4.89216 15 4.60063 14.8798 4.36071 14.6393C4.12024 14.3994 4 14.1078 4 13.7647V7.17647C4 6.83333 4.12024 6.5418 4.36071 6.30188C4.60063 6.06141 4.89216 5.94118 5.23529 5.94118H5.64706V4.29412C5.64706 3.3789 5.96741 2.60122 6.60812 1.96106C7.24827 1.32035 8.02596 1 8.94118 1C9.85639 1 10.6341 1.32035 11.2742 1.96106C11.9149 2.60122 12.2353 3.3789 12.2353 4.29412V5.94118H12.6471C12.9902 5.94118 13.2817 6.06141 13.5216 6.30188C13.7621 6.5418 13.8824 6.83333 13.8824 7.17647V13.7647C13.8824 14.1078 13.7621 14.3994 13.5216 14.6393C13.2817 14.8798 12.9902 15 12.6471 15H5.23529ZM8.94118 11.7059C9.28431 11.7059 9.57584 11.5856 9.81577 11.3452C10.0562 11.1053 10.1765 10.8137 10.1765 10.4706C10.1765 10.1275 10.0562 9.83592 9.81577 9.596C9.57584 9.35553 9.28431 9.23529 8.94118 9.23529C8.59804 9.23529 8.30651 9.35553 8.06659 9.596C7.82612 9.83592 7.70588 10.1275 7.70588 10.4706C7.70588 10.8137 7.82612 11.1053 8.06659 11.3452C8.30651 11.5856 8.59804 11.7059 8.94118 11.7059ZM6.88235 5.94118H11V4.29412C11 3.72204 10.7999 3.23588 10.3996 2.83565C9.99941 2.43541 9.51326 2.23529 8.94118 2.23529C8.3691 2.23529 7.88294 2.43541 7.48271 2.83565C7.08247 3.23588 6.88235 3.72204 6.88235 4.29412V5.94118Z" fill="#404040"/>
</svg>
