<svg width="24" height="24" viewBox="0 0 24 24"  xmlns="http://www.w3.org/2000/svg">
<path fill-rule="evenodd" clip-rule="evenodd" d="M19 8C19 11.8038 20.2058 14.4019 21.0884 16.3038C21.3884 16.9502 21.6511 17.5162 21.8165 18.0218C21.9881 18.5467 21.5541 19 21.0018 19H16.9C16.4367 21.2822 14.419 23 12 23C9.58104 23 7.56328 21.2822 7.10001 19H2.9973C2.44501 19 2.01186 18.5467 2.18353 18.0218C2.34886 17.5162 2.61154 16.9502 2.91153 16.3038C3.79422 14.4019 4.99999 11.8038 4.99999 8C4.99999 4.2 8.19999 1 12 1C15.8 1 19 4.2 19 8Z" />
</svg>
