<svg width="24" height="24" viewBox="0 0 24 24"  xmlns="http://www.w3.org/2000/svg">
<path fill-rule="evenodd" clip-rule="evenodd" d="M8.29289 13.2929C8.68342 12.9024 9.31658 12.9024 9.70711 13.2929L12 15.5858L14.2929 13.2929C14.6834 12.9024 15.3166 12.9024 15.7071 13.2929C16.0976 13.6834 16.0976 14.3166 15.7071 14.7071L13.4142 17L15.7071 19.2929C16.0976 19.6834 16.0976 20.3166 15.7071 20.7071C15.3166 21.0976 14.6834 21.0976 14.2929 20.7071L12 18.4142L9.70711 20.7071C9.31658 21.0976 8.68342 21.0976 8.29289 20.7071C7.90237 20.3166 7.90237 19.6834 8.29289 19.2929L10.5858 17L8.29289 14.7071C7.90237 14.3166 7.90237 13.6834 8.29289 13.2929Z" />
<path fill-rule="evenodd" clip-rule="evenodd" d="M12 3C8.45654 3 5.30462 4.67437 3.29119 7.27918C2.95343 7.71614 2.3254 7.79656 1.88843 7.45881C1.45147 7.12105 1.37105 6.49301 1.7088 6.05605C4.08466 2.98236 7.81105 1 12 1C16.1889 1 19.9153 2.98236 22.2912 6.05605C22.629 6.49301 22.5485 7.12105 22.1116 7.45881C21.6746 7.79656 21.0466 7.71614 20.7088 7.27918C18.6954 4.67437 15.5435 3 12 3Z" />
<path fill-rule="evenodd" clip-rule="evenodd" d="M12 8C9.81862 8 7.90801 9.16348 6.85652 10.9085C6.57149 11.3816 5.95694 11.534 5.48389 11.2489C5.01085 10.9639 4.85844 10.3494 5.14347 9.87631C6.54178 7.55569 9.08873 6 12 6C14.9113 6 17.4582 7.55569 18.8565 9.87631C19.1416 10.3494 18.9892 10.9639 18.5161 11.2489C18.0431 11.534 17.4285 11.3816 17.1435 10.9085C16.092 9.16348 14.1814 8 12 8Z" />
</svg>
