<svg width="24" height="24" viewBox="0 0 24 24"  xmlns="http://www.w3.org/2000/svg">
<path fill-rule="evenodd" clip-rule="evenodd" d="M8 18.5V5.5C8 4.67157 7.32843 4 6.5 4C5.67157 4 5 4.67157 5 5.5V18.5C5 19.3284 5.67157 20 6.5 20C7.32843 20 8 19.3284 8 18.5ZM6.5 2C4.567 2 3 3.567 3 5.5V18.5C3 20.433 4.567 22 6.5 22C8.433 22 10 20.433 10 18.5V5.5C10 3.567 8.433 2 6.5 2Z" />
<path fill-rule="evenodd" clip-rule="evenodd" d="M19 18.5V5.5C19 4.67157 18.3284 4 17.5 4C16.6716 4 16 4.67157 16 5.5V18.5C16 19.3284 16.6716 20 17.5 20C18.3284 20 19 19.3284 19 18.5ZM17.5 2C15.567 2 14 3.567 14 5.5V18.5C14 20.433 15.567 22 17.5 22C19.433 22 21 20.433 21 18.5V5.5C21 3.567 19.433 2 17.5 2Z" />
</svg>
