<svg fill="none" height="24" viewBox="0 0 24 24" width="24" xmlns="http://www.w3.org/2000/svg">
  <g clip-rule="evenodd" fill="#1a1a1a" fill-rule="evenodd">
    <path d="m7 4c-1.10457 0-2 .89543-2 2v12c0 1.1046.89543 2 2 2h10c1.1046 0 2-.8954 2-2v-4c0-.5523.4477-1 1-1s1 .4477 1 1v4c0 2.2091-1.7909 4-4 4h-10c-2.20914 0-4-1.7909-4-4v-12c0-2.20914 1.79086-4 4-4h2c.55228 0 1 .44772 1 1s-.44772 1-1 1z"/>
    <path d="m7 9c0-.55228.44772-1 1-1h3c.5523 0 1 .44772 1 1s-.4477 1-1 1h-3c-.55228 0-1-.44772-1-1z"/>
    <path d="m7 13c0-.5523.44772-1 1-1h8c.5523 0 1 .4477 1 1s-.4477 1-1 1h-8c-.55228 0-1-.4477-1-1z"/>
    <path d="m7 17c0-.5523.44772-1 1-1h8c.5523 0 1 .4477 1 1s-.4477 1-1 1h-8c-.55228 0-1-.4477-1-1z"/>
    <path d="m13 3c0-.55228.4477-1 1-1h6c.5523 0 1 .44772 1 1v6c0 .55228-.4477 1-1 1s-1-.44772-1-1v-3.58579l-3.2929 3.2929c-.3905.39052-1.0237.39052-1.4142 0-.3905-.39053-.3905-1.02369 0-1.41422l3.2929-3.29289h-3.5858c-.5523 0-1-.44772-1-1z"/>
  </g>
</svg>
