<svg xmlns="http://www.w3.org/2000/svg" width="24" height="24" fill="none"><defs/><path fill="#000" fill-rule="evenodd" d="M15.77 1.027a1 1 0 01.937.266l6 6a1 1 0 01-.39 1.656l-2.73.91-4.445 5.333a6.368 6.368 0 01-.155 4.501 7.005 7.005 0 01-.812 1.451 6 6 0 01-.45.544l-.01.012-.005.004-.001.002h-.001v.001a1 1 0 01-1.415 0L8 17.414l-4.793 4.793a1 1 0 01-1.414-1.414L6.586 16l-4.293-4.293a1 1 0 01-.15-1.222s0 .001 0 0l.001-.002.002-.003.004-.007.01-.016a2.03 2.03 0 01.118-.167c.074-.098.18-.224.32-.364.28-.281.702-.62 1.292-.895 1.113-.52 2.71-.76 4.886-.146l5.365-4.471.91-2.73a1 1 0 01.72-.657zM4.426 11.012l8.454 8.453c.088-.159.177-.337.258-.533.358-.87.566-2.085-.057-3.538a1 1 0 01.15-1.034l5-6a1 1 0 01.453-.309l1.465-.488-3.712-3.712-.488 1.465a1 1 0 01-.309.452l-6 5a1 1 0 01-.956.18c-2.046-.681-3.277-.418-3.949-.104-.115.054-.218.11-.309.168z" clip-rule="evenodd"/></svg>