<svg width="24" height="24" viewBox="0 0 24 24" fill="none" xmlns="http://www.w3.org/2000/svg">
<path d="M17 20C16.7167 20 16.4793 19.904 16.288 19.712C16.096 19.5207 16 19.2833 16 19V16H13C12.7167 16 12.4793 15.904 12.288 15.712C12.096 15.5207 12 15.2833 12 15C12 14.7167 12.096 14.479 12.288 14.287C12.4793 14.0957 12.7167 14 13 14H16V11C16 10.7167 16.096 10.479 16.288 10.287C16.4793 10.0957 16.7167 10 17 10C17.2833 10 17.5207 10.0957 17.712 10.287C17.904 10.479 18 10.7167 18 11V14H21C21.2833 14 21.5207 14.0957 21.712 14.287C21.904 14.479 22 14.7167 22 15C22 15.2833 21.904 15.5207 21.712 15.712C21.5207 15.904 21.2833 16 21 16H18V19C18 19.2833 17.904 19.5207 17.712 19.712C17.5207 19.904 17.2833 20 17 20ZM4 16C3.71667 16 3.47933 15.904 3.288 15.712C3.096 15.5207 3 15.2833 3 15C3 14.7167 3.096 14.479 3.288 14.287C3.47933 14.0957 3.71667 14 4 14H9C9.28333 14 9.521 14.0957 9.713 14.287C9.90433 14.479 10 14.7167 10 15C10 15.2833 9.90433 15.5207 9.713 15.712C9.521 15.904 9.28333 16 9 16H4ZM4 12C3.71667 12 3.47933 11.904 3.288 11.712C3.096 11.5207 3 11.2833 3 11C3 10.7167 3.096 10.479 3.288 10.287C3.47933 10.0957 3.71667 10 4 10H13C13.2833 10 13.521 10.0957 13.713 10.287C13.9043 10.479 14 10.7167 14 11C14 11.2833 13.9043 11.5207 13.713 11.712C13.521 11.904 13.2833 12 13 12H4ZM4 8C3.71667 8 3.47933 7.90433 3.288 7.713C3.096 7.521 3 7.28333 3 7C3 6.71667 3.096 6.479 3.288 6.287C3.47933 6.09567 3.71667 6 4 6H13C13.2833 6 13.521 6.09567 13.713 6.287C13.9043 6.479 14 6.71667 14 7C14 7.28333 13.9043 7.521 13.713 7.713C13.521 7.90433 13.2833 8 13 8H4Z" fill="#404040"/>
</svg>
