<svg width="24" height="24" viewBox="0 0 24 24"  xmlns="http://www.w3.org/2000/svg">
<path fill-rule="evenodd" clip-rule="evenodd" d="M10.3827 3.07612C10.7564 3.2309 11 3.59554 11 4V8.03428C13.8703 8.2306 16.6818 9.26343 18.8639 10.9606C21.3099 12.8631 23 15.6358 23 19C23 19.3688 22.797 19.7077 22.4719 19.8817C22.1468 20.0556 21.7525 20.0366 21.4457 19.8323L21.4456 19.8323C21.4455 19.8322 21.4454 19.8321 21.4453 19.832L21.444 19.8312L21.434 19.8246L21.389 19.7954C21.348 19.7689 21.2852 19.7289 21.2022 19.6772C21.036 19.5738 20.7889 19.424 20.4726 19.2432C19.8393 18.8813 18.9321 18.3975 17.8439 17.9138C15.9109 17.0547 13.4677 16.2239 11 16.0384V20C11 20.4045 10.7564 20.7691 10.3827 20.9239C10.009 21.0787 9.57889 20.9931 9.29289 20.7071L1.29289 12.7071C0.902369 12.3166 0.902369 11.6834 1.29289 11.2929L9.29289 3.29289C9.57889 3.00689 10.009 2.92134 10.3827 3.07612ZM20.7677 17.1207C20.3057 15.2999 19.1815 13.7414 17.6361 12.5394C15.5712 10.9334 12.7901 10 10 10C9.44772 10 9 9.55228 9 9V6.41421L3.41421 12L9 17.5858V15C9 14.4477 9.44772 14 10 14C13.2016 14 16.3502 15.0613 18.6561 16.0862C19.4645 16.4455 20.179 16.8046 20.7677 17.1207Z" />
</svg>
