<svg width="24" height="24" viewBox="0 0 24 24"  xmlns="http://www.w3.org/2000/svg">
<path fill-rule="evenodd" clip-rule="evenodd" d="M3 3C3 2.44772 3.44772 2 4 2H20C20.4045 2 20.7691 2.24364 20.9239 2.61732C21.0787 2.99099 20.9931 3.42111 20.7071 3.70711L16.4142 8L20.7071 12.2929C20.9931 12.5789 21.0787 13.009 20.9239 13.3827C20.7691 13.7564 20.4045 14 20 14H5V21C5 21.5523 4.55228 22 4 22C3.44772 22 3 21.5523 3 21V3ZM5 12H17.5858L14.2929 8.70711C13.9024 8.31658 13.9024 7.68342 14.2929 7.29289L17.5858 4H5V12Z" />
</svg>
