<svg width="24" height="24" viewBox="0 0 24 24"  xmlns="http://www.w3.org/2000/svg">
<path d="M5 4C2.79086 4 1 5.79086 1 8V16C1 18.2091 2.79086 20 5 20H7C7.55228 20 8 19.5523 8 19C8 18.4477 7.55228 18 7 18H5C3.89543 18 3 17.1046 3 16V8C3 6.89543 3.89543 6 5 6H10.5858L9.29289 7.29289C8.90237 7.68342 8.90237 8.31658 9.29289 8.70711C9.68342 9.09763 10.3166 9.09763 10.7071 8.70711L13.7071 5.70711C14.0976 5.31658 14.0976 4.68342 13.7071 4.29289L10.7071 1.29289C10.3166 0.902369 9.68342 0.902369 9.29289 1.29289C8.90237 1.68342 8.90237 2.31658 9.29289 2.70711L10.5858 4H5Z" />
<path d="M14.7071 22.7071C14.3166 23.0976 13.6834 23.0976 13.2929 22.7071L10.2929 19.7071C9.90237 19.3166 9.90237 18.6834 10.2929 18.2929L13.2929 15.2929C13.6834 14.9024 14.3166 14.9024 14.7071 15.2929C15.0976 15.6834 15.0976 16.3166 14.7071 16.7071L13.4142 18H19C20.1046 18 21 17.1046 21 16V8C21 6.89543 20.1046 6 19 6H17C16.4477 6 16 5.55228 16 5C16 4.44771 16.4477 4 17 4H19C21.2091 4 23 5.79086 23 8V16C23 18.2091 21.2091 20 19 20H13.4142L14.7071 21.2929C15.0976 21.6834 15.0976 22.3166 14.7071 22.7071Z" />
</svg>
