<svg width="24" height="24" viewBox="0 0 24 24"  xmlns="http://www.w3.org/2000/svg">
<path fill="none" d="M21.7363 10.3166L18.7935 9.81792C18.6742 9.44703 18.5245 9.08661 18.3459 8.74033L20.075 6.30574C20.1183 6.24475 20.1386 6.1704 20.1323 6.09587C20.126 6.02134 20.0936 5.95143 20.0407 5.89854L18.1014 3.9593C18.0486 3.90641 17.9786 3.87395 17.9041 3.86768C17.8296 3.86141 17.7552 3.88173 17.6942 3.92504L15.2597 5.65408C14.9134 5.47551 14.553 5.32579 14.1821 5.20646L13.6834 2.26371C13.6709 2.18997 13.6327 2.12302 13.5756 2.07475C13.5184 2.02648 13.4461 2 13.3713 2H10.6287C10.5539 2 10.4816 2.02649 10.4244 2.07476C10.3673 2.12303 10.3291 2.18997 10.3166 2.26371L9.81792 5.20646C9.44703 5.32579 9.08662 5.47551 8.74034 5.65408L6.30575 3.92505C6.24477 3.88174 6.17042 3.86142 6.09589 3.86769C6.02136 3.87396 5.95145 3.90642 5.89856 3.95931L3.95931 5.89855C3.90642 5.95144 3.87397 6.02134 3.86769 6.09588C3.86142 6.17041 3.88174 6.24476 3.92505 6.30574L5.65407 8.74034C5.47549 9.08662 5.32578 9.44703 5.20646 9.81792L2.2637 10.3166C2.18995 10.3291 2.12302 10.3673 2.07475 10.4244C2.02648 10.4816 2 10.554 2 10.6288V13.3713C2 13.4461 2.02648 13.5184 2.07475 13.5756C2.12302 13.6327 2.18995 13.6709 2.2637 13.6834L5.20646 14.1821C5.32578 14.553 5.47549 14.9134 5.65407 15.2597L3.92505 17.6943C3.88174 17.7552 3.86142 17.8296 3.86769 17.9041C3.87397 17.9787 3.90642 18.0486 3.95931 18.1015L5.89856 20.0407C5.95145 20.0936 6.02136 20.126 6.09589 20.1323C6.17042 20.1386 6.24477 20.1183 6.30575 20.075L8.74033 18.3459C9.08661 18.5245 9.44703 18.6742 9.81791 18.7935L10.3166 21.7363C10.3291 21.81 10.3673 21.877 10.4244 21.9252C10.4816 21.9735 10.5539 22 10.6287 22H13.3713C13.4461 22 13.5184 21.9735 13.5756 21.9252C13.6327 21.877 13.6709 21.81 13.6834 21.7363L14.1821 18.7935C14.553 18.6742 14.9134 18.5245 15.2597 18.3459L17.6942 20.075C17.7552 20.1183 17.8296 20.1386 17.9041 20.1323C17.9786 20.126 18.0485 20.0936 18.1014 20.0407L20.0407 18.1015C20.0936 18.0486 20.126 17.9787 20.1323 17.9041C20.1386 17.8296 20.1183 17.7552 20.0749 17.6943L18.3459 15.2597C18.5245 14.9134 18.6742 14.553 18.7935 14.1821L21.7363 13.6834C21.81 13.6709 21.877 13.6327 21.9252 13.5756C21.9735 13.5184 22 13.446 22 13.3712V10.6287C22 10.5539 21.9735 10.4816 21.9252 10.4244C21.877 10.3673 21.81 10.3291 21.7363 10.3166Z" stroke="#1A1A1A" stroke-width="2" stroke-linecap="round" stroke-linejoin="round"/>
<circle cx="12" cy="12" r="3" stroke="#1A1A1A" stroke-width="2"/>
</svg>
