<svg width="24" height="24" viewBox="0 0 24 24"  xmlns="http://www.w3.org/2000/svg">
<path d="M8.70711 6.70711C9.09763 6.31658 9.09763 5.68342 8.70711 5.29289L5.70711 2.29289C5.56066 2.14645 5.38009 2.05492 5.19099 2.01831C4.87583 1.95729 4.53697 2.04882 4.29289 2.29289L1.29289 5.29289C0.902369 5.68342 0.902369 6.31658 1.29289 6.70711C1.68342 7.09763 2.31658 7.09763 2.70711 6.70711L4 5.41421V21C4 21.5523 4.44772 22 5 22C5.55228 22 6 21.5523 6 21V5.41421L7.29289 6.70711C7.68342 7.09763 8.31658 7.09763 8.70711 6.70711Z" />
<path d="M11 6C11 5.44772 11.4477 5 12 5H22C22.5523 5 23 5.44772 23 6C23 6.55228 22.5523 7 22 7H12C11.4477 7 11 6.55228 11 6Z" />
<path d="M11 12C11 11.4477 11.4477 11 12 11H19C19.5523 11 20 11.4477 20 12C20 12.5523 19.5523 13 19 13H12C11.4477 13 11 12.5523 11 12Z" />
<path d="M11 18C11 17.4477 11.4477 17 12 17H16C16.5523 17 17 17.4477 17 18C17 18.5523 16.5523 19 16 19H12C11.4477 19 11 18.5523 11 18Z" />
</svg>
