<svg width="24" height="24" viewBox="0 0 24 24"  xmlns="http://www.w3.org/2000/svg">
<path fill-rule="evenodd" clip-rule="evenodd" d="M6.29289 2.29289C6.68342 1.90237 7.31658 1.90237 7.70711 2.29289L11.7071 6.29289C12.0976 6.68342 12.0976 7.31658 11.7071 7.70711C11.3166 8.09763 10.6834 8.09763 10.2929 7.70711L8 5.41421V21C8 21.5523 7.55228 22 7 22C6.44772 22 6 21.5523 6 21V5.41421L3.70711 7.70711C3.31658 8.09763 2.68342 8.09763 2.29289 7.70711C1.90237 7.31658 1.90237 6.68342 2.29289 6.29289L6.29289 2.29289Z" />
<path fill-rule="evenodd" clip-rule="evenodd" d="M16.2929 21.7071C16.6834 22.0976 17.3166 22.0976 17.7071 21.7071L21.7071 17.7071C22.0976 17.3166 22.0976 16.6834 21.7071 16.2929C21.3166 15.9024 20.6834 15.9024 20.2929 16.2929L18 18.5858V3C18 2.44772 17.5523 2 17 2C16.4477 2 16 2.44772 16 3V18.5858L13.7071 16.2929C13.3166 15.9024 12.6834 15.9024 12.2929 16.2929C11.9024 16.6834 11.9024 17.3166 12.2929 17.7071L16.2929 21.7071Z" />
</svg>
