<svg width="24" height="24" viewBox="0 0 24 24"  xmlns="http://www.w3.org/2000/svg">
<path fill-rule="evenodd" clip-rule="evenodd" d="M2 4C2 2.89543 2.89543 2 4 2H10C10.5304 2 11.0391 2.21071 11.4142 2.58579L20 11.1716C21.5621 12.7337 21.5621 15.2663 20 16.8284L16.8284 20C15.2663 21.5621 12.7337 21.5621 11.1716 20L2.58579 11.4142C2.21071 11.0391 2 10.5304 2 10V4ZM10 4L18.5858 12.5858C19.3668 13.3668 19.3668 14.6332 18.5858 15.4142L15.4142 18.5858C14.6332 19.3668 13.3668 19.3668 12.5858 18.5858L4 10V4H10Z" />
<path d="M9 7.5C9 8.32843 8.32843 9 7.5 9C6.67157 9 6 8.32843 6 7.5C6 6.67157 6.67157 6 7.5 6C8.32843 6 9 6.67157 9 7.5Z" />
</svg>
