<svg width="24" height="24" viewBox="0 0 24 24" fill="none" xmlns="http://www.w3.org/2000/svg">
<path d="M14.6474 8.4608V4.4608C14.6474 3.66515 14.3314 2.90208 13.7688 2.33947C13.2061 1.77687 12.4431 1.4608 11.6474 1.4608C11.6474 1.4608 10.2095 6.94609 8.64743 10.4608C8.64743 14.7566 8.64743 21.4608 8.64743 21.4608H18.9274C19.4098 21.4663 19.8778 21.2972 20.2453 20.9848C20.6129 20.6724 20.8551 20.2377 20.9274 19.7608L22.3074 10.7608C22.3509 10.4742 22.3316 10.1815 22.2508 9.90306C22.1699 9.62463 22.0295 9.3671 21.8393 9.14832C21.649 8.92954 21.4135 8.75474 21.149 8.63602C20.8845 8.51731 20.5973 8.45752 20.3074 8.4608H14.6474Z" stroke="#1A1A1A" stroke-width="2" stroke-linecap="round" stroke-linejoin="round"/>
<path d="M2.31738 10.9999L2.31738 21.9999H3.98738C3.98738 21.9999 5.10328 21.8117 5.5328 21.4431C5.96231 21.0744 6.24151 20.5608 6.31738 19.9999V12.9999C6.24151 12.4389 5.96231 11.9254 5.5328 11.5567C5.10328 11.188 4.55334 10.9899 3.98738 10.9999H2.31738Z" fill="#1A1A1A"/>
</svg>
