<svg width="24" height="24" viewBox="0 0 24 24" fill="none" xmlns="http://www.w3.org/2000/svg">
<path fill-rule="evenodd" clip-rule="evenodd" d="M23 5.13226C22.191 5.49571 21.321 5.73498 20.408 5.84705C21.34 5.28672 22.051 4.39525 22.393 3.33619C21.526 3.85512 20.554 4.23473 19.528 4.43867C18.703 3.55326 17.53 3 16.232 3C13.737 3 11.716 5.03635 11.716 7.5472C11.716 7.90358 11.761 8.25088 11.835 8.58102C8.081 8.39324 4.756 6.58203 2.531 3.83493C2.139 4.5053 1.915 5.28672 1.915 6.1156C1.915 7.69359 2.716 9.08279 3.929 9.89854C3.183 9.87431 2.488 9.66734 1.88 9.33316V9.38566C1.88 11.5886 3.435 13.4271 5.503 13.838C5.122 13.948 4.724 14.0015 4.311 14.0015C4.024 14.0015 3.739 13.9732 3.465 13.9228C4.036 15.7289 5.702 17.0394 7.679 17.0767C6.132 18.2943 4.188 19.0232 2.076 19.0232C1.712 19.0232 1.352 18.998 1 18.9586C2.995 20.2468 5.368 21 7.914 21C16.221 21 20.761 14.0782 20.761 8.07219C20.761 7.87431 20.754 7.67845 20.747 7.48158C21.63 6.83948 22.396 6.03988 23 5.13226Z" fill="#00ACEE"/>
</svg>
