<svg width="355" height="272" viewBox="0 0 355 272" fill="none" xmlns="http://www.w3.org/2000/svg">
<rect x="30.6667" y="70.6667" width="324" height="201.333" fill="#82ECB7"/>
<g clip-path="url(#clip0)">
<path d="M148.019 59.2217L150.639 59.3533C150.599 59.2961 149.935 59.2389 148.019 59.2217Z" fill="#202020"/>
<path d="M25.9909 250.879C25.7847 250.89 25.55 250.902 25.3667 250.907C25.8076 250.896 25.9451 250.89 25.9909 250.879Z" fill="#202020"/>
<path d="M250.001 63.7072C249.944 63.7072 249.904 63.7072 249.864 63.7072C249.646 63.7187 249.383 63.7301 249.182 63.7416L250.001 63.7072Z" fill="#202020"/>
<path d="M116.159 63.347C151.28 63.5072 160.6 64.1308 197.002 63.8791C214.365 63.9306 232.896 63.7875 249.87 63.7132C257.925 63.2268 272.158 63.7074 281.69 63.3012L285.385 63.5758C288.669 63.4385 292.525 63.3413 295.826 63.49L295.62 63.5701C300.529 63.3641 306.061 63.4843 308.498 63.3813L308.292 63.4614L314.253 63.4271L313.229 63.5415C315.18 63.5015 317.142 63.4614 319.099 63.4214C320.026 63.4099 320.947 63.3985 321.874 63.3813L322.486 63.3584L322.492 63.7189L322.497 64.354C322.497 65.4982 322.492 66.6368 322.492 67.7582C322.474 70.0067 322.457 72.1981 322.434 74.315L322.766 73.6685C322.394 90.2835 323.081 96.3654 322.64 111.361L322.56 111.155C323.435 130.111 321.965 141.124 322.795 160.663C322.692 158.226 322.623 161.704 322.543 161.51C322.64 170.51 322.686 180.122 323.338 180.259C323.327 186.816 323.132 185.597 322.881 186.455C323.167 186.415 323.287 192.114 323.304 197.235L323.195 194.877L323.292 209.553L323.83 206.669C323.676 214.45 323.172 208.643 323.304 216.098L323.75 216.001C323.664 226.763 322.984 233.074 322.657 243.492C322.652 244.602 322.646 245.718 322.64 246.857C318.201 246.862 313.721 246.868 309.225 246.874C303.956 246.902 298.658 246.931 293.355 246.96C282.748 247.04 272.113 247.12 261.569 247.2C240.487 247.349 219.789 247.412 200.521 247.034L198.741 246.696C197.969 246.204 187.631 247.423 186.092 246.971L181.407 247.194C180.091 247.108 177.316 247.011 179.645 246.902C175.314 246.885 175.205 246.965 172.087 247.114L167.436 246.811C150.342 246.576 135.811 247.166 117.824 247.045C96.216 246.422 55.5457 246.994 32.1069 247.326C27.3242 247.434 22.4327 247.48 17.4555 247.492C14.9669 247.486 12.4554 247.486 9.93243 247.48C8.6681 247.475 7.40376 247.463 6.12799 247.457L4.88654 247.44L4.04556 247.423C4.22863 235.5 4.41742 223.279 4.60621 211.183C4.7664 198.505 4.82361 185.958 4.52612 173.988C4.56044 173.439 4.53756 172.455 4.50323 171.608C4.48607 171.185 4.46319 170.796 4.4403 170.515C4.41742 170.235 4.40026 170.063 4.38309 170.069L4.45175 139.202C4.45175 139.202 4.64054 -10.4711 0.572933 103.243L0.464235 102.482C0.201071 119.377 0.149582 130.013 0.687353 141.662C0.0294419 143.504 0.618701 155.542 0.407025 159.496L0.355537 159.124C0.864702 169.434 -0.0678145 180.351 0.389863 190.289C0.338374 189.905 0.155303 189.688 0.143861 187.405C0.229676 194.643 0.3727 204.541 -0.0106049 205.079C0.00655803 211.95 0.0237209 219.897 0.0466048 227.667C0.0637677 231.552 0.0809305 235.391 0.103814 239.03C0.155303 243.407 0.201071 247.543 0.241118 251.245C1.61987 251.228 2.94713 251.205 4.22291 251.188C4.7664 251.176 5.29845 251.165 5.81906 251.153C6.1852 251.142 6.54562 251.131 6.8946 251.119C8.29623 251.073 9.57201 251.016 10.7105 250.953L9.94959 251.062C16.2598 250.65 18.1191 250.999 25.1788 250.793C25.5621 250.844 26.0655 250.867 25.9854 250.89C32.862 250.484 46.0546 250.827 51.6096 250.65L51.9701 250.907L65.6603 250.85L60.5458 250.793C62.3193 250.095 70.9007 251.234 80.8323 250.776C90.1232 250.862 99.6772 249.317 109.334 249.66C113.934 249.334 105.284 250.192 112.16 249.94C112.383 250.307 108.945 250.169 110.719 250.461C117.475 250.29 121.794 250.833 130.13 250.587L130.467 250.873C141.337 250.352 150.977 251.245 158.214 250.753C169.421 250.518 165.731 251.6 177.402 251.039L181.939 251.422C186.933 251.485 185.515 250.953 191.052 251.136C190.715 251.377 198.049 251.331 194.811 251.56C207.346 251.937 220.258 251.022 236.763 251.663C240.35 251.193 248.657 251.474 251.334 251.119C251.775 251.325 267.988 251.153 258.657 251.6C257.856 251.634 256.437 251.628 256.535 251.548L255.419 251.829C264.836 252.355 272.525 251.537 281.844 251.617C279.081 251.525 275.408 251.548 277.862 251.354L286.518 251.394L284.716 251.628L297.611 251.766L295.832 251.474C302.142 251.623 304.362 252.12 311.479 251.703C314.7 251.474 305.5 251.308 312.165 251.216C313.979 251.256 315.981 251.308 318.126 251.354C319.202 251.377 320.306 251.405 321.445 251.428C323.344 251.451 325.295 251.48 327.28 251.502C327.309 249.197 327.343 246.834 327.377 244.442C327.406 242.846 327.434 241.232 327.463 239.619C327.503 236.392 327.543 233.165 327.583 230.093C327.257 231.1 327.269 228.199 327.2 225.218L327.486 224.875C327.091 213.443 328.115 220.687 327.795 209.341L327.995 210.342L327.4 207.344C326.834 197.109 327.989 201.823 327.223 190.455C327.269 194.952 326.593 192.572 326.719 187.039L326.994 188.441C326.937 185.38 326.822 184.356 326.88 182.319C327.028 184.144 327.28 183.286 327.234 178.783L327.577 181.804L327.074 173.29C327.372 166.716 327 156.298 327.389 153.603C327.389 153.603 327.577 139.471 327.154 136.227C327.417 139.065 327.52 131.272 327.829 133.492C327.532 129.83 327.286 119.011 327.606 114.686L327.64 115.504C327.966 99.4894 327.194 88.1151 327.589 73.7429C327.257 74.3951 327.44 66.8085 327.017 68.6851C326.977 67.3406 326.954 66.0132 326.942 64.7144C326.937 62.7405 326.937 60.8067 326.931 58.9186C325.781 58.9129 324.643 58.9071 323.521 58.9014C322.612 58.89 321.713 58.8843 320.832 58.8728C319.499 58.8499 318.201 58.827 316.954 58.7984C314.454 58.7469 312.131 58.6954 310.026 58.6726C305.815 58.6325 302.462 58.7355 300.266 59.2733C293.503 59.342 292.251 58.9644 288.755 58.9014L290.368 58.8328C277.696 58.9415 274.018 58.9529 264.601 58.9243C259.904 59.0502 259.166 59.6567 250.745 59.5136C253.468 59.2733 250.03 59.3191 246.878 59.3191C248.891 59.279 249.515 59.1932 245.379 59.033C244.795 59.1074 243.897 59.1532 243.056 59.1932C243.022 59.176 242.856 59.1589 242.942 59.136C237.684 59.2218 238.599 59.2962 241.042 59.3305C240.922 59.3649 241.122 59.4164 241.877 59.4793C236.42 59.1703 226.671 59.5022 226.007 59.0845C210.2 59.1818 198.902 59.6109 185.749 59.7711C184.273 59.5594 187.345 59.3706 191.161 59.2848L181.819 59.3534C181.899 59.0445 187.179 59.176 190.057 59.1131C178.947 58.6153 167.15 59.6052 154.124 59.1532L151.423 59.3935L150.645 59.3534C150.685 59.4793 147.762 59.6567 145.828 59.6967C143.986 59.4278 145.96 59.0788 139.507 59.0959C134.409 58.8385 125.015 59.2275 118.339 59.3706C121.937 59.4164 120.776 59.5651 119.226 59.6567C115.999 59.6681 114.145 59.3992 111.651 59.5136L111.342 59.1532C112.612 59.4907 102.915 59.5193 101.725 59.6681C99.8889 59.3992 106.731 59.4392 107.538 59.239C94.6027 59.2733 101.073 59.2561 88.138 59.2905C81.2385 59.5594 89.3909 59.6338 86.0899 59.9484C79.9971 60.0171 74.053 60.2688 67.062 60.0514L69.276 60.3718C57.8283 60.6179 50.9803 60.5835 43.2742 60.2574C-41.991 62.8664 25.3104 63.8161 25.3104 63.8161C58.8753 64.5256 76.2041 63.593 116.159 63.347Z" fill="#202020"/>
<path d="M26.9002 87.8232L26.6941 87.8117C26.7341 87.8575 26.7971 87.8747 26.9002 87.8232Z" fill="#202020"/>
<path d="M23.4616 71.0878C23.4786 71.0822 23.49 71.0765 23.507 71.0708C23.4786 71.0708 23.4673 71.0765 23.4616 71.0878Z" fill="#202020"/>
<path d="M21.1675 85.4199C21.1789 85.4085 21.1846 85.3972 21.1903 85.3858L21.1675 85.4199Z" fill="#202020"/>
<path d="M25.0864 83.8582C24.8576 84.0527 24.6516 84.1786 24.44 84.253C24.2455 84.3445 24.0395 84.3731 23.8621 84.4246C23.496 84.5162 23.1756 84.602 22.718 84.9281C22.226 85.0826 21.7111 85.3286 21.1733 85.4259C21.0589 85.6776 20.8701 85.6891 20.6813 85.6604C20.4925 85.649 20.3037 85.6204 20.1206 85.7863L20.0405 85.5002C19.9147 85.6261 19.7602 85.6948 19.6916 85.5174L19.7144 85.443C19.5142 85.5975 19.3597 85.4488 19.2568 85.5174L19.2854 85.443L19.0909 85.4087L19.1595 85.3114C18.822 85.4373 18.5359 85.3 18.3529 85.1112L18.2156 85.4144C18.0611 85.0997 17.8494 85.0826 17.6549 85.0254C17.4718 84.9624 17.2544 84.9167 17.2144 84.5619L17.2716 84.5047C16.7281 84.6191 16.6366 84.2873 16.5851 84.0012C16.545 83.6808 16.5164 83.4234 16.0015 83.3433C16.1331 83.3604 16.1274 83.2231 16.2018 83.1888C15.9443 82.9885 15.7899 82.691 15.1834 82.9599C15.0747 82.7311 15.2921 82.691 15.5095 82.5709C15.2464 82.6796 15.0633 82.5194 14.9775 82.342L15.1148 82.3878C15.0118 82.2276 14.9432 82.0559 14.8631 81.8786L14.3711 82.1246C14.4397 81.7756 14.9889 81.89 14.7887 81.6383L14.3539 81.7298C14.3711 81.2664 14.9947 80.9345 15.3207 80.5684C15.3894 79.8246 15.275 79.0407 15.4123 78.2226C15.5381 77.4216 15.9672 76.6206 16.7567 76.3745L17.037 76.5634C17.2201 76.7236 17.1515 76.5347 17.1 76.3345C17.0428 76.1342 17.0027 75.9168 17.1686 76.0713L17.1457 75.7852C17.243 75.8253 17.3803 75.8424 17.3803 75.974C17.5119 75.8997 17.4661 75.8367 17.4661 75.6479L17.775 75.7967C18.0897 75.7452 18.2556 75.5163 18.4673 75.3161C18.6618 75.0929 18.9021 74.8927 19.2224 74.8412C19.6858 75.0472 20.1607 74.927 20.7042 74.8183C20.9731 74.7325 21.2534 74.6982 21.528 74.6123C21.7969 74.578 22.0715 74.4865 22.3003 74.475C22.9983 74.2404 23.5875 74.8298 23.9651 75.4076C24.3656 76.0084 24.5887 76.5634 25.2809 76.735C25.2581 76.8037 25.4297 76.7922 25.4755 76.7522C25.6871 77.0554 25.8645 77.3758 26.019 77.7076C26.019 77.7076 26.0533 77.782 26.1105 77.9079C26.1791 78.028 26.265 78.1997 26.3508 78.3942C26.5624 78.7833 26.757 79.2868 27.0487 79.6987C27.3062 80.1049 27.678 80.4482 28.2272 80.3681C28.5018 80.3223 28.8222 80.1679 29.1884 79.796C29.3772 79.6072 29.5602 79.3726 29.7319 79.0579C29.8177 78.9034 29.9092 78.7261 30.0007 78.5315C30.0808 78.337 30.1495 78.1253 30.2239 77.8907L30.3383 77.9079C30.3383 76.8609 30.0694 76.1857 29.2913 75.831C29.8062 75.4191 28.9309 75.0815 28.971 74.784L29.0282 74.7725C28.6334 74.6696 28.5419 74.3549 28.4218 74.0402C28.2959 73.737 28.1643 73.4051 27.7925 73.3536C27.8439 73.3365 27.987 73.2049 28.0899 73.3021C27.7066 73.0447 27.1689 72.7643 27.3805 72.4496C27.1517 72.3066 26.9057 72.135 26.6597 71.9576C26.4023 71.7974 26.1276 71.6429 25.8645 71.5113C25.3153 71.271 24.7718 71.1337 24.3484 71.3168L24.4285 71.231C23.9308 71.4999 23.9537 71.0994 23.4846 71.2024C23.4788 71.1509 23.456 71.1165 23.4617 71.0994C23.21 71.2539 22.9354 71.1795 22.655 71.1223C22.3804 71.065 22.1173 70.9849 21.9456 71.0479L21.9513 70.7904C21.6825 70.7847 21.4079 70.7961 21.1447 70.8019L21.4422 70.8705C21.3735 71.2195 21.2362 71.0994 21.0303 70.9506C20.8243 70.8019 20.5383 70.6531 20.2637 70.8934C19.9891 70.8534 19.7488 71.2653 19.5485 71.6315C19.3426 71.9919 19.171 72.3295 18.8906 72.2322C18.7362 72.6098 18.965 71.6601 18.679 71.9976C18.5703 71.6486 18.7934 71.7345 18.6217 71.477C18.3014 71.7287 17.9009 71.2939 17.529 71.6944L17.4089 71.4369C17.2029 71.7802 16.9169 71.8432 16.6194 71.866C16.3276 71.8889 16.0588 71.9461 16.0073 72.2665C15.5896 72.7929 15.1548 71.8031 14.9088 72.6728C14.7601 72.627 14.5999 72.5812 14.4454 72.5412C14.1708 72.7014 14.5885 73.0447 14.2166 73.1305C14.0679 72.936 13.7646 73.285 13.7532 72.9817C13.3356 73.1248 13.1582 73.531 12.958 73.92C12.7749 74.332 12.5575 74.7153 12.0255 75.0014C12.1685 75.2188 12.1113 75.4019 12.0541 75.5735C12.0026 75.7452 11.9454 75.9111 12.0712 76.0599C11.8653 75.9855 11.6193 76.9753 11.4419 76.2716C11.4305 76.2086 11.4763 76.1342 11.5449 76.1686L11.3218 75.9912C10.9385 76.1571 10.9156 76.4661 10.9385 76.7693C10.9614 77.0783 11.0472 77.3815 10.9442 77.6619C11.0758 77.5131 11.1158 77.29 11.2589 77.4902L11.0872 77.9994L10.887 77.8335C10.7726 78.0853 10.6639 78.3484 10.5838 78.6173L10.887 78.5544C10.6868 78.9149 10.149 79.0121 10.5266 79.5099C10.744 79.7273 10.9385 79.1723 11.0071 79.59C10.8984 79.8417 10.744 80.1621 10.641 80.5111C10.5495 80.8602 10.4579 81.2492 10.4637 81.5982C10.7783 81.4952 10.7955 81.6783 10.887 81.8557L10.6067 81.9186C11.1158 82.5709 10.0117 82.302 10.498 82.9714L10.2863 82.9542L10.9099 83C11.6136 83.4577 10.4293 83.5321 11.4076 83.9612C11.2646 83.7152 11.9511 83.6236 11.9511 83.9726L11.6651 83.9955C11.7852 84.15 11.9111 84.1614 11.9111 84.2987C11.728 84.2587 11.5163 84.4017 11.6822 84.642L11.2875 84.6077C11.522 84.705 11.7509 84.7965 11.9797 84.8766C11.8825 85.3915 12.569 85.7405 12.323 86.101C12.323 86.101 12.4145 86.3127 12.569 86.5129C12.7234 86.7075 12.9351 86.8963 13.1639 86.8391C12.8379 86.8734 13.0953 87.3082 12.7692 87.4055C13.1582 87.3998 13.7875 87.7259 13.7875 88.1321L13.7246 88.1207C13.9935 88.6013 14.4283 88.7958 14.8345 88.9617C15.2407 89.1391 15.6411 89.2478 15.9443 89.6597C16.0645 89.3508 16.4135 89.7227 16.4935 89.2936C16.7453 89.2993 16.9341 89.3965 17.1057 89.511C17.2773 89.6197 17.4261 89.757 17.5748 89.8657C17.8609 90.0888 18.1469 90.1518 18.4673 89.5568C18.8677 89.5796 18.8506 89.9801 19.0508 90.0774L18.9421 90.1289C19.7259 90.1461 19.9433 90.1689 20.5097 90.2204C20.8014 90.106 20.8472 89.5167 21.322 89.6311C21.1733 89.8772 21.3735 89.8257 21.5566 89.8142C21.4422 89.86 21.4079 89.9515 21.6653 90.0946C21.6939 90.0202 21.7454 89.9687 21.7912 89.9286C21.7969 89.9458 21.8083 89.963 21.8026 89.9859C22.1058 89.8772 22.0372 89.7971 21.8941 89.7856C21.8999 89.7456 21.8827 89.7055 21.8312 89.6369C22.1802 89.9115 22.6951 89.4881 22.8095 89.8886C23.7191 89.5854 24.2111 88.9732 24.7947 88.5097C24.9606 88.6642 24.8862 88.9102 24.7146 89.0819L25.1722 88.7786C25.3038 89.0533 24.9663 89.0761 24.8347 89.202C25.2295 89.2764 25.5155 89.0361 25.7443 88.7329C25.9846 88.4353 26.2135 88.1493 26.6483 88.0921L26.6311 87.806L26.694 87.8117C26.6139 87.7087 26.6368 87.4741 26.6997 87.3769C26.9515 87.5142 27.0888 87.8575 27.3634 87.5886C27.5636 87.5829 27.7066 87.4112 27.8096 87.1938C27.9069 86.9707 27.9641 86.7017 28.0442 86.5129C27.8725 86.6388 27.8039 86.4901 27.7925 86.3642C27.9069 86.2269 28.1872 86.3184 28.1758 86.1296L28.4675 86.3413C28.1586 86.1868 28.4675 85.7291 28.3874 85.5918C28.6678 85.6604 28.4046 85.9522 28.5362 86.1124C28.9595 85.4831 28.7536 85.8035 29.1254 85.1398C29.0968 84.6649 28.7936 85.0311 28.6163 84.7107C28.725 84.3846 28.6163 83.9898 28.9824 83.7438L28.6392 83.7209C28.6334 83.0744 28.7765 82.7883 29.1826 82.4736C28.8222 81.232 28.233 80.6942 27.7982 80.4425C27.3519 80.1965 26.9801 80.1965 26.6997 80.3509C26.408 80.4597 26.1963 80.6427 26.0647 80.7915C26.0018 80.8659 25.9389 80.9288 25.8988 80.9803C25.8645 81.0261 25.8416 81.0547 25.8416 81.0547C25.4354 81.5067 25.361 81.8156 25.3839 82.2676C25.3668 82.6967 25.4182 83.2574 25.0864 83.8582Z" fill="#202020"/>
<path d="M47.61 87.8232L47.4038 87.8117C47.4439 87.8575 47.5069 87.8747 47.61 87.8232Z" fill="#202020"/>
<path d="M44.1714 71.0878C44.1884 71.0822 44.1997 71.0765 44.2167 71.0708C44.1884 71.0708 44.1771 71.0765 44.1714 71.0878Z" fill="#202020"/>
<path d="M41.8773 85.4199C41.8887 85.4085 41.8944 85.3972 41.9001 85.3858L41.8773 85.4199Z" fill="#202020"/>
<path d="M45.7962 83.8582C45.5674 84.0527 45.3614 84.1786 45.1498 84.253C44.9552 84.3445 44.7493 84.3731 44.5719 84.4246C44.2058 84.5162 43.8854 84.602 43.4277 84.9281C42.9357 85.0826 42.4209 85.3286 41.8831 85.4259C41.7687 85.6776 41.5799 85.6891 41.3911 85.6604C41.2023 85.649 41.0135 85.6204 40.8304 85.7863L40.7503 85.5002C40.6245 85.6261 40.47 85.6948 40.4014 85.5174L40.4242 85.443C40.224 85.5975 40.0695 85.4488 39.9666 85.5174L39.9952 85.443L39.8007 85.4087L39.8693 85.3114C39.5318 85.4373 39.2457 85.3 39.0627 85.1112L38.9253 85.4144C38.7709 85.0997 38.5592 85.0826 38.3647 85.0254C38.1816 84.9624 37.9642 84.9167 37.9242 84.5619L37.9814 84.5047C37.4379 84.6191 37.3464 84.2873 37.2949 84.0012C37.2548 83.6808 37.2262 83.4234 36.7113 83.3433C36.8429 83.3604 36.8372 83.2231 36.9116 83.1888C36.6541 82.9885 36.4997 82.691 35.8932 82.9599C35.7845 82.7311 36.0019 82.691 36.2193 82.5709C35.9562 82.6796 35.7731 82.5194 35.6873 82.342L35.8246 82.3878C35.7216 82.2276 35.653 82.0559 35.5729 81.8786L35.0809 82.1246C35.1495 81.7756 35.6987 81.89 35.4985 81.6383L35.0637 81.7298C35.0809 81.2664 35.7044 80.9345 36.0305 80.5684C36.0992 79.8246 35.9848 79.0407 36.1221 78.2226C36.2479 77.4216 36.677 76.6206 37.4665 76.3745L37.7468 76.5634C37.9299 76.7236 37.8612 76.5347 37.8098 76.3345C37.7525 76.1342 37.7125 75.9168 37.8784 76.0713L37.8555 75.7852C37.9528 75.8253 38.0901 75.8424 38.0901 75.974C38.2217 75.8997 38.1759 75.8367 38.1759 75.6479L38.4848 75.7967C38.7995 75.7452 38.9654 75.5163 39.1771 75.3161C39.3716 75.0929 39.6119 74.8927 39.9322 74.8412C40.3956 75.0472 40.8705 74.927 41.414 74.8183C41.6829 74.7325 41.9632 74.6982 42.2378 74.6123C42.5067 74.578 42.7813 74.4865 43.0101 74.475C43.7081 74.2404 44.2973 74.8298 44.6749 75.4076C45.0754 76.0084 45.2985 76.5634 45.9907 76.735C45.9679 76.8037 46.1395 76.7922 46.1853 76.7522C46.3969 77.0554 46.5743 77.3758 46.7287 77.7076C46.7287 77.7076 46.7631 77.782 46.8203 77.9079C46.8889 78.028 46.9747 78.1997 47.0606 78.3942C47.2722 78.7833 47.4667 79.2868 47.7585 79.6987C48.016 80.1049 48.3878 80.4482 48.937 80.3681C49.2116 80.3223 49.532 80.1679 49.8982 79.796C50.0869 79.6072 50.27 79.3726 50.4416 79.0579C50.5275 78.9034 50.619 78.7261 50.7105 78.5315C50.7906 78.337 50.8593 78.1253 50.9336 77.8907L51.0481 77.9079C51.0481 76.8609 50.7792 76.1857 50.0011 75.831C50.516 75.4191 49.6407 75.0815 49.6808 74.784L49.738 74.7725C49.3432 74.6696 49.2517 74.3549 49.1315 74.0402C49.0057 73.737 48.8741 73.4051 48.5022 73.3536C48.5537 73.3365 48.6968 73.2049 48.7997 73.3021C48.4164 73.0447 47.8787 72.7643 48.0903 72.4496C47.8615 72.3066 47.6155 72.135 47.3695 71.9576C47.112 71.7974 46.8374 71.6429 46.5743 71.5113C46.0251 71.271 45.4816 71.1337 45.0582 71.3168L45.1383 71.231C44.6406 71.4999 44.6635 71.0994 44.1944 71.2024C44.1886 71.1509 44.1657 71.1165 44.1715 71.0994C43.9197 71.2539 43.6451 71.1795 43.3648 71.1223C43.0902 71.065 42.827 70.9849 42.6554 71.0479L42.6611 70.7904C42.3923 70.7847 42.1176 70.7961 41.8545 70.8019L42.152 70.8705C42.0833 71.2195 41.946 71.0994 41.7401 70.9506C41.5341 70.8019 41.2481 70.6531 40.9735 70.8934C40.6988 70.8534 40.4586 71.2653 40.2583 71.6315C40.0524 71.9919 39.8807 72.3295 39.6004 72.2322C39.446 72.6098 39.6748 71.6601 39.3887 71.9976C39.28 71.6486 39.5032 71.7345 39.3315 71.477C39.0112 71.7287 38.6107 71.2939 38.2388 71.6944L38.1187 71.4369C37.9127 71.7802 37.6267 71.8432 37.3292 71.866C37.0374 71.8889 36.7685 71.9461 36.7171 72.2665C36.2994 72.7929 35.8589 71.8031 35.6186 72.6728C35.4699 72.627 35.3097 72.5812 35.1552 72.5412C34.8806 72.7014 35.2983 73.0447 34.9264 73.1305C34.7776 72.936 34.4744 73.285 34.463 72.9817C34.0454 73.1248 33.868 73.531 33.6678 73.92C33.4847 74.332 33.2673 74.7153 32.7353 75.0014C32.8783 75.2188 32.8211 75.4019 32.7639 75.5735C32.7124 75.7452 32.6552 75.9111 32.781 76.0599C32.5751 75.9855 32.3291 76.9753 32.1517 76.2716C32.1403 76.2086 32.1861 76.1342 32.2547 76.1686L32.0316 75.9912C31.6483 76.1571 31.6254 76.4661 31.6483 76.7693C31.6712 77.0783 31.757 77.3815 31.654 77.6619C31.7856 77.5131 31.8256 77.29 31.9687 77.4902L31.797 77.9994L31.5968 77.8335C31.4824 78.0853 31.3737 78.3484 31.2936 78.6173L31.5968 78.5544C31.3966 78.9149 30.8588 79.0121 31.2364 79.5099C31.4538 79.7273 31.6483 79.1723 31.7169 79.59C31.6082 79.8417 31.4538 80.1621 31.3508 80.5111C31.2593 80.8602 31.1677 81.2492 31.1734 81.5982C31.4881 81.4952 31.5053 81.6783 31.5968 81.8557L31.3165 81.9186C31.8256 82.5709 30.7215 82.302 31.2078 82.9714L30.9961 82.9542L31.6197 83C32.3234 83.4577 31.1391 83.5321 32.1174 83.9612C31.9744 83.7152 32.6609 83.6236 32.6609 83.9726L32.3748 83.9955C32.495 84.15 32.6208 84.1614 32.6208 84.2987C32.4378 84.2587 32.2261 84.4017 32.392 84.642L31.9973 84.6077C32.2318 84.705 32.4607 84.7965 32.6895 84.8766C32.5922 85.3915 33.2788 85.7405 33.0328 86.101C33.0328 86.101 33.1243 86.3127 33.2788 86.5129C33.4332 86.7075 33.6449 86.8963 33.8737 86.8391C33.5476 86.8734 33.8051 87.3082 33.479 87.4055C33.868 87.3998 34.4973 87.7259 34.4973 88.1321L34.4344 88.1207C34.7033 88.6013 35.1381 88.7958 35.5443 88.9617C35.9504 89.1391 36.3509 89.2478 36.6541 89.6597C36.7743 89.3508 37.1232 89.7227 37.2033 89.2936C37.4551 89.2993 37.6439 89.3965 37.8155 89.511C37.9871 89.6197 38.1359 89.757 38.2846 89.8657C38.5706 90.0888 38.8567 90.1518 39.1771 89.5568C39.5775 89.5796 39.5604 89.9801 39.7606 90.0774L39.6519 90.1289C40.4357 90.1461 40.6531 90.1689 41.2195 90.2204C41.5112 90.106 41.557 89.5167 42.0318 89.6311C41.8831 89.8772 42.0833 89.8257 42.2664 89.8142C42.152 89.86 42.1176 89.9515 42.3751 90.0946C42.4037 90.0202 42.4552 89.9687 42.501 89.9286C42.5067 89.9458 42.5181 89.963 42.5124 89.9859C42.8156 89.8772 42.747 89.7971 42.6039 89.7856C42.6096 89.7456 42.5925 89.7055 42.541 89.6369C42.89 89.9115 43.4049 89.4881 43.5193 89.8886C44.4289 89.5854 44.9209 88.9732 45.5045 88.5097C45.6704 88.6642 45.596 88.9102 45.4244 89.0819L45.882 88.7786C46.0136 89.0533 45.6761 89.0761 45.5445 89.202C45.9392 89.2764 46.2253 89.0361 46.4541 88.7329C46.6944 88.4353 46.9233 88.1493 47.358 88.0921L47.3409 87.806L47.4038 87.8117C47.3237 87.7087 47.3466 87.4741 47.4095 87.3769C47.6613 87.5142 47.7986 87.8575 48.0732 87.5886C48.2734 87.5829 48.4164 87.4112 48.5194 87.1938C48.6167 86.9707 48.6739 86.7017 48.754 86.5129C48.5823 86.6388 48.5137 86.4901 48.5022 86.3642C48.6167 86.2269 48.897 86.3184 48.8855 86.1296L49.1773 86.3413C48.8684 86.1868 49.1773 85.7291 49.0972 85.5918C49.3775 85.6604 49.1144 85.9522 49.246 86.1124C49.6693 85.4831 49.4634 85.8035 49.8352 85.1398C49.8066 84.6649 49.5034 85.0311 49.3261 84.7107C49.4348 84.3846 49.3261 83.9898 49.6922 83.7438L49.3489 83.7209C49.3432 83.0744 49.4862 82.7883 49.8924 82.4736C49.532 81.232 48.9428 80.6942 48.508 80.4425C48.0617 80.1965 47.6899 80.1965 47.4095 80.3509C47.1178 80.4597 46.9061 80.6427 46.7745 80.7915C46.7116 80.8659 46.6486 80.9288 46.6086 80.9803C46.5743 81.0261 46.5514 81.0547 46.5514 81.0547C46.1452 81.5067 46.0708 81.8156 46.0937 82.2676C46.0766 82.6967 46.128 83.2574 45.7962 83.8582Z" fill="#202020"/>
<path d="M68.3199 87.8232L68.1138 87.8117C68.1539 87.8575 68.2168 87.8747 68.3199 87.8232Z" fill="#202020"/>
<path d="M64.8815 71.0878C64.8985 71.0822 64.9098 71.0765 64.9269 71.0708C64.8985 71.0708 64.8872 71.0765 64.8815 71.0878Z" fill="#202020"/>
<path d="M62.5874 85.4199C62.5988 85.4085 62.6045 85.3972 62.6102 85.3858L62.5874 85.4199Z" fill="#202020"/>
<path d="M66.5062 83.8582C66.2773 84.0527 66.0714 84.1786 65.8597 84.253C65.6652 84.3445 65.4592 84.3731 65.2819 84.4246C64.9158 84.5162 64.5954 84.602 64.1377 84.9281C63.6457 85.0826 63.1308 85.3286 62.593 85.4259C62.4786 85.6776 62.2898 85.6891 62.101 85.6604C61.9123 85.649 61.7235 85.6204 61.5404 85.7863L61.4603 85.5002C61.3344 85.6261 61.18 85.6948 61.1113 85.5174L61.1342 85.443C60.934 85.5975 60.7795 85.4488 60.6765 85.5174L60.7051 85.443L60.5106 85.4087L60.5793 85.3114C60.2417 85.4373 59.9557 85.3 59.7726 85.1112L59.6353 85.4144C59.4808 85.0997 59.2692 85.0826 59.0747 85.0254C58.8916 84.9624 58.6742 84.9167 58.6341 84.5619L58.6913 84.5047C58.1479 84.6191 58.0563 84.2873 58.0048 84.0012C57.9648 83.6808 57.9362 83.4234 57.4213 83.3433C57.5529 83.3604 57.5472 83.2231 57.6215 83.1888C57.3641 82.9885 57.2096 82.691 56.6032 82.9599C56.4945 82.7311 56.7119 82.691 56.9293 82.5709C56.6661 82.6796 56.4831 82.5194 56.3972 82.342L56.5345 82.3878C56.4316 82.2276 56.3629 82.0559 56.2828 81.8786L55.7908 82.1246C55.8595 81.7756 56.4087 81.89 56.2085 81.6383L55.7737 81.7298C55.7908 81.2664 56.4144 80.9345 56.7405 80.5684C56.8092 79.8246 56.6947 79.0407 56.832 78.2226C56.9579 77.4216 57.387 76.6206 58.1765 76.3745L58.4568 76.5634C58.6399 76.7236 58.5712 76.5347 58.5197 76.3345C58.4625 76.1342 58.4225 75.9168 58.5884 76.0713L58.5655 75.7852C58.6627 75.8253 58.8 75.8424 58.8 75.974C58.9316 75.8997 58.8859 75.8367 58.8859 75.6479L59.1948 75.7967C59.5094 75.7452 59.6754 75.5163 59.887 75.3161C60.0815 75.0929 60.3218 74.8927 60.6422 74.8412C61.1056 75.0472 61.5804 74.927 62.1239 74.8183C62.3928 74.7325 62.6731 74.6982 62.9477 74.6123C63.2166 74.578 63.4912 74.4865 63.7201 74.475C64.418 74.2404 65.0073 74.8298 65.3849 75.4076C65.7853 76.0084 66.0085 76.5634 66.7007 76.735C66.6778 76.8037 66.8494 76.7922 66.8952 76.7522C67.1069 77.0554 67.2842 77.3758 67.4387 77.7076C67.4387 77.7076 67.473 77.782 67.5302 77.9079C67.5989 78.028 67.6847 78.1997 67.7705 78.3942C67.9822 78.7833 68.1767 79.2868 68.4685 79.6987C68.7259 80.1049 69.0978 80.4482 69.647 80.3681C69.9216 80.3223 70.242 80.1679 70.6081 79.796C70.7969 79.6072 70.98 79.3726 71.1516 79.0579C71.2374 78.9034 71.329 78.7261 71.4205 78.5315C71.5006 78.337 71.5692 78.1253 71.6436 77.8907L71.758 77.9079C71.758 76.8609 71.4891 76.1857 70.7111 75.831C71.226 75.4191 70.3507 75.0815 70.3907 74.784L70.4479 74.7725C70.0532 74.6696 69.9616 74.3549 69.8415 74.0402C69.7156 73.737 69.5841 73.4051 69.2122 73.3536C69.2637 73.3365 69.4067 73.2049 69.5097 73.3021C69.1264 73.0447 68.5886 72.7643 68.8003 72.4496C68.5715 72.3066 68.3254 72.135 68.0794 71.9576C67.822 71.7974 67.5474 71.6429 67.2842 71.5113C66.735 71.271 66.1915 71.1337 65.7682 71.3168L65.8483 71.231C65.3505 71.4999 65.3734 71.0994 64.9043 71.2024C64.8986 71.1509 64.8757 71.1165 64.8814 71.0994C64.6297 71.2539 64.3551 71.1795 64.0748 71.1223C63.8002 71.065 63.537 70.9849 63.3654 71.0479L63.3711 70.7904C63.1022 70.7847 62.8276 70.7961 62.5644 70.8019L62.8619 70.8705C62.7933 71.2195 62.656 71.0994 62.45 70.9506C62.2441 70.8019 61.958 70.6531 61.6834 70.8934C61.4088 70.8534 61.1685 71.2653 60.9683 71.6315C60.7623 71.9919 60.5907 72.3295 60.3104 72.2322C60.1559 72.6098 60.3848 71.6601 60.0987 71.9976C59.99 71.6486 60.2131 71.7345 60.0415 71.477C59.7211 71.7287 59.3207 71.2939 58.9488 71.6944L58.8287 71.4369C58.6227 71.7802 58.3366 71.8432 58.0392 71.866C57.7474 71.8889 57.4785 71.9461 57.427 72.2665C57.0094 72.7929 56.5689 71.8031 56.3286 72.6728C56.1798 72.627 56.0197 72.5812 55.8652 72.5412C55.5906 72.7014 56.0082 73.0447 55.6364 73.1305C55.4876 72.936 55.1844 73.285 55.173 72.9817C54.7553 73.1248 54.578 73.531 54.3777 73.92C54.1947 74.332 53.9773 74.7153 53.4452 75.0014C53.5883 75.2188 53.531 75.4019 53.4738 75.5735C53.4223 75.7452 53.3651 75.9111 53.491 76.0599C53.285 75.9855 53.039 76.9753 52.8617 76.2716C52.8502 76.2086 52.896 76.1342 52.9647 76.1686L52.7416 75.9912C52.3582 76.1571 52.3354 76.4661 52.3582 76.7693C52.3811 77.0783 52.4669 77.3815 52.364 77.6619C52.4955 77.5131 52.5356 77.29 52.6786 77.4902L52.507 77.9994L52.3068 77.8335C52.1923 78.0853 52.0836 78.3484 52.0035 78.6173L52.3068 78.5544C52.1065 78.9149 51.5688 79.0121 51.9463 79.5099C52.1637 79.7273 52.3582 79.1723 52.4269 79.59C52.3182 79.8417 52.1637 80.1621 52.0608 80.5111C51.9692 80.8602 51.8777 81.2492 51.8834 81.5982C52.1981 81.4952 52.2152 81.6783 52.3068 81.8557L52.0264 81.9186C52.5356 82.5709 51.4315 82.302 51.9177 82.9714L51.7061 82.9542L52.3296 83C53.0333 83.4577 51.8491 83.5321 52.8216 83.9612C52.6786 83.7152 53.3651 83.6236 53.3651 83.9726L53.0791 83.9955C53.1992 84.15 53.3251 84.1614 53.3251 84.2987C53.142 84.2587 52.9303 84.4017 53.0962 84.642L52.7015 84.6077C52.9361 84.705 53.1649 84.7965 53.3937 84.8766C53.2965 85.3915 53.983 85.7405 53.737 86.101C53.737 86.101 53.8285 86.3127 53.983 86.5129C54.1375 86.7075 54.3491 86.8963 54.578 86.8391C54.2519 86.8734 54.5093 87.3082 54.1832 87.4055C54.5723 87.3998 55.2016 87.7259 55.2016 88.1321L55.1386 88.1207C55.4075 88.6013 55.8423 88.7958 56.2485 88.9617C56.6547 89.1391 57.0552 89.2478 57.3584 89.6597C57.4785 89.3508 57.8275 89.7227 57.9076 89.2936C58.1593 89.2993 58.3481 89.3965 58.5197 89.511C58.6914 89.6197 58.8401 89.757 58.9888 89.8657C59.2749 90.0888 59.5609 90.1518 59.8813 89.5568C60.2818 89.5796 60.2646 89.9801 60.4649 90.0774L60.3562 90.1289C61.1399 90.1461 61.3573 90.1689 61.9237 90.2204C62.2155 90.106 62.2612 89.5167 62.7361 89.6311C62.5873 89.8772 62.7876 89.8257 62.9706 89.8142C62.8562 89.86 62.8219 89.9515 63.0793 90.0946C63.1079 90.0202 63.1594 89.9687 63.2052 89.9286C63.2109 89.9458 63.2224 89.963 63.2166 89.9859C63.5198 89.8772 63.4512 89.7971 63.3082 89.7856C63.3139 89.7456 63.2967 89.7055 63.2452 89.6369C63.5942 89.9115 64.1091 89.4881 64.2235 89.8886C65.1332 89.5854 65.6252 88.9732 66.2087 88.5097C66.3746 88.6642 66.3002 88.9102 66.1286 89.0819L66.5863 88.7786C66.7179 89.0533 66.3803 89.0761 66.2487 89.202C66.6435 89.2764 66.9295 89.0361 67.1584 88.7329C67.3987 88.4353 67.6275 88.1493 68.0623 88.0921L68.0451 87.806L68.1081 87.8117C68.028 87.7087 68.0508 87.4741 68.1138 87.3769C68.3655 87.5142 68.5028 87.8575 68.7774 87.5886C68.9776 87.5829 69.1207 87.4112 69.2236 87.1938C69.3209 86.9707 69.3781 86.7017 69.4582 86.5129C69.2866 86.6388 69.2179 86.4901 69.2065 86.3642C69.3209 86.2269 69.6012 86.3184 69.5898 86.1296L69.8816 86.3413C69.5726 86.1868 69.8816 85.7291 69.8015 85.5918C70.0818 85.6604 69.8186 85.9522 69.9502 86.1124C70.3736 85.4831 70.1676 85.8035 70.5395 85.1398C70.5109 84.6649 70.2076 85.0311 70.0303 84.7107C70.139 84.3846 70.0303 83.9898 70.3964 83.7438L70.0532 83.7209C70.0475 83.0744 70.1905 82.7883 70.5967 82.4736C70.2363 81.232 69.647 80.6942 69.2122 80.4425C68.766 80.1965 68.3941 80.1965 68.1138 80.3509C67.822 80.4597 67.6103 80.6427 67.4787 80.7915C67.4158 80.8659 67.3529 80.9288 67.3128 80.9803C67.2785 81.0261 67.2556 81.0547 67.2556 81.0547C66.8494 81.5067 66.7751 81.8156 66.798 82.2676C66.7865 82.6967 66.838 83.2574 66.5062 83.8582Z" fill="#202020"/>
<path d="M48.3251 95.3066L49.1554 95.4384C49.1382 95.3811 48.9321 95.3296 48.3251 95.3066Z" fill="#202020"/>
<path d="M258.027 95.2609C258.09 95.2494 258.164 95.2437 258.222 95.2323C258.084 95.238 258.044 95.2494 258.027 95.2609Z" fill="#202020"/>
<path d="M80.5229 99.7923C80.5057 99.7923 80.4885 99.7923 80.4771 99.7923C80.4084 99.8038 80.3225 99.8152 80.2595 99.8267L80.5229 99.7923Z" fill="#202020"/>
<path d="M38.2619 99.4319C49.3491 99.5921 52.2954 100.216 63.7888 99.964C69.2695 100.016 75.122 99.8725 80.4826 99.7981C83.0284 99.3118 87.5193 99.7924 90.5286 99.3861L91.6956 99.6608C92.7311 99.5235 93.9497 99.4262 94.9909 99.575L94.928 99.6551C96.4784 99.4491 98.2233 99.5692 98.9956 99.4662L98.9327 99.5463L100.815 99.512L100.489 99.6264C103.189 99.409 105.975 99.3919 108.429 99.4949L108.224 99.163C113.47 99.5349 115.386 98.8483 120.123 99.2889L120.06 99.369C126.044 98.4936 129.523 99.964 135.69 99.1344C134.918 99.2374 136.022 99.306 135.959 99.3861C138.802 99.2889 141.834 99.2431 141.88 98.5909C143.951 98.6023 143.568 98.7968 143.837 99.0486C143.825 98.7625 145.621 98.6424 147.24 98.6252L146.497 98.7339L151.131 98.6366L150.221 98.0988C152.675 98.2533 150.845 98.7568 153.196 98.6252L153.167 98.1789C156.566 98.2647 158.557 98.9456 161.846 99.2717C175.513 99.4605 190.205 98.322 202.923 99.1115L203.483 99.4491C203.729 99.9411 206.99 98.7225 207.476 99.1745L208.958 98.9513C209.376 99.0371 210.251 99.1344 209.513 99.2431C210.88 99.2603 210.915 99.1802 211.899 99.0314L213.369 99.3347C218.77 99.5692 223.358 98.9799 229.033 99.1001C235.858 99.7237 248.696 99.1516 256.099 98.8197C266.5 98.0874 278.6 100.038 289.246 99.2031C289.595 99.2717 290.488 99.1172 290.482 99.06L300.23 99.1287C300.23 99.1287 347.486 99.3175 311.587 95.2495L311.827 95.1408C306.495 94.8834 303.137 94.8262 299.458 95.364C298.875 94.706 295.076 95.2953 293.829 95.0836L293.949 95.0321C290.694 95.5413 287.244 94.6087 284.109 95.0665C284.229 95.015 284.298 94.8319 285.018 94.8204C282.736 94.9063 279.606 95.0493 279.44 94.666C273.983 94.7689 266.362 94.5916 262.867 95.2038L263.107 95.0951C261.116 95.507 260.527 95.158 258.302 95.364C258.181 95.3125 258.021 95.2896 258.05 95.2667C255.876 95.6729 251.711 95.3296 249.96 95.507L249.846 95.2495L245.521 95.3068L247.134 95.364C246.574 96.062 243.862 94.9234 240.727 95.3811C237.792 95.2953 234.777 96.8401 231.728 96.4968C230.275 96.8229 233.009 95.9647 230.835 96.2165C230.767 95.8503 231.848 95.9876 231.293 95.6958C229.159 95.8675 227.797 95.3239 225.166 95.5699L225.057 95.2839C221.624 95.8045 218.581 94.912 216.298 95.404C212.757 95.6386 213.924 94.5572 210.24 95.118L208.809 94.7346C207.23 94.6717 207.682 95.2038 205.932 95.0207C206.041 94.7804 203.724 94.8262 204.748 94.5973C200.789 94.2197 196.715 95.1351 191.498 94.4943C190.365 94.9635 187.739 94.6831 186.898 95.0379C186.761 94.8319 181.641 95.0035 184.587 94.5572C184.839 94.5229 185.285 94.5286 185.256 94.6087L185.611 94.3284C182.636 93.802 180.21 94.6202 177.27 94.5401C178.139 94.6316 179.301 94.6087 178.528 94.8033L175.794 94.7632L176.36 94.5286L172.287 94.3913L172.848 94.6831C170.857 94.5344 170.153 94.0366 167.905 94.4543C166.886 94.6831 169.793 94.849 167.687 94.9406C165.021 94.7403 161.034 94.4428 157.635 94.357C157.956 94.6831 157.04 94.6717 156.097 94.7403L155.988 94.4543C152.378 94.849 154.666 93.8249 151.085 94.1396L151.4 93.9393L150.456 94.5344C147.223 95.1008 148.711 93.9451 145.124 94.7117C146.543 94.666 145.793 95.3411 144.042 95.2152L144.483 94.9406C143.516 94.9978 143.196 95.1122 142.549 95.055C143.127 94.9063 142.852 94.6545 141.434 94.7003L142.389 94.357L139.7 94.8605C137.624 94.563 134.334 94.9349 133.482 94.5458C133.482 94.5458 129.019 94.357 127.995 94.7804C128.893 94.5172 126.433 94.4142 127.131 94.1053C125.976 94.4028 122.56 94.6488 121.193 94.3284L121.45 94.2941C116.393 93.9679 112.8 94.7403 108.264 94.3456C108.47 94.6774 106.072 94.4943 106.667 94.9177C101.97 95.3354 98.1088 94.0595 96.4097 95.364C94.2758 95.4326 93.8811 95.055 92.7769 94.9921L93.2861 94.9234C89.2871 95.0321 88.1258 95.0436 85.1509 95.015C83.6691 95.1408 83.4346 95.7473 80.7743 95.6043C81.6325 95.364 80.5455 95.4097 79.5558 95.4097C80.1908 95.3697 80.3853 95.2839 79.0809 95.1237C78.8978 95.1981 78.6118 95.2438 78.3486 95.2839C78.3372 95.2667 78.2857 95.2495 78.3143 95.2267C76.6552 95.3125 76.9413 95.3869 77.7136 95.4212C77.6736 95.4555 77.7422 95.507 77.9768 95.5699C76.2548 95.261 73.1769 95.5928 72.9652 95.1752C67.9765 95.2724 64.4067 95.7015 60.2532 95.8617C59.7841 95.65 60.7567 95.4612 61.9638 95.3754L59.0175 95.4555C59.0404 95.1466 60.7109 95.2782 61.6205 95.2152C58.1136 94.7175 54.3892 95.7073 50.2759 95.2553L49.4235 95.4956L49.1774 95.4555C49.1889 95.5814 48.2678 95.7588 47.6557 95.7988C47.0721 95.5299 47.6957 95.1809 45.6591 95.198C44.0515 94.9406 41.0823 95.3296 38.977 95.4727C40.1154 95.5185 39.7493 95.6672 39.2573 95.7588C38.239 95.7702 37.6497 95.5013 36.8659 95.6157L36.7687 95.2553C37.1691 95.5928 34.1084 95.6214 33.7308 95.7702C33.153 95.5013 35.3098 95.5413 35.5673 95.3411C31.4825 95.3754 33.5249 95.3583 29.4401 95.3926C27.2604 95.6615 29.8349 95.7359 28.7937 96.0505C26.8714 96.1192 24.9949 96.3709 22.7866 96.1535L23.4846 96.4739C19.869 96.72 17.7064 96.6856 15.275 96.3595C-11.6478 98.9685 9.59983 99.9182 9.59983 99.9182C20.1779 100.611 25.6471 99.6779 38.2619 99.4319Z" fill="#202020"/>
<path d="M55.9224 126.42L56.6554 126.552C56.6439 126.489 56.4607 126.437 55.9224 126.42Z" fill="#202020"/>
<path d="M241.545 126.368C241.602 126.357 241.671 126.351 241.717 126.34C241.596 126.351 241.556 126.363 241.545 126.368Z" fill="#202020"/>
<path d="M84.4246 130.906C84.4074 130.906 84.3959 130.906 84.3845 130.906C84.3215 130.917 84.2471 130.929 84.1955 130.94L84.4246 130.906Z" fill="#202020"/>
<path d="M47.0206 130.545C56.8378 130.705 59.4408 131.329 69.6127 131.077C74.4641 131.129 79.6415 130.986 84.3899 130.911C86.644 130.425 90.6201 130.906 93.2803 130.499L94.3158 130.774C95.2312 130.637 96.3124 130.539 97.2335 130.688L97.1763 130.768C98.5493 130.562 100.094 130.683 100.775 130.58L100.718 130.66L102.382 130.625L102.096 130.74C104.488 130.522 106.953 130.505 109.127 130.608L108.95 130.276C113.595 130.648 115.295 129.962 119.482 130.402L119.425 130.482C124.723 129.607 127.801 131.077 133.264 130.248C132.583 130.351 133.556 130.419 133.499 130.499C136.016 130.402 138.699 130.356 138.739 129.704C140.57 129.716 140.232 129.91 140.473 130.162C140.461 129.876 142.052 129.756 143.482 129.738L142.824 129.847L146.926 129.75L146.119 129.212C148.293 129.367 146.674 129.87 148.751 129.738L148.722 129.292C151.731 129.378 153.493 130.059 156.405 130.385C168.505 130.574 181.503 129.435 192.762 130.225L193.26 130.562C193.477 131.054 196.366 129.836 196.795 130.288L198.106 130.065C198.472 130.15 199.25 130.248 198.598 130.356C199.81 130.374 199.839 130.293 200.709 130.145L202.007 130.448C206.784 130.683 210.846 130.093 215.875 130.213C221.916 130.837 233.284 130.265 239.834 129.933C249.039 129.201 259.749 131.152 269.177 130.316C269.486 130.385 270.276 130.231 270.27 130.173L278.897 130.242C278.897 130.242 320.723 130.431 288.949 126.363L289.16 126.254C284.441 125.997 281.466 125.939 278.21 126.477C277.696 125.819 274.332 126.409 273.228 126.197L273.33 126.145C270.447 126.655 267.398 125.722 264.623 126.18C264.732 126.128 264.789 125.945 265.43 125.934C263.405 126.02 260.641 126.163 260.493 125.779C255.664 125.882 248.919 125.705 245.824 126.317L246.036 126.208C244.274 126.62 243.753 126.271 241.779 126.477C241.671 126.426 241.533 126.403 241.556 126.38C239.634 126.786 235.95 126.443 234.394 126.62L234.291 126.363L230.463 126.42L231.894 126.477C231.396 127.175 228.999 126.037 226.224 126.494C223.627 126.409 220.955 127.953 218.261 127.61C216.973 127.936 219.393 127.078 217.471 127.33C217.408 126.964 218.369 127.101 217.871 126.809C215.984 126.981 214.776 126.437 212.448 126.683L212.351 126.397C209.313 126.918 206.618 126.025 204.599 126.517C201.464 126.752 202.499 125.671 199.238 126.231L197.968 125.848C196.572 125.785 196.967 126.317 195.422 126.134C195.514 125.894 193.466 125.939 194.375 125.711C190.874 125.333 187.264 126.248 182.648 125.608C181.646 126.077 179.324 125.796 178.574 126.151C178.448 125.945 173.917 126.117 176.526 125.671C176.749 125.636 177.144 125.642 177.121 125.722L177.436 125.442C174.804 124.915 172.653 125.733 170.05 125.653C170.822 125.745 171.846 125.722 171.16 125.917L168.74 125.877L169.243 125.642L165.639 125.505L166.137 125.796C164.375 125.648 163.751 125.15 161.766 125.568C160.868 125.796 163.436 125.962 161.577 126.054C159.22 125.854 155.69 125.556 152.675 125.47C152.956 125.796 152.149 125.785 151.314 125.854L151.217 125.568C148.024 125.962 150.044 124.938 146.874 125.253L147.155 125.053L146.319 125.648C143.459 126.214 144.775 125.058 141.6 125.825C142.858 125.779 142.195 126.454 140.644 126.329L141.039 126.054C140.181 126.111 139.895 126.226 139.328 126.168C139.838 126.02 139.597 125.768 138.339 125.814L139.18 125.47L136.8 125.974C134.963 125.676 132.051 126.048 131.296 125.659C131.296 125.659 127.349 125.47 126.439 125.894C127.234 125.63 125.055 125.528 125.672 125.219C124.648 125.516 121.628 125.762 120.415 125.442L120.644 125.407C116.17 125.081 112.989 125.854 108.973 125.459C109.156 125.791 107.034 125.608 107.56 126.031C103.406 126.449 99.9853 125.173 98.4807 126.477C96.5927 126.546 96.238 126.168 95.2655 126.105L95.7174 126.037C92.1762 126.145 91.1464 126.157 88.5147 126.128C87.2046 126.254 86.993 126.861 84.6417 126.718C85.4025 126.477 84.4414 126.523 83.5604 126.523C84.121 126.483 84.2984 126.397 83.1428 126.237C82.9826 126.311 82.7309 126.357 82.4906 126.397C82.4791 126.38 82.4334 126.363 82.4562 126.34C80.986 126.426 81.2434 126.5 81.9242 126.534C81.8899 126.569 81.9471 126.62 82.1588 126.683C80.6313 126.374 77.9081 126.706 77.725 126.288C73.3084 126.386 70.1505 126.815 66.4719 126.975C66.06 126.763 66.9181 126.575 67.9879 126.489L65.3792 126.569C65.4021 126.26 66.8781 126.391 67.679 126.329C64.5725 125.831 61.2772 126.821 57.633 126.369L56.8778 126.609L56.6604 126.569C56.6719 126.695 55.8538 126.872 55.316 126.912C54.8011 126.643 55.3503 126.294 53.5482 126.311C52.1237 126.054 49.4978 126.443 47.6327 126.586C48.6396 126.632 48.3135 126.78 47.8787 126.872C46.9748 126.883 46.4599 126.615 45.762 126.729L45.6762 126.369C46.0309 126.706 43.3191 126.735 42.9873 126.883C42.4724 126.615 44.3832 126.655 44.6121 126.454C40.9964 126.489 42.8042 126.472 39.1886 126.506C37.2606 126.775 39.5376 126.849 38.6165 127.164C36.9116 127.232 35.2526 127.484 33.296 127.267L33.9139 127.587C30.7158 127.833 28.7993 127.799 26.6482 127.473C2.82042 130.082 21.6252 131.032 21.6252 131.032C31.0076 131.724 35.8533 130.791 47.0206 130.545Z" fill="#202020"/>
<path d="M55.9224 149.661L56.6554 149.792C56.6439 149.735 56.4607 149.678 55.9224 149.661Z" fill="#202020"/>
<path d="M241.545 149.615C241.602 149.604 241.671 149.598 241.717 149.586C241.596 149.592 241.556 149.604 241.545 149.615Z" fill="#202020"/>
<path d="M84.4246 154.146C84.4074 154.146 84.3959 154.146 84.3845 154.146C84.3215 154.158 84.2471 154.169 84.1955 154.181L84.4246 154.146Z" fill="#202020"/>
<path d="M47.0206 153.786C56.8378 153.946 59.4408 154.57 69.6127 154.318C74.4641 154.369 79.6415 154.226 84.3899 154.152C86.644 153.666 90.6201 154.146 93.2803 153.74L94.3158 154.015C95.2312 153.877 96.3124 153.78 97.2335 153.929L97.1763 154.009C98.5493 153.803 100.094 153.923 100.775 153.82L100.718 153.9L102.382 153.866L102.096 153.98C104.488 153.763 106.953 153.746 109.127 153.849L108.95 153.517C113.595 153.889 115.295 153.202 119.482 153.643L119.425 153.723C124.723 152.847 127.801 154.318 133.264 153.488C132.583 153.591 133.556 153.66 133.499 153.74C136.016 153.643 138.699 153.597 138.739 152.945C140.57 152.956 140.232 153.151 140.473 153.402C140.461 153.116 142.052 152.996 143.482 152.979L142.824 153.088L146.926 152.99L146.119 152.453C148.293 152.607 146.674 153.111 148.751 152.979L148.722 152.533C151.731 152.619 153.493 153.299 156.405 153.626C168.505 153.814 181.503 152.676 192.762 153.465L193.26 153.803C193.477 154.295 196.366 153.076 196.795 153.528L198.106 153.305C198.472 153.391 199.25 153.488 198.598 153.597C199.81 153.614 199.839 153.534 200.709 153.385L202.007 153.689C206.784 153.923 210.846 153.334 215.875 153.454C221.916 154.078 233.284 153.505 239.834 153.174C249.039 152.441 259.749 154.392 269.177 153.557C269.486 153.626 270.276 153.471 270.27 153.414L278.897 153.483C278.897 153.483 320.723 153.671 288.949 149.603L289.16 149.495C284.441 149.237 281.466 149.18 278.21 149.718C277.696 149.06 274.332 149.649 273.228 149.437L273.33 149.386C270.447 149.895 267.398 148.963 264.623 149.42C264.732 149.369 264.789 149.186 265.43 149.174C263.405 149.26 260.641 149.403 260.493 149.02C255.664 149.123 248.919 148.945 245.824 149.558L246.036 149.449C244.274 149.861 243.753 149.512 241.779 149.718C241.671 149.666 241.533 149.643 241.556 149.621C239.634 150.027 235.95 149.683 234.394 149.861L234.291 149.603L230.463 149.661L231.894 149.718C231.396 150.416 228.999 149.277 226.224 149.735C223.627 149.649 220.955 151.194 218.261 150.851C216.973 151.177 219.393 150.319 217.471 150.57C217.408 150.204 218.369 150.341 217.871 150.05C215.984 150.221 214.776 149.678 212.448 149.924L212.351 149.638C209.313 150.158 206.618 149.266 204.599 149.758C201.464 149.992 202.499 148.911 199.238 149.472L197.968 149.088C196.572 149.026 196.967 149.558 195.422 149.375C195.514 149.134 193.466 149.18 194.375 148.951C190.874 148.574 187.264 149.489 182.648 148.848C181.646 149.317 179.324 149.037 178.574 149.392C178.448 149.186 173.917 149.357 176.526 148.911C176.749 148.877 177.144 148.882 177.121 148.963L177.436 148.682C174.804 148.156 172.653 148.974 170.05 148.894C170.822 148.985 171.846 148.963 171.16 149.157L168.74 149.117L169.243 148.882L165.639 148.745L166.137 149.037C164.375 148.888 163.751 148.39 161.766 148.808C160.868 149.037 163.436 149.203 161.577 149.294C159.22 149.094 155.69 148.797 152.675 148.711C152.956 149.037 152.149 149.026 151.314 149.094L151.217 148.808C148.024 149.203 150.044 148.179 146.874 148.493L147.155 148.293L146.319 148.888C143.459 149.455 144.775 148.299 141.6 149.066C142.858 149.02 142.195 149.695 140.644 149.569L141.039 149.294C140.181 149.352 139.895 149.466 139.328 149.409C139.838 149.26 139.597 149.008 138.339 149.054L139.18 148.711L136.8 149.214C134.963 148.917 132.051 149.289 131.296 148.9C131.296 148.9 127.349 148.711 126.439 149.134C127.234 148.871 125.055 148.768 125.672 148.459C124.648 148.757 121.628 149.003 120.415 148.682L120.644 148.648C116.17 148.322 112.989 149.094 108.973 148.699C109.156 149.031 107.034 148.848 107.56 149.272C103.406 149.689 99.9853 148.413 98.4807 149.718C96.5927 149.786 96.238 149.409 95.2655 149.346L95.7174 149.277C92.1762 149.386 91.1464 149.397 88.5147 149.369C87.2046 149.495 86.993 150.101 84.6417 149.958C85.4025 149.718 84.4414 149.764 83.5604 149.764C84.121 149.724 84.2984 149.638 83.1428 149.478C82.9826 149.552 82.7309 149.598 82.4906 149.638C82.4791 149.621 82.4334 149.603 82.4562 149.581C80.986 149.666 81.2434 149.741 81.9242 149.775C81.8899 149.809 81.9471 149.861 82.1588 149.924C80.6313 149.615 77.9081 149.947 77.725 149.529C73.3084 149.626 70.1505 150.055 66.4719 150.216C66.06 150.004 66.9181 149.815 67.9879 149.729L65.3792 149.809C65.4021 149.5 66.8781 149.632 67.679 149.569C64.5725 149.071 61.2772 150.061 57.633 149.609L56.8778 149.849L56.6604 149.809C56.6719 149.935 55.8538 150.113 55.316 150.153C54.8011 149.884 55.3503 149.535 53.5482 149.552C52.1237 149.294 49.4978 149.683 47.6327 149.827C48.6396 149.872 48.3135 150.021 47.8787 150.113C46.9748 150.124 46.4599 149.855 45.762 149.97L45.6762 149.609C46.0309 149.947 43.3191 149.975 42.9873 150.124C42.4724 149.855 44.3832 149.895 44.6121 149.695C40.9964 149.729 42.8042 149.712 39.1886 149.746C37.2606 150.015 39.5376 150.09 38.6165 150.404C36.9116 150.473 35.2526 150.725 33.296 150.507L33.9139 150.828C30.7158 151.074 28.7993 151.039 26.6482 150.713C2.82042 153.322 21.6252 154.272 21.6252 154.272C31.0076 154.964 35.8533 154.032 47.0206 153.786Z" fill="#202020"/>
<path d="M55.9224 172.901L56.6554 173.033C56.6439 172.975 56.4607 172.924 55.9224 172.901Z" fill="#202020"/>
<path d="M241.545 172.855C241.602 172.844 241.671 172.838 241.717 172.827C241.596 172.838 241.556 172.844 241.545 172.855Z" fill="#202020"/>
<path d="M84.4246 177.387C84.4074 177.387 84.3959 177.387 84.3845 177.387C84.3215 177.398 84.2471 177.409 84.1955 177.421L84.4246 177.387Z" fill="#202020"/>
<path d="M47.0206 177.026C56.8378 177.186 59.4408 177.81 69.6127 177.558C74.4641 177.61 79.6415 177.467 84.3899 177.392C86.644 176.906 90.6201 177.387 93.2803 176.98L94.3158 177.255C95.2312 177.118 96.3124 177.02 97.2335 177.169L97.1763 177.249C98.5493 177.043 100.094 177.163 100.775 177.06L100.718 177.141L102.382 177.106L102.096 177.221C104.488 177.003 106.953 176.986 109.127 177.089L108.95 176.757C113.595 177.129 115.295 176.443 119.482 176.883L119.425 176.963C124.723 176.088 127.801 177.558 133.264 176.729C132.583 176.832 133.556 176.9 133.499 176.98C136.016 176.883 138.699 176.837 138.739 176.185C140.57 176.197 140.232 176.391 140.473 176.643C140.461 176.357 142.052 176.237 143.482 176.219L142.824 176.328L146.926 176.231L146.119 175.693C148.293 175.848 146.674 176.351 148.751 176.219L148.722 175.773C151.731 175.859 153.493 176.54 156.405 176.866C168.505 177.055 181.503 175.916 192.762 176.706L193.26 177.043C193.477 177.535 196.366 176.317 196.795 176.769L198.106 176.546C198.472 176.631 199.25 176.729 198.598 176.837C199.81 176.855 199.839 176.774 200.709 176.626L202.007 176.929C206.784 177.163 210.846 176.574 215.875 176.694C221.916 177.318 233.284 176.746 239.834 176.414C249.039 175.682 259.749 177.633 269.177 176.797C269.486 176.866 270.276 176.711 270.27 176.654L278.897 176.723C278.897 176.723 320.723 176.912 288.949 172.844L289.16 172.735C284.441 172.478 281.466 172.42 278.21 172.958C277.696 172.3 274.332 172.89 273.228 172.678L273.33 172.626C270.447 173.136 267.398 172.203 264.623 172.661C264.732 172.609 264.789 172.426 265.43 172.415C263.405 172.5 260.641 172.644 260.493 172.26C255.664 172.363 248.919 172.186 245.824 172.798L246.036 172.689C244.274 173.101 243.753 172.752 241.779 172.958C241.671 172.907 241.533 172.884 241.556 172.861C239.634 173.267 235.95 172.924 234.394 173.101L234.291 172.844L230.463 172.901L231.894 172.958C231.396 173.656 228.999 172.518 226.224 172.975C223.627 172.89 220.955 174.434 218.261 174.091C216.973 174.417 219.393 173.559 217.471 173.811C217.408 173.445 218.369 173.582 217.871 173.29C215.984 173.462 214.776 172.918 212.448 173.164L212.351 172.878C209.313 173.399 206.618 172.506 204.599 172.998C201.464 173.233 202.499 172.151 199.238 172.712L197.968 172.329C196.572 172.266 196.967 172.798 195.422 172.615C195.514 172.375 193.466 172.42 194.375 172.192C190.874 171.814 187.264 172.729 182.648 172.089C181.646 172.558 179.324 172.277 178.574 172.632C178.448 172.426 173.917 172.598 176.526 172.151C176.749 172.117 177.144 172.123 177.121 172.203L177.436 171.923C174.804 171.396 172.653 172.214 170.05 172.134C170.822 172.226 171.846 172.203 171.16 172.398L168.74 172.357L169.243 172.123L165.639 171.986L166.137 172.277C164.375 172.129 163.751 171.631 161.766 172.049C160.868 172.277 163.436 172.443 161.577 172.535C159.22 172.335 155.69 172.037 152.675 171.951C152.956 172.277 152.149 172.266 151.314 172.335L151.217 172.049C148.024 172.443 150.044 171.419 146.874 171.734L147.155 171.534L146.319 172.129C143.459 172.695 144.775 171.539 141.6 172.306C142.858 172.26 142.195 172.935 140.644 172.809L141.039 172.535C140.181 172.592 139.895 172.706 139.328 172.649C139.838 172.5 139.597 172.249 138.339 172.295L139.18 171.951L136.8 172.455C134.963 172.157 132.051 172.529 131.296 172.14C131.296 172.14 127.349 171.951 126.439 172.375C127.234 172.111 125.055 172.008 125.672 171.699C124.648 171.997 121.628 172.243 120.415 171.923L120.644 171.888C116.17 171.562 112.989 172.335 108.973 171.94C109.156 172.272 107.034 172.089 107.56 172.512C103.406 172.93 99.9853 171.654 98.4807 172.958C96.5927 173.027 96.238 172.649 95.2655 172.586L95.7174 172.518C92.1762 172.626 91.1464 172.638 88.5147 172.609C87.2046 172.735 86.993 173.342 84.6417 173.199C85.4025 172.958 84.4414 173.004 83.5604 173.004C84.121 172.964 84.2984 172.878 83.1428 172.718C82.9826 172.792 82.7309 172.838 82.4906 172.878C82.4791 172.861 82.4334 172.844 82.4562 172.821C80.986 172.907 81.2434 172.981 81.9242 173.015C81.8899 173.05 81.9471 173.101 82.1588 173.164C80.6313 172.855 77.9081 173.187 77.725 172.769C73.3084 172.867 70.1505 173.296 66.4719 173.456C66.06 173.244 66.9181 173.055 67.9879 172.97L65.3792 173.05C65.4021 172.741 66.8781 172.872 67.679 172.809C64.5725 172.312 61.2772 173.302 57.633 172.85L56.8778 173.09L56.6604 173.05C56.6719 173.176 55.8538 173.353 55.316 173.393C54.8011 173.124 55.3503 172.775 53.5482 172.792C52.1237 172.535 49.4978 172.924 47.6327 173.067C48.6396 173.113 48.3135 173.261 47.8787 173.353C46.9748 173.364 46.4599 173.096 45.762 173.21L45.6762 172.85C46.0309 173.187 43.3191 173.216 42.9873 173.364C42.4724 173.096 44.3832 173.136 44.6121 172.935C40.9964 172.97 42.8042 172.952 39.1886 172.987C37.2606 173.256 39.5376 173.33 38.6165 173.645C36.9116 173.713 35.2526 173.965 33.296 173.748L33.9139 174.068C30.7158 174.314 28.7993 174.28 26.6482 173.954C2.82042 176.563 21.6252 177.512 21.6252 177.512C31.0076 178.211 35.8533 177.278 47.0206 177.026Z" fill="#202020"/>
<path d="M35.5615 196.147L35.928 196.279C35.9222 196.216 35.8306 196.164 35.5615 196.147Z" fill="#202020"/>
<path d="M128.373 196.096C128.402 196.084 128.436 196.079 128.459 196.067C128.402 196.079 128.378 196.09 128.373 196.096Z" fill="#202020"/>
<path d="M49.8133 200.633C49.8076 200.633 49.8018 200.633 49.796 200.633C49.7672 200.644 49.7267 200.656 49.6979 200.668L49.8133 200.633Z" fill="#202020"/>
<path d="M31.1106 200.267C36.0191 200.427 37.3235 201.051 42.4095 200.799C44.8351 200.85 47.4267 200.707 49.7952 200.633C50.9222 200.147 52.9074 200.627 54.2404 200.221L54.7553 200.496C55.213 200.358 55.7507 200.261 56.2141 200.41L56.1855 200.49C56.872 200.284 57.6444 200.404 57.9876 200.301L57.959 200.381L58.7943 200.347L58.6513 200.461C59.8469 200.244 61.077 200.227 62.1639 200.33L62.0724 199.998C64.3951 200.37 65.2418 199.683 67.3414 200.124L67.3128 200.204C69.9616 199.328 71.5005 200.799 74.2294 199.969C73.8862 200.072 74.3725 200.141 74.3496 200.221C75.6082 200.124 76.9526 200.078 76.9698 199.426C77.8851 199.437 77.7135 199.632 77.8337 199.883C77.8279 199.597 78.6231 199.477 79.3383 199.46L79.0065 199.569L81.0546 199.471L80.6541 198.934C81.7411 199.088 80.9287 199.592 81.9699 199.46L81.9585 199.014C83.4631 199.1 84.3441 199.78 85.7972 200.107C91.85 200.295 98.349 199.157 103.978 199.946L104.224 200.284C104.333 200.776 105.775 199.557 105.992 200.009L106.644 199.786C106.827 199.872 107.217 199.969 106.89 200.078C107.497 200.095 107.508 200.015 107.949 199.866L108.601 200.169C110.992 200.404 113.023 199.815 115.535 199.935C118.555 200.559 124.236 199.986 127.514 199.655C132.12 198.922 137.469 200.873 142.183 200.038C142.338 200.107 142.732 199.952 142.732 199.895L147.046 199.963C147.046 199.963 167.962 200.152 152.069 196.084L152.178 195.976C149.815 195.718 148.333 195.661 146.703 196.199C146.445 195.541 144.763 196.13 144.208 195.918L144.26 195.867C142.818 196.376 141.291 195.444 139.906 195.901C139.958 195.85 139.992 195.667 140.307 195.655C139.294 195.741 137.909 195.884 137.835 195.501C135.421 195.604 132.045 195.426 130.501 196.039L130.61 195.93C129.729 196.342 129.465 195.993 128.481 196.199C128.43 196.147 128.355 196.124 128.367 196.102C127.406 196.508 125.564 196.164 124.786 196.342L124.734 196.084L122.823 196.142L123.538 196.199C123.292 196.897 122.091 195.758 120.701 196.216C119.402 196.13 118.069 197.675 116.719 197.332C116.078 197.658 117.285 196.8 116.324 197.051C116.296 196.685 116.771 196.822 116.525 196.531C115.581 196.702 114.974 196.159 113.813 196.405L113.767 196.119C112.251 196.639 110.901 195.747 109.888 196.239C108.321 196.473 108.836 195.392 107.205 195.953L106.57 195.569C105.872 195.506 106.072 196.039 105.294 195.855C105.34 195.615 104.316 195.661 104.768 195.432C103.017 195.054 101.21 195.97 98.904 195.329C98.4005 195.798 97.2392 195.518 96.8673 195.873C96.8044 195.667 94.5389 195.838 95.8432 195.392C95.9577 195.358 96.1522 195.363 96.1407 195.444L96.2952 195.163C94.9794 194.637 93.9038 195.455 92.6052 195.375C92.9885 195.466 93.5034 195.444 93.1601 195.638L91.953 195.598L92.2047 195.363L90.4026 195.226L90.6486 195.518C89.7676 195.369 89.4587 194.871 88.4632 195.289C88.0113 195.518 89.2985 195.684 88.366 195.775C87.1874 195.575 85.4196 195.278 83.915 195.192C84.0581 195.518 83.6519 195.506 83.2342 195.575L83.1885 195.289C81.5923 195.684 82.6049 194.66 81.0202 194.974L81.1575 194.774L80.7399 195.369C79.3097 195.936 79.9676 194.78 78.3771 195.547C79.0065 195.501 78.6746 196.176 77.9023 196.05L78.0968 195.775C77.6677 195.833 77.5247 195.947 77.2387 195.89C77.4961 195.741 77.376 195.489 76.7467 195.535L77.17 195.192L75.9801 195.695C75.059 195.398 73.6059 195.77 73.2283 195.381C73.2283 195.381 71.2545 195.192 70.8026 195.615C71.1973 195.352 70.1104 195.249 70.4193 194.94C69.9101 195.238 68.3941 195.484 67.7934 195.163L67.9078 195.129C65.6709 194.803 64.0805 195.575 62.0724 195.18C62.1639 195.512 61.1056 195.329 61.363 195.753C59.2863 196.17 57.5757 194.894 56.8263 196.199C55.8823 196.267 55.705 195.89 55.2187 195.827L55.4418 195.758C53.6683 195.867 53.1591 195.878 51.8433 195.85C51.1854 195.976 51.0824 196.582 49.9096 196.439C50.2929 196.199 49.8067 196.245 49.3719 196.245C49.6522 196.205 49.738 196.119 49.1602 195.958C49.0801 196.033 48.9542 196.079 48.8341 196.119C48.8284 196.102 48.8055 196.084 48.8169 196.061C48.0847 196.147 48.2105 196.222 48.5538 196.256C48.5366 196.29 48.5652 196.342 48.6682 196.405C47.9073 196.096 46.5457 196.428 46.4485 196.01C44.2402 196.107 42.6612 196.536 40.8247 196.697C40.6188 196.485 41.0479 196.296 41.5799 196.21L40.2755 196.29C40.287 195.981 41.025 196.113 41.4255 196.05C39.8751 195.552 38.2217 196.542 36.4024 196.09L36.0249 196.33L35.9162 196.29C35.9219 196.416 35.5157 196.594 35.2411 196.634C34.9836 196.365 35.2583 196.016 34.3601 196.033C33.6449 195.775 32.3348 196.164 31.4023 196.307C31.9058 196.353 31.7456 196.502 31.5282 196.594C31.0762 196.605 30.8188 196.336 30.4698 196.451L30.424 196.09C30.6014 196.428 29.2455 196.456 29.0796 196.605C28.8222 196.336 29.7776 196.376 29.892 196.176C28.0842 196.21 28.9881 196.193 27.1803 196.227C26.2134 196.496 27.3576 196.571 26.8942 196.885C26.0418 196.954 25.2122 197.206 24.234 196.988L24.5429 197.309C22.941 197.555 21.9856 197.52 20.9101 197.194C8.99331 199.803 18.3986 200.753 18.3986 200.753C23.1069 201.451 25.5269 200.518 31.1106 200.267Z" fill="#202020"/>
</g>
<g clip-path="url(#clip1)">
<path d="M278.088 113.414C311.1 113.414 337.862 88.5028 337.862 57.773C337.862 27.0431 311.1 2.13167 278.088 2.13167C245.077 2.13167 218.315 27.0431 218.315 57.773C218.315 88.5028 245.077 113.414 278.088 113.414Z" fill="white"/>
<path d="M242.443 100.523L243.103 101.159C243.124 101.1 242.969 100.929 242.443 100.523Z" fill="#202020"/>
<path d="M263.152 5.53484C263.088 5.56157 263.007 5.58831 262.948 5.61505C263.098 5.56692 263.141 5.54553 263.152 5.53484Z" fill="#202020"/>
<path d="M275.221 115.973C275.2 115.973 275.184 115.973 275.168 115.973C275.087 115.984 274.991 115.989 274.916 116L275.221 115.973Z" fill="#202020"/>
<path d="M231.371 95.8858C233.563 98.2738 235.492 100.096 237.287 101.629C237.738 102.014 238.172 102.388 238.595 102.751C239.035 103.098 239.463 103.435 239.887 103.766C240.723 104.444 241.575 105.037 242.427 105.646C245.868 108.002 249.56 110.241 255.97 112.431C259.004 113.521 262.235 114.381 265.494 114.98C268.758 115.551 272.038 115.856 275.173 115.979C275.923 115.882 276.807 115.85 277.772 115.845C278.737 115.818 279.782 115.792 280.843 115.765C281.904 115.733 282.981 115.637 284.01 115.551C285.039 115.45 286.009 115.263 286.872 115.076C287.333 115.113 287.794 115.129 288.255 115.135C289.434 114.809 290.817 114.504 292.033 114.36L291.974 114.451C293.711 113.922 295.699 113.452 296.546 113.142L296.492 113.233L298.583 112.543L298.256 112.757C301.203 111.598 304.215 110.396 306.82 109.194L306.472 109.017C306.825 108.868 307.163 108.729 307.49 108.59C307.811 108.44 308.112 108.286 308.406 108.141C308.991 107.847 309.532 107.564 310.041 107.287C311.032 106.699 311.895 106.143 312.737 105.593C313.557 105.005 314.371 104.455 315.256 103.835C315.69 103.52 316.151 103.194 316.649 102.858C316.901 102.692 317.158 102.521 317.426 102.339C317.689 102.152 317.962 101.965 318.241 101.762L318.23 101.869C319.479 100.635 320.583 99.54 321.682 98.5677C322.732 97.5419 323.793 96.6497 324.774 95.6614C325.798 94.7104 326.735 93.6687 327.716 92.5254C328.643 91.3394 329.587 90.0358 330.417 88.4278C329.989 89.2184 330.766 88.198 330.787 88.2995C331.248 87.6104 331.645 86.8624 332.052 86.1733C332.465 85.4894 332.792 84.8056 333.059 84.2072C333.327 83.6089 333.542 83.1014 333.644 82.7167C333.735 82.3267 333.729 82.0649 333.595 81.9848C334.646 79.8372 334.624 80.318 334.962 80.1256C334.839 80.0776 334.957 79.5593 335.187 78.8435C335.305 78.4855 335.45 78.0741 335.616 77.6468C335.766 77.214 335.921 76.7599 336.077 76.3218L335.879 77.1659C336.168 76.3218 336.468 75.4777 336.741 74.6283L337.476 72.0532L336.688 72.9187C337.181 71.5991 337.326 71.4495 337.497 71.3213C337.652 71.1931 337.776 71.0649 338.044 69.7346L337.626 69.6759C338.081 67.7846 338.537 66.2941 338.928 64.7875C339.03 64.4136 339.137 64.0343 339.244 63.655C339.33 63.2703 339.416 62.8803 339.501 62.4796C339.662 61.6729 339.866 60.8235 339.946 59.8618C340.145 55.8764 339.823 51.7894 339.008 47.788C338.199 43.7865 336.891 39.8758 335.209 36.1949C331.848 28.8063 326.993 22.4168 321.848 17.1171C321.767 16.8874 321.671 16.6684 321.58 16.4493C321.628 16.1875 320.744 15.6266 319.838 15.0549C318.911 14.51 317.951 13.9758 317.86 13.6285C317.378 13.3133 316.869 13.0355 316.365 12.7577C316.027 12.4104 315.256 11.7373 316.006 12.1594C314.736 11.1977 314.639 11.2672 313.61 10.7436C313.187 10.359 312.774 9.94225 312.329 9.57896C309.714 7.81596 307.061 6.57652 304.333 5.45995C301.6 4.34873 298.743 3.47257 295.587 2.52697C291.851 1.19136 286.16 0.0587666 280.345 0.0160273L278.174 0C277.451 0.0320545 276.727 0.0641091 276.014 0.0961636C275.655 0.112191 275.301 0.133561 274.942 0.149588C274.589 0.181642 274.235 0.219039 273.887 0.251094C273.19 0.320545 272.498 0.389997 271.818 0.459448C269.111 0.83876 266.614 1.29287 264.54 1.83245C261.63 2.59642 258.639 3.47257 255.622 4.51969C252.61 5.5668 249.56 6.75816 246.634 8.2487C243.703 9.72855 240.862 11.4435 238.257 13.4095C235.642 15.3648 233.311 17.6086 231.338 20.0127C231.017 20.2638 230.411 21.1239 230.46 21.156C227.941 23.9714 225.695 27.0273 223.771 30.2862C223.771 30.2862 223.358 31.0395 222.672 32.2843C222.013 33.5451 221.14 35.3348 220.314 37.429C218.599 41.6014 217.367 47.0881 217.099 51.3193C216.965 53.4349 216.991 55.2353 217.158 56.3999C217.297 57.5699 217.506 58.1095 217.768 57.7623C217.902 57.586 218.053 57.1906 218.224 56.5388C218.401 55.8871 218.556 54.9842 218.856 53.8089C219.387 51.4635 220.169 47.9696 222.024 43.4179L222.045 43.6957C223.948 38.2143 225.647 35.0196 227.26 31.3173C227.474 31.2639 227.742 30.9807 228.037 30.58C228.182 30.377 228.337 30.1473 228.493 29.8962C228.664 29.6504 228.836 29.3887 229.012 29.1215C229.366 28.5873 229.704 28.0157 230.041 27.5295C230.39 27.054 230.701 26.648 230.947 26.4076L230.91 26.5412C231.135 26.1565 231.365 25.7718 231.633 25.4086C231.907 25.0506 232.191 24.7034 232.485 24.3614C232.785 24.0195 233.075 23.6723 233.396 23.3571L234.377 22.4115C235.02 21.7704 235.701 21.1827 236.349 20.579C236.982 19.9593 237.62 19.3609 238.193 18.7198C238.129 18.8427 238.182 19.019 237.604 19.5479C239.356 17.7903 242.009 15.6319 242.379 15.8296C244.726 14.0292 247.754 12.1594 250.675 10.6528C253.591 9.12486 256.394 7.99226 258.103 7.07337L257.889 7.25501C259.845 6.21858 260.552 6.31474 262.868 5.51872C263.007 5.52941 263.179 5.50804 263.157 5.53475C263.709 5.28365 264.422 5.10201 265.188 4.90434C265.574 4.80818 265.976 4.71202 266.389 4.62654C266.801 4.55709 267.219 4.48763 267.638 4.42352C269.299 4.12435 270.928 4.02819 271.877 3.81983L272.022 4.03887C273.597 3.90531 275.173 3.74504 276.759 3.72367L274.98 3.71833C275.269 3.37641 276.18 3.46189 277.44 3.5634C278.067 3.60079 278.78 3.70764 279.551 3.75038C280.323 3.79846 281.154 3.79312 282.022 3.76106C282.826 3.84654 283.641 3.8038 284.466 3.78243C285.291 3.76106 286.133 3.69696 286.98 3.64353C287.826 3.61682 288.678 3.61682 289.531 3.6649C290.383 3.70764 291.213 3.89463 292.033 4.14038C293.689 4.18312 290.527 4.32202 292.945 4.61051C292.945 4.94708 291.798 4.57846 292.339 4.97379C293.507 5.16078 294.413 5.51872 295.394 5.84995C295.876 6.03159 296.375 6.23461 296.927 6.42159C297.479 6.61392 298.095 6.76885 298.792 6.98254L298.813 7.27104C300.673 7.66637 302.291 8.44103 303.728 9.18362C304.44 9.57362 305.116 9.94759 305.764 10.2628C306.402 10.6047 307.013 10.8985 307.624 11.0909C308.514 11.4862 309.049 11.8655 309.441 12.1594C309.832 12.4585 310.068 12.7043 310.314 12.9393C310.802 13.4255 311.3 13.901 313.112 14.8199L314.157 16.0326C314.838 16.5562 315.132 16.6684 315.449 16.8019C315.765 16.9355 316.092 17.0957 316.778 17.7582C316.569 17.833 318.466 19.4785 317.496 18.8961C317.866 19.2861 318.252 19.6601 318.648 20.0287C319.039 20.4027 319.42 20.7927 319.822 21.1667C320.642 21.9039 321.43 22.7053 322.266 23.528C323.874 25.2162 325.562 27.1288 326.853 29.6398C327.925 30.3984 329.158 32.9734 329.86 33.6305C329.838 33.684 329.994 34.0259 330.214 34.464C330.417 34.9127 330.664 35.463 330.873 35.9224C331.28 36.8413 331.478 37.3916 330.594 36.056C330.444 35.8263 330.24 35.3882 330.321 35.3882L329.924 35.1638C330.16 35.9385 330.455 36.633 330.771 37.3008C331.06 37.9793 331.382 38.6257 331.72 39.2668C332.341 40.565 333.027 41.8579 333.424 43.3911C333.242 42.4669 332.834 41.2862 333.263 42.0235C333.526 42.9691 333.837 43.904 334.067 44.8603C333.944 44.684 333.831 44.5024 333.697 44.3261C334.019 45.7472 334.351 47.1629 334.549 48.6054L334.705 47.9643C334.839 49.0327 334.839 49.7647 334.839 50.5233C334.85 50.9026 334.876 51.2872 334.941 51.7253C334.973 51.9444 335.021 52.1741 335.075 52.4252C335.117 52.6763 335.176 52.9487 335.246 53.2426C335.552 54.3164 335.444 51.1804 335.718 53.4349C335.766 54.8774 335.718 56.6778 335.589 58.5636C335.503 59.5039 335.466 60.4709 335.321 61.4218C335.203 62.3728 335.112 63.3184 334.946 64.2159C335.294 63.9167 335.15 64.8891 335.08 65.9041L334.796 65.9789C334.421 69.8522 334.003 67.2611 333.381 71.0328L333.285 70.6589C333.392 71.0328 333.456 71.4015 333.542 71.7808C333.413 72.6462 333.285 73.1858 333.151 73.5651C333.011 73.9391 332.856 74.1475 332.716 74.3719C332.572 74.5962 332.432 74.8313 332.288 75.2534C332.218 75.467 332.143 75.7235 332.068 76.0494C331.982 76.3699 331.88 76.7599 331.773 77.2407C332.331 75.8143 332.599 76.792 331.752 78.5015L331.704 77.9566C331.361 78.9503 331.264 79.2922 330.921 79.9013C331.071 79.2815 330.728 79.4472 330.101 80.8415L330.262 79.7784C330.005 80.7186 329.667 81.6375 329.335 82.5618C329.169 82.7915 329.002 83.0426 328.836 83.3097C328.654 83.5662 328.477 83.8386 328.295 84.1164C327.931 84.672 327.598 85.2704 327.234 85.7993C326.505 86.8571 325.883 87.792 325.444 88.0378C325.444 88.0378 324.688 88.9727 323.852 90.0198C323.423 90.5327 322.978 91.0829 322.619 91.5691C322.25 92.0499 321.939 92.456 321.826 92.7284C322.303 91.8523 320.427 93.7328 320.733 92.9795C320.427 93.5405 319.607 94.4647 318.755 95.3943C317.844 96.2651 316.89 97.1412 316.21 97.4725L316.408 97.2695C315.851 97.6648 315.331 98.0601 314.827 98.4555C314.328 98.8508 313.819 99.1981 313.342 99.5667C312.399 100.315 311.45 100.961 310.539 101.634C310.089 101.976 309.601 102.259 309.135 102.574C308.658 102.874 308.192 103.189 307.694 103.467C306.686 104.001 305.673 104.573 304.515 104.995C304.853 105.176 302.436 106.143 303.176 106.223C300.898 107.415 298.642 108.077 296.771 108.537C296.305 108.66 295.865 108.777 295.458 108.905C295.051 109.028 294.665 109.13 294.322 109.258C293.631 109.509 293.079 109.813 292.698 110.23C290.415 110.786 289.927 110.556 288.727 110.679L289.263 110.524C288.191 110.716 287.306 110.914 286.529 111.021C285.752 111.122 285.088 111.213 284.455 111.299C283.828 111.389 283.223 111.406 282.579 111.459C281.936 111.491 281.25 111.571 280.436 111.566C278.823 111.715 278.565 112.335 275.628 112.111C276.105 112.009 276.046 111.961 275.73 111.94C275.569 111.929 275.35 111.918 275.098 111.913C274.846 111.897 274.567 111.876 274.294 111.86C274.996 111.876 275.21 111.806 273.79 111.555C273.586 111.609 273.27 111.63 272.975 111.646C272.965 111.63 272.911 111.609 272.938 111.587C272.027 111.571 271.652 111.55 271.603 111.576C271.561 111.598 271.845 111.667 272.263 111.721C272.214 111.753 272.284 111.801 272.541 111.881C271.609 111.667 270.301 111.486 269.197 111.357C268.098 111.17 267.214 110.999 267.134 110.791C266.453 110.7 265.81 110.572 265.178 110.46C264.545 110.348 263.94 110.236 263.339 110.129C262.75 110 262.171 109.878 261.608 109.76C261.04 109.648 260.483 109.525 259.947 109.381C258.859 109.108 257.792 108.857 256.747 108.51C256.222 108.344 255.691 108.179 255.161 108.013C254.636 107.815 254.11 107.618 253.575 107.415C253.178 107.03 254.234 107.292 255.488 107.725C254.486 107.335 253.473 106.95 252.481 106.528C252.615 106.304 254.255 107.105 255.193 107.441C254.357 106.955 253.462 106.576 252.556 106.17C251.661 105.743 250.707 105.401 249.775 104.957C248.842 104.519 247.867 104.102 246.945 103.547C246.479 103.28 246.007 103.002 245.546 102.703C245.091 102.393 244.646 102.051 244.206 101.698L243.301 101.367C243.236 101.308 243.161 101.25 243.097 101.185C243.038 101.292 242.127 100.822 241.559 100.459C241.377 100.17 241.468 100.064 241.387 99.8605C241.344 99.759 241.259 99.6362 241.066 99.4599C240.884 99.2729 240.605 99.0218 240.165 98.6745C238.911 97.4351 236.301 95.5118 234.586 93.9411C235.422 94.8654 235.052 94.6677 234.602 94.3525C233.831 93.5351 233.573 92.8994 232.909 92.3331L233.091 92.0286C233.112 92.301 232.582 91.7988 231.992 91.2005C231.698 90.896 231.392 90.5754 231.135 90.3136C230.894 90.0412 230.695 89.8275 230.604 89.7634C230.508 89.4321 230.813 89.7473 231.183 90.1534C231.564 90.5487 232.024 91.0242 232.185 91.0723C231.826 90.6449 231.521 90.3083 231.29 90.0145C231.06 89.7206 230.878 89.4856 230.727 89.2932C230.427 88.9086 230.256 88.6842 230.084 88.4652C229.731 88.0324 229.425 87.5676 228.15 85.7352C226.681 83.8386 228.112 86.2748 227.26 85.4574C226.96 85.0193 226.66 84.5812 226.36 84.1378C226.054 83.6997 225.791 83.2349 225.502 82.7701C225.229 82.3 224.929 81.8299 224.682 81.3063C224.436 80.7881 224.2 80.2485 223.98 79.6769L224.05 80.505C223.809 80.0615 223.578 79.6448 223.358 79.2441C223.165 78.8328 222.978 78.4374 222.801 78.0581C222.629 77.6788 222.469 77.3102 222.308 76.9576C222.158 76.605 222.04 76.247 221.917 75.9105C221.686 75.2266 221.456 74.5855 221.295 73.9284C221.14 73.2767 221.006 72.6249 220.877 71.9624C219.559 68.4471 218.878 65.5782 218.347 63.3771C218.133 62.2713 217.919 61.3257 217.752 60.5296C217.613 59.7336 217.484 59.0872 217.361 58.5797C216.895 56.5388 216.584 56.7098 216.311 57.7943C216.193 58.3606 216.102 59.178 216.032 60.0862C216.016 60.3159 216 60.5457 215.984 60.7807C215.984 61.0158 215.978 61.2562 215.978 61.4913C215.984 61.9721 215.989 62.4529 215.989 62.9124C215.984 63.8419 216.086 64.6914 216.134 65.3164C216.193 65.9362 216.23 66.3315 216.23 66.3315C216.295 67.1115 216.434 67.8594 216.536 68.5967C216.595 68.9653 216.648 69.3233 216.707 69.6812C216.782 70.0338 216.857 70.3811 216.932 70.7283C217.088 71.4175 217.222 72.0906 217.404 72.7424C217.597 73.3888 217.785 74.0246 217.967 74.6497C218.144 75.2801 218.379 75.8784 218.599 76.4768C218.824 77.0698 219.033 77.6681 219.285 78.2451C219.805 79.3884 220.282 80.5423 220.893 81.6482C222.029 83.9027 223.439 86.0931 225.095 88.4545C226.783 90.7784 228.814 93.2306 231.371 95.8858Z" fill="#202020"/>
<path d="M263.993 58.7081L263.908 58.4942C263.897 58.5584 263.918 58.6332 263.993 58.7081Z" fill="#202020"/>
<path d="M293.229 55.139C293.213 55.1497 293.191 55.1604 293.18 55.1711C293.218 55.1604 293.229 55.1497 293.229 55.139Z" fill="#202020"/>
<path d="M256.774 60.0221C256.769 60.0114 256.764 60.006 256.764 60.0007C256.731 59.9633 256.694 59.9258 256.662 59.8938L256.774 60.0221Z" fill="#202020"/>
<path d="M268.463 57.3081C268.072 56.9555 267.718 56.6403 267.391 56.3464C267.22 56.1915 267.059 56.0419 266.903 55.903C266.635 55.6679 266.367 55.4436 266.099 55.2299C265.054 54.343 264.058 53.6111 263.018 53.0021C262.187 52.5319 261.362 52.3129 260.611 52.3076C260.242 52.3022 259.85 52.3556 259.39 52.4785C258.934 52.6014 258.425 52.8365 257.937 53.1944C256.817 53.8836 256.008 55.1925 255.831 56.3999C255.788 56.699 255.767 56.9875 255.783 57.2546C255.788 57.3241 255.783 57.3882 255.793 57.4577L255.847 57.682L255.96 58.1308C256.035 58.4246 256.11 58.7185 256.179 59.0123L256.206 59.1192C256.222 59.1566 256.26 59.2046 256.281 59.2474L256.442 59.5038C256.549 59.6748 256.656 59.8404 256.758 60.0113C257.08 60.3319 257.369 60.6952 257.637 61.0852C257.937 61.4805 258.286 61.9079 258.607 62.3513L259.105 63.0138C259.266 63.2275 259.459 63.4732 259.593 63.6068C259.808 63.8312 260.033 64.0342 260.274 64.1731L260.344 64.6539C260.681 64.8409 261.03 65.0973 261.163 65.4606L261.094 65.4927C261.592 65.7705 261.925 66.2833 262.176 66.4169L262.107 66.4543L262.578 66.9084L262.423 66.8977C263.222 67.432 263.897 68.1105 264.438 68.7622L264.604 68.4898C265.655 70.0017 266.582 69.9696 267.509 71.364L267.445 71.4067C269.519 72.144 269.54 73.9657 271.705 74.6816C271.437 74.5961 271.695 74.8793 271.63 74.922C272.456 75.4616 273.335 76.0439 273.704 75.5578C274.267 75.9905 274.064 76.0493 273.999 76.3004C274.155 76.0813 274.723 76.3485 275.189 76.6583L274.921 76.5942L275.275 76.8079L275.714 77.059C276.063 77.2513 276.432 77.4063 276.813 77.5078C276.706 77.2994 276.62 77.0857 276.556 76.8774C277.043 77.1552 277.102 77.2941 277.145 77.433C277.188 77.5559 277.247 77.6948 277.847 77.6574L277.842 77.2407C278.624 77.2834 279.262 77.2406 279.975 77.1124C280.581 77.0323 281.175 76.9148 281.722 76.7117C283.705 75.4189 285.5 73.7147 287.199 72.0158C288.904 70.3169 290.501 68.6073 292.253 67.245L292.618 67.3144C293.014 67.5548 292.929 65.9681 293.347 66.1177L293.523 65.5942C293.679 65.5407 293.941 65.3698 293.856 65.6262C294.177 65.279 294.129 65.2255 294.236 64.8729L294.778 64.6646C296.139 63.3557 296.664 61.7583 297.87 60.225C298.106 60.0113 298.352 59.7389 298.604 59.445C298.727 59.2954 298.856 59.1405 298.979 58.9749C299.033 58.9108 299.129 58.7666 299.21 58.6276C299.295 58.4887 299.371 58.3392 299.44 58.1896C300.03 56.9875 300.11 55.4543 299.563 54.1774C299.295 53.5417 298.861 52.9754 298.315 52.5693C297.773 52.158 297.146 51.8909 296.509 51.7466C295.871 51.6024 295.228 51.5757 294.649 51.613C294.209 51.6718 293.797 51.7146 293.432 51.7947C291.433 52.3396 289.37 52.8792 287.441 53.8088C285.517 54.717 283.791 55.9458 282.746 57.5218C282.612 57.5592 282.494 57.8851 282.537 57.9171L280.221 60.209C280.221 60.209 279.541 60.8875 278.651 61.7797C277.756 62.6825 276.625 63.8632 275.886 64.905C275.146 65.9468 274.798 66.8069 275.318 67.0099C275.848 67.2183 277.199 66.7588 280.018 65.4286L280.029 65.5568C281.492 64.5203 282.387 63.751 282.912 62.4956C283.496 62.7841 284.011 61.4538 284.423 61.3095L284.434 61.3737C284.836 60.2678 286.24 60.1022 286.674 59.1298C286.68 59.1939 286.776 59.3328 286.615 59.4878C287.092 58.9429 287.751 58.2056 288.019 58.4514C288.636 57.8851 289.44 57.3294 290.174 56.854C290.538 56.6082 290.892 56.4052 291.192 56.1808C291.498 55.9938 291.755 55.7588 291.948 55.5611L291.916 55.6733C292.119 55.4115 292.296 55.3314 292.478 55.2886C292.666 55.2566 292.864 55.2459 293.154 55.0803C293.197 55.123 293.245 55.139 293.239 55.1604C293.373 55.0482 293.556 54.9734 293.754 54.9147C293.958 54.8612 294.172 54.8719 294.386 54.8612C294.633 54.8506 294.719 54.8719 294.842 54.8826C294.954 54.8933 295.056 54.8986 295.147 54.8773L295.072 55.1123C295.287 55.1444 295.512 55.2085 295.694 55.3474C295.646 55.2779 295.587 55.2138 295.522 55.1604C295.785 54.8986 295.876 55.0803 295.887 55.3153C295.903 55.5664 295.833 55.8015 296.08 55.9831C296.064 56.2129 296.412 56.4212 296.605 56.8379C296.702 57.0356 296.755 57.2707 296.723 57.4951C296.68 57.7248 296.557 57.9598 296.353 58.1201C296.353 58.6704 296.16 57.5164 295.967 58.2163C295.667 58.0507 295.967 57.837 295.635 57.837C295.41 58.4727 294.713 58.5529 294.408 59.3863L294.172 59.2581C293.904 60.4548 292.628 60.7379 292.532 61.6034C291.975 62.6398 291.433 61.7049 291.069 62.955L290.49 63.0725C290.11 63.4198 290.587 63.6442 290.077 63.9487C289.933 63.7724 289.461 64.3601 289.525 63.9701C288.421 64.6806 288.121 66.2246 286.487 66.9779C286.529 67.5495 285.736 67.9502 285.752 68.3722C285.586 68.2654 284.471 69.4995 284.895 68.5485C284.932 68.4684 285.045 68.3776 285.088 68.4363L284.997 68.1692C283.962 68.4417 283.882 69.5315 283.099 70.0818C283.373 69.9696 283.646 69.7078 283.571 70.007L282.869 70.5466V70.2581C282.51 70.5092 282.135 70.7443 281.765 70.9847L282.076 71.0862C281.481 71.38 281.025 71.1503 280.682 71.8929C280.548 72.2615 281.395 71.8181 280.902 72.2936C280.5 72.4806 280.002 72.7103 279.477 72.9507C278.941 73.2125 278.437 73.4582 278.158 73.549C278.324 73.8055 278.255 73.8322 278.196 73.923L278.11 73.6719C278.04 73.8909 277.965 73.7414 277.96 73.5811C277.933 73.4208 277.96 73.2605 277.89 73.3941C277.912 73.3353 277.928 73.2712 277.944 73.2125C277.901 73.3941 277.837 73.5757 277.756 73.7414C277.66 73.8429 277.595 73.8429 277.574 73.8108C277.563 73.7894 277.542 73.6986 277.52 73.6131C277.483 73.4529 277.397 73.2819 276.716 73.2445C277.113 73.4689 276.556 73.8482 276.159 73.4262L276.427 73.2979C276.143 73.159 275.993 73.1911 275.854 73.0201C276.084 73.0201 276.154 72.7744 275.757 72.5393L276.197 72.4645L275.216 72.3256C274.846 71.7006 273.785 71.3212 273.801 70.8565C273.801 70.8565 272.788 69.8147 272.279 69.8948C272.659 69.8948 272.107 69.3072 272.472 69.2324C272 69.211 271.014 68.65 270.875 68.1318L270.96 68.1639C269.942 66.8496 268.592 66.5825 267.793 65.2843C267.622 65.5514 267.187 64.889 267.043 65.3003C265.671 64.4829 265.698 62.752 264.422 63.174C263.913 62.6986 264.09 62.3673 263.897 62.0575L264.052 62.1376C263.581 61.6889 263.302 61.379 263.05 61.1065C262.986 61.0371 262.927 60.9676 262.868 60.8982L262.782 60.7967C262.739 60.7379 262.691 60.6738 262.643 60.599C262.428 60.5135 261.758 60.599 261.619 60.1609C261.994 60.2838 261.828 60.1289 261.732 60.0006C261.844 60.0968 261.957 60.1075 262.059 59.9846C261.946 59.9526 261.86 59.9098 261.791 59.8671C261.817 59.8724 261.828 59.8671 261.866 59.8778C261.614 59.6534 261.523 59.648 261.549 59.7496C261.496 59.7335 261.437 59.7282 261.367 59.7496C261.496 59.6587 261.383 59.5038 261.303 59.3649C261.228 59.226 261.217 59.1085 261.555 59.242C261.373 58.8734 261.255 58.3926 261.281 57.9331C261.314 57.4844 261.517 57.057 261.898 56.9662C262.182 57.3241 262.15 57.5859 262.059 57.7568C262.187 57.682 262.326 57.6607 262.471 57.6607C262.702 58.1415 262.359 57.8797 262.284 58.0079C262.712 58.3231 262.809 58.2804 262.954 58.227C263.082 58.1735 263.275 58.1148 263.522 58.3178C263.602 58.3872 263.688 58.4834 263.757 58.6116C263.795 58.5422 263.843 58.4834 263.891 58.4246L263.918 58.4941C263.929 58.3552 264.106 58.275 264.224 58.3124C264.234 58.633 264.052 58.9055 264.288 59.0604C264.304 59.1459 264.342 59.2046 264.401 59.2474C264.529 59.3435 264.706 59.445 264.883 59.5359C265.242 59.7175 265.649 59.8778 265.96 60.0487C265.692 59.7816 265.874 59.7496 266.057 59.7816C266.325 59.9846 266.319 60.2998 266.587 60.38L266.4 60.6631C266.496 60.3319 267.3 60.9516 267.482 60.9302C267.471 61.2454 266.941 60.7593 266.759 60.8554C267.814 61.6942 267.289 61.2668 268.334 62.1162C269.047 62.3941 268.442 61.7904 268.897 61.7904C269.422 62.159 270.049 62.3941 270.457 63.0351L270.483 62.6612C271.534 63.2916 272.038 63.8205 272.407 64.5951C274.428 65.717 275.623 66.3474 276.352 66.6039C277.081 66.8443 277.306 66.5932 277.333 66.1818C277.322 65.7331 277.033 65.0653 276.738 64.5577C276.443 64.0449 276.159 63.6549 276.159 63.6549C275.082 62.0468 274.01 61.1279 272.804 60.2571C271.566 59.3863 270.215 58.5742 268.463 57.3081Z" fill="#202020"/>
<path d="M273.04 40.5652L272.536 40.4315C272.541 40.4956 272.67 40.5438 273.04 40.5652Z" fill="#202020"/>
<path d="M301.6 75.8037C301.611 75.7663 301.621 75.7235 301.627 75.6914C301.6 75.7663 301.595 75.793 301.6 75.8037Z" fill="#202020"/>
<path d="M253.403 36.0934C253.414 36.0934 253.424 36.0934 253.43 36.0934C253.473 36.0827 253.521 36.0721 253.564 36.0614L253.403 36.0934Z" fill="#202020"/>
<path d="M279.251 36.8039C272.472 36.5528 270.676 35.9491 263.645 36.0827C260.29 35.9865 256.71 36.0666 253.43 36.0933C253.237 36.1468 253.023 36.1842 252.792 36.2162C252.68 36.2269 252.562 36.2376 252.438 36.2536C252.283 36.2643 252.117 36.275 251.951 36.291C251.249 36.3284 250.488 36.4566 249.737 36.6757C248.237 37.1031 246.827 38.0754 246.114 39.1706C245.841 39.3736 245.541 39.5713 245.289 39.817C244.866 40.6504 244.523 41.6441 244.185 42.5096L244.126 42.4348C244.099 42.7821 244.062 43.1347 244.046 43.4766C244.04 43.8025 244.019 44.2085 244.024 44.3848C244.024 44.8282 244.013 45.2129 244.062 45.4479L243.992 45.4105L244.008 46.5591L243.906 46.3615C244.088 48.0123 244.078 49.7112 243.96 51.2071L244.271 51.0895C243.874 54.2843 244.507 55.465 244.051 58.3445L243.976 58.3018C244.169 59.2153 244.222 60.0327 244.212 60.8074C244.201 61.582 244.11 62.2819 244.056 63.0886C243.928 64.6432 243.89 66.278 244.63 68.196C244.453 67.7151 244.507 68.4364 244.426 68.4097C244.85 70.2314 245.471 72.1226 246.077 71.957C246.479 73.2232 246.232 73.0469 246.071 73.2873C246.195 73.2392 246.388 73.4743 246.597 73.8429C246.704 74.0245 246.811 74.2436 246.918 74.4733C247.036 74.6977 247.154 74.9381 247.261 75.1732L246.972 74.7778C247.39 75.6807 247.845 76.5622 248.338 77.4223C248.387 77.1766 248.451 76.9255 248.515 76.6744C249.116 78.1115 248.156 77.3155 248.998 78.5709L249.346 78.3412C249.614 78.806 249.823 79.2441 250 79.6715C250.193 80.0882 250.359 80.4942 250.52 80.9056C250.857 81.7123 251.19 82.5457 251.774 83.4539C253.194 85.1742 254.882 86.7395 256.737 88.0698C258.591 89.4054 260.606 90.5166 262.686 91.4141C266.85 93.2199 271.212 94.112 275.328 94.6035L275.687 94.9294C275.762 95.1698 276.347 94.9989 276.941 94.8119C277.536 94.6409 278.131 94.4166 278.303 94.6196L279.251 94.3471C279.525 94.4005 280.104 94.4219 279.637 94.5768C280.527 94.486 280.548 94.4326 281.159 94.1922L282.156 94.315C283.925 94.1014 285.506 93.5885 287.039 92.9581C288.571 92.3063 290.056 91.537 291.707 90.7036C292.757 90.3029 293.963 89.6511 295.196 88.8017C296.417 87.9415 297.672 86.8998 298.813 85.7244C299.949 84.5491 300.978 83.2669 301.847 82.0061C302.699 80.7346 303.406 79.5005 303.931 78.4267C305.309 75.3708 306.9 72.1333 307.844 68.5539C308.321 66.7749 308.637 64.9317 308.723 63.1046C308.798 61.4004 308.787 59.7229 308.615 58.0934C308.685 57.8851 308.546 57.3348 308.492 57.3402L308.642 51.3994C308.642 51.3994 308.68 49.599 308.669 47.2376C308.664 46.65 308.658 46.0249 308.653 45.3838L308.648 45.1434L308.631 44.8282C308.615 44.6145 308.615 44.4008 308.578 44.1871C308.54 43.9734 308.514 43.7597 308.465 43.546L308.294 42.9156C307.758 41.2488 306.584 39.8811 305.341 39.1439C304.092 38.3906 302.854 38.2143 302.093 38.2891C301.707 38.3158 301.434 38.4173 301.284 38.5135C301.139 38.615 301.123 38.7325 301.209 38.8661C301.396 39.1546 302.163 39.4056 303.17 40.2017C303.663 40.6023 304.199 41.1526 304.591 41.9112C304.992 42.6538 305.218 43.6101 305.084 44.6092L304.971 44.5183C304.971 44.9885 304.88 45.8593 304.842 46.5164C304.8 47.2002 304.778 47.8306 304.778 48.429C304.778 49.6257 304.875 50.7049 305.11 51.8268C304.489 52.174 305.009 54.498 304.8 55.2566L304.751 55.1818C305.196 57.1745 304.296 59.2634 304.692 61.1814C304.644 61.1066 304.478 61.0638 304.473 60.6204C304.499 61.3203 304.542 62.143 304.532 62.8054C304.521 63.4626 304.435 63.906 304.258 63.9487C304.237 65.4927 303.98 67.3358 303.62 69.008C303.277 70.6909 302.838 72.2081 302.715 73.2445L302.677 73.0789C302.597 74.2917 302.152 74.468 301.745 75.7021C301.67 75.7448 301.605 75.8142 301.595 75.7875C301.477 76.434 301.027 77.246 300.533 77.9886C300.04 78.7365 299.499 79.4044 299.258 79.8638L299.027 79.773C298.529 80.4408 298.015 81.0979 297.463 81.7283L298.127 81.0605C298.272 81.3917 297.87 81.6856 297.334 82.0916C296.771 82.4816 296.08 82.9677 295.544 83.7317C294.885 84.2713 294.445 85.0833 293.915 85.8633C293.663 86.264 293.373 86.638 293.046 86.9692C292.725 87.3111 292.35 87.5783 291.921 87.7492C291.342 88.4704 292.307 86.9211 291.331 87.808C291.122 87.5355 291.728 87.3058 291.31 87.247C290.822 87.6531 290.313 87.808 289.804 88.011C289.273 88.182 288.737 88.401 288.078 88.807L287.912 88.588C287.505 88.8978 287.076 89.1329 286.637 89.2878C286.197 89.4535 285.763 89.5763 285.34 89.6565C284.498 89.8541 283.737 89.945 283.153 90.3456C282.172 90.6662 281.792 90.5647 281.417 90.4525C281.229 90.4044 281.041 90.3617 280.779 90.3884C280.516 90.4204 280.173 90.5059 279.659 90.6875C279.369 90.5967 279.091 90.5166 278.807 90.4204C277.912 90.4097 278.19 90.9119 277.177 90.773C277.231 90.5433 275.912 90.6074 276.497 90.383C275.377 90.2174 274.246 90.2655 273.013 90.2281C271.786 90.164 270.451 89.993 269.106 89.3252C268.742 89.4534 268.216 89.3359 267.713 89.2184C267.214 89.0848 266.748 88.9299 266.459 89.0047C266.448 88.9139 265.756 88.6147 265.279 88.3796C264.802 88.1392 264.556 87.9522 265.403 88.0965C265.547 88.1178 265.778 88.2194 265.735 88.2835L266.019 88.1178C265.338 87.5836 264.642 87.3218 263.907 87.0974C263.548 86.9746 263.179 86.8624 262.809 86.7288C262.45 86.5792 262.091 86.4029 261.742 86.1785C262.123 86.5044 262.702 86.8196 262.23 86.7502C261.791 86.4777 261.346 86.2053 260.928 85.9007L261.319 85.8954C261.013 85.6657 260.697 85.4413 260.397 85.2062L259.507 84.4797L259.599 84.8857C258.779 84.0843 258.779 83.4966 257.583 82.941C257.005 82.7167 258.141 83.924 257.187 83.1921C256.185 82.0221 254.845 80.1843 253.816 78.5816C253.671 78.9075 253.382 78.4748 253.028 78.0741L253.215 77.8764C252.503 77.1285 252.54 76.8827 252.572 76.6477C252.605 76.4126 252.669 76.1722 252.047 75.3762L252.299 75.4403C252.053 75.3762 251.795 75.3121 251.554 75.2373C250.911 74.5374 250.916 74.2543 250.916 73.9604C250.922 73.6559 250.852 73.3781 250.155 72.5607C250.482 73.2926 249.748 73.1377 249.491 72.1493L249.823 72.2989C249.566 71.8074 249.421 71.6578 249.351 71.2946C249.587 71.5617 249.759 71.3426 249.469 70.5894L249.946 71.0007C249.63 70.5733 249.346 70.1352 249.062 69.6811C249.024 69.0828 248.869 68.3402 248.719 67.6831C248.606 67.0206 248.499 66.4436 248.665 66.1765C248.665 66.1765 248.655 66.0216 248.644 65.7758C248.633 65.5301 248.585 65.2042 248.569 64.8516C248.515 64.1571 248.419 63.3878 248.231 63.0993C248.483 63.5961 248.564 62.2178 248.858 62.6131C248.708 62.3193 248.601 61.5874 248.553 60.8822C248.51 60.1663 248.537 59.4397 248.692 59.023L248.724 59.1833C249.073 56.1061 248.387 53.905 248.794 51.1429C248.483 51.2658 248.671 49.8073 248.269 50.1599C248.092 48.7282 248.312 47.4246 248.43 46.3508C248.489 45.8112 248.515 45.3304 248.456 44.919C248.424 44.7107 248.376 44.5237 248.29 44.3527C248.247 44.2619 248.199 44.1925 248.146 44.1444C248.092 44.0909 248.028 44.0375 247.953 43.9841C247.947 43.5033 248.113 43.2468 248.253 43.0705C248.419 42.8996 248.553 42.7927 248.692 42.6164C248.681 42.6859 248.665 42.7553 248.66 42.8248C248.96 42.0929 249.335 41.6815 249.7 41.377C250.08 41.0778 250.471 40.8588 251.077 40.6932C251.222 40.6291 251.329 40.5489 251.436 40.4528C251.543 40.3673 251.645 40.2818 251.768 40.191C251.892 40.1002 252.047 40.0467 252.245 39.9987C252.471 39.9613 252.808 39.9613 253.205 39.9987C252.674 40.2177 253.339 40.1856 253.95 40.191C253.558 40.223 253.441 40.3032 254.234 40.4634C254.346 40.394 254.523 40.3566 254.684 40.3192C254.689 40.3352 254.721 40.3513 254.705 40.3726C255.724 40.3085 255.547 40.2337 255.075 40.1963C255.102 40.1643 255.059 40.1162 254.914 40.0521C255.965 40.3566 257.851 40.0734 257.975 40.4634C261.029 40.4154 263.216 40.0521 265.762 39.9345C266.046 40.1376 265.446 40.3032 264.711 40.3726L266.517 40.3245C266.496 40.613 265.478 40.4741 264.926 40.5222C267.064 41.0191 269.358 40.1269 271.866 40.5863L272.391 40.3673L272.541 40.4047C272.536 40.2871 273.104 40.1322 273.474 40.0948C273.828 40.3513 273.442 40.6718 274.685 40.6718C275.666 40.9282 277.488 40.5917 278.78 40.4741C278.083 40.4207 278.313 40.2871 278.614 40.2017C279.235 40.2017 279.594 40.4581 280.077 40.3566L280.13 40.6932C279.889 40.3726 281.765 40.3726 281.995 40.2391C282.344 40.4955 281.025 40.4421 280.87 40.6237C283.367 40.6291 282.119 40.6237 284.616 40.6291C285.951 40.394 284.38 40.3085 285.018 40.02C286.197 39.9719 287.349 39.7529 288.695 39.9773L288.271 39.6728C290.485 39.4751 291.808 39.5285 293.293 39.8491C309.8 37.6533 296.809 36.5742 296.809 36.5742C290.335 35.8636 286.974 36.6864 279.251 36.8039Z" fill="#202020"/>
</g>
<defs>
<clipPath id="clip0">
<rect width="328" height="193.333" fill="white" transform="translate(0 58.6667)"/>
</clipPath>
<clipPath id="clip1">
<rect width="124" height="116" fill="white" transform="translate(216)"/>
</clipPath>
</defs>
</svg>
