<svg viewBox="0 0 286 172" fill="none" xmlns="http://www.w3.org/2000/svg">
<path d="M132.861 118.007C114.353 109.102 100.569 111.193 100.569 111.193C100.569 111.193 115.514 100.738 119.696 92.9945C119.696 92.9945 140.218 68.4462 143.857 44.5948C140.14 39.6386 132.783 39.174 128.679 43.8204C128.602 43.8978 117.838 57.3723 117.76 57.4497C111.952 64.0321 105.06 71.4663 105.06 71.4663C103.976 62.948 96.5417 56.9077 87.4813 57.4497C78.4209 58.0693 76.7947 70.2273 76.7947 70.2273V70.3821C74.0068 65.1163 69.4379 61.2443 64.7141 61.4766C57.5896 61.7864 54.4921 67.8266 54.4921 67.8266L54.4146 68.601C52.0914 57.5272 41.7145 62.1736 37.4554 67.362C35.8291 69.3754 34.5901 71.234 33.7383 72.8602C31.9572 76.0352 31.2602 75.106 29.9437 82.695C29.634 84.7085 30.7956 89.6646 30.7956 89.6646C30.7956 89.6646 11.2808 101.435 4.00147 112.819C-8.69861 132.721 11.2808 163.929 29.7114 168.343C58.364 175.235 72.6904 168.498 90.9661 150.067C98.4003 142.556 98.4003 134.58 131.544 139.613C138.979 140.775 146.645 150.764 153.305 141.859C163.372 128.307 142.618 122.731 132.861 118.007Z" fill="#FBB54B"/>
<path d="M31.0279 95.0858L7.71859 92.0657L5.16309 86.2577L12.365 78.8235L33.2736 75.6485L30.4858 85.7156L31.0279 95.0858Z" fill="black"/>
<path d="M28.7048 96.6344C24.2133 96.6344 14.6108 96.3246 8.72536 93.6917C5.24058 92.1429 3.38203 89.3551 3.61435 86.18C3.92411 82.2306 7.33145 78.591 11.9778 77.3519C19.1797 75.4159 31.8023 74.6416 32.3444 74.5641C33.1963 74.4867 33.9707 75.1836 33.9707 76.0355C34.0481 76.8873 33.3511 77.6617 32.4993 77.6617C32.3444 77.6617 19.7218 78.5135 12.7522 80.2946C9.03512 81.3014 6.86681 84.0892 6.71193 86.4124C6.55705 88.3484 7.71865 89.8971 9.96439 90.9039C17.0114 94.0014 30.7956 93.5368 30.9505 93.5368C31.8023 93.5368 32.4993 94.1563 32.5767 95.0082C32.5767 95.86 31.9572 96.5569 31.1054 96.6344C30.9505 96.6344 30.0987 96.6344 28.7048 96.6344Z" fill="black"/>
<path d="M54.4144 68.5238C52.0912 57.4499 41.7143 62.0963 37.4552 67.2848C35.8289 69.2982 34.5899 71.1567 33.7381 72.783C31.957 75.958 31.26 75.0287 29.9435 82.6178C29.6338 84.6312 31.4149 89.5874 31.4149 89.5874" fill="#FBB54B"/>
<path d="M231.674 166.175C187.92 168.886 167.863 139.691 162.443 122.267C160.197 123.971 157.719 124.9 155.086 124.9C143.857 124.9 134.797 107.554 134.797 86.1802C134.797 64.8069 143.935 47.4605 155.086 47.4605C156.712 47.4605 158.261 47.8477 159.732 48.4672C177.853 22.8347 217.735 23.764 217.735 23.764C239.96 25.3127 283.79 40.8006 285.881 87.6516C288.05 134.425 260.094 164.472 231.674 166.175Z" fill="#FBB54B"/>
<path d="M211.462 76.4232C211.462 76.4232 203.718 62.3292 179.866 66.7433C156.015 71.1573 158.88 117.389 195.664 111.813" fill="white"/>
<path d="M189.779 113.826C183.274 113.826 177.543 112.122 172.974 108.715C167.863 104.921 164.456 99.1126 163.294 92.3754C162.288 86.4126 163.217 80.2174 165.927 75.3387C168.87 69.9179 173.749 66.3557 179.557 65.2716C204.26 60.7026 212.469 75.1064 212.856 75.7259C213.243 76.5003 213.011 77.4296 212.236 77.8168C211.462 78.204 210.533 77.9716 210.145 77.1972C209.836 76.6552 202.556 64.11 180.176 68.2917C171.813 69.8405 164.146 78.5912 166.392 91.8333C168.096 102.133 176.769 113.129 195.509 110.264C196.361 110.109 197.136 110.729 197.29 111.58C197.445 112.432 196.826 113.207 195.974 113.362C193.806 113.671 191.792 113.826 189.779 113.826Z" fill="black"/>
<path d="M119.773 93.692L98.4776 95.0859L103.589 82.6956L105.137 74.9517H121.555L119.154 85.1737L119.773 93.692Z" fill="black"/>
<path d="M239.341 102.752C238.876 102.752 238.411 102.752 237.947 102.675C234.849 102.288 232.448 100.894 230.745 98.4158C226.098 91.6785 228.809 79.5979 228.886 79.0559C229.041 78.204 229.893 77.7394 230.745 77.8943C231.597 78.0491 232.061 78.901 231.906 79.7528C231.906 79.8303 229.351 91.059 233.3 96.6346C234.462 98.3383 236.166 99.2676 238.334 99.5774C240.347 99.8097 242.051 99.345 243.677 98.0286C249.563 93.1499 250.569 79.4431 250.569 79.2882C250.647 78.4363 251.344 77.7394 252.196 77.8168C253.047 77.8943 253.667 78.5912 253.667 79.4431C253.589 80.0626 252.583 94.6212 245.691 100.352C243.755 101.978 241.664 102.752 239.341 102.752Z" fill="black"/>
<path d="M188.618 97.1764C193.921 97.1764 198.22 92.8773 198.22 87.5739C198.22 82.2706 193.921 77.9714 188.618 77.9714C183.314 77.9714 179.015 82.2706 179.015 87.5739C179.015 92.8773 183.314 97.1764 188.618 97.1764Z" fill="black"/>
<path d="M121.555 76.5003H105.137C104.286 76.5003 103.589 75.8034 103.589 74.9515C103.589 74.0997 104.286 73.4027 105.137 73.4027H121.555C122.406 73.4027 123.103 74.0997 123.103 74.9515C123.103 75.8034 122.406 76.5003 121.555 76.5003Z" fill="black"/>
<path d="M98.4778 96.6344C97.7034 96.6344 97.0064 96.0149 96.929 95.1631C96.8515 94.3113 97.5485 93.5369 98.4003 93.5369L119.696 92.1429C120.548 92.0655 121.322 92.7625 121.322 93.6143C121.4 94.4661 120.703 95.2405 119.851 95.2405L98.5552 96.6344H98.4778Z" fill="black"/>
<path d="M100.646 113.362C100.181 113.362 99.6391 113.129 99.4068 112.665C98.9422 111.968 99.0971 110.961 99.794 110.496C99.9489 110.419 114.43 100.197 118.457 92.84C118.844 92.0656 119.773 91.8333 120.548 92.2205C121.322 92.6077 121.555 93.537 121.167 94.3114C116.831 102.288 102.195 112.587 101.575 113.052C101.265 113.284 100.956 113.362 100.646 113.362Z" fill="black"/>
<path d="M97.7806 59.8507C100.336 60.8574 102.659 62.7159 104.286 65.0391C105.912 67.4397 106.918 70.2276 107.073 73.1703C107.228 76.113 106.686 78.8234 105.989 81.5337C105.292 84.1667 104.208 86.7222 102.969 89.2003C101.73 91.6783 100.104 93.9241 98.1678 96.0149C96.2318 98.0284 93.8312 99.8869 90.8885 100.739C89.4172 101.203 87.8684 101.358 86.4745 101.358C85.0805 101.358 83.6092 101.203 82.1378 100.894L81.0537 100.584L79.9695 100.042C79.5823 99.8095 79.2726 99.5772 78.8854 99.3448C78.5756 99.0351 78.1884 98.8028 77.9561 98.4156C77.3366 97.7186 76.9494 96.8668 76.7171 96.0149C76.6396 95.5503 76.5622 95.1631 76.5622 94.6985C76.5622 94.4661 76.5622 94.2338 76.5622 94.0789C76.5622 93.8466 76.5622 93.6917 76.6396 93.382C76.7945 92.5302 77.6463 91.9881 78.4982 92.143C79.35 92.2978 79.8921 93.1497 79.7372 94.0015C79.7372 94.0015 79.7372 94.1564 79.7372 94.2338C79.7372 94.3113 79.7372 94.4661 79.7372 94.5436C79.7372 94.7759 79.8147 95.0082 79.8921 95.1631C80.047 95.5503 80.2019 95.9375 80.5116 96.1698C81.0537 96.7893 81.983 97.1765 83.0671 97.4088C84.1513 97.6412 85.3129 97.7186 86.4745 97.6412C87.7135 97.5637 88.7202 97.4863 89.8044 97.0991C91.8952 96.4021 93.7538 95.0082 95.38 93.2271C97.0062 91.446 98.4001 89.4326 99.5617 87.2643C100.723 85.096 101.653 82.7728 102.35 80.4496C103.047 78.1264 103.511 75.6483 103.434 73.3251C103.356 71.0794 102.737 68.7562 101.653 66.6653C100.568 64.5745 99.0971 62.6385 97.1611 61.0123C96.8514 60.7799 96.8514 60.3153 97.0837 60.0055C97.2386 59.8507 97.5483 59.7732 97.7806 59.8507Z" fill="black"/>
<path d="M73.0777 65.0387C75.4009 66.7424 77.2594 69.143 78.5759 71.6985C79.8923 74.254 80.8216 77.1967 81.1314 80.1394C81.4411 83.0047 81.3637 85.9474 80.9765 88.8901C80.5893 91.7554 79.8149 94.6206 78.4984 97.331C77.8015 98.7249 77.0271 100.041 75.9429 101.203C75.7106 101.513 75.4008 101.823 75.0911 102.055C74.7813 102.365 74.4716 102.597 74.1618 102.829C73.5423 103.294 73.0002 103.681 72.3807 104.146C71.1417 104.998 69.7478 105.694 68.199 106.159C66.6502 106.624 64.9465 106.701 63.3977 106.546C63.0105 106.469 62.6233 106.469 62.2361 106.391L61.0745 106.082C60.6873 106.004 60.3001 105.772 59.9129 105.694C59.5257 105.54 59.1385 105.385 58.8288 105.152C57.3574 104.378 56.1958 103.294 55.1891 102.132C54.1824 100.971 53.3306 99.6542 52.6336 98.3377C52.3239 97.6408 52.0141 96.9438 51.7043 96.2469C51.472 95.5499 51.2397 94.8529 51.0074 94.0785C50.7751 93.2267 51.3171 92.3749 52.169 92.22C52.9434 91.9877 53.7952 92.5298 54.0275 93.3041V93.3816C54.1824 93.9237 54.4147 94.5432 54.647 95.1627C54.8794 95.7822 55.1891 96.3243 55.4989 96.8664C56.1184 98.028 56.8154 99.0347 57.6672 99.964C58.519 100.893 59.4483 101.668 60.455 102.132C60.6873 102.287 60.9971 102.365 61.2294 102.519C61.5392 102.597 61.7715 102.752 62.0812 102.829L62.9331 103.062C63.2428 103.139 63.5526 103.139 63.8624 103.216C65.1014 103.371 66.1855 103.294 67.2697 102.984C68.3538 102.674 69.5154 102.055 70.5222 101.358C71.0642 101.048 71.6063 100.661 72.1484 100.196C72.4581 99.9639 72.613 99.8091 72.8453 99.6542C73.0777 99.4993 73.2325 99.267 73.4649 99.0347C74.2393 98.1828 74.9362 97.0987 75.4783 95.9371C76.5624 93.6139 77.3368 91.0584 77.724 88.5029C78.1887 85.87 78.2661 83.237 78.0338 80.6041C77.6466 75.4156 75.6332 70.3046 72.2258 66.1229C72.0709 65.6582 72.0709 65.271 72.3807 65.0387C72.613 64.8064 72.9228 64.8838 73.0777 65.0387Z" fill="black"/>
<path d="M51.4716 62.406C52.246 62.5609 53.0978 62.8707 53.8722 63.4902C54.6466 64.1097 55.1887 64.9615 55.4984 65.8134C56.1179 67.517 56.2728 69.2207 56.3502 70.8469C56.5051 74.0994 56.1954 77.3519 55.8856 80.5269C55.5758 83.7019 55.1887 86.7995 54.724 89.9745C54.2594 93.1495 53.7173 96.3245 52.7106 99.4996C52.1685 101.048 51.6264 102.752 50.31 104.301C49.6904 105.075 48.6063 105.772 47.8319 106.159L47.2898 106.392C47.0575 106.469 46.8252 106.547 46.5929 106.624C46.1282 106.779 45.6636 106.934 45.1989 107.011C44.2697 107.244 43.3404 107.244 42.4111 107.244C41.4819 107.244 40.5526 107.089 39.6233 106.779C37.8422 106.237 36.216 105.308 34.8995 104.146C34.2025 103.604 33.583 102.984 33.0409 102.287C32.4214 101.59 31.9568 100.893 31.4921 100.197C30.5629 98.7252 29.8659 97.1764 29.3238 95.5502C28.7818 93.9239 28.3171 92.2977 28.3171 90.594C28.2397 88.8903 28.472 87.1867 29.3238 85.6379C29.4787 85.4056 29.711 85.3281 29.9434 85.4056C30.0982 85.483 30.1757 85.5604 30.1757 85.7153L31.2598 90.2068C31.647 91.6007 31.9568 93.0721 32.4989 94.3886C32.9635 95.7825 33.6605 97.0989 34.4349 98.2605C34.8221 98.8801 35.2092 99.4221 35.6739 99.8868C36.1385 100.429 36.6806 100.893 37.2227 101.358C39.3135 103.139 42.0239 103.914 44.502 103.372C44.8118 103.294 45.1215 103.217 45.4313 103.139C45.5861 103.062 45.741 103.062 45.8959 102.984L46.438 102.752C47.0575 102.442 47.3673 102.287 47.7545 101.823C48.4514 100.971 49.0709 99.577 49.5356 98.1831C50.4648 95.3953 51.0844 92.2977 51.6264 89.2775C52.1685 86.18 52.6331 83.0824 53.0203 79.9848C53.4075 76.8872 53.7947 73.7896 53.7947 70.7695C53.7947 69.2981 53.6399 67.7494 53.2527 66.5103C53.0978 65.8908 52.8655 65.3487 52.4783 64.8066C52.1685 64.2646 51.6264 63.7999 51.0844 63.103C50.9295 62.8707 50.9295 62.5609 51.1618 62.3286C51.1618 62.406 51.3167 62.3286 51.4716 62.406Z" fill="black"/>
<path d="M98.2455 94.1564C94.993 94.1564 85.7003 93.7692 84.2289 89.5875C83.532 87.5741 84.1515 86.1027 84.6936 85.2509C86.707 82.3856 91.8954 81.9984 93.9863 81.921C94.0637 81.921 94.1412 81.921 94.2186 81.921C98.4778 81.921 102.969 84.2442 103.124 84.3216C103.899 84.7088 104.208 85.6381 103.744 86.4125C103.279 87.1869 102.427 87.4966 101.653 87.032C101.575 87.032 97.626 84.9411 94.1412 84.9411C94.0637 84.9411 94.0637 84.9411 93.9863 84.9411C90.6564 85.0186 87.946 85.793 87.1716 86.9546C86.9393 87.2643 86.7844 87.6515 87.0942 88.5034C87.5588 89.9747 93.2893 90.9814 98.168 90.9814C98.2455 90.9814 98.3229 90.9814 98.4004 90.9814C99.2522 90.9814 99.9491 91.6784 99.9491 92.5302C99.9491 93.382 99.2522 94.079 98.4004 94.079C98.4004 94.1564 98.3229 94.1564 98.2455 94.1564Z" fill="black"/>
<path d="M67.3468 96.6345C64.3266 96.6345 60.1449 94.5436 58.9833 92.3753C58.4412 91.2911 58.5187 90.1295 59.2156 89.2777C61.1516 87.032 62.7778 85.9478 68.3535 84.2441C74.4712 82.463 80.0469 85.4832 80.2792 85.5606C81.0536 85.9478 81.2859 86.8771 80.8987 87.6515C80.5115 88.4259 79.5822 88.6582 78.8078 88.271C78.7304 88.271 74.084 85.7929 69.2053 87.1868C64.0169 88.7356 62.9327 89.5875 61.6937 90.9814C62.3132 91.9107 65.4108 93.6918 67.5017 93.4594C74.3163 92.8399 77.7237 90.2844 77.8011 90.2844C78.4981 89.7423 79.4273 89.8972 79.9694 90.5942C80.5115 91.2911 80.3566 92.2204 79.6597 92.7625C79.5048 92.9174 75.6328 95.8601 67.8114 96.557C67.6565 96.6345 67.5017 96.6345 67.3468 96.6345Z" fill="black"/>
<path d="M43.1084 98.1057C39.7785 98.1057 37.223 96.9441 36.2937 95.0081C35.5967 93.6142 35.9065 91.9106 37.1455 90.4392C39.5461 87.5739 43.6504 85.8703 47.9096 86.0251C51.859 86.18 53.8725 87.8063 54.1048 88.0386C54.7243 88.5806 54.8792 89.5874 54.2597 90.2069C53.7176 90.8264 52.7109 90.9813 52.0914 90.4392C52.0139 90.3618 50.5426 89.2776 47.7547 89.2002C44.4248 89.0453 41.2498 90.3618 39.4687 92.4526C39.2364 92.7624 38.8492 93.3045 39.0041 93.6917C39.2364 94.2337 40.4754 95.0081 43.0309 95.0081C47.2901 95.0081 51.3944 93.6142 51.4718 93.6142C52.2462 93.3045 53.1755 93.7691 53.4078 94.6209C53.7176 95.3953 53.2529 96.3246 52.4011 96.5569C52.3237 96.6344 47.9096 98.1057 43.1084 98.1057Z" fill="black"/>
<path d="M229.815 145.654C228.576 145.654 227.104 145.267 225.478 144.492C221.529 142.556 217.502 136.671 213.553 126.914C210.687 119.789 208.984 113.362 208.906 113.052C208.674 112.2 209.216 111.348 209.99 111.193C210.842 110.961 211.694 111.503 211.849 112.277C213.707 119.402 220.057 138.529 226.717 141.704C228.653 142.634 230.047 142.789 230.589 142.324C231.751 141.24 231.828 136.361 228.034 126.294C221.142 107.941 221.451 99.8871 221.451 99.4999C221.529 98.6481 222.226 98.0286 223.078 98.0286C223.929 98.106 224.549 98.803 224.549 99.6548C224.549 99.7322 224.239 107.554 230.899 125.132C234.848 135.509 235.391 142.014 232.68 144.57C231.983 145.267 230.976 145.654 229.815 145.654Z" fill="black"/>
<path d="M218.897 152.158C201.55 152.158 196.904 142.014 196.749 141.549C196.439 140.775 196.749 139.846 197.523 139.536C198.298 139.226 199.227 139.536 199.537 140.31C199.692 140.697 203.641 149.061 218.897 149.061C219.749 149.061 220.445 149.758 220.445 150.61C220.445 151.462 219.749 152.158 218.897 152.158Z" fill="black"/>
<path d="M206.815 58.7665C201.859 51.7969 185.287 43.9755 168.793 43.9755C152.608 43.9755 138.746 49.164 130.15 58.7665C121.554 68.369 115.592 86.877 123.568 107.321C131.544 127.765 167.554 127.843 172.122 127.146C176.769 126.449 203.486 120.873 210.455 101.203C217.425 81.5337 211.694 65.736 206.815 58.7665ZM206.738 82.2307C205.731 101.048 197.832 118.24 166.392 119.247C135.029 120.253 129.066 103.217 126.743 87.574C124.42 71.9312 145.251 50.4804 168.715 49.164C185.597 48.2347 207.745 63.4129 206.738 82.2307Z" fill="black"/>
<path d="M167.941 130.476C156.17 130.476 127.982 127.533 120.625 108.483C111.875 85.9479 119.076 66.5106 127.827 56.7532C136.965 46.5312 151.524 40.9555 168.793 40.9555C182.887 40.9555 202.556 47.4604 209.371 57.0629C212.623 61.6319 215.101 68.1368 216.186 74.7966C217.657 83.7796 216.65 93.0723 213.398 102.288C205.267 125.365 172.897 130.243 172.587 130.321C171.658 130.398 170.032 130.476 167.941 130.476ZM158.416 47.8476C147.574 49.5513 138.514 54.0428 132.396 60.8575C121.012 73.5576 121.167 92.84 126.356 106.237C133.403 124.435 167.321 124.745 171.58 124.126C179.634 122.964 201.704 116.459 207.435 100.197C213.553 82.9277 209.526 68.0593 204.183 60.5477C201.24 56.366 194.967 52.9586 188.153 50.6354C192.412 52.8038 196.361 55.5916 199.768 58.9989C206.661 65.8136 210.145 74.1771 209.758 82.3857C208.364 108.405 194.193 121.493 166.469 122.344C133.17 123.351 126.123 104.533 123.645 88.0387C122.639 80.9917 125.426 73.0155 131.544 65.4264C138.514 57.0629 148.194 50.7903 158.416 47.8476ZM170.264 52.2617C169.799 52.2617 169.335 52.2617 168.948 52.2617C156.944 52.9586 144.477 59.4636 136.423 69.3758C131.467 75.4935 129.066 81.921 129.841 87.1095C132.009 101.668 136.81 117.079 166.315 116.149C190.94 115.375 202.479 104.843 203.64 82.0759L206.738 82.2308L203.64 82.0759C203.95 75.571 201.085 68.9886 195.509 63.413C188.695 56.5983 178.705 52.2617 170.264 52.2617Z" fill="black"/>
<path d="M60.1454 120.873C59.5258 120.873 58.9838 120.563 58.7514 119.944C58.3643 119.169 58.7514 118.24 59.5258 117.853C80.6668 108.018 113.888 107.708 133.635 117.156C134.41 117.543 134.72 118.472 134.332 119.247C133.945 120.021 133.016 120.331 132.242 119.944C113.269 110.806 81.2089 111.116 60.8423 120.641C60.61 120.796 60.3777 120.873 60.1454 120.873Z" fill="black"/>
<mask id="mask0" style="mask-type:alpha" maskUnits="userSpaceOnUse" x="0" y="40" width="156" height="132">
<path d="M132.861 118.104C114.353 109.198 100.569 111.289 100.569 111.289C100.569 111.289 115.514 100.835 119.696 93.0906C119.696 93.0906 140.218 68.5422 143.857 44.6908C140.14 39.7347 132.783 39.2701 128.679 43.9165C128.602 43.9939 117.838 57.4684 117.76 57.5458C111.952 64.1282 105.06 71.5624 105.06 71.5624C103.976 63.044 96.5417 57.0037 87.4813 57.5458C78.4209 58.1653 76.7947 70.3233 76.7947 70.3233V70.4782C74.0068 65.2123 69.4379 61.3404 64.7141 61.5727C57.5896 61.8824 54.4921 67.9227 54.4921 67.9227L54.4146 68.6971C52.0914 57.6233 41.7145 62.2696 37.4554 67.4581C35.8291 69.4715 34.5901 71.3301 33.7383 72.9563C31.9572 76.1313 31.2602 75.202 29.9437 82.7911C29.634 84.8045 30.7956 89.7607 30.7956 89.7607C30.7956 89.7607 11.2808 101.531 4.00147 112.915C-8.69861 132.817 11.2808 164.025 29.7114 168.439C58.364 175.331 72.6904 168.594 90.9661 150.164C98.4003 142.652 98.4003 134.676 131.544 139.709C138.979 140.871 146.645 150.86 153.305 141.955C163.372 128.403 142.618 122.827 132.861 118.104Z" fill="#FBB54B"/>
</mask>
<g mask="url(#mask0)">
<path d="M143.238 146.506C142.928 146.506 142.619 146.429 142.386 146.274C141.689 145.809 141.457 144.88 141.922 144.105C141.999 144.028 146.645 136.594 143.47 133.651C142.309 132.644 141.302 132.18 140.218 132.489C137.585 133.109 135.107 137.136 134.023 139.691C133.713 140.466 132.784 140.853 132.009 140.543C131.235 140.233 130.848 139.304 131.157 138.53C131.467 137.755 134.487 130.553 139.521 129.469C140.992 129.159 143.238 129.237 145.561 131.405C150.672 136.129 144.709 145.422 144.477 145.809C144.245 146.274 143.78 146.506 143.238 146.506Z" fill="black"/>
</g>
<path d="M177.234 25.3902C177.234 25.3902 258.468 46.2214 267.064 4.86868C267.374 3.24245 269.078 2.46805 269.929 3.86197C279.3 18.2657 281.313 39.4842 272.562 54.8946C261.643 74.0996 177.234 25.3902 177.234 25.3902Z" fill="black"/>
<path d="M262.108 62.4062C235.469 62.4062 178.318 29.5718 175.685 28.1004C174.369 27.326 173.749 25.6998 174.369 24.2285C174.988 22.7571 176.537 21.9827 178.009 22.3699C178.551 22.5248 228.809 35.1474 252.66 20.279C258.855 16.4071 262.573 11.1412 264.044 4.17161C264.509 2.0033 266.057 0.377067 267.993 0.0673087C269.774 -0.24245 271.478 0.531946 272.562 2.08074C283.094 18.2656 284.256 40.5682 275.273 56.2884C273.801 58.9214 271.246 60.7799 267.838 61.6318C266.212 62.1738 264.276 62.4062 262.108 62.4062ZM195.975 32.0499C219.361 44.1304 253.28 59.3086 266.367 55.7463C268.148 55.2817 269.31 54.4299 270.007 53.2683C277.131 40.7231 276.744 22.5248 269.387 8.6631C267.141 15.7101 262.65 21.3632 256.068 25.5449C244.994 32.437 228.189 34.9925 206.197 33.134C202.479 32.8242 199.072 32.437 195.975 32.0499Z" fill="black"/>
<path d="M148.581 27.7133C148.581 27.7133 162.752 -3.64971 198.22 4.24912C207.745 6.33999 222.768 11.7608 233.3 15.7102C244.141 19.8919 252.892 -5.12106 258.7 1.0741C268.147 11.1412 261.178 52.6488 261.1 59.541C260.946 66.7429 232.293 56.8306 213.862 50.0159C188.694 40.7232 168.87 43.9756 168.87 43.9756L144.012 44.6726L148.581 27.7133Z" fill="black"/>
<path d="M206.816 56.0252C204.26 53.5471 201.318 51.766 198.143 50.2947C195.045 48.8233 191.792 47.5843 188.54 46.5776C181.958 44.5642 175.143 43.5574 168.406 43.5574C161.591 43.5574 154.776 44.4093 148.271 46.3453C141.766 48.3587 135.571 51.4563 130.073 56.0252C134.1 50.1398 140.295 45.6483 147.032 42.9379C153.77 40.1501 161.126 38.9111 168.406 38.9111C175.762 38.9111 183.042 40.3824 189.779 43.1702C193.109 44.5642 196.361 46.2678 199.304 48.3587C200.078 48.9008 200.775 49.4429 201.472 49.9849C202.169 50.6044 202.866 51.1465 203.486 51.766C204.802 53.0825 205.964 54.4764 206.816 56.0252Z" fill="black"/>
</svg>
