<svg width="182" height="223" viewBox="0 0 182 223" fill="none" xmlns="http://www.w3.org/2000/svg">
<path d="M128.5 17L174 19L176 48L154.5 51.5L162 54.5L166 64L158 67L161 94H154.5V106H162L164 114.5L158 116.5L161 126.5L142 129.5L145.5 138.5H158L161 152.5H178.5L181 158L169 162.5L171 180L174 182L176 196L179.5 198.5V212.5L123.5 216.5H92.5L84.5 214.5L80.5 199.5L83 197.5L77.5 182L81.5 177.5L77.5 164L96.5 161L95 158L98 156L96.5 142.5L77.5 144L76 132.5H80.5V123.5L87.5 121.5L85.5 111L90.5 109.5L88 99H76V85.5L72.5 75L83.5 73.5L80.5 58.5L87.5 57.6385L80.5 56L105 30L87.5 57.6385L113 54.5L112 22L107 18L113 13L114.5 17H128.5L134 15.6724L130 13L169.5 3.5L170.5 6.86207L134 15.6724L128.5 17Z" fill="white"/>
<path d="M75.5049 58.5H82.0049L113.424 21.3253L112.049 19.8062L75.5049 58.5Z" fill="black"/>
<path d="M110.841 22.0151C110.841 22.0151 108.989 21.6436 107.136 21.3385C105.284 21.0267 102.569 21.3385 104.481 18.3135C106.393 15.2885 110.283 11.7129 112.076 10.5985C113.869 9.48402 113.928 11.0894 114.605 12.6947C115.283 14.3001 115.781 16.1177 115.781 16.1177L113.424 18.7381L111.83 16.1177L109.805 18.2472L112.049 19.8061L110.841 22.0151Z" fill="black"/>
<path d="M115.78 18.6848L171.304 4.12381C171.304 4.12381 172.413 0.793685 170.315 0.0507088C168.217 -0.692268 143.645 6.95641 138.951 8.12395C137.199 8.56177 131.004 9.98802 128.76 10.6116C124.989 11.6597 121.171 13.2186 119.551 13.9948C116.956 15.2287 114.532 16.1242 114.532 16.1242L110.841 21.0265L113.423 22.015L115.78 18.6848Z" fill="black"/>
<path d="M88.2808 56.2052L115.78 18.6849C115.78 18.6849 136.223 15.2884 145.484 13.8091C153.385 12.5487 167.095 8.44244 170.952 7.26828C171.517 7.0958 171.829 6.4855 171.63 5.92826L170.156 1.76892" stroke="black" stroke-width="3" stroke-miterlimit="10" stroke-linecap="round" stroke-linejoin="round"/>
<path d="M113.424 54.9049L112.507 36.0187C112.507 36.0187 121.769 36.0187 130.852 36.0187C139.927 36.0187 171.059 33.4249 173.283 33.4249C175.507 33.4249 175.321 31.5741 175.507 36.7551C175.693 41.936 176.616 44.344 176.251 46.7521C175.879 49.1601 173.655 48.9744 162.355 50.268C151.055 51.5615 121.915 53.9696 121.915 53.9696L113.424 54.9049Z" stroke="black" stroke-width="3" stroke-miterlimit="10" stroke-linecap="round" stroke-linejoin="round"/>
<path d="M175.407 34.3205C175.407 34.3205 174.392 26.0284 173.834 22.015C173.276 18.0016 173.648 18.6185 171.596 18.8042C169.545 18.99 157.156 18.8042 157.156 18.8042L115.774 18.6782L111.564 22.0083L112.501 37.9956" stroke="black" stroke-width="3" stroke-miterlimit="10" stroke-linecap="round" stroke-linejoin="round"/>
<path d="M4.59669 220.274C4.59669 220.274 9.82841 220.227 17.7955 219.67C25.7626 219.113 54.298 217.076 55.9645 216.705C57.6309 216.333 58.1886 217.136 57.2591 218.31C57.2591 218.31 53.3685 222.755 59.4833 219.916C65.598 217.076 63.3738 218.005 65.598 217.076C67.8221 216.148 67.2644 215.783 64.6685 214.483C62.0726 213.182 62.4444 213.375 63.1879 208.744C63.9315 204.114 76.7121 161.167 76.7121 158.945C76.7121 156.723 76.898 157.094 74.8597 156.723C72.8215 156.351 72.4497 160.424 69.6745 168.199C66.8926 175.974 57.6309 211.889 57.6309 211.889C57.6309 211.889 8.89892 215.776 5.38012 215.59C1.86133 215.405 2.00075 218.091 2.00075 219.199C2.00075 220.32 4.59669 220.274 4.59669 220.274Z" fill="#93DAD5" stroke="black" stroke-width="3" stroke-miterlimit="10" stroke-linecap="round" stroke-linejoin="round"/>
<path d="M3.71362 191.536C3.71362 191.536 16.8659 188.943 29.2813 192.644C41.6967 196.346 55.0814 205.713 56.1702 212.015L65.5979 156.709" stroke="black" stroke-width="3" stroke-miterlimit="10" stroke-linecap="round" stroke-linejoin="round"/>
<path d="M2.00073 198.754C2.00073 198.754 17.4237 198.754 32.0632 202.827C46.7027 206.9 56.1769 212.015 56.1769 212.015" stroke="black" stroke-width="3" stroke-miterlimit="10" stroke-linecap="round" stroke-linejoin="round"/>
<path d="M2.00073 204.121C2.9767 204.121 28.3585 206.157 36.8833 208.008C45.408 209.859 53.5544 212.22 53.5544 212.22" stroke="black" stroke-width="3" stroke-miterlimit="10" stroke-linecap="round" stroke-linejoin="round"/>
<path d="M2.00073 212.22C3.52776 212.267 48.555 212.22 48.555 212.22C40.2162 210.323 2.00073 208.174 2.00073 208.174" stroke="black" stroke-width="3" stroke-miterlimit="10" stroke-linecap="round" stroke-linejoin="round"/>
<path d="M80.855 201.036C82.5281 204.824 84.6394 208.267 84.6394 210.204C84.6394 212.141 84.5597 214.609 85.3033 215.352C86.0469 216.095 102.127 217.68 108.156 217.09C114.576 216.459 163.985 214.556 169.914 213.567C175.843 212.579 177.695 214.025 179.428 212.22C181.161 210.416 179.673 206.224 179.428 202.27C179.182 198.323 180.908 198.071 176.958 197.089C173.008 196.101 159.663 196.843 158.428 197.089C157.193 197.334 118.904 197.958 112.232 197.958C107.492 197.958 93.9542 197.666 87.7731 197.918C81.5919 198.17 79.474 197.912 80.855 201.036Z" fill="#93DAD5"/>
<path d="M80.855 201.036C82.5281 204.824 84.6394 208.267 84.6394 210.204C84.6394 212.141 84.5597 214.609 85.3033 215.352C86.0469 216.095 102.127 217.68 108.156 217.09C114.576 216.459 163.985 214.556 169.914 213.567C175.843 212.579 177.695 214.025 179.428 212.22C181.161 210.416 179.673 206.224 179.428 202.27C179.182 198.323 180.908 198.071 176.958 197.089C173.008 196.101 159.663 196.843 158.428 197.089C157.193 197.334 118.904 197.958 112.232 197.958C107.492 197.958 93.9542 197.666 87.7731 197.918C81.5919 198.17 79.474 197.912 80.855 201.036Z" stroke="black" stroke-width="3" stroke-miterlimit="10" stroke-linecap="round" stroke-linejoin="round"/>
<path d="M175.431 196.83C175.431 196.83 176.394 193.567 175.099 186.9C173.804 180.233 174.727 180.79 171.208 180.047C167.69 179.304 153.422 179.49 148.788 179.304C144.154 179.118 137.488 178.747 132.854 179.304C128.219 179.861 121.182 180.863 116.733 180.306C112.285 179.749 97.8382 179.841 92.6464 179.828C87.4545 179.815 83.2518 179.855 80.4435 179.855C77.6351 179.855 76.8981 180.783 78.5645 185.221C80.231 189.666 83.285 198.091 83.285 198.091" stroke="black" stroke-width="3" stroke-miterlimit="10" stroke-linecap="round" stroke-linejoin="round"/>
<path d="M109.138 161.545C115.253 161.731 145.083 161.101 150.454 161.512C155.825 161.917 168.984 163.051 173.426 161.373C177.874 159.695 179.647 159.509 180.244 158.401C180.835 157.293 180.284 154.699 179.169 153.22C178.06 151.741 175.278 151.741 170.272 152.291C165.273 152.849 154.71 153.956 148.967 153.956C143.224 153.956 137.083 153.028 129.036 153.585C120.989 154.142 115.804 154.693 108.945 155.064C102.087 155.436 95.0495 155.993 95.4213 158.209C95.7931 160.424 96.716 161.579 96.716 161.579" fill="#93DAD5"/>
<path d="M81.7778 179.934C81.7778 179.934 78.1063 165.798 77.688 165.055C77.2697 164.312 78.1992 163.761 82.0898 162.832C85.9804 161.904 103.023 161.353 109.138 161.539C115.253 161.725 145.083 161.094 150.454 161.506C155.825 161.91 168.984 163.045 173.426 161.366C177.874 159.688 179.647 159.502 180.244 158.394C180.835 157.287 180.284 154.693 179.169 153.213C178.06 151.734 175.278 151.734 170.272 152.285C165.273 152.842 154.71 153.95 148.967 153.95C143.224 153.95 137.083 153.021 129.036 153.578C120.989 154.136 115.804 154.686 108.946 155.058C102.087 155.429 95.0496 155.986 95.4214 158.202C95.7932 160.418 96.716 161.572 96.716 161.572" stroke="black" stroke-width="3" stroke-miterlimit="10" stroke-linecap="round" stroke-linejoin="round"/>
<path d="M169.17 162.123C169.17 162.123 170.544 165.353 170.73 169.426C170.916 173.499 171.208 180.053 171.208 180.053" stroke="black" stroke-width="3" stroke-miterlimit="10" stroke-linecap="round" stroke-linejoin="round"/>
<path d="M96.2446 143.402L96.9019 147.369C96.8953 148.908 97.048 150.441 97.3534 151.953L98.2098 156.225" stroke="black" stroke-width="3" stroke-miterlimit="10" stroke-linecap="round" stroke-linejoin="round"/>
<path d="M161.017 153.26C161.017 153.26 159.537 145.81 158.793 141.923C158.049 138.036 160.831 137.478 154.159 137.85C147.486 138.221 98.9469 142.845 91.1658 143.402C83.3846 143.96 87.4611 143.402 82.0899 143.402C76.7188 143.402 77.469 145.996 76.7188 139.886C75.9752 133.777 76.5262 136.921 75.9752 133.777C75.4175 130.632 74.176 132.669 80.45 132.483C86.7241 132.297 96.3576 132.45 101.171 132.006C105.991 131.561 116.733 129.889 121.554 129.525C126.374 129.153 139.526 129.153 146.749 128.596C153.973 128.039 152.678 128.41 157.498 127.302C162.318 126.194 161.389 128.41 159.165 122.307C156.941 116.197 158.607 117.604 156.755 115.753" stroke="black" stroke-width="3" stroke-miterlimit="10" stroke-linecap="round" stroke-linejoin="round"/>
<path d="M143.058 128.808L145.488 138.54" stroke="black" stroke-width="3" stroke-miterlimit="10" stroke-linecap="round" stroke-linejoin="round"/>
<path d="M80.8417 132.35C80.8417 132.35 81.0342 128.039 80.4499 125.63C79.8657 123.222 80.0516 123.222 85.7945 122.665C86.2194 122.625 86.8568 122.572 87.6801 122.506C97.9377 121.683 136.618 119.07 141.936 118.042C147.679 116.934 159.722 116.005 162.504 115.076C165.286 114.148 164.542 114.89 163.434 110.446C162.325 106.001 162.69 105.63 158.434 106.001C154.172 106.373 109.702 109.703 102.293 109.889C94.8836 110.074 92.2877 109.902 89.3266 110.088C86.3589 110.273 84.7721 110.685 85.8808 113.65C87.6469 118.36 87.6867 122.506 87.6867 122.506" stroke="black" stroke-width="3" stroke-miterlimit="10" stroke-linecap="round" stroke-linejoin="round"/>
<path d="M87.9126 98.5981L90.6413 110.088" stroke="black" stroke-width="3" stroke-miterlimit="10" stroke-linecap="round" stroke-linejoin="round"/>
<path d="M153.236 94.0474C155.088 96.4554 155.194 98.0408 155.194 101.192C155.194 104.336 155.327 106.253 155.327 106.253" stroke="black" stroke-width="3" stroke-miterlimit="10" stroke-linecap="round" stroke-linejoin="round"/>
<path d="M80.0049 59C85.376 57.7064 81.5049 58.5 88.0049 58C93.0049 57 90.6079 57.3098 99.5044 56.0162C108.401 54.7226 118.035 54.3511 126.924 54.3511C135.814 54.3511 159.689 53.6082 159.689 53.6082C163.58 53.6082 162.312 55.0875 164.423 60.0893C166.534 65.0845 166.023 64.3482 161.017 65.6417C156.011 66.9353 158.235 66.3847 159.351 73.045C160.459 79.7119 160.645 82.6705 161.017 89.1517C161.389 95.6328 161.017 93.9678 157.87 94.0407C154.723 94.1203 139.712 95.6328 129.042 95.9977C118.373 96.3692 106.542 97.8485 95.428 98.5915C84.3139 99.3344 81.7179 98.5915 81.7179 98.5915C81.7179 98.5915 80.5162 98.8767 77.595 98.9231C74.6737 98.9696 75.9285 98.9629 75.4903 94.8898C75.0521 90.8167 75.7493 90.4452 75.4903 88.2229C75.2314 86.0006 74.4812 87.8515 81.8042 87.1151C89.1273 86.3788 111.734 84.1499 119.515 83.5993C127.296 83.0487 147.679 81.5627 153.236 81.3769C158.793 81.1912 160.506 81.0054 160.506 81.0054" stroke="black" stroke-width="3" stroke-miterlimit="10" stroke-linecap="round" stroke-linejoin="round"/>
<path d="M80.2244 59.3398L83.3846 73.609" stroke="black" stroke-width="3" stroke-miterlimit="10" stroke-linecap="round" stroke-linejoin="round"/>
<path d="M76.7519 86.8366C76.7519 86.8366 74.4945 83.0488 73.3791 78.9757C72.2638 74.9025 71.8056 75.0883 77.5951 74.3453C83.3845 73.6024 99.6904 71.2739 108.029 70.5906C116.368 69.9073 137.189 66.7563 145.488 66.7563C153.787 66.7563 158.029 66.7563 158.029 66.7563" stroke="black" stroke-width="3" stroke-miterlimit="10" stroke-linecap="round" stroke-linejoin="round"/>
</svg>
