<svg width="436" height="220" viewBox="0 0 436 220" fill="none" xmlns="http://www.w3.org/2000/svg">
<path d="M63.6827 129.093V142.338H85.5645L85.079 147.202L122.16 153.279L145.077 144.09L175.881 150.314C175.881 150.314 179.684 166.928 205.829 165.115C231.974 163.302 237.681 152.364 237.681 152.364L278.097 135.039L301.857 138.229L344.769 120.904L357.532 125.625L367.936 122.73L367.988 116.575C367.988 116.575 382.565 112.973 408.233 120.222C433.905 127.471 436.401 140.508 434.974 156.465C433.548 172.421 405.022 214.365 364.138 209.35C323.253 204.335 296.154 225.764 139.749 218.47C-16.6427 211.18 -1.24287 156.457 1.89587 144.094C6.6487 125.356 19.4848 131.854 35.1742 128.664C50.8637 125.474 63.6827 129.093 63.6827 129.093Z" fill="#93DAD5"/>
<path d="M124.073 28.4802V9.87317C124.073 9.65263 124.286 9.48927 124.511 9.53828L133.033 11.4251C133.212 11.466 133.327 11.6252 133.306 11.8009L131.193 28.7579L138.34 29.2317L139.732 14.8802C139.749 14.7046 139.903 14.5699 140.086 14.5699H146.84C147.057 14.5699 147.224 14.7536 147.194 14.9578L145.107 29.9586" fill="white"/>
<path d="M124.073 28.4802V9.87317C124.073 9.65263 124.286 9.48927 124.511 9.53828L133.033 11.4251C133.212 11.466 133.327 11.6252 133.306 11.8009L131.193 28.7579L138.34 29.2317L139.732 14.8802C139.749 14.7046 139.903 14.5699 140.086 14.5699H146.84C147.057 14.5699 147.224 14.7536 147.194 14.9578L145.107 29.9586" stroke="black" stroke-width="3" stroke-miterlimit="10" stroke-linecap="round" stroke-linejoin="round"/>
<path d="M94.1247 29.9586H66.3147L63.3335 142.338H85.8541" fill="white"/>
<path d="M94.1247 29.9586H66.3147L63.3335 142.338H85.8541" stroke="black" stroke-width="3" stroke-miterlimit="10" stroke-linecap="round" stroke-linejoin="round"/>
<path d="M94.1247 29.9588L85.5688 147.353L123.123 153.279L149.272 142.338V29.9588L118.37 27.9086L94.1247 29.9588Z" fill="white" stroke="black" stroke-width="3" stroke-miterlimit="10" stroke-linecap="round" stroke-linejoin="round"/>
<path d="M63.4186 15.0146L66.3146 29.9585H75.2283V15.909C75.2283 15.7334 75.0878 15.5864 74.9046 15.57L63.8019 14.6143C63.5634 14.5898 63.376 14.79 63.4186 15.0146Z" fill="white" stroke="black" stroke-width="3" stroke-miterlimit="10" stroke-linecap="round" stroke-linejoin="round"/>
<path d="M78.8057 22.6687L80.2196 29.9586H94.1246L90.3002 22.4563C90.2406 22.3379 90.1171 22.2643 89.9808 22.2643H79.1591C78.9334 22.2643 78.7673 22.4604 78.8057 22.6687Z" fill="white" stroke="black" stroke-width="3" stroke-miterlimit="10" stroke-linecap="round" stroke-linejoin="round"/>
<path d="M88.9588 11.2167L97.3316 29.8362L118.37 27.9085L117.437 9.77094C117.429 9.58716 117.271 9.44421 117.08 9.44421H105.909C105.704 9.44421 105.543 9.60758 105.551 9.80362L106.245 22.2643C106.245 22.2643 102.323 22.0927 101.254 22.2643C100.287 22.4195 98.4431 11.8048 98.1024 9.77503C98.0726 9.59124 97.8895 9.46463 97.6978 9.49322L89.2313 10.743C89.0014 10.7756 88.8651 11.0125 88.9588 11.2167Z" fill="white" stroke="black" stroke-width="3" stroke-miterlimit="10" stroke-linecap="round" stroke-linejoin="round"/>
<path d="M334.015 41.754L333.086 35.2559C333.048 34.9741 332.771 34.7781 332.477 34.8189L326.562 35.697C326.281 35.7379 326.081 35.987 326.115 36.2607L327.013 43.69" fill="white"/>
<path d="M334.015 41.754L333.086 35.2559C333.048 34.9741 332.771 34.7781 332.477 34.8189L326.562 35.697C326.281 35.7379 326.081 35.987 326.115 36.2607L327.013 43.69" stroke="black" stroke-width="3" stroke-miterlimit="10" stroke-linecap="round" stroke-linejoin="round"/>
<path d="M342.166 40.2139L341.404 33.8306C341.366 33.5284 341.613 33.2629 341.932 33.2629H349.773C350.045 33.2629 350.271 33.459 350.301 33.7203L350.982 39.8218" fill="white"/>
<path d="M342.166 40.2139L341.404 33.8306C341.366 33.5284 341.613 33.2629 341.932 33.2629H349.773C350.045 33.2629 350.271 33.459 350.301 33.7203L350.982 39.8218" stroke="black" stroke-width="3" stroke-miterlimit="10" stroke-linecap="round" stroke-linejoin="round"/>
<path d="M354.525 40.263L355.066 33.8795C355.092 33.5609 355.42 33.3445 355.739 33.4302L360.172 34.631C360.415 34.6963 360.573 34.9128 360.56 35.1537L360.113 41.9211" fill="white"/>
<path d="M354.525 40.263L355.066 33.8795C355.092 33.5609 355.42 33.3445 355.739 33.4302L360.172 34.631C360.415 34.6963 360.573 34.9128 360.56 35.1537L360.113 41.9211" stroke="black" stroke-width="3" stroke-miterlimit="10" stroke-linecap="round" stroke-linejoin="round"/>
<path d="M177.201 150.318L145.077 144.094" stroke="black" stroke-width="3" stroke-miterlimit="10" stroke-linecap="round" stroke-linejoin="round"/>
<path d="M179.676 26.1114L173.696 10.5305C173.47 9.94237 173.815 9.293 174.442 9.12147L187.243 5.6132C187.81 5.45801 188.406 5.74798 188.606 6.283L192.171 15.7255L198.589 14.5697L196.988 4.43698C196.89 3.81619 197.362 3.2485 198.014 3.19949L214.853 2.00284C215.505 1.95791 216.059 2.45209 216.059 3.07696V14.0142L226.399 14.5697V5.63771C226.399 4.95566 227.055 4.44514 227.749 4.584L243.95 7.80638C244.644 7.94524 245.036 8.65996 244.754 9.28483L237.813 24.829" fill="white"/>
<path d="M179.676 26.1114L173.696 10.5305C173.47 9.94237 173.815 9.293 174.442 9.12147L187.243 5.6132C187.81 5.45801 188.406 5.74798 188.606 6.283L192.171 15.7255L198.589 14.5697L196.988 4.43698C196.89 3.81619 197.362 3.2485 198.014 3.19949L214.853 2.00284C215.505 1.95791 216.059 2.45209 216.059 3.07696V14.0142L226.399 14.5697V5.63771C226.399 4.95566 227.055 4.44514 227.749 4.584L243.95 7.80638C244.644 7.94524 245.036 8.65996 244.754 9.28483L237.813 24.829" stroke="black" stroke-width="3" stroke-miterlimit="10" stroke-linecap="round" stroke-linejoin="round"/>
<path d="M335.138 114.141C335.138 114.141 351.199 127.063 359.044 125.356C366.889 123.649 368.669 122.93 368.669 122.93L360.113 41.9252C360.113 41.9252 353.695 38.5067 342.285 40.2139C330.876 41.9252 324.1 44.7146 324.1 44.7146" fill="white"/>
<path d="M335.138 114.141C335.138 114.141 351.199 127.063 359.044 125.356C366.889 123.649 368.669 122.93 368.669 122.93L360.113 41.9252C360.113 41.9252 353.695 38.5067 342.285 40.2139C330.876 41.9252 324.1 44.7146 324.1 44.7146" stroke="black" stroke-width="3" stroke-miterlimit="10" stroke-linecap="round" stroke-linejoin="round"/>
<path d="M284.877 29.9588V15.1497C284.877 14.827 285.141 14.5575 285.477 14.533L293.433 14.0143L302.24 14.5411C302.517 14.5575 302.751 14.7413 302.824 14.9986L306.648 28.8601L302.347 139.369" fill="white"/>
<path d="M284.877 29.9588V15.1497C284.877 14.827 285.141 14.5575 285.477 14.533L293.433 14.0143L302.24 14.5411C302.517 14.5575 302.751 14.7413 302.824 14.9986L306.648 28.8601L302.347 139.369" stroke="black" stroke-width="3" stroke-miterlimit="10" stroke-linecap="round" stroke-linejoin="round"/>
<path d="M179.676 26.1117L177.201 153.279C177.201 153.279 180.408 166.385 206.796 165.017C233.179 163.649 237.817 153.279 237.817 153.279V24.8292C237.817 24.8292 233.537 19.0257 210.36 20.2223C187.184 21.419 179.676 26.1117 179.676 26.1117Z" fill="white" stroke="black" stroke-width="3" stroke-miterlimit="10" stroke-linecap="round" stroke-linejoin="round"/>
<path d="M331.945 125.356L344.781 120.226L338.363 60.0466L326.055 64.821" fill="white"/>
<path d="M331.945 125.356L344.781 120.226L338.363 60.0466L326.055 64.821" stroke="black" stroke-width="3" stroke-miterlimit="10" stroke-linecap="round" stroke-linejoin="round"/>
<path d="M27.091 160.573C27.091 160.573 28.5177 168.778 38.0234 168.325C47.529 167.872 49.9097 153.279 49.9097 153.279C49.9097 153.279 47.5333 170.445 56.5663 171.437C65.5992 172.43 69.2788 162.358 69.2788 162.358" stroke="black" stroke-width="3" stroke-miterlimit="10" stroke-linecap="round" stroke-linejoin="round"/>
<path d="M237.813 153.279L278.105 136.298L302.351 139.377L331.945 125.356L323.032 33.7203L303.42 27.9086L267.407 33.7203L269.192 80.2223L237.813 83.9838" fill="white"/>
<path d="M237.813 153.279L278.105 136.298L302.351 139.377L331.945 125.356L323.032 33.7203L303.42 27.9086L267.407 33.7203L269.192 80.2223L237.813 83.9838" stroke="black" stroke-width="3" stroke-miterlimit="10" stroke-linecap="round" stroke-linejoin="round"/>
<path d="M94.1247 185.809C94.1247 185.809 94.6017 193.561 107.911 190.367C121.219 187.173 120.747 173.042 120.747 173.042C120.747 173.042 119.797 188.088 129.303 188.542C138.812 188.999 137.858 178.057 137.858 178.057C137.858 178.057 137.62 191.454 147.249 191.139" stroke="black" stroke-width="3" stroke-miterlimit="10" stroke-linecap="round" stroke-linejoin="round"/>
<path d="M161.141 207.533C183.027 212.548 182.55 196.457 182.55 196.457C182.55 196.457 177.797 207.079 190.633 207.533" stroke="black" stroke-width="3" stroke-miterlimit="10" stroke-linecap="round" stroke-linejoin="round"/>
<path d="M245.3 199.328C262.416 200.239 264.792 185.196 264.315 181.549C263.838 177.902 263.366 194.316 275.248 193.859C287.134 193.402 287.134 185.196 287.134 185.196" stroke="black" stroke-width="3" stroke-miterlimit="10" stroke-linecap="round" stroke-linejoin="round"/>
<path d="M290.941 167.868C303.3 167.868 300.924 156.469 300.924 156.469C300.924 156.469 301.401 164.645 309.48 165.119C317.563 165.589 317.086 156.469 317.086 156.469C317.086 156.469 318.381 162.852 326.055 162.166" stroke="black" stroke-width="3" stroke-miterlimit="10" stroke-linecap="round" stroke-linejoin="round"/>
<path d="M363.678 185.192C374.137 184.735 374.137 171.437 374.137 171.437C374.137 171.437 375.564 182.766 384.597 181.018C393.63 179.266 391.726 171.437 391.726 171.437" stroke="black" stroke-width="3" stroke-miterlimit="10" stroke-linecap="round" stroke-linejoin="round"/>
<path d="M123.123 153.279L118.37 27.9086" stroke="black" stroke-width="3" stroke-miterlimit="10" stroke-linecap="round" stroke-linejoin="round"/>
<path d="M269.192 80.2222L278.105 136.297" stroke="black" stroke-width="3" stroke-miterlimit="10" stroke-linecap="round" stroke-linejoin="round"/>
<path d="M220.343 39.2175L221.531 60.0465H226.284L225.334 39.7362L220.343 39.2175Z" stroke="black" stroke-width="3" stroke-miterlimit="10" stroke-linecap="round" stroke-linejoin="round"/>
<path d="M184.024 74.6514L184.45 95.8359H188.73V76.6935L184.024 74.6514Z" stroke="black" stroke-width="3" stroke-miterlimit="10" stroke-linecap="round" stroke-linejoin="round"/>
<path d="M218.204 108.26L219.495 127.292H224.132V105.866L218.204 108.26Z" stroke="black" stroke-width="3" stroke-miterlimit="10" stroke-linecap="round" stroke-linejoin="round"/>
<path d="M149.138 144.641V58.6407L158.638 61.1407L161.138 79.6407H167.138V60.1407L179.138 64.1407L177.138 150.641L149.138 144.641Z" fill="white" stroke="black" stroke-width="3" stroke-linejoin="round"/>
</svg>
