<svg width="927" height="311" viewBox="0 0 927 311" fill="none" xmlns="http://www.w3.org/2000/svg">
<path d="M179 131C97.8 76.6001 27.8333 108.333 3.00001 131C2.33334 171.5 10.5 225 10.5 225C21 201 38 192.833 47 190.5C51.3333 189.167 65.2 186.6 86 187C106.8 187.4 129.667 195.167 138.5 199L222 241.5C233 246.667 262.9 257 294.5 257C326.1 257 354.667 246 365 240.5L440.5 198C449.5 192.667 472.8 182.1 494 182.5C515.2 182.9 548.5 202 562.5 211.5L560.5 214.5L537.5 213.5L531 219.5L536.5 227.5L701.5 233.5L709 258.5L724 284L748.5 306.5C752 307.167 759.2 308.5 760 308.5C761 308.5 776 304 783 298.5C788.6 294.1 801 275 806.5 266L819 231L823.5 221L811 211L792 208.5H745L715.5 214.5L700.5 224C692 225.167 675.5 225.9 677.5 219.5C680 211.5 681 206.5 677.5 203C674.7 200.2 659 201.833 651.5 203C647 202.667 634.3 201.2 619.5 198C604.7 194.8 587.667 178 581 170C579.167 165.167 571.6 152.5 556 140.5C536.5 125.5 518 121 494 118C474.8 115.6 445.333 125.667 433 131C406.167 142.333 348.4 166.9 332 174.5C315.6 182.1 302.167 184.333 297.5 184.5C291.833 189.333 260.2 185.4 179 131Z" fill="white"/>
<path d="M701.837 223.229C699.952 224.75 571.926 215.863 539.143 213.595C535.113 213.314 531.702 216.522 531.702 220.563C531.702 224.314 534.659 227.406 538.399 227.551L700.735 233.861" stroke="black" stroke-width="3" stroke-miterlimit="10" stroke-linecap="round" stroke-linejoin="round"/>
<path d="M609.656 215.417C597.788 199.367 573.221 196.053 581.097 218.722V218.732C579.329 217.171 577.463 215.591 575.482 213.983C562.899 203.709 553.766 216.241 560.202 226.892C567.393 238.794 577.821 251.122 588.249 255.813C598.677 260.504 608.206 255.454 602.272 244.27C601.683 243.165 601.074 242.089 600.436 241.033C601.692 241.982 602.92 243.155 604.099 244.812C613.812 258.449 630.502 250.657 624.462 238.697C626.076 240.306 627.932 241.963 630.145 243.727C641.655 252.925 656.394 244.987 648.305 231.283C640.215 217.578 633.025 210.145 633.025 210.145C619.369 191.798 599.769 197.167 609.656 215.417Z" fill="white"/>
<path d="M2.44971 131.185C2.44971 131.185 49.8062 95.5673 94.2632 99.8027C138.72 104.038 156.136 117.393 206.372 147.661C233.549 164.031 267.375 184.607 294.32 184.49C336.893 184.306 424.821 118.227 491.023 118.527C555.177 118.808 567.731 157.382 592.656 181.166C620.384 207.625 658.462 202.44 664.396 201.722C670.33 201.005 689.64 201.839 673.993 221.852" stroke="black" stroke-width="3" stroke-miterlimit="10" stroke-linecap="round" stroke-linejoin="round"/>
<path d="M11.515 224.973C11.515 224.973 20.3388 185.072 79.1284 186.564C121.74 187.65 146.78 201.936 186.154 223.035C225.528 244.134 289.343 280.827 374.952 235.479C458.318 191.323 480.759 155.269 561.575 211.763" stroke="black" stroke-width="3" stroke-miterlimit="10" stroke-linecap="round" stroke-linejoin="round"/>
<path d="M560.463 226.892C554.027 216.241 564.126 202.614 575.743 213.983C587.853 225.836 593.719 233.861 602.533 244.279C610.7 253.932 598.938 260.504 588.51 255.822C578.082 251.122 567.654 238.784 560.463 226.892Z" stroke="black" stroke-width="3" stroke-miterlimit="10" stroke-linecap="round" stroke-linejoin="round"/>
<path d="M609.907 215.417C598.039 199.367 572.989 196.053 580.865 218.722" stroke="black" stroke-width="3" stroke-miterlimit="10" stroke-linecap="round" stroke-linejoin="round"/>
<path d="M603.007 244.812C612.401 258.003 629.43 251.151 625.216 239.86C625.042 239.395 624.839 238.929 624.588 238.455" stroke="black" stroke-width="3" stroke-miterlimit="10" stroke-linecap="round" stroke-linejoin="round"/>
<path d="M625.419 239.375C626.869 240.771 628.512 242.205 630.406 243.727C641.916 252.925 656.655 244.987 648.566 231.283C640.476 217.578 633.286 210.145 633.286 210.145C619.62 191.788 600.02 197.167 609.907 215.407" stroke="black" stroke-width="3" stroke-miterlimit="10" stroke-linecap="round" stroke-linejoin="round"/>
<path d="M700.725 227.29C700.725 242.826 714.014 246.964 759.795 246.964C792.413 246.964 823.514 233.676 823.514 222.822C823.514 211.957 798.705 205.822 759.795 207.625C727.206 209.127 700.725 216.425 700.725 227.29Z" stroke="black" stroke-width="3" stroke-miterlimit="10" stroke-linecap="round" stroke-linejoin="round"/>
<path d="M709.172 229.877C710.825 239.278 723.36 239.899 761.061 239.162C788.605 238.629 813.385 228.298 812.235 221.726C811.085 215.155 789.504 212.539 756.896 215.359C729.574 217.714 708.022 223.306 709.172 229.877Z" stroke="black" stroke-width="3" stroke-miterlimit="10" stroke-linecap="round" stroke-linejoin="round"/>
<path d="M608.574 213.576L625.757 240.16" stroke="black" stroke-width="3" stroke-miterlimit="10" stroke-linecap="round" stroke-linejoin="round"/>
<path d="M646.053 114.35C644.816 113.584 638.775 116.783 640.119 126.523C641.472 136.263 648.759 141.4 650.644 134.364C652.528 127.328 657.583 122.375 652.461 121.29C647.329 120.214 649.107 116.25 646.053 114.35Z" fill="white" stroke="black" stroke-width="3" stroke-miterlimit="10" stroke-linecap="round" stroke-linejoin="round"/>
<path d="M765.266 167.636C765.266 167.636 762.299 173.858 767.15 178.181C772.002 182.513 779.289 181.156 776.322 174.934C773.355 168.712 768.223 166.008 765.266 167.636Z" fill="white" stroke="black" stroke-width="3" stroke-miterlimit="10" stroke-linecap="round" stroke-linejoin="round"/>
<path d="M841.587 165.736C840.234 165.465 834.841 163.74 829.448 173.936C824.055 184.132 827.834 188.193 833.227 184.946C838.62 181.699 836.194 176.998 841.587 173.936C846.98 170.883 852.914 165.184 847.25 165.465C841.587 165.736 841.587 165.736 841.587 165.736Z" fill="white" stroke="black" stroke-width="3" stroke-miterlimit="10" stroke-linecap="round" stroke-linejoin="round"/>
<path d="M710.003 241.75C710.003 241.75 716.981 259.321 739.915 278.792C762.849 298.263 777.018 301.83 777.018 301.83" stroke="black" stroke-width="3" stroke-miterlimit="10" stroke-linecap="round" stroke-linejoin="round"/>
<path d="M732.899 247.681C732.899 247.681 750.972 268.79 769.576 280.42C788.19 292.051 790.19 290.267 790.19 290.267" stroke="black" stroke-width="3" stroke-miterlimit="10" stroke-linecap="round" stroke-linejoin="round"/>
<path d="M759.795 246.954C759.795 246.954 767.15 260.678 780.903 267.705C794.655 274.731 799.401 276.757 799.401 276.757" stroke="black" stroke-width="3" stroke-miterlimit="10" stroke-linecap="round" stroke-linejoin="round"/>
<path d="M786.035 244.212C786.035 244.212 789.263 250.133 797.091 254.999C804.919 259.864 807.567 260.891 807.567 260.891" stroke="black" stroke-width="3" stroke-miterlimit="10" stroke-linecap="round" stroke-linejoin="round"/>
<path d="M710.97 261.86C710.97 261.86 729.391 263.159 751.774 246.906" stroke="black" stroke-width="3" stroke-miterlimit="10" stroke-linecap="round" stroke-linejoin="round"/>
<path d="M719.388 276.767C719.388 276.767 743.201 281.506 770.678 266.358C798.154 251.209 819.136 230.323 819.136 230.323C818.382 244.386 799.604 281.235 789.63 292.06C779.656 302.886 767.411 308.556 757.969 308.556C748.526 308.556 738.166 300.444 722.79 281.777C707.413 263.111 703.18 236.991 703.18 236.991" stroke="black" stroke-width="3" stroke-miterlimit="10" stroke-linecap="round" stroke-linejoin="round"/>
<path d="M734.735 294.813C734.735 294.813 743.414 300.163 765.797 287.447C788.18 274.731 807.558 260.882 807.558 260.882" stroke="black" stroke-width="3" stroke-miterlimit="10" stroke-linecap="round" stroke-linejoin="round"/>
<path d="M694.753 138.638L678.748 147.332L682.614 131.699L694.55 123.722L694.753 138.638Z" fill="#93DAD5"/>
<path d="M719.997 183.405L679.492 150.23L695.671 141.449L719.997 183.405Z" fill="#93DAD5"/>
<path d="M719.165 133.114L697.642 137.708L697.439 122.743C697.439 122.617 697.42 122.491 697.381 122.375L709.723 118.905C709.762 119.051 709.82 119.196 709.916 119.332L719.165 133.114Z" fill="#93DAD5"/>
<path d="M736.165 128.995L722.21 132.435L712.961 118.653L724.8 119.487L736.165 128.995Z" fill="#93DAD5"/>
<path d="M722.21 181.457L698.474 140.509L720.2 135.876L722.21 181.457Z" fill="#93DAD5"/>
<path d="M724.162 184.81L723.862 186.022H723.186L722.384 185.363L722.21 181.457L724.162 184.81Z" fill="#93DAD5"/>
<path d="M737.151 131.747L725.09 181.011L723.06 135.226L737.151 131.747Z" fill="#93DAD5"/>
<path d="M724.162 184.81L723.862 186.022H723.186L722.384 185.363L722.21 181.457L724.162 184.81Z" fill="black"/>
<path d="M724.162 184.81L723.862 186.022H723.186L722.384 185.363L722.21 181.457L724.162 184.81Z" fill="black"/>
<path d="M737.151 131.747L723.06 135.226L725.09 181.011L724.162 184.81L722.21 181.457L720.2 135.876L698.474 140.509L722.21 181.457L722.384 185.363L720.006 183.414L719.997 183.405L695.671 141.449L679.492 150.23L678.275 149.241L678.748 147.332L694.753 138.638L694.55 123.722L695.99 122.763L697.382 122.375C697.42 122.491 697.439 122.617 697.439 122.743L697.642 137.708L719.166 133.114L709.917 119.332C709.82 119.196 709.762 119.051 709.723 118.905L711.115 118.518L712.961 118.644V118.653L722.21 132.435L736.165 128.995L737.538 130.148L737.151 131.747Z" fill="black"/>
<path d="M764 42.5L806 31L836.5 28.5L862.5 49L892.5 81L798.5 153.5L764 42.5Z" fill="white" stroke="black"/>
<path d="M903.731 80.7342L912.826 88.1995M743.854 34.5317L755.958 40.9093M830.849 56.444L799.499 154.607M764.768 20.8486L768.881 31.4754M910.465 57.7014L895.842 63.9387M739.212 18.0598L755.99 33.2281M904.75 72.016L921.922 70.5736M806.964 40.4415L780.981 61.9446L798.087 154.845L867.703 89.1274L856.963 56.3972M861.657 49.8012L856.164 56.8221L830.424 55.6448L807.389 41.2406L805.724 31.3623M891.779 80.4263L868.74 90.1136L818.635 94.203L781.457 64.767L766.55 43.4783M838.045 28.5282L806.523 30.9374L764.289 42.1178L798.887 154.42L892.391 80.6134L862.218 47.9651L838.045 28.5282Z" stroke="black" stroke-width="3.52" stroke-linecap="round" stroke-linejoin="round"/>
</svg>
