<svg width="420" height="311" viewBox="0 0 420 311" fill="none" xmlns="http://www.w3.org/2000/svg">
<g clip-path="url(#clip0_1_38)">
<path fill-rule="evenodd" clip-rule="evenodd" d="M282.692 81.9909C284.846 78.0866 293.661 67.0467 312.577 67.0468C313.027 67.0468 313.638 66.4041 314.562 65.4322C317.781 62.0457 324.799 54.6625 342.058 56.5455C348.116 77.952 318.231 115.514 318.231 115.514C318.231 115.514 371.942 182.965 343.269 233.048C334.195 248.899 296.827 237.491 265.731 218.912C265.731 218.912 257.25 226.99 236.654 224.97C216.058 222.951 189.808 221.335 174.058 223.758C158.308 226.182 106.615 282.323 106.615 282.323L97.7307 273.438L91.2692 284.747C90.0576 292.017 84.323 304.134 71.0769 294.44C54.5192 282.323 48.0569 278.154 16.9615 282.323C12.1153 282.323 8.07688 271.014 13.7307 268.187C3.83834 260.413 10.0181 256.968 12.8016 255.415C13.1998 255.193 13.5285 255.01 13.7307 254.858C13.7307 254.858 2.42305 241.934 16.1538 240.318C12.1154 223.758 42 218.912 39.9807 237.491C37.9615 256.07 70.1237 249.713 71.0769 246.377C72.03 243.04 71.0769 237.491 71.0769 237.491L86.423 223.758C67.2306 226.407 57.5615 227.214 52.0961 221.335C53.1598 218.66 51.2227 217.441 48.2556 215.574C46.4107 214.413 44.1676 213.002 42 210.834L36.3461 193.466C44.9356 183.055 55.8193 183.598 69.32 184.273C73.907 184.502 78.7961 184.746 83.9999 184.581L84.6429 183.105C101.352 144.77 110.917 122.824 138.115 84.4143C150.17 70.0694 157.999 64.2799 176.077 62.6039C191.896 63.3059 199.193 74.9931 211.211 102.994C224.495 95.8175 232.446 92.5386 248.366 89.2611C264.104 90.5343 272.55 92.2374 287.135 96.5312L298.442 102.994L304.904 84.4143L285.116 85.626L282.692 81.9909ZM138.115 176.907C159.519 163.174 178.904 163.174 184.558 163.174C175.839 150.291 167.596 133.69 167.596 127.631C166.385 132.478 152.134 157.12 138.115 176.907Z" fill="white"/>
<path d="M139.931 175.247L149.105 163.369L177.815 156.043L185.634 163.369C185.634 163.369 172.84 164.59 165.239 166.266C157.637 167.942 139.931 175.247 139.931 175.247Z" fill="#93DAD5"/>
<path d="M44.72 202.905C44.72 202.905 44.5648 202.998 44.3477 203.195C44.5959 203.05 44.72 202.905 44.72 202.905Z" fill="#93DAD5"/>
<path d="M361.121 24.4913C311.768 -4.09744 294.445 0.237959 294.445 0.237959L257.874 89.2222C257.874 89.2222 257.916 89.9465 257.543 89.8741C257.543 89.8741 280.979 93.1127 299.006 101.783C299.223 101.07 300.495 96.7341 301.271 92.7402C302.119 88.3738 305.283 83.5934 305.283 83.5934C305.283 83.5934 293.1 86.1181 288.829 85.6318C284.557 85.1455 282.117 83.3762 282.882 80.6238C283.647 77.8715 291.27 73.2982 295.262 71.5495C299.254 69.8009 311.675 67.3279 311.675 67.3279C311.675 67.3279 314.767 62.9201 319.959 57.1155C325.151 51.3108 340.489 57.1155 340.489 57.1155L343.157 60.4782C343.157 60.4782 337.055 91.9228 329.381 101.908C321.707 111.882 317.942 114.81 317.942 114.81C317.942 114.81 316.608 113.91 315.078 111.779C314.385 110.806 311.013 108.695 307.538 106.667C325.44 118.98 345.287 149.887 351.7 193.354C351.7 193.354 367.192 170.912 377.586 151.853C387.98 132.793 420.01 64.3584 420.01 64.3584C420.01 64.3584 410.475 53.0801 361.121 24.4913Z" fill="#93DAD5"/>
<path d="M45.2164 190.271C50.2324 191.44 57.927 193.561 68.3934 190.271C78.8495 186.981 85.8719 183.618 85.8719 183.618L90.4328 169.432C90.4328 169.432 72.8096 169.608 44.5235 175.703C21.4188 180.679 5.42963 193.582 0.341227 198.145C-0.27931 198.704 -6.8641e-05 199.739 0.827314 199.894C3.48528 200.401 8.73916 202.274 17.6645 208.73C24.7594 213.862 39.8694 225.658 52.3008 234.991C58.1442 239.388 66.7076 243.817 72.6855 247.107L76.7914 249.456L72.7682 237.236L86.6476 223.651C86.6476 223.651 66.1492 226.651 61.2366 226.082C56.324 225.513 50.915 221.271 53.2213 216.232C53.2213 216.232 42.5274 215.466 42.062 210.148C41.7 205.978 43.5306 203.898 44.3476 203.195C43.6961 203.577 42.1551 203.95 39.5798 201.642C36.0324 198.456 36.0842 196.955 37.2528 193.334C38.4215 189.712 40.19 189.092 45.2164 190.271Z" fill="#93DAD5"/>
<path d="M266.831 219.367C256.83 228.576 221.418 223.433 198.913 222.285C176.408 221.136 164.277 226.33 147.543 240.609C135.598 250.791 119.846 267.687 111.79 276.534C111.79 276.534 133.115 288.123 144.657 294.476C156.199 300.829 158.516 303.716 158.516 303.716C158.516 303.716 175.157 270.76 206.918 260.403L241.947 250.491C275.818 242.11 305.139 237.836 305.294 237.816C301.912 236.812 298.726 235.632 295.903 234.422C287.433 230.78 276.418 224.83 266.831 219.367Z" fill="#93DAD5"/>
<path d="M278.352 250.098C278.352 250.098 306.659 251.381 319.359 257.91C332.06 264.438 334.366 275.996 316.277 287.543C298.189 299.091 249.859 319.433 202.367 303.716C169.789 292.934 170.823 285.929 170.823 285.929" fill="white"/>
<path d="M278.352 250.098C278.352 250.098 306.659 251.381 319.359 257.91C332.06 264.438 334.366 275.996 316.277 287.543C298.189 299.091 249.859 319.433 202.367 303.716C169.789 292.934 170.823 285.929 170.823 285.929" stroke="black" stroke-width="3" stroke-miterlimit="10" stroke-linecap="round" stroke-linejoin="round"/>
<path d="M317.932 114.79C317.932 114.79 334.666 95.4305 338.172 80.0341C341.678 64.6378 340.147 55.0047 340.147 55.0047C340.147 55.0047 328.605 45.7648 320.911 53.0802C313.216 60.3955 311.675 67.328 311.675 67.328" stroke="black" stroke-width="3" stroke-miterlimit="10" stroke-linecap="round" stroke-linejoin="round"/>
<path d="M298.964 101.887C298.964 101.887 301.053 90.5156 305.283 83.5831" stroke="black" stroke-width="3" stroke-miterlimit="10" stroke-linecap="round" stroke-linejoin="round"/>
<path d="M315.512 206.692C298.582 183.98 279.335 177.43 279.335 177.43C279.335 177.43 273.564 177.048 260.098 188.212C246.632 199.376 245.474 206.692 245.474 206.692C245.474 206.692 277.028 226.33 295.882 234.411C314.736 242.492 349.755 249.425 352.072 208.999C354.389 168.573 328.978 119.291 307.435 106.202C291.973 96.8066 274.784 93.3507 257.543 89.8638C245.029 87.3287 225.886 94.4061 211.344 103.067" stroke="black" stroke-width="3" stroke-miterlimit="10" stroke-linecap="round" stroke-linejoin="round"/>
<path d="M322.059 67.6074C322.059 67.6074 306.276 65.4035 292.045 73.1016C277.804 80.7998 282.013 86.8114 292.045 85.4249C305.294 83.5935 310.899 83.5004 318.594 80.0341" stroke="black" stroke-width="3" stroke-miterlimit="10" stroke-linecap="round" stroke-linejoin="round"/>
<path d="M301.271 93.3507C301.271 93.3507 306.287 98.607 315.129 95.9168C323.982 93.2266 326.071 87.3391 326.071 87.3391" stroke="black" stroke-width="3" stroke-miterlimit="10" stroke-linecap="round" stroke-linejoin="round"/>
<path d="M271.65 141.63C271.65 141.63 268.568 148.945 274.339 152.411C280.11 155.878 285.881 154.481 285.881 154.481" stroke="black" stroke-width="3" stroke-miterlimit="10" stroke-linecap="round" stroke-linejoin="round"/>
<path d="M296.927 150.259C296.927 150.259 298.065 186.35 308.293 198.073" stroke="black" stroke-width="3" stroke-miterlimit="10" stroke-linecap="round" stroke-linejoin="round"/>
<path d="M253.179 113.134C253.179 113.134 240.303 122.757 236.549 136.622" stroke="black" stroke-width="3" stroke-miterlimit="10" stroke-linecap="round" stroke-linejoin="round"/>
<path d="M263.201 152.111C263.201 152.111 266.934 153.943 270.833 160.099C274.732 166.256 276.46 178.01 276.46 178.01" stroke="black" stroke-width="3" stroke-miterlimit="10" stroke-linecap="round" stroke-linejoin="round"/>
<path d="M266.831 172.816C266.831 172.816 260.388 169.691 257.595 163.338C254.803 156.985 255.475 150.239 250.283 150.259C246.984 150.27 245.66 153.177 246.632 158.754C247.594 164.342 249.321 170.498 253.179 176.468" stroke="black" stroke-width="3" stroke-miterlimit="10" stroke-linecap="round" stroke-linejoin="round"/>
<path d="M239.899 176.468C239.899 176.468 234.335 162.293 236.538 154.75C238.741 147.207 244.119 148.386 246.715 152.805" stroke="black" stroke-width="3" stroke-miterlimit="10" stroke-linecap="round" stroke-linejoin="round"/>
<path d="M248.546 200.39C248.37 200.659 235.473 188.791 230.281 179.158C225.089 169.536 226.817 159.789 228.161 154.75C229.506 149.711 234.728 147.476 236.538 154.75" stroke="black" stroke-width="3" stroke-miterlimit="10" stroke-linecap="round" stroke-linejoin="round"/>
<path d="M266.831 219.367C256.83 228.576 221.418 223.433 198.913 222.285C176.408 221.136 164.277 226.33 147.543 240.609C130.809 254.888 106.557 282.349 106.557 282.349C106.557 282.349 88.0852 263.259 78.8495 250.863C69.6139 238.457 73.6577 236.15 73.6577 236.15C73.6577 236.15 115.792 195.145 131.957 183.018C148.122 170.891 160.936 160.461 211.231 163.369" stroke="black" stroke-width="3" stroke-miterlimit="10" stroke-linecap="round" stroke-linejoin="round"/>
<path d="M167.162 128.365C167.162 128.365 175.24 154.688 185.634 163.369" stroke="black" stroke-width="3" stroke-miterlimit="10" stroke-linecap="round" stroke-linejoin="round"/>
<path d="M175.147 110.827C175.147 110.827 153.045 164.942 131.947 183.018" stroke="black" stroke-width="3" stroke-miterlimit="10" stroke-linecap="round" stroke-linejoin="round"/>
<path d="M214.302 110.827C214.302 110.827 200.454 70.9701 185.634 64.2756C185.634 64.2756 161.195 52.3248 136.953 85.6111C112.71 118.897 89.8124 169.722 84.6102 183.008C84.6102 183.008 101.478 190.571 123.063 190.25" stroke="black" stroke-width="3" stroke-miterlimit="10" stroke-linecap="round" stroke-linejoin="round"/>
<path d="M99.0066 274.341C99.0066 274.341 96.1625 277.145 92.9874 282.339C89.8123 287.533 92.1187 293.596 82.883 297.642C73.6474 301.688 68.7451 289.933 60.6575 285.991C52.5801 282.049 34.1088 278.873 28.0482 280.611C21.9877 282.339 13.9104 284.946 11.5937 276.275C9.28735 267.615 20.5398 266.456 24.0044 266.746" stroke="black" stroke-width="3" stroke-miterlimit="10" stroke-linecap="round" stroke-linejoin="round"/>
<path d="M24.5836 255.488C24.5836 255.488 20.5398 253.76 14.4792 255.488C8.41863 257.216 5.82272 265.008 14.4792 268.763" stroke="black" stroke-width="3" stroke-miterlimit="10" stroke-linecap="round" stroke-linejoin="round"/>
<path d="M27.1795 247.118C27.1795 247.118 22.1945 239.864 16.7545 240.609C11.3145 241.344 4.9643 244.231 14.4895 255.499" stroke="black" stroke-width="3" stroke-miterlimit="10" stroke-linecap="round" stroke-linejoin="round"/>
<path d="M16.7545 240.609C16.7545 240.609 15.0584 225.461 27.1795 225.461C39.3007 225.461 40.7486 231.814 40.1694 236.15C39.5903 240.485 36.9943 244.603 46.5196 248.028C54.4418 250.874 63.9256 251.556 69.738 249.052C70.917 248.545 71.9409 247.904 72.7683 247.128" stroke="black" stroke-width="3" stroke-miterlimit="10" stroke-linecap="round" stroke-linejoin="round"/>
<path d="M32.1851 225.906C32.1851 225.906 27.4794 230.076 30.3649 235.281C33.2504 240.475 39.5902 239.326 39.5902 239.326" stroke="black" stroke-width="3" stroke-miterlimit="10" stroke-linecap="round" stroke-linejoin="round"/>
<path d="M87.7542 222.605C87.2061 223.133 70.7619 226.931 60.6678 225.906C50.5634 224.882 49.9842 215.352 58.0719 212.176C66.1595 208.999 70.131 210.158 70.131 210.158" stroke="black" stroke-width="3" stroke-miterlimit="10" stroke-linecap="round" stroke-linejoin="round"/>
<path d="M61.2366 200.401C61.2366 200.401 50.2738 197.038 45.2061 202.367C38.9077 208.999 42.3206 216.521 53.2214 216.232" stroke="black" stroke-width="3" stroke-miterlimit="10" stroke-linecap="round" stroke-linejoin="round"/>
<path d="M85.8615 183.608C82.1487 185.656 77.7739 187.684 72.7682 189.071C62.3949 191.958 55.207 193.82 46.8091 190.261C36.9736 186.091 35.1637 196.096 38.4422 200.39C40.2417 202.75 42.3516 203.35 43.6857 203.464" stroke="black" stroke-width="3" stroke-miterlimit="10" stroke-linecap="round" stroke-linejoin="round"/>
<path d="M251.783 248.132L242.795 268.691C242.795 268.691 246.529 274.072 256.582 273.678C263.19 273.43 268.279 272.24 270.999 271.464C272.343 271.081 273.377 270.016 273.708 268.66L280.348 242.12" fill="white"/>
<path d="M251.783 248.132L242.795 268.691C242.795 268.691 246.529 274.072 256.582 273.678C263.19 273.43 268.279 272.24 270.999 271.464C272.343 271.081 273.377 270.016 273.708 268.66L280.348 242.12" stroke="black" stroke-width="3" stroke-miterlimit="10" stroke-linecap="round" stroke-linejoin="round"/>
<path d="M331.036 74.1156C332.464 74.1156 333.621 72.9575 333.621 71.5289C333.621 70.1003 332.464 68.9421 331.036 68.9421C329.608 68.9421 328.45 70.1003 328.45 71.5289C328.45 72.9575 329.608 74.1156 331.036 74.1156Z" fill="black"/>
<path d="M323.848 107.433C323.848 107.433 338.999 113.134 347.459 113.134C347.459 113.134 365.072 86.9562 352.227 60.7783C339.713 35.2729 306.266 42.878 296.493 56.236C296.089 56.7844 296.265 57.5604 296.865 57.8811L312.864 66.3036C313.278 66.5209 313.785 66.4588 314.126 66.138C316.515 63.9031 326.599 52.3662 339.454 60.1471C348.452 65.5586 323.848 107.433 323.848 107.433Z" fill="black"/>
<path d="M228.161 154.75C229.506 149.711 234.728 147.476 236.538 154.75C238.741 147.207 244.119 148.386 246.715 152.805C247.294 151.128 248.494 150.27 250.283 150.259C255.475 150.239 254.803 156.985 257.595 163.338C258.092 164.455 258.692 165.469 259.364 166.39C260.708 166.318 261.525 166.266 261.525 166.266L265.404 133.528C265.455 133.073 265.207 132.649 264.793 132.462L214.313 110.816C214.313 110.816 220.859 130.455 223.28 143.161C225.71 155.867 223.166 163.948 223.28 166.266C223.3 166.701 224.655 166.97 226.848 167.125C226.496 162.065 227.385 157.637 228.161 154.75Z" fill="black"/>
<path d="M214.302 110.827C214.302 110.827 220.849 130.465 223.269 143.172C225.7 155.878 223.155 163.959 223.269 166.276" stroke="black" stroke-width="3" stroke-miterlimit="10" stroke-linecap="round" stroke-linejoin="round"/>
</g>
<defs>
<clipPath id="clip0_1_38">
<rect width="420" height="311" fill="white"/>
</clipPath>
</defs>
</svg>
