<svg width="1249" height="514" viewBox="0 0 1249 514" fill="none" xmlns="http://www.w3.org/2000/svg">
<path d="M206.699 64.6011L220.041 10.5328L225.658 17.5547L229.169 8.42629L269.896 3.51099L255.15 89.8798L229.169 313.175L180.016 318.09L222.85 94.0929L206.699 64.6011Z" fill="white" stroke="black"/>
<path d="M172.74 311.334C172.74 311.334 163.813 287.956 158.585 259.439C155.906 244.925 155.524 218.335 154.886 214.996C154.121 210.628 155.779 183.525 172.74 227.841C189.575 271.771 181.668 318.142 181.668 318.142L227.579 314.031C227.579 314.031 239.056 222.703 253.085 193.159C267.113 163.615 290.069 163.615 282.417 185.452C274.765 207.288 242.882 311.334 242.882 311.334L179.627 320.197L172.74 311.334Z" fill="#93DAD5"/>
<path d="M265.702 310.23C267.892 305.224 282.19 269.025 287.987 249C293.783 228.975 282.448 227.178 271.756 239.373C261.065 251.567 234.787 311.77 234.787 311.77L265.702 310.23Z" fill="#93DAD5"/>
<path d="M156.315 320.197C156.315 320.197 141.888 293.823 132.614 278.916C123.21 264.009 136.607 239.801 149.488 265.411C162.369 291.02 180.016 320.197 180.016 320.197H156.315Z" fill="#93DAD5"/>
<path d="M352.754 4.10506C350.787 4.23469 349.607 4.36433 349.607 4.36433L319.049 19.6612L350.262 2.80872L352.754 4.10506Z" fill="#FBB54B"/>
<path d="M401.907 28.0406L373.572 98.1139C373.572 98.1139 343.458 106.825 313.979 119.892C281.196 134.368 248.541 153.455 248.413 154.608C248.413 154.608 248.413 154.736 248.413 154.864L210.548 170.493L210.675 169.853L170.777 183.816L126.813 192.399C126.813 192.399 116.902 188.171 115.504 190.221C114.234 192.143 126.94 107.337 130.371 84.791C151.463 76.8485 183.992 65.0629 183.992 65.0629L271.666 37.136L308.261 25.6066L312.454 23.4288L313.597 23.0445L319.824 19.5857L349.43 4.46934C349.43 4.46934 350.573 4.34124 352.479 4.21313L401.907 28.0406Z" fill="white"/>
<path d="M319.049 19.6613L313.117 23.4531L312.027 23.8744L319.049 19.6613Z" fill="#FBB54B"/>
<path d="M180.557 320.197C180.428 320.197 180.3 320.197 180.171 320.197C179.143 319.942 178.5 319.052 178.628 317.907L207.04 171.472C207.297 170.454 208.197 169.818 209.354 169.945C210.382 170.2 211.025 171.09 210.896 172.235L182.485 318.67C182.356 319.561 181.457 320.197 180.557 320.197Z" fill="black"/>
<path d="M228.287 315.984C228.16 315.984 228.16 315.984 228.032 315.984C227.012 315.856 226.247 314.831 226.375 313.807L246.395 153.351C246.523 152.326 247.543 151.558 248.563 151.686C249.583 151.814 250.349 152.839 250.221 153.863L230.2 314.319C230.073 315.215 229.18 315.984 228.287 315.984Z" fill="black"/>
<path d="M124.984 193.803C121.679 193.803 119.136 192.91 117.229 191.252C112.779 187.042 113.923 178.623 114.94 170.46C116.466 158.979 120.026 135.253 122.06 121.093L122.823 115.608C124.221 106.169 126.51 91.3716 127.527 85.5037C127.781 83.8454 128.671 82.4423 129.943 81.4218C132.867 79.2532 138.969 75.6815 147.869 75.4264C151.048 75.2988 166.304 69.6861 184.104 63.3081C196.818 58.7159 211.184 53.4859 225.805 48.511C249.962 40.2195 274.881 32.5658 291.282 27.4634C301.453 24.2743 308.7 22.1058 311.116 21.2129C321.287 17.386 340.358 6.67087 345.952 3.6094C347.605 2.58891 349.766 2.58891 351.546 3.35428L398.206 24.2743C401.257 25.6775 402.783 29.2492 401.384 32.3107L375.321 96.3464C374.558 98.0047 373.16 99.4079 371.507 99.9182C367.057 101.321 354.852 105.276 337.179 111.526C317.727 118.415 278.695 138.314 244.368 155.79C238.901 158.596 233.688 161.275 228.602 163.826C192.495 182.195 131.723 193.038 130.324 193.293C128.417 193.676 126.637 193.803 124.984 193.803ZM349.13 6.54331C348.749 6.54331 348.367 6.67087 347.986 6.79843C342.392 9.98747 323.067 20.7026 312.641 24.657C310.226 25.5499 302.852 27.846 292.681 31.0351C276.28 36.1375 251.488 43.7912 227.331 52.0827C212.71 57.0576 198.343 62.2876 185.757 66.8798C163.634 74.9161 151.938 79.1257 148.251 79.2532C140.368 79.5084 134.901 82.6974 132.485 84.4832C131.977 84.8659 131.595 85.3762 131.595 86.014C130.578 92.0093 128.163 106.806 126.764 116.118L126.001 121.604C123.84 135.763 120.407 159.489 118.881 170.97C117.991 178.113 116.974 185.639 120.026 188.446C121.806 190.104 125.111 190.359 129.815 189.466C130.451 189.339 191.224 178.623 227.077 160.382C232.162 157.831 237.375 155.152 242.842 152.346C277.424 134.742 316.456 114.715 336.162 107.827C353.962 101.576 366.167 97.622 370.617 96.0913C371.252 95.8362 371.888 95.3259 372.142 94.6881L398.206 30.6524C398.715 29.3768 398.206 28.1012 396.935 27.4634L350.147 6.79843C349.893 6.54331 349.512 6.54331 349.13 6.54331Z" fill="black"/>
<path d="M208.644 58.9836C208.518 58.9836 208.266 58.9836 208.14 58.9836C207.133 58.7278 206.503 57.7046 206.755 56.6813L218.593 10.7639C218.845 9.86861 219.6 9.22909 220.482 9.10119C221.363 8.97328 222.245 9.35699 222.748 10.2523L224.763 13.7057L226.652 7.05473C226.904 6.41521 227.408 5.90359 228.038 5.77569L239.246 3.47343C253.602 0.14793 267.203 -1.89853 271.358 2.5781C272.24 3.47343 273.121 5.13617 272.492 7.82215C270.225 16.6475 265.565 38.7748 265.565 38.9027C265.314 39.926 264.306 40.5655 263.299 40.4376C262.291 40.1818 261.662 39.1585 261.788 38.1353C261.913 37.24 266.447 15.6243 268.714 6.79892C268.966 5.77569 268.714 5.39198 268.588 5.26408C266.447 2.83391 256.876 3.47343 240.127 6.92682L230.053 8.97328L227.408 17.9265C227.156 18.8219 226.4 19.4614 225.519 19.5893C224.637 19.7172 223.756 19.2056 223.252 18.4382L221.363 15.1127L210.533 57.4488C210.281 58.3441 209.526 58.9836 208.644 58.9836Z" fill="black"/>
<path d="M228.256 315.984C228.129 315.984 227.874 315.984 227.747 315.856C226.728 315.602 226.091 314.457 226.473 313.439C227.365 310.386 248.003 238.124 255.775 219.931C260.489 209.117 264.693 208.735 266.859 209.499C271.572 211.153 272.719 220.949 269.407 232.653C265.839 245.121 254.628 274.255 246.857 294.101C246.984 293.974 247.112 293.847 247.239 293.72C250.424 290.666 253.609 289.521 255.775 290.794C259.215 292.829 257.686 298.809 257.049 300.717C254.373 310.64 252.845 312.93 252.462 313.439C251.698 314.202 250.551 314.33 249.787 313.566C249.023 312.93 248.895 311.658 249.66 310.895C249.66 310.895 250.934 308.986 253.482 299.699C254.756 294.992 253.864 293.974 253.864 293.974C253.609 293.847 252.08 294.229 249.914 296.264C246.729 299.445 240.742 310.386 238.703 314.33C238.194 315.22 237.174 315.602 236.155 315.22C235.263 314.839 234.754 313.694 235.136 312.803C235.391 312.167 260.234 250.719 265.712 231.508C269.024 219.677 266.986 213.443 265.585 212.934C265.075 212.807 262.527 213.697 259.342 221.33C251.698 239.269 230.422 313.566 230.295 314.33C229.785 315.475 229.021 315.984 228.256 315.984Z" fill="black"/>
<path d="M164.976 321.601C164.47 321.601 163.837 321.348 163.457 320.968C163.204 320.715 157.888 314.133 153.837 306.158C148.9 296.412 148.14 293.374 150.166 291.855C152.065 290.336 154.596 291.982 158.647 295.399C162.065 298.311 164.976 301.475 167.382 304.26C164.09 290.969 158.774 267.931 159.533 258.818C160.419 248.565 162.824 247.172 164.597 247.172C167.508 247.046 169.66 250.97 171.432 259.957C174.47 275.526 182.825 317.424 182.825 317.424L179.154 318.183C179.154 318.183 170.799 276.286 167.761 260.716C166.622 254.767 165.483 252.362 164.85 251.476C164.344 252.489 163.711 254.767 163.331 259.197C162.318 271.349 173.584 312.741 173.711 313.12C173.964 314.006 173.458 315.019 172.572 315.399C171.686 315.778 170.673 315.399 170.166 314.639C170.166 314.513 164.597 305.272 156.242 298.31C154.976 297.298 154.09 296.665 153.457 296.159C153.963 297.678 155.103 300.209 157.255 304.513C161.052 312.108 166.369 318.437 166.369 318.563C167.002 319.323 166.875 320.588 166.116 321.221C165.863 321.475 165.483 321.601 164.976 321.601Z" fill="black"/>
<path d="M194.587 318.792C194.458 318.792 194.458 318.792 194.587 318.792C193.428 318.792 192.656 317.905 192.656 316.764C192.656 316.384 193.171 307.766 204.241 293.951C214.796 280.77 216.341 276.207 216.083 261.885C215.697 246.296 219.687 231.974 226.896 222.342L234.104 212.836C234.748 211.949 235.906 211.822 236.807 212.456C237.708 213.09 237.837 214.231 237.193 215.118L229.985 224.623C223.291 233.495 219.687 247.057 219.945 261.759C220.331 276.968 218.271 282.418 207.33 296.232C197.161 309.033 196.646 316.891 196.646 316.891C196.389 317.905 195.488 318.792 194.587 318.792Z" fill="black"/>
<path d="M193.204 251.382C192.423 251.382 191.641 250.867 191.381 250.094C190.99 249.063 191.511 248.032 192.553 247.645C192.683 247.645 205.054 243.135 207.918 231.923C209.09 227.541 209.22 223.675 209.481 219.551C209.872 212.205 210.392 203.957 215.861 190.168C224.195 168.904 232.399 158.466 232.659 158.079C233.31 157.177 234.482 157.048 235.394 157.692C236.305 158.337 236.435 159.496 235.784 160.399C235.654 160.527 227.581 170.966 219.507 191.586C214.299 204.731 213.778 212.721 213.387 219.809C213.127 224.062 212.866 228.185 211.695 232.825C208.309 246.099 194.376 250.996 193.855 251.254C193.725 251.254 193.464 251.382 193.204 251.382Z" fill="black"/>
<path d="M223.919 262.618C223.541 262.618 223.037 262.491 222.659 262.239C218.753 260.218 222.029 248.854 222.029 248.727C223.289 244.308 227.448 237.363 230.094 236.226C231.102 235.721 231.858 235.974 232.236 236.226C233.118 236.731 233.496 237.868 233.118 238.752C232.74 239.383 232.11 239.762 231.48 239.762C230.22 240.772 226.818 245.697 225.684 249.737C224.928 252.516 224.423 256.051 224.549 257.945L224.675 257.819C228.96 252.768 229.59 243.55 229.59 243.424C229.59 242.414 230.598 241.53 231.606 241.656C232.614 241.656 233.496 242.666 233.37 243.676C233.37 244.055 232.74 254.283 227.574 260.345C226.314 261.86 225.054 262.618 223.919 262.618Z" fill="black"/>
<path d="M197.301 286.492C196.425 286.492 195.548 286.113 195.047 285.356C194.546 284.725 192.793 282.706 195.673 272.864C197.301 267.439 200.181 264.789 202.435 264.158C203.813 263.779 204.564 264.284 204.814 264.537C207.444 266.934 206.818 269.458 205.941 273.621C205.816 274.252 205.691 274.883 205.44 275.64C204.063 281.697 200.933 286.113 197.552 286.366C197.552 286.492 197.426 286.492 197.301 286.492ZM202.811 268.07C201.934 268.7 200.306 270.341 199.18 273.874C197.677 278.795 197.552 281.318 197.677 282.454C198.804 281.823 200.682 279.3 201.684 274.757C201.809 274 202.06 273.369 202.185 272.738C202.936 269.836 203.187 268.7 202.811 268.07Z" fill="black"/>
<path d="M115.94 182.568C114.911 182.568 114.011 181.798 114.011 180.772C114.011 179.746 114.783 178.847 115.811 178.719C115.94 178.719 125.843 178.206 135.489 175.511C145.52 172.689 155.037 169.994 155.037 169.994C156.066 169.738 157.095 170.251 157.481 171.277C157.738 172.304 157.224 173.33 156.195 173.715C156.195 173.715 146.678 176.41 136.646 179.232C126.486 182.183 116.455 182.568 115.94 182.568Z" fill="black"/>
<path d="M118.744 168.525C117.718 168.525 116.82 167.713 116.82 166.785C116.82 165.857 117.718 165.046 118.744 165.046C119.898 165.046 126.055 163.77 129.903 162.958C130.929 162.726 131.955 163.306 132.211 164.234C132.468 165.162 131.826 166.089 130.8 166.321C129.133 166.669 120.796 168.525 118.744 168.525Z" fill="black"/>
<path d="M122.899 133.415C122.127 133.415 121.356 132.858 121.098 131.883C120.841 130.769 121.356 129.655 122.385 129.238L135.376 125.06C136.405 124.781 137.434 125.338 137.82 126.453C138.077 127.567 137.562 128.681 136.533 129.098L123.542 133.276C123.156 133.415 123.028 133.415 122.899 133.415Z" fill="black"/>
<path d="M125.812 108.137C125.024 108.137 124.235 107.589 123.972 106.766C123.578 105.67 124.104 104.574 125.155 104.163L143.684 97.0381C144.735 96.627 145.786 97.1751 146.181 98.2713C146.575 99.3674 146.049 100.464 144.998 100.875L126.469 108C126.338 108 126.075 108.137 125.812 108.137Z" fill="black"/>
<path d="M236.896 144.096C237.774 141.642 236.928 139.094 235.006 138.405C233.085 137.716 230.816 139.148 229.938 141.602C229.06 144.056 229.906 146.604 231.828 147.293C233.749 147.982 236.018 146.551 236.896 144.096Z" fill="black"/>
<path d="M231.015 57.4395C229.485 59.4806 229.613 62.1596 231.269 63.4353C232.926 64.711 235.474 63.9456 237.003 61.9044C238.533 59.8633 238.533 57.1843 236.876 56.0362C235.22 54.7605 232.544 55.3983 231.015 57.4395Z" fill="black"/>
<path d="M162.26 151.672C161.752 151.672 161.371 151.543 160.99 151.157C160.609 150.771 160.355 150.128 160.355 149.613L166.45 86.5638C166.577 85.7918 166.957 85.2771 167.592 85.0198C168.1 84.7624 180.67 79.6155 189.303 86.1778C195.398 90.81 197.81 99.8171 196.541 113.07C193.239 146.397 162.641 151.672 162.387 151.672C162.514 151.672 162.387 151.672 162.26 151.672ZM170.132 88.1079L164.418 147.297C171.274 145.367 190.446 137.904 192.985 112.684C194.128 100.846 192.224 92.9975 187.272 89.266C181.559 85.0198 173.179 87.2072 170.132 88.1079Z" fill="black"/>
<path d="M205.758 137.628C205.385 137.628 205.011 137.5 204.638 137.244C204.14 136.86 203.891 136.22 203.891 135.451L209.991 81.1519C210.116 80.3835 210.614 79.7432 211.361 79.4871L233.895 73.0838C234.891 72.8277 235.887 73.468 236.136 74.4925C236.385 75.517 235.763 76.5416 234.767 76.7977L213.477 82.8167L207.875 132.634L229.911 123.797C230.907 123.413 231.903 123.926 232.277 124.95C232.65 125.975 232.152 126.999 231.156 127.383L206.256 137.372C206.256 137.5 206.007 137.628 205.758 137.628Z" fill="black"/>
<path d="M210 95.4973C209.241 95.4973 208.483 95.0141 208.23 94.2892C207.85 93.3227 208.356 92.3562 209.368 91.9938L232.258 84.3827C233.27 84.0202 234.282 84.5035 234.661 85.47C235.04 86.4365 234.534 87.4029 233.523 87.7654L210.633 95.3765C210.38 95.4973 210.127 95.4973 210 95.4973Z" fill="black"/>
<path d="M247.325 125.434C246.178 125.434 245.413 124.413 245.413 123.393L247.452 86.908L248.599 70.324C248.726 69.3035 249.618 68.4105 250.638 68.5381C251.657 68.6656 252.549 69.5586 252.422 70.5792L251.275 87.1632L249.236 123.648C249.236 124.669 248.344 125.434 247.325 125.434Z" fill="black"/>
<path d="M244.649 74.4059C243.884 74.4059 243.12 73.8957 242.865 73.1302C242.483 72.1097 242.992 71.0892 244.012 70.7065L266.183 62.5421C267.203 62.1594 268.222 62.6697 268.604 63.6902C268.987 64.7108 268.477 65.7313 267.458 66.114L245.286 74.2784C245.031 74.4059 244.904 74.4059 244.649 74.4059Z" fill="black"/>
<path d="M284.278 128.368C283.258 128.368 282.494 127.603 282.366 126.71L276.632 70.324L267.967 95.9655L262.361 120.204C262.106 121.224 261.086 121.862 260.067 121.607C259.048 121.352 258.411 120.331 258.665 119.311L264.4 94.9449V94.8173L275.995 60.7563C276.25 59.8633 277.142 59.353 278.034 59.4806C278.926 59.6081 279.69 60.246 279.69 61.139L286.316 126.199C286.444 127.22 285.679 128.241 284.66 128.241C284.405 128.368 284.405 128.368 284.278 128.368Z" fill="black"/>
<path d="M263.762 110.508C262.998 110.508 262.361 110.126 261.978 109.36C261.596 108.34 261.978 107.319 262.87 106.809L280.455 98.7719C281.474 98.3892 282.494 98.7719 283.003 99.6649C283.386 100.685 283.003 101.706 282.111 102.216L264.527 110.253C264.272 110.381 264.017 110.508 263.762 110.508Z" fill="black"/>
<path d="M293.017 102.519C291.784 102.519 290.962 101.625 290.962 100.476L292.469 67.1545V52.4724C292.469 51.4511 293.428 50.5574 294.524 50.5574C295.62 50.5574 296.579 51.4511 296.579 52.4724V67.1545L295.072 100.732C295.072 101.753 294.113 102.519 293.017 102.519Z" fill="black"/>
<path d="M308.36 108.137C307.97 108.137 307.71 108.007 307.32 107.877C306.67 107.487 306.41 106.837 306.41 106.188V44.0801C306.41 43.0406 307.32 42.1311 308.36 42.1311C309.401 42.1311 310.311 43.0406 310.311 44.0801V102.939L326.046 94.1039C326.956 93.5842 328.127 93.974 328.647 94.8835C329.167 95.793 328.777 96.9624 327.867 97.4821L309.271 107.877C309.011 108.137 308.751 108.137 308.36 108.137Z" fill="black"/>
<path d="M340.397 88.4754C337.192 88.4754 333.858 87.4589 330.781 85.68C321.549 80.089 322.703 70.8131 324.498 66.747C324.883 65.7304 326.037 65.3492 327.062 65.8575C328.088 66.2387 328.473 67.3823 327.96 68.3988C327.832 68.78 324.113 77.4206 332.704 82.5033C336.422 84.6634 340.013 85.2988 343.603 84.2822C347.834 83.1386 350.655 80.089 351.937 77.6747C353.347 74.8793 353.732 68.0176 350.911 62.9349C348.988 59.3771 345.911 57.344 341.808 56.9628C329.114 55.8192 324.626 53.0237 324.37 45.7809C324.37 44.6373 324.754 43.1125 325.524 41.0794C327.447 36.7591 331.55 33.9636 336.294 33.7095C341.166 33.5824 345.526 36.1238 347.834 40.317C348.347 41.2065 347.962 42.3501 347.065 42.8583C346.167 43.3666 345.013 42.9854 344.5 42.0959C342.962 39.1734 339.884 37.3945 336.551 37.5215C333.217 37.6486 330.396 39.5546 329.114 42.6042C328.345 44.5102 328.216 45.2726 328.216 45.6538C328.345 48.9576 328.473 52.0072 342.192 53.2778C347.577 53.7861 351.809 56.4545 354.373 61.156C357.707 67.2552 357.579 75.5146 355.399 79.4537C353.732 82.6304 350.142 86.4424 344.757 87.9672C343.218 88.3484 341.808 88.4754 340.397 88.4754Z" fill="black"/>
<path d="M1053.66 514C1053.15 514 1052.52 513.744 1052.13 513.233C1051.5 512.466 1051.63 511.188 1052.39 510.548C1055.96 507.736 1116.48 459.798 1167.71 430.396C1135.98 423.748 1099.66 413.393 1062.33 402.4C1054.05 399.971 1042.58 396.391 1028.18 391.917C957.332 369.929 825.449 329.022 719.178 312.148C585.384 290.799 439.102 300.387 397.435 303.838C378.576 305.373 347.995 307.546 312.571 310.102C250.006 314.577 179.159 319.562 141.442 323.397C82.5722 329.278 2.93272 323.525 2.04076 323.397C1.02137 323.269 0.256836 322.375 0.256836 321.352C0.384259 320.329 1.27622 319.562 2.29561 319.562C3.06015 319.562 82.4448 325.443 141.059 319.562C178.777 315.727 249.751 310.742 312.189 306.267C347.612 303.711 378.194 301.537 397.053 300.003C438.847 296.552 585.384 287.092 719.688 308.441C826.214 325.443 958.224 366.35 1029.2 388.338C1043.6 392.812 1055.07 396.391 1063.22 398.82C1102.21 410.325 1139.93 421.064 1172.55 427.583C1191.41 417.101 1208.74 409.431 1220.97 408.152C1238.81 406.107 1245.31 410.07 1247.6 413.649C1249.26 416.334 1249.13 419.657 1247.09 422.853C1242 431.163 1225.43 438.833 1204.92 436.66C1195.1 435.637 1184.53 433.975 1173.31 431.674C1120.94 461.076 1055.45 512.849 1054.56 513.617C1054.43 513.872 1054.05 514 1053.66 514ZM1178.79 428.734C1188.22 430.523 1197.14 431.93 1205.55 432.824C1225.56 434.998 1240.08 427.072 1244.03 420.808C1244.93 419.402 1245.69 417.356 1244.54 415.567C1243.65 414.16 1239.45 409.942 1221.61 411.859C1210.9 413.138 1195.74 419.53 1178.79 428.734Z" fill="black"/>
</svg>
