<svg width="162" height="148" viewBox="0 0 162 148" fill="none" xmlns="http://www.w3.org/2000/svg">
<path fill-rule="evenodd" clip-rule="evenodd" d="M14.3355 51.9968C14.7511 51.3677 15.598 51.1946 16.2271 51.6102L25.6879 57.8599C26.317 58.2755 26.4901 59.1224 26.0745 59.7515C25.6589 60.3806 24.812 60.5537 24.1829 60.1381L14.7221 53.8884C14.093 53.4728 13.9199 52.6259 14.3355 51.9968Z" fill="white"/>
<path fill-rule="evenodd" clip-rule="evenodd" d="M8.5316 69.1623C8.64198 68.4164 9.33611 67.9012 10.082 68.0116L23.8552 70.0499C24.6011 70.1603 25.1162 70.8545 25.0058 71.6003C24.8955 72.3462 24.2013 72.8613 23.4555 72.751L9.68224 70.7126C8.93638 70.6022 8.42122 69.9081 8.5316 69.1623Z" fill="white"/>
<path fill-rule="evenodd" clip-rule="evenodd" d="M27.6327 82.6108C28.1745 83.1352 28.1885 83.9995 27.6641 84.5413L20.3975 92.0483C19.8731 92.59 19.0088 92.6041 18.467 92.0797C17.9253 91.5553 17.9112 90.691 18.4356 90.1492L25.7023 82.6422C26.2267 82.1005 27.091 82.0864 27.6327 82.6108Z" fill="white"/>
<path fill-rule="evenodd" clip-rule="evenodd" d="M139.394 46.6582C139.984 47.1276 140.082 47.9865 139.612 48.5765L133.064 56.8086C132.594 57.3986 131.735 57.4964 131.145 57.027C130.555 56.5576 130.457 55.6988 130.927 55.1087L137.476 46.8767C137.945 46.2866 138.804 46.1888 139.394 46.6582Z" fill="white"/>
<path fill-rule="evenodd" clip-rule="evenodd" d="M133.642 68.4472C133.658 67.6934 134.283 67.0956 135.036 67.112L149.978 67.4378C150.732 67.4543 151.33 68.0787 151.313 68.8325C151.297 69.5863 150.673 70.1841 149.919 70.1676L134.977 69.8418C134.223 69.8254 133.625 69.201 133.642 68.4472Z" fill="white"/>
<path fill-rule="evenodd" clip-rule="evenodd" d="M127.624 81.9397C127.953 81.2612 128.77 80.978 129.448 81.307L140.016 86.4314C140.694 86.7604 140.977 87.5771 140.648 88.2555C140.319 88.934 139.503 89.2172 138.824 88.8882L128.257 83.7638C127.579 83.4348 127.295 82.6181 127.624 81.9397Z" fill="white"/>
<path d="M62.0697 129.197L58.1858 91.2176L34.1539 68.6775L62.0697 129.197Z" fill="#95D5D2"/>
<path d="M94.0428 89.3199L61.7052 91.2912L65.2213 134.87L94.0428 89.3199Z" fill="#F67D6D"/>
<path d="M38.3469 61.7373L49.2836 47.1543L64.2806 68.5418L59.0174 87.2024L36.0562 65.8393L38.3469 61.7373Z" fill="#00CB77"/>
<path d="M120.351 81.995L70.5937 130.263L98.4509 88.5544L120.351 81.995Z" fill="#1CB0A8"/>
<path d="M105.195 49.7912C105.148 49.8173 105.101 49.846 105.056 49.8775L85.9294 65.3812L66.3777 66.8197L51.3543 45.4033L50.8215 44.8706L76.6064 39.6497L105.195 49.7912Z" fill="#EF4056"/>
<path fill-rule="evenodd" clip-rule="evenodd" d="M94.7289 86.3274L62.1695 88.3043L67.3975 69.529L86.2433 68.1312L94.7289 86.3274Z" fill="#FCB643"/>
<path d="M121.709 78.471L97.8596 85.8419L89.0693 67.036L108.01 51.54C108.01 51.54 120.131 75.4043 121.709 78.471Z" fill="#F9BFD1"/>
</svg>
