<svg width="130" height="122" viewBox="0 0 130 122" fill="none" xmlns="http://www.w3.org/2000/svg">
<path d="M60.1897 0H35.1997V121.38H60.1897V0Z" fill="#EF3A58"/>
<path d="M97.6799 0H72.6899V121.38H97.6799V0Z" fill="#F9BFD1"/>
<path d="M110.18 7.6499H97.6797V121.38H110.18V7.6499Z" fill="#82ECB7"/>
<path d="M35.2001 7.6499H15.8701V121.38H35.2001V7.6499Z" fill="#FBB54A"/>
<path d="M129.65 37.2598H110.32V121.38H129.65V37.2598Z" fill="#18AFA1"/>
<path d="M15.87 46.5H0V121.38H15.87V46.5Z" fill="#18AFA1"/>
<path d="M72.6899 23.8203H60.1899V121.38H72.6899V23.8203Z" fill="#95D5D2"/>
<path d="M39.1093 92.1519L37.5537 93.7075L54.0221 110.176L55.5777 108.62L39.1093 92.1519Z" fill="#221F1F"/>
<path d="M54.0606 92.1137L37.5923 108.582L39.1479 110.138L55.6163 93.6693L54.0606 92.1137Z" fill="#221F1F"/>
<path d="M94.7399 22.7197H75.6299V24.9197H94.7399V22.7197Z" fill="#221F1F"/>
<path d="M94.7399 27.4697H75.6299V29.6697H94.7399V27.4697Z" fill="#221F1F"/>
<path d="M117.52 110.36H115.32C115.32 106.67 117.41 104.8 119.26 103.15C120.98 101.61 122.46 100.28 122.46 97.58C122.46 94.88 120.98 93.55 119.26 92.01C117.41 90.36 115.32 88.49 115.32 84.8C115.32 81.12 117.41 79.25 119.26 77.6C120.98 76.06 122.46 74.74 122.46 72.04C122.46 69.34 120.98 68.01 119.26 66.47C117.41 64.82 115.32 62.95 115.32 59.26C115.32 55.58 117.41 53.71 119.26 52.06C120.98 50.52 122.46 49.2 122.46 46.5H124.66C124.66 50.18 122.57 52.05 120.72 53.7C119 55.24 117.52 56.56 117.52 59.26C117.52 61.96 119 63.29 120.72 64.83C122.57 66.48 124.66 68.35 124.66 72.04C124.66 75.72 122.57 77.59 120.72 79.24C119 80.78 117.52 82.1 117.52 84.8C117.52 87.5 119 88.83 120.72 90.37C122.57 92.02 124.66 93.89 124.66 97.58C124.66 101.27 122.57 103.14 120.72 104.79C119 106.33 117.52 107.66 117.52 110.36Z" fill="#221F1F"/>
</svg>
