<svg width="189" height="140" viewBox="0 0 189 140" fill="none" xmlns="http://www.w3.org/2000/svg">
<path d="M128.53 24.8301H22.9399V107.19H128.53V24.8301Z" fill="#EF3A58"/>
<path d="M105.59 56.1001H0V135.57H105.59V56.1001Z" fill="#F9BFD1"/>
<path d="M92.1101 75.7402H12.1201V77.9402H92.1101V75.7402Z" fill="#221F1F"/>
<path d="M92.1101 89.8604H12.1201V92.0604H92.1101V89.8604Z" fill="#221F1F"/>
<path d="M92.1102 72.0898H58.1802V81.1698H92.1102V72.0898Z" fill="#221F1F"/>
<path d="M92.1102 86.5H65.9302V95.43H92.1102V86.5Z" fill="#221F1F"/>
<path d="M188.747 131.547L143.309 86.1084L135.736 93.6814L181.174 139.12L188.747 131.547Z" fill="#18AFA1"/>
<path d="M110.32 112.45C139.27 110.15 162.05 85.9198 162.05 56.3598V56.1798C161.96 25.1898 136.81 0.0898438 105.79 0.0898438H105.74C101.87 0.0898438 98.1002 0.479797 94.4602 1.2298C92.1002 1.7098 89.8002 2.33985 87.5702 3.09985C86.5002 3.45985 85.4602 3.84985 84.4102 4.27985C83.3702 4.68985 82.3602 5.14984 81.3602 5.64984C80.7702 5.93984 80.1802 6.21984 79.6102 6.51984C79.0602 6.80984 78.5002 7.10981 77.9502 7.42981C77.4002 7.72981 76.8602 8.04983 76.3302 8.38983C60.3202 18.2598 49.6302 35.9499 49.5502 56.1599V56.3398C49.5502 60.4498 50.0002 64.4398 50.8202 68.2998C50.9302 68.8898 51.0702 69.4798 51.2302 70.0698C51.6102 71.5298 52.0302 72.9798 52.5202 74.3898C53.0702 76.0698 53.7302 77.7098 54.4502 79.3298C54.7402 79.9398 55.0202 80.5398 55.3102 81.1498C56.1802 82.9498 57.1702 84.6798 58.2602 86.3598C59.5102 88.3198 60.8802 90.1998 62.3502 91.9998C62.6702 92.3898 63.0102 92.7699 63.3302 93.1599C73.6102 105.08 88.8402 112.6 105.81 112.6C107.3 112.63 108.82 112.57 110.32 112.45ZM60.9802 56.3598V56.1798C61.0702 31.5298 81.0802 11.5698 105.75 11.5498C105.77 11.5498 105.77 11.5498 105.79 11.5498C130.55 11.5498 150.59 31.6099 150.59 56.3499C150.59 56.6899 150.59 57.0298 150.57 57.3698C150.03 81.2198 130.88 100.48 107.05 101.12C106.64 101.16 106.21 101.16 105.78 101.16C105.76 101.16 105.76 101.16 105.74 101.16C81.0202 101.15 60.9802 81.0798 60.9802 56.3598Z" fill="#82ECB7"/>
<path d="M60.9802 56.3599H49.4702V56.1799C49.5402 35.9699 60.2503 18.2499 76.3203 8.40991C76.8603 8.06991 77.3902 7.74989 77.9402 7.44989C78.4902 7.12989 79.0502 6.82986 79.6002 6.53986C80.1702 6.23986 80.7602 5.94986 81.3502 5.66986C82.3502 5.16986 83.3703 4.70987 84.4003 4.29987C85.4503 3.86987 86.4902 3.47987 87.5602 3.11987C89.7902 2.34987 92.0903 1.72988 94.4503 1.24988C98.0903 0.499878 101.86 0.109863 105.73 0.109863L105.75 11.5699C81.0802 11.5899 61.0702 31.5399 60.9802 56.1999V56.3599V56.3599Z" fill="#95D5D2"/>
<path d="M105.73 112.45C88.8102 112.45 73.6302 104.97 63.3002 93.1899C62.9802 92.7999 62.6402 92.42 62.3202 92.03C60.8602 90.23 59.4802 88.35 58.2302 86.39C57.1602 84.71 56.1802 82.9599 55.2802 81.1799C54.9902 80.5699 54.7102 79.9699 54.4202 79.3599C53.7102 77.7399 53.0502 76.0899 52.4902 74.4199C52.0102 73.0099 51.5802 71.56 51.2002 70.1C51.0402 69.51 50.9002 68.92 50.7902 68.33C49.9202 64.47 49.4702 60.4799 49.4502 56.3699V56.1899H60.9602V56.3699C60.9602 81.0899 81.0102 101.16 105.73 101.17V112.45Z" fill="#18AFA1"/>
<path d="M105.66 0C122.58 0 137.76 7.48001 148.09 19.26C148.41 19.65 148.75 20.03 149.07 20.42C150.53 22.22 151.91 24.1 153.16 26.06C154.23 27.74 155.21 29.49 156.11 31.27C156.4 31.88 156.68 32.48 156.97 33.09C157.68 34.71 158.34 36.36 158.9 38.03C159.38 39.44 159.81 40.89 160.19 42.35C160.35 42.94 160.49 43.53 160.6 44.12C161.47 47.98 161.92 51.97 161.94 56.08V56.26H150.43V56.08C150.43 31.36 130.38 11.29 105.66 11.28V0Z" fill="#18AFA1"/>
</svg>
