<svg width="142" height="81" viewBox="0 0 142 81" fill="none" xmlns="http://www.w3.org/2000/svg">
<path d="M141.67 59.2002H0V61.4002H141.67V59.2002Z" fill="white"/>
<path d="M92.7703 40H56.8804V42.2H92.7703V40Z" fill="white"/>
<path d="M92.7703 20.7998H56.8804V22.9998H92.7703V20.7998Z" fill="white"/>
<path d="M141.67 78.4004H0V80.6004H141.67V78.4004Z" fill="white"/>
<path d="M141.67 1.6001H56.8804V3.80008H141.67V1.6001Z" fill="white"/>
<path d="M46.95 0H0V46.95H46.95V0Z" fill="#82ECB7"/>
<path d="M0 0H46.95V46.95L0 0Z" fill="#95D5D2"/>
<path d="M46.95 0V46.95L24.25 24.24L46.95 0Z" fill="#EF3A58"/>
<path d="M0 0V46.95L24.25 24.24L0 0Z" fill="#FBB54A"/>
<path d="M128.9 47.2602L127.46 42.9901H114.84L113.4 47.2602H107.59L119.2 13.6602H123.09L134.7 47.2602H128.9ZM121.17 22.8301L116.51 38.0402H125.77L121.17 22.8301Z" fill="#EF3A58"/>
</svg>
