<svg width="144" height="115" viewBox="0 0 144 115" fill="none" xmlns="http://www.w3.org/2000/svg">
<path fill-rule="evenodd" clip-rule="evenodd" d="M6.3355 31.9973C6.75109 31.3682 7.59798 31.1951 8.2271 31.6107L17.6879 37.8604C18.317 38.276 18.4901 39.1229 18.0745 39.752C17.6589 40.3811 16.812 40.5542 16.1829 40.1386L6.72213 33.8889C6.09301 33.4733 5.91991 32.6264 6.3355 31.9973Z" fill="#1A1A1A"/>
<path fill-rule="evenodd" clip-rule="evenodd" d="M0.531354 49.1623C0.641737 48.4164 1.33586 47.9012 2.08173 48.0116L15.855 50.0499C16.6008 50.1603 17.116 50.8545 17.0056 51.6003C16.8952 52.3462 16.2011 52.8613 15.4552 52.751L1.682 50.7126C0.936132 50.6022 0.420972 49.9081 0.531354 49.1623Z" fill="#1A1A1A"/>
<path fill-rule="evenodd" clip-rule="evenodd" d="M19.6326 62.6113C20.1743 63.1357 20.1884 64 19.664 64.5418L12.3973 72.0488C11.8729 72.5905 11.0086 72.6046 10.4669 72.0802C9.92514 71.5558 9.91108 70.6915 10.4355 70.1497L17.7021 62.6427C18.2265 62.101 19.0908 62.0869 19.6326 62.6113Z" fill="#1A1A1A"/>
<path fill-rule="evenodd" clip-rule="evenodd" d="M131.394 26.6582C131.984 27.1276 132.082 27.9865 131.612 28.5765L125.064 36.8086C124.594 37.3986 123.735 37.4964 123.145 37.027C122.555 36.5576 122.457 35.6988 122.927 35.1087L129.475 26.8767C129.945 26.2866 130.804 26.1888 131.394 26.6582Z" fill="#1A1A1A"/>
<path fill-rule="evenodd" clip-rule="evenodd" d="M125.641 48.4477C125.658 47.6939 126.282 47.0961 127.036 47.1125L141.978 47.4383C142.732 47.4548 143.329 48.0792 143.313 48.833C143.297 49.5868 142.672 50.1846 141.918 50.1681L126.976 49.8423C126.223 49.8259 125.625 49.2015 125.641 48.4477Z" fill="#1A1A1A"/>
<path fill-rule="evenodd" clip-rule="evenodd" d="M119.624 61.9397C119.953 61.2612 120.77 60.978 121.448 61.307L132.015 66.4314C132.694 66.7604 132.977 67.5771 132.648 68.2555C132.319 68.934 131.502 69.2172 130.824 68.8882L120.257 63.7638C119.578 63.4348 119.295 62.6181 119.624 61.9397Z" fill="#1A1A1A"/>
<path d="M54.07 109.197L50.186 71.2176L26.1542 48.6775L54.07 109.197Z" fill="#95D5D2"/>
<path d="M86.0431 69.3199L53.7054 71.2912L57.2215 114.87L86.0431 69.3199Z" fill="#F67D6D"/>
<path d="M30.3471 41.7373L41.2838 27.1543L56.2808 48.5418L51.0176 67.2024L28.0564 45.8393L30.3471 41.7373Z" fill="#00CB77"/>
<path d="M112.351 61.995L62.5939 110.263L90.4511 68.5544L112.351 61.995Z" fill="#1CB0A8"/>
<path d="M97.1955 29.7912C97.1482 29.8173 97.1016 29.846 97.056 29.8775L77.9297 45.3812L58.3779 46.8197L43.3545 25.4033L42.8218 24.8706L68.6066 19.6497L97.1955 29.7912Z" fill="#EF4056"/>
<path fill-rule="evenodd" clip-rule="evenodd" d="M86.7291 66.3274L54.1698 68.3043L59.3978 49.529L78.2435 48.1312L86.7291 66.3274Z" fill="#FCB643"/>
<path d="M113.709 58.471L89.8598 65.8419L81.0696 47.036L100.01 31.54C100.01 31.54 112.131 55.4043 113.709 58.471Z" fill="#F9BFD1"/>
</svg>
