<svg width="223" height="125" viewBox="0 0 223 125" fill="none" xmlns="http://www.w3.org/2000/svg">
<path d="M0 32.3599L184.97 62.3199H0V32.3599Z" fill="#FBB54A"/>
<path d="M0 0V32.36L184.97 62.32L0 0Z" fill="#EF3A58"/>
<path d="M0 43.54V23.27L184.97 62.32L0 43.54Z" fill="#F9BFD1"/>
<path d="M0 92.3101L184.97 62.3501H0V92.3101Z" fill="#82ECB7"/>
<path d="M0 124.68V92.3101L184.97 62.3501L0 124.68Z" fill="#18AFA1"/>
<path d="M0 79.5801V99.1701L184.97 62.3501L0 79.5801Z" fill="#95D5D2"/>
<path d="M180.28 63.4498H0V61.2498H180.28C184.06 61.2498 221.61 60.5798 221.99 60.5698L222.03 62.7698C221.65 62.7798 184.08 63.4498 180.28 63.4498Z" fill="#221F1F"/>
</svg>
