<svg width="129" height="100" viewBox="0 0 129 100" fill="none" xmlns="http://www.w3.org/2000/svg">
<path d="M35.8365 22.1699L22.2165 9.7099C18.2665 6.0999 12.7365 5.5099 8.11646 8.2199C3.49646 10.9299 1.30648 16.0399 2.53648 21.2499L0.396461 21.7499C-1.05354 15.5799 1.54648 9.5299 7.00648 6.3199C12.4765 3.1199 19.0265 3.8099 23.6965 8.0899L37.3165 20.5499L35.8365 22.1699Z" fill="#221F1F"/>
<path d="M128.117 41.8902L48.5465 42.0802L48.4465 0.180176" fill="#EF3A58"/>
<path d="M48.4465 0.18L128.027 0L128.117 41.89" fill="#95D5D2"/>
<path d="M48.5465 42.0802L23.8765 21.1902L48.4465 0.180176L48.5465 42.0802Z" fill="#FBB54A"/>
<path d="M38.3965 25.7698C40.948 25.7698 43.0165 23.7013 43.0165 21.1498C43.0165 18.5982 40.948 16.5298 38.3965 16.5298C35.8449 16.5298 33.7765 18.5982 33.7765 21.1498C33.7765 23.7013 35.8449 25.7698 38.3965 25.7698Z" fill="white"/>
<path d="M0.536621 56.8496L80.1066 57.5796L79.7266 99.4696" fill="#82ECB7"/>
<path d="M79.7265 99.4696L0.146484 98.7396L0.536499 56.8496" fill="#FBB54A"/>
<path d="M112.427 89.9097C110.147 89.9097 107.887 89.3496 105.797 88.2396L89.4966 79.5797L90.5266 77.6396L106.827 86.2997C110.117 88.0497 113.957 88.1697 117.357 86.6297C120.757 85.0897 123.197 82.1196 124.047 78.4896L126.187 78.9896C125.177 83.2896 122.287 86.8097 118.267 88.6297C116.397 89.4897 114.407 89.9097 112.427 89.9097Z" fill="#221F1F"/>
<path d="M80.1066 57.5801L104.527 78.7501L79.7266 99.4701L80.1066 57.5801Z" fill="#EF3A58"/>
<path d="M90.0165 83.2302C92.5681 83.2302 94.6365 81.1618 94.6365 78.6102C94.6365 76.0587 92.5681 73.9902 90.0165 73.9902C87.465 73.9902 85.3965 76.0587 85.3965 78.6102C85.3965 81.1618 87.465 83.2302 90.0165 83.2302Z" fill="white"/>
<path d="M90.7566 79.4199L89.2666 77.7999L102.887 65.3399C107.567 61.0599 114.117 60.3699 119.577 63.5699C125.047 66.7699 127.637 72.8299 126.187 78.9999L124.047 78.4999C125.267 73.2899 123.077 68.1799 118.467 65.4699C113.857 62.7599 108.317 63.3499 104.377 66.9599L90.7566 79.4199Z" fill="#221F1F"/>
<path d="M14.1765 32.6599C12.1965 32.6599 10.2065 32.2399 8.33649 31.3899C4.31649 29.5699 1.4265 26.0499 0.416504 21.7499L2.55649 21.2499C3.40649 24.8799 5.84649 27.8499 9.24649 29.3899C12.6465 30.9299 16.4865 30.8099 19.7765 29.0599L36.0765 20.3999L37.1065 22.3399L20.8065 30.9999C18.7165 32.1099 16.4465 32.6599 14.1765 32.6599Z" fill="#221F1F"/>
</svg>
